  0
SECTION
  2
HEADER
  9
$ACADVER
  1
AC1014
  9
$HANDSEED
  5
FFFF
  9
$MEASUREMENT
 70
     1
  0
ENDSEC
  0
SECTION
  2
TABLES
  0
TABLE
  2
VPORT
  5
8
330
0
100
AcDbSymbolTable
 70
     4
  0
VPORT
  5
2E
330
8
100
AcDbSymbolTableRecord
100
AcDbViewportTableRecord
  2
*ACTIVE
 70
     0
 10
0.0
 20
0.0
 11
1.0
 21
1.0
 12
210.0
 22
148.5
 13
0.0
 23
0.0
 14
10.0
 24
10.0
 15
10.0
 25
10.0
 16
0.0
 26
0.0
 36
1.0
 17
0.0
 27
0.0
 37
0.0
 40
341.0
 41
1.24
 42
50.0
 43
0.0
 44
0.0
 50
0.0
 51
0.0
 71
     0
 72
   100
 73
     1
 74
     3
 75
     0
 76
     0
 77
     0
 78
     0
  0
ENDTAB
  0
TABLE
  2
LTYPE
  5
5
330
0
100
AcDbSymbolTable
 70
     1
  0
LTYPE
  5
14
330
5
100
AcDbSymbolTableRecord
100
AcDbLinetypeTableRecord
  2
BYBLOCK
 70
     0
  3

 72
    65
 73
     0
 40
0.0
  0
LTYPE
  5
15
330
5
100
AcDbSymbolTableRecord
100
AcDbLinetypeTableRecord
  2
BYLAYER
 70
     0
  3

 72
    65
 73
     0
 40
0.0
  0
LTYPE
  5
16
330
5
100
AcDbSymbolTableRecord
100
AcDbLinetypeTableRecord
  2
CONTINUOUS
 70
     0
  3
Solid line
 72
    65
 73
     0
 40
0.0
  0
ENDTAB
  0
TABLE
  2
LAYER
  5
2
100
AcDbSymbolTable
 70
3
  0
LAYER
  5
50
100
AcDbSymbolTableRecord
100
AcDbLayerTableRecord
  2
0
 70
0
  6
CONTINUOUS
  0
LAYER
  5
51
100
AcDbSymbolTableRecord
100
AcDbLayerTableRecord
  2
Layer_1
 70
0
  6
CONTINUOUS
  0
LAYER
  5
52
100
AcDbSymbolTableRecord
100
AcDbLayerTableRecord
  2
newlayer
 70
0
  6
CONTINUOUS
  0
ENDTAB
  0
TABLE
  2
STYLE
  5
3
330
0
100
AcDbSymbolTable
 70
     1
  0
STYLE
  5
11
330
3
100
AcDbSymbolTableRecord
100
AcDbTextStyleTableRecord
  2
STANDARD
 70
     0
 40
0.0
 41
1.0
 50
0.0
 71
     0
 42
2.5
  3
txt
  4

  0
ENDTAB
  0
TABLE
  2
VIEW
  5
6
330
0
100
AcDbSymbolTable
 70
     0
  0
ENDTAB
  0
TABLE
  2
UCS
  5
7
330
0
100
AcDbSymbolTable
 70
     0
  0
ENDTAB
  0
TABLE
  2
APPID
  5
9
330
0
100
AcDbSymbolTable
 70
     2
  0
APPID
  5
12
330
9
100
AcDbSymbolTableRecord
100
AcDbRegAppTableRecord
  2
ACAD
 70
     0
  0
ENDTAB
  0
TABLE
  2
DIMSTYLE
  5
A
330
0
100
AcDbSymbolTable
 70
     1
  0
DIMSTYLE
105
27
330
A
100
AcDbSymbolTableRecord
100
AcDbDimStyleTableRecord
  2
ISO-25
 70
     0
  3

  4

  5

  6

  7

 40
1.0
 41
2.5
 42
0.625
 43
3.75
 44
1.25
 45
0.0
 46
0.0
 47
0.0
 48
0.0
140
2.5
141
2.5
142
0.0
143
0.03937007874016
144
1.0
145
0.0
146
1.0
147
0.625
 71
     0
 72
     0
 73
     0
 74
     0
 75
     0
 76
     0
 77
     1
 78
     8
170
     0
171
     3
172
     1
173
     0
174
     0
175
     0
176
     0
177
     0
178
     0
270
     2
271
     2
272
     2
273
     2
274
     3
340
11
275
     0
280
     0
281
     0
282
     0
283
     0
284
     8
285
     0
286
     0
287
     3
288
     0
  0
ENDTAB
  0
TABLE
  2
BLOCK_RECORD
  5
1
330
0
100
AcDbSymbolTable
 70
     1
  0
BLOCK_RECORD
  5
1F
330
1
100
AcDbSymbolTableRecord
100
AcDbBlockTableRecord
  2
*MODEL_SPACE
  0
BLOCK_RECORD
  5
1B
330
1
100
AcDbSymbolTableRecord
100
AcDbBlockTableRecord
  2
*PAPER_SPACE
  0
ENDTAB
  0
ENDSEC
  0
SECTION
  2
BLOCKS
  0
BLOCK
  5
20
330
1F
100
AcDbEntity
  8
0
100
AcDbBlockBegin
  2
*MODEL_SPACE
 70
     0
 10
0.0
 20
0.0
 30
0.0
  3
*MODEL_SPACE
  1

  0
ENDBLK
  5
21
330
1F
100
AcDbEntity
  8
0
100
AcDbBlockEnd
  0
BLOCK
  5
1C
330
1B
100
AcDbEntity
 67
     1
  8
0
100
AcDbBlockBegin
  2
*PAPER_SPACE
  1

  0
ENDBLK
  5
1D
330
1B
100
AcDbEntity
 67
     1
  8
0
100
AcDbBlockEnd
  0
ENDSEC
  0
SECTION
  2
ENTITIES
  0
LWPOLYLINE
  5
100
100
AcDbEntity
  8
Layer_1
 62
7
100
AcDbPolyline
 90
109
 70
0
 10
308.000000
 20
-621.000000
 30
0.0
 10
334.823529
 20
-621.000000
 30
0.0
 10
334.823529
 20
-618.000000
 30
0.0
 10
361.647059
 20
-618.000000
 30
0.0
 10
361.647059
 20
-621.000000
 30
0.0
 10
388.470588
 20
-621.000000
 30
0.0
 10
388.470588
 20
-618.000000
 30
0.0
 10
415.294118
 20
-618.000000
 30
0.0
 10
415.294118
 20
-621.000000
 30
0.0
 10
442.117647
 20
-621.000000
 30
0.0
 10
442.117647
 20
-618.000000
 30
0.0
 10
468.941176
 20
-618.000000
 30
0.0
 10
468.941176
 20
-621.000000
 30
0.0
 10
495.764706
 20
-621.000000
 30
0.0
 10
495.764706
 20
-618.000000
 30
0.0
 10
522.588235
 20
-618.000000
 30
0.0
 10
522.588235
 20
-621.000000
 30
0.0
 10
549.411765
 20
-621.000000
 30
0.0
 10
549.411765
 20
-618.000000
 30
0.0
 10
576.235294
 20
-618.000000
 30
0.0
 10
576.235294
 20
-621.000000
 30
0.0
 10
603.058824
 20
-621.000000
 30
0.0
 10
603.058824
 20
-618.000000
 30
0.0
 10
629.882353
 20
-618.000000
 30
0.0
 10
629.882353
 20
-621.000000
 30
0.0
 10
656.705882
 20
-621.000000
 30
0.0
 10
656.705882
 20
-618.000000
 30
0.0
 10
683.529412
 20
-618.000000
 30
0.0
 10
683.529412
 20
-621.000000
 30
0.0
 10
710.352941
 20
-621.000000
 30
0.0
 10
710.352941
 20
-618.000000
 30
0.0
 10
737.176471
 20
-618.000000
 30
0.0
 10
737.176471
 20
-621.000000
 30
0.0
 10
764.000000
 20
-621.000000
 30
0.0
 10
764.000000
 20
-645.818182
 30
0.0
 10
761.000000
 20
-645.818182
 30
0.0
 10
761.000000
 20
-673.636364
 30
0.0
 10
764.000000
 20
-673.636364
 30
0.0
 10
764.000000
 20
-701.454545
 30
0.0
 10
761.000000
 20
-701.454545
 30
0.0
 10
761.000000
 20
-729.272727
 30
0.0
 10
764.000000
 20
-729.272727
 30
0.0
 10
764.000000
 20
-757.090909
 30
0.0
 10
761.000000
 20
-757.090909
 30
0.0
 10
761.000000
 20
-784.909091
 30
0.0
 10
764.000000
 20
-784.909091
 30
0.0
 10
764.000000
 20
-812.727273
 30
0.0
 10
761.000000
 20
-812.727273
 30
0.0
 10
761.000000
 20
-840.545455
 30
0.0
 10
764.000000
 20
-840.545455
 30
0.0
 10
764.000000
 20
-868.363636
 30
0.0
 10
761.000000
 20
-868.363636
 30
0.0
 10
761.000000
 20
-896.181818
 30
0.0
 10
764.000000
 20
-896.181818
 30
0.0
 10
764.000000
 20
-921.000000
 30
0.0
 10
737.176471
 20
-921.000000
 30
0.0
 10
737.176471
 20
-924.000000
 30
0.0
 10
710.352941
 20
-924.000000
 30
0.0
 10
710.352941
 20
-921.000000
 30
0.0
 10
683.529412
 20
-921.000000
 30
0.0
 10
683.529412
 20
-924.000000
 30
0.0
 10
656.705882
 20
-924.000000
 30
0.0
 10
656.705882
 20
-921.000000
 30
0.0
 10
629.882353
 20
-921.000000
 30
0.0
 10
629.882353
 20
-924.000000
 30
0.0
 10
603.058824
 20
-924.000000
 30
0.0
 10
603.058824
 20
-921.000000
 30
0.0
 10
576.235294
 20
-921.000000
 30
0.0
 10
576.235294
 20
-924.000000
 30
0.0
 10
549.411765
 20
-924.000000
 30
0.0
 10
549.411765
 20
-921.000000
 30
0.0
 10
522.588235
 20
-921.000000
 30
0.0
 10
522.588235
 20
-924.000000
 30
0.0
 10
495.764706
 20
-924.000000
 30
0.0
 10
495.764706
 20
-921.000000
 30
0.0
 10
468.941176
 20
-921.000000
 30
0.0
 10
468.941176
 20
-924.000000
 30
0.0
 10
442.117647
 20
-924.000000
 30
0.0
 10
442.117647
 20
-921.000000
 30
0.0
 10
415.294118
 20
-921.000000
 30
0.0
 10
415.294118
 20
-924.000000
 30
0.0
 10
388.470588
 20
-924.000000
 30
0.0
 10
388.470588
 20
-921.000000
 30
0.0
 10
361.647059
 20
-921.000000
 30
0.0
 10
361.647059
 20
-924.000000
 30
0.0
 10
334.823529
 20
-924.000000
 30
0.0
 10
334.823529
 20
-921.000000
 30
0.0
 10
308.000000
 20
-921.000000
 30
0.0
 10
308.000000
 20
-896.181818
 30
0.0
 10
311.000000
 20
-896.181818
 30
0.0
 10
311.000000
 20
-868.363636
 30
0.0
 10
308.000000
 20
-868.363636
 30
0.0
 10
308.000000
 20
-840.545455
 30
0.0
 10
311.000000
 20
-840.545455
 30
0.0
 10
311.000000
 20
-812.727273
 30
0.0
 10
308.000000
 20
-812.727273
 30
0.0
 10
308.000000
 20
-784.909091
 30
0.0
 10
311.000000
 20
-784.909091
 30
0.0
 10
311.000000
 20
-757.090909
 30
0.0
 10
308.000000
 20
-757.090909
 30
0.0
 10
308.000000
 20
-729.272727
 30
0.0
 10
311.000000
 20
-729.272727
 30
0.0
 10
311.000000
 20
-701.454545
 30
0.0
 10
308.000000
 20
-701.454545
 30
0.0
 10
308.000000
 20
-673.636364
 30
0.0
 10
311.000000
 20
-673.636364
 30
0.0
 10
311.000000
 20
-645.818182
 30
0.0
 10
308.000000
 20
-645.818182
 30
0.0
 10
308.000000
 20
-621.000000
 30
0.0
  0
LWPOLYLINE
  5
101
100
AcDbEntity
  8
Layer_1
 62
7
100
AcDbPolyline
 90
109
 70
0
 10
0.000000
 20
-928.000000
 30
0.0
 10
26.823529
 20
-928.000000
 30
0.0
 10
26.823529
 20
-925.000000
 30
0.0
 10
53.647059
 20
-925.000000
 30
0.0
 10
53.647059
 20
-928.000000
 30
0.0
 10
80.470588
 20
-928.000000
 30
0.0
 10
80.470588
 20
-925.000000
 30
0.0
 10
107.294118
 20
-925.000000
 30
0.0
 10
107.294118
 20
-928.000000
 30
0.0
 10
134.117647
 20
-928.000000
 30
0.0
 10
134.117647
 20
-925.000000
 30
0.0
 10
160.941176
 20
-925.000000
 30
0.0
 10
160.941176
 20
-928.000000
 30
0.0
 10
187.764706
 20
-928.000000
 30
0.0
 10
187.764706
 20
-925.000000
 30
0.0
 10
214.588235
 20
-925.000000
 30
0.0
 10
214.588235
 20
-928.000000
 30
0.0
 10
241.411765
 20
-928.000000
 30
0.0
 10
241.411765
 20
-925.000000
 30
0.0
 10
268.235294
 20
-925.000000
 30
0.0
 10
268.235294
 20
-928.000000
 30
0.0
 10
295.058824
 20
-928.000000
 30
0.0
 10
295.058824
 20
-925.000000
 30
0.0
 10
321.882353
 20
-925.000000
 30
0.0
 10
321.882353
 20
-928.000000
 30
0.0
 10
348.705882
 20
-928.000000
 30
0.0
 10
348.705882
 20
-925.000000
 30
0.0
 10
375.529412
 20
-925.000000
 30
0.0
 10
375.529412
 20
-928.000000
 30
0.0
 10
402.352941
 20
-928.000000
 30
0.0
 10
402.352941
 20
-925.000000
 30
0.0
 10
429.176471
 20
-925.000000
 30
0.0
 10
429.176471
 20
-928.000000
 30
0.0
 10
456.000000
 20
-928.000000
 30
0.0
 10
456.000000
 20
-952.818182
 30
0.0
 10
453.000000
 20
-952.818182
 30
0.0
 10
453.000000
 20
-980.636364
 30
0.0
 10
456.000000
 20
-980.636364
 30
0.0
 10
456.000000
 20
-1008.454545
 30
0.0
 10
453.000000
 20
-1008.454545
 30
0.0
 10
453.000000
 20
-1036.272727
 30
0.0
 10
456.000000
 20
-1036.272727
 30
0.0
 10
456.000000
 20
-1064.090909
 30
0.0
 10
453.000000
 20
-1064.090909
 30
0.0
 10
453.000000
 20
-1091.909091
 30
0.0
 10
456.000000
 20
-1091.909091
 30
0.0
 10
456.000000
 20
-1119.727273
 30
0.0
 10
453.000000
 20
-1119.727273
 30
0.0
 10
453.000000
 20
-1147.545455
 30
0.0
 10
456.000000
 20
-1147.545455
 30
0.0
 10
456.000000
 20
-1175.363636
 30
0.0
 10
453.000000
 20
-1175.363636
 30
0.0
 10
453.000000
 20
-1203.181818
 30
0.0
 10
456.000000
 20
-1203.181818
 30
0.0
 10
456.000000
 20
-1228.000000
 30
0.0
 10
429.176471
 20
-1228.000000
 30
0.0
 10
429.176471
 20
-1231.000000
 30
0.0
 10
402.352941
 20
-1231.000000
 30
0.0
 10
402.352941
 20
-1228.000000
 30
0.0
 10
375.529412
 20
-1228.000000
 30
0.0
 10
375.529412
 20
-1231.000000
 30
0.0
 10
348.705882
 20
-1231.000000
 30
0.0
 10
348.705882
 20
-1228.000000
 30
0.0
 10
321.882353
 20
-1228.000000
 30
0.0
 10
321.882353
 20
-1231.000000
 30
0.0
 10
295.058824
 20
-1231.000000
 30
0.0
 10
295.058824
 20
-1228.000000
 30
0.0
 10
268.235294
 20
-1228.000000
 30
0.0
 10
268.235294
 20
-1231.000000
 30
0.0
 10
241.411765
 20
-1231.000000
 30
0.0
 10
241.411765
 20
-1228.000000
 30
0.0
 10
214.588235
 20
-1228.000000
 30
0.0
 10
214.588235
 20
-1231.000000
 30
0.0
 10
187.764706
 20
-1231.000000
 30
0.0
 10
187.764706
 20
-1228.000000
 30
0.0
 10
160.941176
 20
-1228.000000
 30
0.0
 10
160.941176
 20
-1231.000000
 30
0.0
 10
134.117647
 20
-1231.000000
 30
0.0
 10
134.117647
 20
-1228.000000
 30
0.0
 10
107.294118
 20
-1228.000000
 30
0.0
 10
107.294118
 20
-1231.000000
 30
0.0
 10
80.470588
 20
-1231.000000
 30
0.0
 10
80.470588
 20
-1228.000000
 30
0.0
 10
53.647059
 20
-1228.000000
 30
0.0
 10
53.647059
 20
-1231.000000
 30
0.0
 10
26.823529
 20
-1231.000000
 30
0.0
 10
26.823529
 20
-1228.000000
 30
0.0
 10
0.000000
 20
-1228.000000
 30
0.0
 10
0.000000
 20
-1203.181818
 30
0.0
 10
3.000000
 20
-1203.181818
 30
0.0
 10
3.000000
 20
-1175.363636
 30
0.0
 10
0.000000
 20
-1175.363636
 30
0.0
 10
0.000000
 20
-1147.545455
 30
0.0
 10
3.000000
 20
-1147.545455
 30
0.0
 10
3.000000
 20
-1119.727273
 30
0.0
 10
0.000000
 20
-1119.727273
 30
0.0
 10
0.000000
 20
-1091.909091
 30
0.0
 10
3.000000
 20
-1091.909091
 30
0.0
 10
3.000000
 20
-1064.090909
 30
0.0
 10
0.000000
 20
-1064.090909
 30
0.0
 10
0.000000
 20
-1036.272727
 30
0.0
 10
3.000000
 20
-1036.272727
 30
0.0
 10
3.000000
 20
-1008.454545
 30
0.0
 10
0.000000
 20
-1008.454545
 30
0.0
 10
0.000000
 20
-980.636364
 30
0.0
 10
3.000000
 20
-980.636364
 30
0.0
 10
3.000000
 20
-952.818182
 30
0.0
 10
0.000000
 20
-952.818182
 30
0.0
 10
0.000000
 20
-928.000000
 30
0.0
  0
LWPOLYLINE
  5
102
100
AcDbEntity
  8
Layer_1
 62
7
100
AcDbPolyline
 90
109
 70
0
 10
457.000000
 20
-928.000000
 30
0.0
 10
483.823529
 20
-928.000000
 30
0.0
 10
483.823529
 20
-925.000000
 30
0.0
 10
510.647059
 20
-925.000000
 30
0.0
 10
510.647059
 20
-928.000000
 30
0.0
 10
537.470588
 20
-928.000000
 30
0.0
 10
537.470588
 20
-925.000000
 30
0.0
 10
564.294118
 20
-925.000000
 30
0.0
 10
564.294118
 20
-928.000000
 30
0.0
 10
591.117647
 20
-928.000000
 30
0.0
 10
591.117647
 20
-925.000000
 30
0.0
 10
617.941176
 20
-925.000000
 30
0.0
 10
617.941176
 20
-928.000000
 30
0.0
 10
644.764706
 20
-928.000000
 30
0.0
 10
644.764706
 20
-925.000000
 30
0.0
 10
671.588235
 20
-925.000000
 30
0.0
 10
671.588235
 20
-928.000000
 30
0.0
 10
698.411765
 20
-928.000000
 30
0.0
 10
698.411765
 20
-925.000000
 30
0.0
 10
725.235294
 20
-925.000000
 30
0.0
 10
725.235294
 20
-928.000000
 30
0.0
 10
752.058824
 20
-928.000000
 30
0.0
 10
752.058824
 20
-925.000000
 30
0.0
 10
778.882353
 20
-925.000000
 30
0.0
 10
778.882353
 20
-928.000000
 30
0.0
 10
805.705882
 20
-928.000000
 30
0.0
 10
805.705882
 20
-925.000000
 30
0.0
 10
832.529412
 20
-925.000000
 30
0.0
 10
832.529412
 20
-928.000000
 30
0.0
 10
859.352941
 20
-928.000000
 30
0.0
 10
859.352941
 20
-925.000000
 30
0.0
 10
886.176471
 20
-925.000000
 30
0.0
 10
886.176471
 20
-928.000000
 30
0.0
 10
913.000000
 20
-928.000000
 30
0.0
 10
913.000000
 20
-952.818182
 30
0.0
 10
910.000000
 20
-952.818182
 30
0.0
 10
910.000000
 20
-980.636364
 30
0.0
 10
913.000000
 20
-980.636364
 30
0.0
 10
913.000000
 20
-1008.454545
 30
0.0
 10
910.000000
 20
-1008.454545
 30
0.0
 10
910.000000
 20
-1036.272727
 30
0.0
 10
913.000000
 20
-1036.272727
 30
0.0
 10
913.000000
 20
-1064.090909
 30
0.0
 10
910.000000
 20
-1064.090909
 30
0.0
 10
910.000000
 20
-1091.909091
 30
0.0
 10
913.000000
 20
-1091.909091
 30
0.0
 10
913.000000
 20
-1119.727273
 30
0.0
 10
910.000000
 20
-1119.727273
 30
0.0
 10
910.000000
 20
-1147.545455
 30
0.0
 10
913.000000
 20
-1147.545455
 30
0.0
 10
913.000000
 20
-1175.363636
 30
0.0
 10
910.000000
 20
-1175.363636
 30
0.0
 10
910.000000
 20
-1203.181818
 30
0.0
 10
913.000000
 20
-1203.181818
 30
0.0
 10
913.000000
 20
-1228.000000
 30
0.0
 10
886.176471
 20
-1228.000000
 30
0.0
 10
886.176471
 20
-1231.000000
 30
0.0
 10
859.352941
 20
-1231.000000
 30
0.0
 10
859.352941
 20
-1228.000000
 30
0.0
 10
832.529412
 20
-1228.000000
 30
0.0
 10
832.529412
 20
-1231.000000
 30
0.0
 10
805.705882
 20
-1231.000000
 30
0.0
 10
805.705882
 20
-1228.000000
 30
0.0
 10
778.882353
 20
-1228.000000
 30
0.0
 10
778.882353
 20
-1231.000000
 30
0.0
 10
752.058824
 20
-1231.000000
 30
0.0
 10
752.058824
 20
-1228.000000
 30
0.0
 10
725.235294
 20
-1228.000000
 30
0.0
 10
725.235294
 20
-1231.000000
 30
0.0
 10
698.411765
 20
-1231.000000
 30
0.0
 10
698.411765
 20
-1228.000000
 30
0.0
 10
671.588235
 20
-1228.000000
 30
0.0
 10
671.588235
 20
-1231.000000
 30
0.0
 10
644.764706
 20
-1231.000000
 30
0.0
 10
644.764706
 20
-1228.000000
 30
0.0
 10
617.941176
 20
-1228.000000
 30
0.0
 10
617.941176
 20
-1231.000000
 30
0.0
 10
591.117647
 20
-1231.000000
 30
0.0
 10
591.117647
 20
-1228.000000
 30
0.0
 10
564.294118
 20
-1228.000000
 30
0.0
 10
564.294118
 20
-1231.000000
 30
0.0
 10
537.470588
 20
-1231.000000
 30
0.0
 10
537.470588
 20
-1228.000000
 30
0.0
 10
510.647059
 20
-1228.000000
 30
0.0
 10
510.647059
 20
-1231.000000
 30
0.0
 10
483.823529
 20
-1231.000000
 30
0.0
 10
483.823529
 20
-1228.000000
 30
0.0
 10
457.000000
 20
-1228.000000
 30
0.0
 10
457.000000
 20
-1203.181818
 30
0.0
 10
460.000000
 20
-1203.181818
 30
0.0
 10
460.000000
 20
-1175.363636
 30
0.0
 10
457.000000
 20
-1175.363636
 30
0.0
 10
457.000000
 20
-1147.545455
 30
0.0
 10
460.000000
 20
-1147.545455
 30
0.0
 10
460.000000
 20
-1119.727273
 30
0.0
 10
457.000000
 20
-1119.727273
 30
0.0
 10
457.000000
 20
-1091.909091
 30
0.0
 10
460.000000
 20
-1091.909091
 30
0.0
 10
460.000000
 20
-1064.090909
 30
0.0
 10
457.000000
 20
-1064.090909
 30
0.0
 10
457.000000
 20
-1036.272727
 30
0.0
 10
460.000000
 20
-1036.272727
 30
0.0
 10
460.000000
 20
-1008.454545
 30
0.0
 10
457.000000
 20
-1008.454545
 30
0.0
 10
457.000000
 20
-980.636364
 30
0.0
 10
460.000000
 20
-980.636364
 30
0.0
 10
460.000000
 20
-952.818182
 30
0.0
 10
457.000000
 20
-952.818182
 30
0.0
 10
457.000000
 20
-928.000000
 30
0.0
  0
LWPOLYLINE
  5
103
100
AcDbEntity
  8
Layer_1
 62
7
100
AcDbPolyline
 90
5
 70
0
 10
4.000000
 20
-215.000000
 30
0.0
 10
28.818182
 20
-215.000000
 30
0.0
 10
28.818182
 20
-212.000000
 30
0.0
 10
4.000000
 20
-212.000000
 30
0.0
 10
4.000000
 20
-215.000000
 30
0.0
  0
LWPOLYLINE
  5
104
100
AcDbEntity
  8
Layer_1
 62
7
100
AcDbPolyline
 90
5
 70
0
 10
4.000000
 20
-416.000000
 30
0.0
 10
28.818182
 20
-416.000000
 30
0.0
 10
28.818182
 20
-413.000000
 30
0.0
 10
4.000000
 20
-413.000000
 30
0.0
 10
4.000000
 20
-416.000000
 30
0.0
  0
LWPOLYLINE
  5
105
100
AcDbEntity
  8
Layer_1
 62
7
100
AcDbPolyline
 90
5
 70
0
 10
56.636364
 20
-215.000000
 30
0.0
 10
84.454545
 20
-215.000000
 30
0.0
 10
84.454545
 20
-212.000000
 30
0.0
 10
56.636364
 20
-212.000000
 30
0.0
 10
56.636364
 20
-215.000000
 30
0.0
  0
LWPOLYLINE
  5
106
100
AcDbEntity
  8
Layer_1
 62
7
100
AcDbPolyline
 90
5
 70
0
 10
56.636364
 20
-416.000000
 30
0.0
 10
84.454545
 20
-416.000000
 30
0.0
 10
84.454545
 20
-413.000000
 30
0.0
 10
56.636364
 20
-413.000000
 30
0.0
 10
56.636364
 20
-416.000000
 30
0.0
  0
LWPOLYLINE
  5
107
100
AcDbEntity
  8
Layer_1
 62
7
100
AcDbPolyline
 90
5
 70
0
 10
112.272727
 20
-215.000000
 30
0.0
 10
140.090909
 20
-215.000000
 30
0.0
 10
140.090909
 20
-212.000000
 30
0.0
 10
112.272727
 20
-212.000000
 30
0.0
 10
112.272727
 20
-215.000000
 30
0.0
  0
LWPOLYLINE
  5
108
100
AcDbEntity
  8
Layer_1
 62
7
100
AcDbPolyline
 90
5
 70
0
 10
112.272727
 20
-416.000000
 30
0.0
 10
140.090909
 20
-416.000000
 30
0.0
 10
140.090909
 20
-413.000000
 30
0.0
 10
112.272727
 20
-413.000000
 30
0.0
 10
112.272727
 20
-416.000000
 30
0.0
  0
LWPOLYLINE
  5
109
100
AcDbEntity
  8
Layer_1
 62
7
100
AcDbPolyline
 90
5
 70
0
 10
167.909091
 20
-215.000000
 30
0.0
 10
195.727273
 20
-215.000000
 30
0.0
 10
195.727273
 20
-212.000000
 30
0.0
 10
167.909091
 20
-212.000000
 30
0.0
 10
167.909091
 20
-215.000000
 30
0.0
  0
LWPOLYLINE
  5
10a
100
AcDbEntity
  8
Layer_1
 62
7
100
AcDbPolyline
 90
5
 70
0
 10
167.909091
 20
-416.000000
 30
0.0
 10
195.727273
 20
-416.000000
 30
0.0
 10
195.727273
 20
-413.000000
 30
0.0
 10
167.909091
 20
-413.000000
 30
0.0
 10
167.909091
 20
-416.000000
 30
0.0
  0
LWPOLYLINE
  5
10b
100
AcDbEntity
  8
Layer_1
 62
7
100
AcDbPolyline
 90
5
 70
0
 10
223.545455
 20
-215.000000
 30
0.0
 10
251.363636
 20
-215.000000
 30
0.0
 10
251.363636
 20
-212.000000
 30
0.0
 10
223.545455
 20
-212.000000
 30
0.0
 10
223.545455
 20
-215.000000
 30
0.0
  0
LWPOLYLINE
  5
10c
100
AcDbEntity
  8
Layer_1
 62
7
100
AcDbPolyline
 90
5
 70
0
 10
223.545455
 20
-416.000000
 30
0.0
 10
251.363636
 20
-416.000000
 30
0.0
 10
251.363636
 20
-413.000000
 30
0.0
 10
223.545455
 20
-413.000000
 30
0.0
 10
223.545455
 20
-416.000000
 30
0.0
  0
LWPOLYLINE
  5
10d
100
AcDbEntity
  8
Layer_1
 62
7
100
AcDbPolyline
 90
5
 70
0
 10
279.181818
 20
-215.000000
 30
0.0
 10
304.000000
 20
-215.000000
 30
0.0
 10
304.000000
 20
-212.000000
 30
0.0
 10
279.181818
 20
-212.000000
 30
0.0
 10
279.181818
 20
-215.000000
 30
0.0
  0
LWPOLYLINE
  5
10e
100
AcDbEntity
  8
Layer_1
 62
7
100
AcDbPolyline
 90
5
 70
0
 10
279.181818
 20
-416.000000
 30
0.0
 10
304.000000
 20
-416.000000
 30
0.0
 10
304.000000
 20
-413.000000
 30
0.0
 10
279.181818
 20
-413.000000
 30
0.0
 10
279.181818
 20
-416.000000
 30
0.0
  0
LWPOLYLINE
  5
10f
100
AcDbEntity
  8
Layer_1
 62
7
100
AcDbPolyline
 90
133
 70
0
 10
4.000000
 20
-14.000000
 30
0.0
 10
28.818182
 20
-14.000000
 30
0.0
 10
28.818182
 20
-11.000000
 30
0.0
 10
56.636364
 20
-11.000000
 30
0.0
 10
56.636364
 20
-14.000000
 30
0.0
 10
84.454545
 20
-14.000000
 30
0.0
 10
84.454545
 20
-11.000000
 30
0.0
 10
112.272727
 20
-11.000000
 30
0.0
 10
112.272727
 20
-14.000000
 30
0.0
 10
140.090909
 20
-14.000000
 30
0.0
 10
140.090909
 20
-11.000000
 30
0.0
 10
167.909091
 20
-11.000000
 30
0.0
 10
167.909091
 20
-14.000000
 30
0.0
 10
195.727273
 20
-14.000000
 30
0.0
 10
195.727273
 20
-11.000000
 30
0.0
 10
223.545455
 20
-11.000000
 30
0.0
 10
223.545455
 20
-14.000000
 30
0.0
 10
251.363636
 20
-14.000000
 30
0.0
 10
251.363636
 20
-11.000000
 30
0.0
 10
279.181818
 20
-11.000000
 30
0.0
 10
279.181818
 20
-14.000000
 30
0.0
 10
304.000000
 20
-14.000000
 30
0.0
 10
304.000000
 20
-37.347826
 30
0.0
 10
307.000000
 20
-37.347826
 30
0.0
 10
307.000000
 20
-63.695652
 30
0.0
 10
304.000000
 20
-63.695652
 30
0.0
 10
304.000000
 20
-90.043478
 30
0.0
 10
307.000000
 20
-90.043478
 30
0.0
 10
307.000000
 20
-116.391304
 30
0.0
 10
304.000000
 20
-116.391304
 30
0.0
 10
304.000000
 20
-142.739130
 30
0.0
 10
307.000000
 20
-142.739130
 30
0.0
 10
307.000000
 20
-169.086957
 30
0.0
 10
304.000000
 20
-169.086957
 30
0.0
 10
304.000000
 20
-195.434783
 30
0.0
 10
307.000000
 20
-195.434783
 30
0.0
 10
307.000000
 20
-221.782609
 30
0.0
 10
304.000000
 20
-221.782609
 30
0.0
 10
304.000000
 20
-248.130435
 30
0.0
 10
307.000000
 20
-248.130435
 30
0.0
 10
307.000000
 20
-274.478261
 30
0.0
 10
304.000000
 20
-274.478261
 30
0.0
 10
304.000000
 20
-300.826087
 30
0.0
 10
307.000000
 20
-300.826087
 30
0.0
 10
307.000000
 20
-327.173913
 30
0.0
 10
304.000000
 20
-327.173913
 30
0.0
 10
304.000000
 20
-353.521739
 30
0.0
 10
307.000000
 20
-353.521739
 30
0.0
 10
307.000000
 20
-379.869565
 30
0.0
 10
304.000000
 20
-379.869565
 30
0.0
 10
304.000000
 20
-406.217391
 30
0.0
 10
307.000000
 20
-406.217391
 30
0.0
 10
307.000000
 20
-432.565217
 30
0.0
 10
304.000000
 20
-432.565217
 30
0.0
 10
304.000000
 20
-458.913043
 30
0.0
 10
307.000000
 20
-458.913043
 30
0.0
 10
307.000000
 20
-485.260870
 30
0.0
 10
304.000000
 20
-485.260870
 30
0.0
 10
304.000000
 20
-511.608696
 30
0.0
 10
307.000000
 20
-511.608696
 30
0.0
 10
307.000000
 20
-537.956522
 30
0.0
 10
304.000000
 20
-537.956522
 30
0.0
 10
304.000000
 20
-564.304348
 30
0.0
 10
307.000000
 20
-564.304348
 30
0.0
 10
307.000000
 20
-590.652174
 30
0.0
 10
304.000000
 20
-590.652174
 30
0.0
 10
304.000000
 20
-614.000000
 30
0.0
 10
279.181818
 20
-614.000000
 30
0.0
 10
279.181818
 20
-617.000000
 30
0.0
 10
251.363636
 20
-617.000000
 30
0.0
 10
251.363636
 20
-614.000000
 30
0.0
 10
223.545455
 20
-614.000000
 30
0.0
 10
223.545455
 20
-617.000000
 30
0.0
 10
195.727273
 20
-617.000000
 30
0.0
 10
195.727273
 20
-614.000000
 30
0.0
 10
167.909091
 20
-614.000000
 30
0.0
 10
167.909091
 20
-617.000000
 30
0.0
 10
140.090909
 20
-617.000000
 30
0.0
 10
140.090909
 20
-614.000000
 30
0.0
 10
112.272727
 20
-614.000000
 30
0.0
 10
112.272727
 20
-617.000000
 30
0.0
 10
84.454545
 20
-617.000000
 30
0.0
 10
84.454545
 20
-614.000000
 30
0.0
 10
56.636364
 20
-614.000000
 30
0.0
 10
56.636364
 20
-617.000000
 30
0.0
 10
28.818182
 20
-617.000000
 30
0.0
 10
28.818182
 20
-614.000000
 30
0.0
 10
4.000000
 20
-614.000000
 30
0.0
 10
4.000000
 20
-590.652174
 30
0.0
 10
1.000000
 20
-590.652174
 30
0.0
 10
1.000000
 20
-564.304348
 30
0.0
 10
4.000000
 20
-564.304348
 30
0.0
 10
4.000000
 20
-537.956522
 30
0.0
 10
1.000000
 20
-537.956522
 30
0.0
 10
1.000000
 20
-511.608696
 30
0.0
 10
4.000000
 20
-511.608696
 30
0.0
 10
4.000000
 20
-485.260870
 30
0.0
 10
1.000000
 20
-485.260870
 30
0.0
 10
1.000000
 20
-458.913043
 30
0.0
 10
4.000000
 20
-458.913043
 30
0.0
 10
4.000000
 20
-432.565217
 30
0.0
 10
1.000000
 20
-432.565217
 30
0.0
 10
1.000000
 20
-406.217391
 30
0.0
 10
4.000000
 20
-406.217391
 30
0.0
 10
4.000000
 20
-379.869565
 30
0.0
 10
1.000000
 20
-379.869565
 30
0.0
 10
1.000000
 20
-353.521739
 30
0.0
 10
4.000000
 20
-353.521739
 30
0.0
 10
4.000000
 20
-327.173913
 30
0.0
 10
1.000000
 20
-327.173913
 30
0.0
 10
1.000000
 20
-300.826087
 30
0.0
 10
4.000000
 20
-300.826087
 30
0.0
 10
4.000000
 20
-274.478261
 30
0.0
 10
1.000000
 20
-274.478261
 30
0.0
 10
1.000000
 20
-248.130435
 30
0.0
 10
4.000000
 20
-248.130435
 30
0.0
 10
4.000000
 20
-221.782609
 30
0.0
 10
1.000000
 20
-221.782609
 30
0.0
 10
1.000000
 20
-195.434783
 30
0.0
 10
4.000000
 20
-195.434783
 30
0.0
 10
4.000000
 20
-169.086957
 30
0.0
 10
1.000000
 20
-169.086957
 30
0.0
 10
1.000000
 20
-142.739130
 30
0.0
 10
4.000000
 20
-142.739130
 30
0.0
 10
4.000000
 20
-116.391304
 30
0.0
 10
1.000000
 20
-116.391304
 30
0.0
 10
1.000000
 20
-90.043478
 30
0.0
 10
4.000000
 20
-90.043478
 30
0.0
 10
4.000000
 20
-63.695652
 30
0.0
 10
1.000000
 20
-63.695652
 30
0.0
 10
1.000000
 20
-37.347826
 30
0.0
 10
4.000000
 20
-37.347826
 30
0.0
 10
4.000000
 20
-14.000000
 30
0.0
  0
LWPOLYLINE
  5
110
100
AcDbEntity
  8
Layer_1
 62
7
100
AcDbPolyline
 90
5
 70
0
 10
334.823529
 20
-215.000000
 30
0.0
 10
361.647059
 20
-215.000000
 30
0.0
 10
361.647059
 20
-212.000000
 30
0.0
 10
334.823529
 20
-212.000000
 30
0.0
 10
334.823529
 20
-215.000000
 30
0.0
  0
LWPOLYLINE
  5
111
100
AcDbEntity
  8
Layer_1
 62
7
100
AcDbPolyline
 90
5
 70
0
 10
334.823529
 20
-416.000000
 30
0.0
 10
361.647059
 20
-416.000000
 30
0.0
 10
361.647059
 20
-413.000000
 30
0.0
 10
334.823529
 20
-413.000000
 30
0.0
 10
334.823529
 20
-416.000000
 30
0.0
  0
LWPOLYLINE
  5
112
100
AcDbEntity
  8
Layer_1
 62
7
100
AcDbPolyline
 90
5
 70
0
 10
388.470588
 20
-215.000000
 30
0.0
 10
415.294118
 20
-215.000000
 30
0.0
 10
415.294118
 20
-212.000000
 30
0.0
 10
388.470588
 20
-212.000000
 30
0.0
 10
388.470588
 20
-215.000000
 30
0.0
  0
LWPOLYLINE
  5
113
100
AcDbEntity
  8
Layer_1
 62
7
100
AcDbPolyline
 90
5
 70
0
 10
388.470588
 20
-416.000000
 30
0.0
 10
415.294118
 20
-416.000000
 30
0.0
 10
415.294118
 20
-413.000000
 30
0.0
 10
388.470588
 20
-413.000000
 30
0.0
 10
388.470588
 20
-416.000000
 30
0.0
  0
LWPOLYLINE
  5
114
100
AcDbEntity
  8
Layer_1
 62
7
100
AcDbPolyline
 90
5
 70
0
 10
442.117647
 20
-215.000000
 30
0.0
 10
468.941176
 20
-215.000000
 30
0.0
 10
468.941176
 20
-212.000000
 30
0.0
 10
442.117647
 20
-212.000000
 30
0.0
 10
442.117647
 20
-215.000000
 30
0.0
  0
LWPOLYLINE
  5
115
100
AcDbEntity
  8
Layer_1
 62
7
100
AcDbPolyline
 90
5
 70
0
 10
442.117647
 20
-416.000000
 30
0.0
 10
468.941176
 20
-416.000000
 30
0.0
 10
468.941176
 20
-413.000000
 30
0.0
 10
442.117647
 20
-413.000000
 30
0.0
 10
442.117647
 20
-416.000000
 30
0.0
  0
LWPOLYLINE
  5
116
100
AcDbEntity
  8
Layer_1
 62
7
100
AcDbPolyline
 90
5
 70
0
 10
495.764706
 20
-215.000000
 30
0.0
 10
522.588235
 20
-215.000000
 30
0.0
 10
522.588235
 20
-212.000000
 30
0.0
 10
495.764706
 20
-212.000000
 30
0.0
 10
495.764706
 20
-215.000000
 30
0.0
  0
LWPOLYLINE
  5
117
100
AcDbEntity
  8
Layer_1
 62
7
100
AcDbPolyline
 90
5
 70
0
 10
495.764706
 20
-416.000000
 30
0.0
 10
522.588235
 20
-416.000000
 30
0.0
 10
522.588235
 20
-413.000000
 30
0.0
 10
495.764706
 20
-413.000000
 30
0.0
 10
495.764706
 20
-416.000000
 30
0.0
  0
LWPOLYLINE
  5
118
100
AcDbEntity
  8
Layer_1
 62
7
100
AcDbPolyline
 90
5
 70
0
 10
549.411765
 20
-215.000000
 30
0.0
 10
576.235294
 20
-215.000000
 30
0.0
 10
576.235294
 20
-212.000000
 30
0.0
 10
549.411765
 20
-212.000000
 30
0.0
 10
549.411765
 20
-215.000000
 30
0.0
  0
LWPOLYLINE
  5
119
100
AcDbEntity
  8
Layer_1
 62
7
100
AcDbPolyline
 90
5
 70
0
 10
549.411765
 20
-416.000000
 30
0.0
 10
576.235294
 20
-416.000000
 30
0.0
 10
576.235294
 20
-413.000000
 30
0.0
 10
549.411765
 20
-413.000000
 30
0.0
 10
549.411765
 20
-416.000000
 30
0.0
  0
LWPOLYLINE
  5
11a
100
AcDbEntity
  8
Layer_1
 62
7
100
AcDbPolyline
 90
5
 70
0
 10
603.058824
 20
-215.000000
 30
0.0
 10
629.882353
 20
-215.000000
 30
0.0
 10
629.882353
 20
-212.000000
 30
0.0
 10
603.058824
 20
-212.000000
 30
0.0
 10
603.058824
 20
-215.000000
 30
0.0
  0
LWPOLYLINE
  5
11b
100
AcDbEntity
  8
Layer_1
 62
7
100
AcDbPolyline
 90
5
 70
0
 10
603.058824
 20
-416.000000
 30
0.0
 10
629.882353
 20
-416.000000
 30
0.0
 10
629.882353
 20
-413.000000
 30
0.0
 10
603.058824
 20
-413.000000
 30
0.0
 10
603.058824
 20
-416.000000
 30
0.0
  0
LWPOLYLINE
  5
11c
100
AcDbEntity
  8
Layer_1
 62
7
100
AcDbPolyline
 90
5
 70
0
 10
656.705882
 20
-215.000000
 30
0.0
 10
683.529412
 20
-215.000000
 30
0.0
 10
683.529412
 20
-212.000000
 30
0.0
 10
656.705882
 20
-212.000000
 30
0.0
 10
656.705882
 20
-215.000000
 30
0.0
  0
LWPOLYLINE
  5
11d
100
AcDbEntity
  8
Layer_1
 62
7
100
AcDbPolyline
 90
5
 70
0
 10
656.705882
 20
-416.000000
 30
0.0
 10
683.529412
 20
-416.000000
 30
0.0
 10
683.529412
 20
-413.000000
 30
0.0
 10
656.705882
 20
-413.000000
 30
0.0
 10
656.705882
 20
-416.000000
 30
0.0
  0
LWPOLYLINE
  5
11e
100
AcDbEntity
  8
Layer_1
 62
7
100
AcDbPolyline
 90
5
 70
0
 10
710.352941
 20
-215.000000
 30
0.0
 10
737.176471
 20
-215.000000
 30
0.0
 10
737.176471
 20
-212.000000
 30
0.0
 10
710.352941
 20
-212.000000
 30
0.0
 10
710.352941
 20
-215.000000
 30
0.0
  0
LWPOLYLINE
  5
11f
100
AcDbEntity
  8
Layer_1
 62
7
100
AcDbPolyline
 90
5
 70
0
 10
710.352941
 20
-416.000000
 30
0.0
 10
737.176471
 20
-416.000000
 30
0.0
 10
737.176471
 20
-413.000000
 30
0.0
 10
710.352941
 20
-413.000000
 30
0.0
 10
710.352941
 20
-416.000000
 30
0.0
  0
LWPOLYLINE
  5
120
100
AcDbEntity
  8
Layer_1
 62
7
100
AcDbPolyline
 90
157
 70
0
 10
308.000000
 20
-11.000000
 30
0.0
 10
334.823529
 20
-11.000000
 30
0.0
 10
334.823529
 20
-14.000000
 30
0.0
 10
361.647059
 20
-14.000000
 30
0.0
 10
361.647059
 20
-11.000000
 30
0.0
 10
388.470588
 20
-11.000000
 30
0.0
 10
388.470588
 20
-14.000000
 30
0.0
 10
415.294118
 20
-14.000000
 30
0.0
 10
415.294118
 20
-11.000000
 30
0.0
 10
442.117647
 20
-11.000000
 30
0.0
 10
442.117647
 20
-14.000000
 30
0.0
 10
468.941176
 20
-14.000000
 30
0.0
 10
468.941176
 20
-11.000000
 30
0.0
 10
495.764706
 20
-11.000000
 30
0.0
 10
495.764706
 20
-14.000000
 30
0.0
 10
522.588235
 20
-14.000000
 30
0.0
 10
522.588235
 20
-11.000000
 30
0.0
 10
549.411765
 20
-11.000000
 30
0.0
 10
549.411765
 20
-14.000000
 30
0.0
 10
576.235294
 20
-14.000000
 30
0.0
 10
576.235294
 20
-11.000000
 30
0.0
 10
603.058824
 20
-11.000000
 30
0.0
 10
603.058824
 20
-14.000000
 30
0.0
 10
629.882353
 20
-14.000000
 30
0.0
 10
629.882353
 20
-11.000000
 30
0.0
 10
656.705882
 20
-11.000000
 30
0.0
 10
656.705882
 20
-14.000000
 30
0.0
 10
683.529412
 20
-14.000000
 30
0.0
 10
683.529412
 20
-11.000000
 30
0.0
 10
710.352941
 20
-11.000000
 30
0.0
 10
710.352941
 20
-14.000000
 30
0.0
 10
737.176471
 20
-14.000000
 30
0.0
 10
737.176471
 20
-11.000000
 30
0.0
 10
764.000000
 20
-11.000000
 30
0.0
 10
764.000000
 20
-37.347826
 30
0.0
 10
761.000000
 20
-37.347826
 30
0.0
 10
761.000000
 20
-63.695652
 30
0.0
 10
764.000000
 20
-63.695652
 30
0.0
 10
764.000000
 20
-90.043478
 30
0.0
 10
761.000000
 20
-90.043478
 30
0.0
 10
761.000000
 20
-116.391304
 30
0.0
 10
764.000000
 20
-116.391304
 30
0.0
 10
764.000000
 20
-142.739130
 30
0.0
 10
761.000000
 20
-142.739130
 30
0.0
 10
761.000000
 20
-169.086957
 30
0.0
 10
764.000000
 20
-169.086957
 30
0.0
 10
764.000000
 20
-195.434783
 30
0.0
 10
761.000000
 20
-195.434783
 30
0.0
 10
761.000000
 20
-221.782609
 30
0.0
 10
764.000000
 20
-221.782609
 30
0.0
 10
764.000000
 20
-248.130435
 30
0.0
 10
761.000000
 20
-248.130435
 30
0.0
 10
761.000000
 20
-274.478261
 30
0.0
 10
764.000000
 20
-274.478261
 30
0.0
 10
764.000000
 20
-300.826087
 30
0.0
 10
761.000000
 20
-300.826087
 30
0.0
 10
761.000000
 20
-327.173913
 30
0.0
 10
764.000000
 20
-327.173913
 30
0.0
 10
764.000000
 20
-353.521739
 30
0.0
 10
761.000000
 20
-353.521739
 30
0.0
 10
761.000000
 20
-379.869565
 30
0.0
 10
764.000000
 20
-379.869565
 30
0.0
 10
764.000000
 20
-406.217391
 30
0.0
 10
761.000000
 20
-406.217391
 30
0.0
 10
761.000000
 20
-432.565217
 30
0.0
 10
764.000000
 20
-432.565217
 30
0.0
 10
764.000000
 20
-458.913043
 30
0.0
 10
761.000000
 20
-458.913043
 30
0.0
 10
761.000000
 20
-485.260870
 30
0.0
 10
764.000000
 20
-485.260870
 30
0.0
 10
764.000000
 20
-511.608696
 30
0.0
 10
761.000000
 20
-511.608696
 30
0.0
 10
761.000000
 20
-537.956522
 30
0.0
 10
764.000000
 20
-537.956522
 30
0.0
 10
764.000000
 20
-564.304348
 30
0.0
 10
761.000000
 20
-564.304348
 30
0.0
 10
761.000000
 20
-590.652174
 30
0.0
 10
764.000000
 20
-590.652174
 30
0.0
 10
764.000000
 20
-617.000000
 30
0.0
 10
737.176471
 20
-617.000000
 30
0.0
 10
737.176471
 20
-614.000000
 30
0.0
 10
710.352941
 20
-614.000000
 30
0.0
 10
710.352941
 20
-617.000000
 30
0.0
 10
683.529412
 20
-617.000000
 30
0.0
 10
683.529412
 20
-614.000000
 30
0.0
 10
656.705882
 20
-614.000000
 30
0.0
 10
656.705882
 20
-617.000000
 30
0.0
 10
629.882353
 20
-617.000000
 30
0.0
 10
629.882353
 20
-614.000000
 30
0.0
 10
603.058824
 20
-614.000000
 30
0.0
 10
603.058824
 20
-617.000000
 30
0.0
 10
576.235294
 20
-617.000000
 30
0.0
 10
576.235294
 20
-614.000000
 30
0.0
 10
549.411765
 20
-614.000000
 30
0.0
 10
549.411765
 20
-617.000000
 30
0.0
 10
522.588235
 20
-617.000000
 30
0.0
 10
522.588235
 20
-614.000000
 30
0.0
 10
495.764706
 20
-614.000000
 30
0.0
 10
495.764706
 20
-617.000000
 30
0.0
 10
468.941176
 20
-617.000000
 30
0.0
 10
468.941176
 20
-614.000000
 30
0.0
 10
442.117647
 20
-614.000000
 30
0.0
 10
442.117647
 20
-617.000000
 30
0.0
 10
415.294118
 20
-617.000000
 30
0.0
 10
415.294118
 20
-614.000000
 30
0.0
 10
388.470588
 20
-614.000000
 30
0.0
 10
388.470588
 20
-617.000000
 30
0.0
 10
361.647059
 20
-617.000000
 30
0.0
 10
361.647059
 20
-614.000000
 30
0.0
 10
334.823529
 20
-614.000000
 30
0.0
 10
334.823529
 20
-617.000000
 30
0.0
 10
308.000000
 20
-617.000000
 30
0.0
 10
308.000000
 20
-590.652174
 30
0.0
 10
311.000000
 20
-590.652174
 30
0.0
 10
311.000000
 20
-564.304348
 30
0.0
 10
308.000000
 20
-564.304348
 30
0.0
 10
308.000000
 20
-537.956522
 30
0.0
 10
311.000000
 20
-537.956522
 30
0.0
 10
311.000000
 20
-511.608696
 30
0.0
 10
308.000000
 20
-511.608696
 30
0.0
 10
308.000000
 20
-485.260870
 30
0.0
 10
311.000000
 20
-485.260870
 30
0.0
 10
311.000000
 20
-458.913043
 30
0.0
 10
308.000000
 20
-458.913043
 30
0.0
 10
308.000000
 20
-432.565217
 30
0.0
 10
311.000000
 20
-432.565217
 30
0.0
 10
311.000000
 20
-406.217391
 30
0.0
 10
308.000000
 20
-406.217391
 30
0.0
 10
308.000000
 20
-379.869565
 30
0.0
 10
311.000000
 20
-379.869565
 30
0.0
 10
311.000000
 20
-353.521739
 30
0.0
 10
308.000000
 20
-353.521739
 30
0.0
 10
308.000000
 20
-327.173913
 30
0.0
 10
311.000000
 20
-327.173913
 30
0.0
 10
311.000000
 20
-300.826087
 30
0.0
 10
308.000000
 20
-300.826087
 30
0.0
 10
308.000000
 20
-274.478261
 30
0.0
 10
311.000000
 20
-274.478261
 30
0.0
 10
311.000000
 20
-248.130435
 30
0.0
 10
308.000000
 20
-248.130435
 30
0.0
 10
308.000000
 20
-221.782609
 30
0.0
 10
311.000000
 20
-221.782609
 30
0.0
 10
311.000000
 20
-195.434783
 30
0.0
 10
308.000000
 20
-195.434783
 30
0.0
 10
308.000000
 20
-169.086957
 30
0.0
 10
311.000000
 20
-169.086957
 30
0.0
 10
311.000000
 20
-142.739130
 30
0.0
 10
308.000000
 20
-142.739130
 30
0.0
 10
308.000000
 20
-116.391304
 30
0.0
 10
311.000000
 20
-116.391304
 30
0.0
 10
311.000000
 20
-90.043478
 30
0.0
 10
308.000000
 20
-90.043478
 30
0.0
 10
308.000000
 20
-63.695652
 30
0.0
 10
311.000000
 20
-63.695652
 30
0.0
 10
311.000000
 20
-37.347826
 30
0.0
 10
308.000000
 20
-37.347826
 30
0.0
 10
308.000000
 20
-11.000000
 30
0.0
  0
LWPOLYLINE
  5
121
100
AcDbEntity
  8
Layer_1
 62
7
100
AcDbPolyline
 90
5
 70
0
 10
768.000000
 20
-215.000000
 30
0.0
 10
792.818182
 20
-215.000000
 30
0.0
 10
792.818182
 20
-212.000000
 30
0.0
 10
768.000000
 20
-212.000000
 30
0.0
 10
768.000000
 20
-215.000000
 30
0.0
  0
LWPOLYLINE
  5
122
100
AcDbEntity
  8
Layer_1
 62
7
100
AcDbPolyline
 90
5
 70
0
 10
768.000000
 20
-416.000000
 30
0.0
 10
792.818182
 20
-416.000000
 30
0.0
 10
792.818182
 20
-413.000000
 30
0.0
 10
768.000000
 20
-413.000000
 30
0.0
 10
768.000000
 20
-416.000000
 30
0.0
  0
LWPOLYLINE
  5
123
100
AcDbEntity
  8
Layer_1
 62
7
100
AcDbPolyline
 90
5
 70
0
 10
820.636364
 20
-215.000000
 30
0.0
 10
848.454545
 20
-215.000000
 30
0.0
 10
848.454545
 20
-212.000000
 30
0.0
 10
820.636364
 20
-212.000000
 30
0.0
 10
820.636364
 20
-215.000000
 30
0.0
  0
LWPOLYLINE
  5
124
100
AcDbEntity
  8
Layer_1
 62
7
100
AcDbPolyline
 90
5
 70
0
 10
820.636364
 20
-416.000000
 30
0.0
 10
848.454545
 20
-416.000000
 30
0.0
 10
848.454545
 20
-413.000000
 30
0.0
 10
820.636364
 20
-413.000000
 30
0.0
 10
820.636364
 20
-416.000000
 30
0.0
  0
LWPOLYLINE
  5
125
100
AcDbEntity
  8
Layer_1
 62
7
100
AcDbPolyline
 90
5
 70
0
 10
876.272727
 20
-215.000000
 30
0.0
 10
904.090909
 20
-215.000000
 30
0.0
 10
904.090909
 20
-212.000000
 30
0.0
 10
876.272727
 20
-212.000000
 30
0.0
 10
876.272727
 20
-215.000000
 30
0.0
  0
LWPOLYLINE
  5
126
100
AcDbEntity
  8
Layer_1
 62
7
100
AcDbPolyline
 90
5
 70
0
 10
876.272727
 20
-416.000000
 30
0.0
 10
904.090909
 20
-416.000000
 30
0.0
 10
904.090909
 20
-413.000000
 30
0.0
 10
876.272727
 20
-413.000000
 30
0.0
 10
876.272727
 20
-416.000000
 30
0.0
  0
LWPOLYLINE
  5
127
100
AcDbEntity
  8
Layer_1
 62
7
100
AcDbPolyline
 90
5
 70
0
 10
931.909091
 20
-215.000000
 30
0.0
 10
959.727273
 20
-215.000000
 30
0.0
 10
959.727273
 20
-212.000000
 30
0.0
 10
931.909091
 20
-212.000000
 30
0.0
 10
931.909091
 20
-215.000000
 30
0.0
  0
LWPOLYLINE
  5
128
100
AcDbEntity
  8
Layer_1
 62
7
100
AcDbPolyline
 90
5
 70
0
 10
931.909091
 20
-416.000000
 30
0.0
 10
959.727273
 20
-416.000000
 30
0.0
 10
959.727273
 20
-413.000000
 30
0.0
 10
931.909091
 20
-413.000000
 30
0.0
 10
931.909091
 20
-416.000000
 30
0.0
  0
LWPOLYLINE
  5
129
100
AcDbEntity
  8
Layer_1
 62
7
100
AcDbPolyline
 90
5
 70
0
 10
987.545455
 20
-215.000000
 30
0.0
 10
1015.363636
 20
-215.000000
 30
0.0
 10
1015.363636
 20
-212.000000
 30
0.0
 10
987.545455
 20
-212.000000
 30
0.0
 10
987.545455
 20
-215.000000
 30
0.0
  0
LWPOLYLINE
  5
12a
100
AcDbEntity
  8
Layer_1
 62
7
100
AcDbPolyline
 90
5
 70
0
 10
987.545455
 20
-416.000000
 30
0.0
 10
1015.363636
 20
-416.000000
 30
0.0
 10
1015.363636
 20
-413.000000
 30
0.0
 10
987.545455
 20
-413.000000
 30
0.0
 10
987.545455
 20
-416.000000
 30
0.0
  0
LWPOLYLINE
  5
12b
100
AcDbEntity
  8
Layer_1
 62
7
100
AcDbPolyline
 90
5
 70
0
 10
1043.181818
 20
-215.000000
 30
0.0
 10
1068.000000
 20
-215.000000
 30
0.0
 10
1068.000000
 20
-212.000000
 30
0.0
 10
1043.181818
 20
-212.000000
 30
0.0
 10
1043.181818
 20
-215.000000
 30
0.0
  0
LWPOLYLINE
  5
12c
100
AcDbEntity
  8
Layer_1
 62
7
100
AcDbPolyline
 90
5
 70
0
 10
1043.181818
 20
-416.000000
 30
0.0
 10
1068.000000
 20
-416.000000
 30
0.0
 10
1068.000000
 20
-413.000000
 30
0.0
 10
1043.181818
 20
-413.000000
 30
0.0
 10
1043.181818
 20
-416.000000
 30
0.0
  0
LWPOLYLINE
  5
12d
100
AcDbEntity
  8
Layer_1
 62
7
100
AcDbPolyline
 90
133
 70
0
 10
768.000000
 20
-14.000000
 30
0.0
 10
792.818182
 20
-14.000000
 30
0.0
 10
792.818182
 20
-11.000000
 30
0.0
 10
820.636364
 20
-11.000000
 30
0.0
 10
820.636364
 20
-14.000000
 30
0.0
 10
848.454545
 20
-14.000000
 30
0.0
 10
848.454545
 20
-11.000000
 30
0.0
 10
876.272727
 20
-11.000000
 30
0.0
 10
876.272727
 20
-14.000000
 30
0.0
 10
904.090909
 20
-14.000000
 30
0.0
 10
904.090909
 20
-11.000000
 30
0.0
 10
931.909091
 20
-11.000000
 30
0.0
 10
931.909091
 20
-14.000000
 30
0.0
 10
959.727273
 20
-14.000000
 30
0.0
 10
959.727273
 20
-11.000000
 30
0.0
 10
987.545455
 20
-11.000000
 30
0.0
 10
987.545455
 20
-14.000000
 30
0.0
 10
1015.363636
 20
-14.000000
 30
0.0
 10
1015.363636
 20
-11.000000
 30
0.0
 10
1043.181818
 20
-11.000000
 30
0.0
 10
1043.181818
 20
-14.000000
 30
0.0
 10
1068.000000
 20
-14.000000
 30
0.0
 10
1068.000000
 20
-37.347826
 30
0.0
 10
1071.000000
 20
-37.347826
 30
0.0
 10
1071.000000
 20
-63.695652
 30
0.0
 10
1068.000000
 20
-63.695652
 30
0.0
 10
1068.000000
 20
-90.043478
 30
0.0
 10
1071.000000
 20
-90.043478
 30
0.0
 10
1071.000000
 20
-116.391304
 30
0.0
 10
1068.000000
 20
-116.391304
 30
0.0
 10
1068.000000
 20
-142.739130
 30
0.0
 10
1071.000000
 20
-142.739130
 30
0.0
 10
1071.000000
 20
-169.086957
 30
0.0
 10
1068.000000
 20
-169.086957
 30
0.0
 10
1068.000000
 20
-195.434783
 30
0.0
 10
1071.000000
 20
-195.434783
 30
0.0
 10
1071.000000
 20
-221.782609
 30
0.0
 10
1068.000000
 20
-221.782609
 30
0.0
 10
1068.000000
 20
-248.130435
 30
0.0
 10
1071.000000
 20
-248.130435
 30
0.0
 10
1071.000000
 20
-274.478261
 30
0.0
 10
1068.000000
 20
-274.478261
 30
0.0
 10
1068.000000
 20
-300.826087
 30
0.0
 10
1071.000000
 20
-300.826087
 30
0.0
 10
1071.000000
 20
-327.173913
 30
0.0
 10
1068.000000
 20
-327.173913
 30
0.0
 10
1068.000000
 20
-353.521739
 30
0.0
 10
1071.000000
 20
-353.521739
 30
0.0
 10
1071.000000
 20
-379.869565
 30
0.0
 10
1068.000000
 20
-379.869565
 30
0.0
 10
1068.000000
 20
-406.217391
 30
0.0
 10
1071.000000
 20
-406.217391
 30
0.0
 10
1071.000000
 20
-432.565217
 30
0.0
 10
1068.000000
 20
-432.565217
 30
0.0
 10
1068.000000
 20
-458.913043
 30
0.0
 10
1071.000000
 20
-458.913043
 30
0.0
 10
1071.000000
 20
-485.260870
 30
0.0
 10
1068.000000
 20
-485.260870
 30
0.0
 10
1068.000000
 20
-511.608696
 30
0.0
 10
1071.000000
 20
-511.608696
 30
0.0
 10
1071.000000
 20
-537.956522
 30
0.0
 10
1068.000000
 20
-537.956522
 30
0.0
 10
1068.000000
 20
-564.304348
 30
0.0
 10
1071.000000
 20
-564.304348
 30
0.0
 10
1071.000000
 20
-590.652174
 30
0.0
 10
1068.000000
 20
-590.652174
 30
0.0
 10
1068.000000
 20
-614.000000
 30
0.0
 10
1043.181818
 20
-614.000000
 30
0.0
 10
1043.181818
 20
-617.000000
 30
0.0
 10
1015.363636
 20
-617.000000
 30
0.0
 10
1015.363636
 20
-614.000000
 30
0.0
 10
987.545455
 20
-614.000000
 30
0.0
 10
987.545455
 20
-617.000000
 30
0.0
 10
959.727273
 20
-617.000000
 30
0.0
 10
959.727273
 20
-614.000000
 30
0.0
 10
931.909091
 20
-614.000000
 30
0.0
 10
931.909091
 20
-617.000000
 30
0.0
 10
904.090909
 20
-617.000000
 30
0.0
 10
904.090909
 20
-614.000000
 30
0.0
 10
876.272727
 20
-614.000000
 30
0.0
 10
876.272727
 20
-617.000000
 30
0.0
 10
848.454545
 20
-617.000000
 30
0.0
 10
848.454545
 20
-614.000000
 30
0.0
 10
820.636364
 20
-614.000000
 30
0.0
 10
820.636364
 20
-617.000000
 30
0.0
 10
792.818182
 20
-617.000000
 30
0.0
 10
792.818182
 20
-614.000000
 30
0.0
 10
768.000000
 20
-614.000000
 30
0.0
 10
768.000000
 20
-590.652174
 30
0.0
 10
765.000000
 20
-590.652174
 30
0.0
 10
765.000000
 20
-564.304348
 30
0.0
 10
768.000000
 20
-564.304348
 30
0.0
 10
768.000000
 20
-537.956522
 30
0.0
 10
765.000000
 20
-537.956522
 30
0.0
 10
765.000000
 20
-511.608696
 30
0.0
 10
768.000000
 20
-511.608696
 30
0.0
 10
768.000000
 20
-485.260870
 30
0.0
 10
765.000000
 20
-485.260870
 30
0.0
 10
765.000000
 20
-458.913043
 30
0.0
 10
768.000000
 20
-458.913043
 30
0.0
 10
768.000000
 20
-432.565217
 30
0.0
 10
765.000000
 20
-432.565217
 30
0.0
 10
765.000000
 20
-406.217391
 30
0.0
 10
768.000000
 20
-406.217391
 30
0.0
 10
768.000000
 20
-379.869565
 30
0.0
 10
765.000000
 20
-379.869565
 30
0.0
 10
765.000000
 20
-353.521739
 30
0.0
 10
768.000000
 20
-353.521739
 30
0.0
 10
768.000000
 20
-327.173913
 30
0.0
 10
765.000000
 20
-327.173913
 30
0.0
 10
765.000000
 20
-300.826087
 30
0.0
 10
768.000000
 20
-300.826087
 30
0.0
 10
768.000000
 20
-274.478261
 30
0.0
 10
765.000000
 20
-274.478261
 30
0.0
 10
765.000000
 20
-248.130435
 30
0.0
 10
768.000000
 20
-248.130435
 30
0.0
 10
768.000000
 20
-221.782609
 30
0.0
 10
765.000000
 20
-221.782609
 30
0.0
 10
765.000000
 20
-195.434783
 30
0.0
 10
768.000000
 20
-195.434783
 30
0.0
 10
768.000000
 20
-169.086957
 30
0.0
 10
765.000000
 20
-169.086957
 30
0.0
 10
765.000000
 20
-142.739130
 30
0.0
 10
768.000000
 20
-142.739130
 30
0.0
 10
768.000000
 20
-116.391304
 30
0.0
 10
765.000000
 20
-116.391304
 30
0.0
 10
765.000000
 20
-90.043478
 30
0.0
 10
768.000000
 20
-90.043478
 30
0.0
 10
768.000000
 20
-63.695652
 30
0.0
 10
765.000000
 20
-63.695652
 30
0.0
 10
765.000000
 20
-37.347826
 30
0.0
 10
768.000000
 20
-37.347826
 30
0.0
 10
768.000000
 20
-14.000000
 30
0.0
  0
LWPOLYLINE
  5
12e
100
AcDbEntity
  8
Layer_1
 62
7
100
AcDbPolyline
 90
5
 70
0
 10
1098.823529
 20
-215.000000
 30
0.0
 10
1125.647059
 20
-215.000000
 30
0.0
 10
1125.647059
 20
-212.000000
 30
0.0
 10
1098.823529
 20
-212.000000
 30
0.0
 10
1098.823529
 20
-215.000000
 30
0.0
  0
LWPOLYLINE
  5
12f
100
AcDbEntity
  8
Layer_1
 62
7
100
AcDbPolyline
 90
5
 70
0
 10
1098.823529
 20
-416.000000
 30
0.0
 10
1125.647059
 20
-416.000000
 30
0.0
 10
1125.647059
 20
-413.000000
 30
0.0
 10
1098.823529
 20
-413.000000
 30
0.0
 10
1098.823529
 20
-416.000000
 30
0.0
  0
LWPOLYLINE
  5
130
100
AcDbEntity
  8
Layer_1
 62
7
100
AcDbPolyline
 90
5
 70
0
 10
1152.470588
 20
-215.000000
 30
0.0
 10
1179.294118
 20
-215.000000
 30
0.0
 10
1179.294118
 20
-212.000000
 30
0.0
 10
1152.470588
 20
-212.000000
 30
0.0
 10
1152.470588
 20
-215.000000
 30
0.0
  0
LWPOLYLINE
  5
131
100
AcDbEntity
  8
Layer_1
 62
7
100
AcDbPolyline
 90
5
 70
0
 10
1152.470588
 20
-416.000000
 30
0.0
 10
1179.294118
 20
-416.000000
 30
0.0
 10
1179.294118
 20
-413.000000
 30
0.0
 10
1152.470588
 20
-413.000000
 30
0.0
 10
1152.470588
 20
-416.000000
 30
0.0
  0
LWPOLYLINE
  5
132
100
AcDbEntity
  8
Layer_1
 62
7
100
AcDbPolyline
 90
5
 70
0
 10
1206.117647
 20
-215.000000
 30
0.0
 10
1232.941176
 20
-215.000000
 30
0.0
 10
1232.941176
 20
-212.000000
 30
0.0
 10
1206.117647
 20
-212.000000
 30
0.0
 10
1206.117647
 20
-215.000000
 30
0.0
  0
LWPOLYLINE
  5
133
100
AcDbEntity
  8
Layer_1
 62
7
100
AcDbPolyline
 90
5
 70
0
 10
1206.117647
 20
-416.000000
 30
0.0
 10
1232.941176
 20
-416.000000
 30
0.0
 10
1232.941176
 20
-413.000000
 30
0.0
 10
1206.117647
 20
-413.000000
 30
0.0
 10
1206.117647
 20
-416.000000
 30
0.0
  0
LWPOLYLINE
  5
134
100
AcDbEntity
  8
Layer_1
 62
7
100
AcDbPolyline
 90
5
 70
0
 10
1259.764706
 20
-215.000000
 30
0.0
 10
1286.588235
 20
-215.000000
 30
0.0
 10
1286.588235
 20
-212.000000
 30
0.0
 10
1259.764706
 20
-212.000000
 30
0.0
 10
1259.764706
 20
-215.000000
 30
0.0
  0
LWPOLYLINE
  5
135
100
AcDbEntity
  8
Layer_1
 62
7
100
AcDbPolyline
 90
5
 70
0
 10
1259.764706
 20
-416.000000
 30
0.0
 10
1286.588235
 20
-416.000000
 30
0.0
 10
1286.588235
 20
-413.000000
 30
0.0
 10
1259.764706
 20
-413.000000
 30
0.0
 10
1259.764706
 20
-416.000000
 30
0.0
  0
LWPOLYLINE
  5
136
100
AcDbEntity
  8
Layer_1
 62
7
100
AcDbPolyline
 90
5
 70
0
 10
1313.411765
 20
-215.000000
 30
0.0
 10
1340.235294
 20
-215.000000
 30
0.0
 10
1340.235294
 20
-212.000000
 30
0.0
 10
1313.411765
 20
-212.000000
 30
0.0
 10
1313.411765
 20
-215.000000
 30
0.0
  0
LWPOLYLINE
  5
137
100
AcDbEntity
  8
Layer_1
 62
7
100
AcDbPolyline
 90
5
 70
0
 10
1313.411765
 20
-416.000000
 30
0.0
 10
1340.235294
 20
-416.000000
 30
0.0
 10
1340.235294
 20
-413.000000
 30
0.0
 10
1313.411765
 20
-413.000000
 30
0.0
 10
1313.411765
 20
-416.000000
 30
0.0
  0
LWPOLYLINE
  5
138
100
AcDbEntity
  8
Layer_1
 62
7
100
AcDbPolyline
 90
5
 70
0
 10
1367.058824
 20
-215.000000
 30
0.0
 10
1393.882353
 20
-215.000000
 30
0.0
 10
1393.882353
 20
-212.000000
 30
0.0
 10
1367.058824
 20
-212.000000
 30
0.0
 10
1367.058824
 20
-215.000000
 30
0.0
  0
LWPOLYLINE
  5
139
100
AcDbEntity
  8
Layer_1
 62
7
100
AcDbPolyline
 90
5
 70
0
 10
1367.058824
 20
-416.000000
 30
0.0
 10
1393.882353
 20
-416.000000
 30
0.0
 10
1393.882353
 20
-413.000000
 30
0.0
 10
1367.058824
 20
-413.000000
 30
0.0
 10
1367.058824
 20
-416.000000
 30
0.0
  0
LWPOLYLINE
  5
13a
100
AcDbEntity
  8
Layer_1
 62
7
100
AcDbPolyline
 90
5
 70
0
 10
1420.705882
 20
-215.000000
 30
0.0
 10
1447.529412
 20
-215.000000
 30
0.0
 10
1447.529412
 20
-212.000000
 30
0.0
 10
1420.705882
 20
-212.000000
 30
0.0
 10
1420.705882
 20
-215.000000
 30
0.0
  0
LWPOLYLINE
  5
13b
100
AcDbEntity
  8
Layer_1
 62
7
100
AcDbPolyline
 90
5
 70
0
 10
1420.705882
 20
-416.000000
 30
0.0
 10
1447.529412
 20
-416.000000
 30
0.0
 10
1447.529412
 20
-413.000000
 30
0.0
 10
1420.705882
 20
-413.000000
 30
0.0
 10
1420.705882
 20
-416.000000
 30
0.0
  0
LWPOLYLINE
  5
13c
100
AcDbEntity
  8
Layer_1
 62
7
100
AcDbPolyline
 90
5
 70
0
 10
1474.352941
 20
-215.000000
 30
0.0
 10
1501.176471
 20
-215.000000
 30
0.0
 10
1501.176471
 20
-212.000000
 30
0.0
 10
1474.352941
 20
-212.000000
 30
0.0
 10
1474.352941
 20
-215.000000
 30
0.0
  0
LWPOLYLINE
  5
13d
100
AcDbEntity
  8
Layer_1
 62
7
100
AcDbPolyline
 90
5
 70
0
 10
1474.352941
 20
-416.000000
 30
0.0
 10
1501.176471
 20
-416.000000
 30
0.0
 10
1501.176471
 20
-413.000000
 30
0.0
 10
1474.352941
 20
-413.000000
 30
0.0
 10
1474.352941
 20
-416.000000
 30
0.0
  0
LWPOLYLINE
  5
13e
100
AcDbEntity
  8
Layer_1
 62
7
100
AcDbPolyline
 90
157
 70
0
 10
1072.000000
 20
-11.000000
 30
0.0
 10
1098.823529
 20
-11.000000
 30
0.0
 10
1098.823529
 20
-14.000000
 30
0.0
 10
1125.647059
 20
-14.000000
 30
0.0
 10
1125.647059
 20
-11.000000
 30
0.0
 10
1152.470588
 20
-11.000000
 30
0.0
 10
1152.470588
 20
-14.000000
 30
0.0
 10
1179.294118
 20
-14.000000
 30
0.0
 10
1179.294118
 20
-11.000000
 30
0.0
 10
1206.117647
 20
-11.000000
 30
0.0
 10
1206.117647
 20
-14.000000
 30
0.0
 10
1232.941176
 20
-14.000000
 30
0.0
 10
1232.941176
 20
-11.000000
 30
0.0
 10
1259.764706
 20
-11.000000
 30
0.0
 10
1259.764706
 20
-14.000000
 30
0.0
 10
1286.588235
 20
-14.000000
 30
0.0
 10
1286.588235
 20
-11.000000
 30
0.0
 10
1313.411765
 20
-11.000000
 30
0.0
 10
1313.411765
 20
-14.000000
 30
0.0
 10
1340.235294
 20
-14.000000
 30
0.0
 10
1340.235294
 20
-11.000000
 30
0.0
 10
1367.058824
 20
-11.000000
 30
0.0
 10
1367.058824
 20
-14.000000
 30
0.0
 10
1393.882353
 20
-14.000000
 30
0.0
 10
1393.882353
 20
-11.000000
 30
0.0
 10
1420.705882
 20
-11.000000
 30
0.0
 10
1420.705882
 20
-14.000000
 30
0.0
 10
1447.529412
 20
-14.000000
 30
0.0
 10
1447.529412
 20
-11.000000
 30
0.0
 10
1474.352941
 20
-11.000000
 30
0.0
 10
1474.352941
 20
-14.000000
 30
0.0
 10
1501.176471
 20
-14.000000
 30
0.0
 10
1501.176471
 20
-11.000000
 30
0.0
 10
1528.000000
 20
-11.000000
 30
0.0
 10
1528.000000
 20
-37.347826
 30
0.0
 10
1525.000000
 20
-37.347826
 30
0.0
 10
1525.000000
 20
-63.695652
 30
0.0
 10
1528.000000
 20
-63.695652
 30
0.0
 10
1528.000000
 20
-90.043478
 30
0.0
 10
1525.000000
 20
-90.043478
 30
0.0
 10
1525.000000
 20
-116.391304
 30
0.0
 10
1528.000000
 20
-116.391304
 30
0.0
 10
1528.000000
 20
-142.739130
 30
0.0
 10
1525.000000
 20
-142.739130
 30
0.0
 10
1525.000000
 20
-169.086957
 30
0.0
 10
1528.000000
 20
-169.086957
 30
0.0
 10
1528.000000
 20
-195.434783
 30
0.0
 10
1525.000000
 20
-195.434783
 30
0.0
 10
1525.000000
 20
-221.782609
 30
0.0
 10
1528.000000
 20
-221.782609
 30
0.0
 10
1528.000000
 20
-248.130435
 30
0.0
 10
1525.000000
 20
-248.130435
 30
0.0
 10
1525.000000
 20
-274.478261
 30
0.0
 10
1528.000000
 20
-274.478261
 30
0.0
 10
1528.000000
 20
-300.826087
 30
0.0
 10
1525.000000
 20
-300.826087
 30
0.0
 10
1525.000000
 20
-327.173913
 30
0.0
 10
1528.000000
 20
-327.173913
 30
0.0
 10
1528.000000
 20
-353.521739
 30
0.0
 10
1525.000000
 20
-353.521739
 30
0.0
 10
1525.000000
 20
-379.869565
 30
0.0
 10
1528.000000
 20
-379.869565
 30
0.0
 10
1528.000000
 20
-406.217391
 30
0.0
 10
1525.000000
 20
-406.217391
 30
0.0
 10
1525.000000
 20
-432.565217
 30
0.0
 10
1528.000000
 20
-432.565217
 30
0.0
 10
1528.000000
 20
-458.913043
 30
0.0
 10
1525.000000
 20
-458.913043
 30
0.0
 10
1525.000000
 20
-485.260870
 30
0.0
 10
1528.000000
 20
-485.260870
 30
0.0
 10
1528.000000
 20
-511.608696
 30
0.0
 10
1525.000000
 20
-511.608696
 30
0.0
 10
1525.000000
 20
-537.956522
 30
0.0
 10
1528.000000
 20
-537.956522
 30
0.0
 10
1528.000000
 20
-564.304348
 30
0.0
 10
1525.000000
 20
-564.304348
 30
0.0
 10
1525.000000
 20
-590.652174
 30
0.0
 10
1528.000000
 20
-590.652174
 30
0.0
 10
1528.000000
 20
-617.000000
 30
0.0
 10
1501.176471
 20
-617.000000
 30
0.0
 10
1501.176471
 20
-614.000000
 30
0.0
 10
1474.352941
 20
-614.000000
 30
0.0
 10
1474.352941
 20
-617.000000
 30
0.0
 10
1447.529412
 20
-617.000000
 30
0.0
 10
1447.529412
 20
-614.000000
 30
0.0
 10
1420.705882
 20
-614.000000
 30
0.0
 10
1420.705882
 20
-617.000000
 30
0.0
 10
1393.882353
 20
-617.000000
 30
0.0
 10
1393.882353
 20
-614.000000
 30
0.0
 10
1367.058824
 20
-614.000000
 30
0.0
 10
1367.058824
 20
-617.000000
 30
0.0
 10
1340.235294
 20
-617.000000
 30
0.0
 10
1340.235294
 20
-614.000000
 30
0.0
 10
1313.411765
 20
-614.000000
 30
0.0
 10
1313.411765
 20
-617.000000
 30
0.0
 10
1286.588235
 20
-617.000000
 30
0.0
 10
1286.588235
 20
-614.000000
 30
0.0
 10
1259.764706
 20
-614.000000
 30
0.0
 10
1259.764706
 20
-617.000000
 30
0.0
 10
1232.941176
 20
-617.000000
 30
0.0
 10
1232.941176
 20
-614.000000
 30
0.0
 10
1206.117647
 20
-614.000000
 30
0.0
 10
1206.117647
 20
-617.000000
 30
0.0
 10
1179.294118
 20
-617.000000
 30
0.0
 10
1179.294118
 20
-614.000000
 30
0.0
 10
1152.470588
 20
-614.000000
 30
0.0
 10
1152.470588
 20
-617.000000
 30
0.0
 10
1125.647059
 20
-617.000000
 30
0.0
 10
1125.647059
 20
-614.000000
 30
0.0
 10
1098.823529
 20
-614.000000
 30
0.0
 10
1098.823529
 20
-617.000000
 30
0.0
 10
1072.000000
 20
-617.000000
 30
0.0
 10
1072.000000
 20
-590.652174
 30
0.0
 10
1075.000000
 20
-590.652174
 30
0.0
 10
1075.000000
 20
-564.304348
 30
0.0
 10
1072.000000
 20
-564.304348
 30
0.0
 10
1072.000000
 20
-537.956522
 30
0.0
 10
1075.000000
 20
-537.956522
 30
0.0
 10
1075.000000
 20
-511.608696
 30
0.0
 10
1072.000000
 20
-511.608696
 30
0.0
 10
1072.000000
 20
-485.260870
 30
0.0
 10
1075.000000
 20
-485.260870
 30
0.0
 10
1075.000000
 20
-458.913043
 30
0.0
 10
1072.000000
 20
-458.913043
 30
0.0
 10
1072.000000
 20
-432.565217
 30
0.0
 10
1075.000000
 20
-432.565217
 30
0.0
 10
1075.000000
 20
-406.217391
 30
0.0
 10
1072.000000
 20
-406.217391
 30
0.0
 10
1072.000000
 20
-379.869565
 30
0.0
 10
1075.000000
 20
-379.869565
 30
0.0
 10
1075.000000
 20
-353.521739
 30
0.0
 10
1072.000000
 20
-353.521739
 30
0.0
 10
1072.000000
 20
-327.173913
 30
0.0
 10
1075.000000
 20
-327.173913
 30
0.0
 10
1075.000000
 20
-300.826087
 30
0.0
 10
1072.000000
 20
-300.826087
 30
0.0
 10
1072.000000
 20
-274.478261
 30
0.0
 10
1075.000000
 20
-274.478261
 30
0.0
 10
1075.000000
 20
-248.130435
 30
0.0
 10
1072.000000
 20
-248.130435
 30
0.0
 10
1072.000000
 20
-221.782609
 30
0.0
 10
1075.000000
 20
-221.782609
 30
0.0
 10
1075.000000
 20
-195.434783
 30
0.0
 10
1072.000000
 20
-195.434783
 30
0.0
 10
1072.000000
 20
-169.086957
 30
0.0
 10
1075.000000
 20
-169.086957
 30
0.0
 10
1075.000000
 20
-142.739130
 30
0.0
 10
1072.000000
 20
-142.739130
 30
0.0
 10
1072.000000
 20
-116.391304
 30
0.0
 10
1075.000000
 20
-116.391304
 30
0.0
 10
1075.000000
 20
-90.043478
 30
0.0
 10
1072.000000
 20
-90.043478
 30
0.0
 10
1072.000000
 20
-63.695652
 30
0.0
 10
1075.000000
 20
-63.695652
 30
0.0
 10
1075.000000
 20
-37.347826
 30
0.0
 10
1072.000000
 20
-37.347826
 30
0.0
 10
1072.000000
 20
-11.000000
 30
0.0
  0
LWPOLYLINE
  5
13f
100
AcDbEntity
  8
Layer_1
 62
7
100
AcDbPolyline
 90
109
 70
0
 10
308.000000
 20
293.000000
 30
0.0
 10
334.823529
 20
293.000000
 30
0.0
 10
334.823529
 20
296.000000
 30
0.0
 10
361.647059
 20
296.000000
 30
0.0
 10
361.647059
 20
293.000000
 30
0.0
 10
388.470588
 20
293.000000
 30
0.0
 10
388.470588
 20
296.000000
 30
0.0
 10
415.294118
 20
296.000000
 30
0.0
 10
415.294118
 20
293.000000
 30
0.0
 10
442.117647
 20
293.000000
 30
0.0
 10
442.117647
 20
296.000000
 30
0.0
 10
468.941176
 20
296.000000
 30
0.0
 10
468.941176
 20
293.000000
 30
0.0
 10
495.764706
 20
293.000000
 30
0.0
 10
495.764706
 20
296.000000
 30
0.0
 10
522.588235
 20
296.000000
 30
0.0
 10
522.588235
 20
293.000000
 30
0.0
 10
549.411765
 20
293.000000
 30
0.0
 10
549.411765
 20
296.000000
 30
0.0
 10
576.235294
 20
296.000000
 30
0.0
 10
576.235294
 20
293.000000
 30
0.0
 10
603.058824
 20
293.000000
 30
0.0
 10
603.058824
 20
296.000000
 30
0.0
 10
629.882353
 20
296.000000
 30
0.0
 10
629.882353
 20
293.000000
 30
0.0
 10
656.705882
 20
293.000000
 30
0.0
 10
656.705882
 20
296.000000
 30
0.0
 10
683.529412
 20
296.000000
 30
0.0
 10
683.529412
 20
293.000000
 30
0.0
 10
710.352941
 20
293.000000
 30
0.0
 10
710.352941
 20
296.000000
 30
0.0
 10
737.176471
 20
296.000000
 30
0.0
 10
737.176471
 20
293.000000
 30
0.0
 10
764.000000
 20
293.000000
 30
0.0
 10
764.000000
 20
268.181818
 30
0.0
 10
761.000000
 20
268.181818
 30
0.0
 10
761.000000
 20
240.363636
 30
0.0
 10
764.000000
 20
240.363636
 30
0.0
 10
764.000000
 20
212.545455
 30
0.0
 10
761.000000
 20
212.545455
 30
0.0
 10
761.000000
 20
184.727273
 30
0.0
 10
764.000000
 20
184.727273
 30
0.0
 10
764.000000
 20
156.909091
 30
0.0
 10
761.000000
 20
156.909091
 30
0.0
 10
761.000000
 20
129.090909
 30
0.0
 10
764.000000
 20
129.090909
 30
0.0
 10
764.000000
 20
101.272727
 30
0.0
 10
761.000000
 20
101.272727
 30
0.0
 10
761.000000
 20
73.454545
 30
0.0
 10
764.000000
 20
73.454545
 30
0.0
 10
764.000000
 20
45.636364
 30
0.0
 10
761.000000
 20
45.636364
 30
0.0
 10
761.000000
 20
17.818182
 30
0.0
 10
764.000000
 20
17.818182
 30
0.0
 10
764.000000
 20
-7.000000
 30
0.0
 10
737.176471
 20
-7.000000
 30
0.0
 10
737.176471
 20
-10.000000
 30
0.0
 10
710.352941
 20
-10.000000
 30
0.0
 10
710.352941
 20
-7.000000
 30
0.0
 10
683.529412
 20
-7.000000
 30
0.0
 10
683.529412
 20
-10.000000
 30
0.0
 10
656.705882
 20
-10.000000
 30
0.0
 10
656.705882
 20
-7.000000
 30
0.0
 10
629.882353
 20
-7.000000
 30
0.0
 10
629.882353
 20
-10.000000
 30
0.0
 10
603.058824
 20
-10.000000
 30
0.0
 10
603.058824
 20
-7.000000
 30
0.0
 10
576.235294
 20
-7.000000
 30
0.0
 10
576.235294
 20
-10.000000
 30
0.0
 10
549.411765
 20
-10.000000
 30
0.0
 10
549.411765
 20
-7.000000
 30
0.0
 10
522.588235
 20
-7.000000
 30
0.0
 10
522.588235
 20
-10.000000
 30
0.0
 10
495.764706
 20
-10.000000
 30
0.0
 10
495.764706
 20
-7.000000
 30
0.0
 10
468.941176
 20
-7.000000
 30
0.0
 10
468.941176
 20
-10.000000
 30
0.0
 10
442.117647
 20
-10.000000
 30
0.0
 10
442.117647
 20
-7.000000
 30
0.0
 10
415.294118
 20
-7.000000
 30
0.0
 10
415.294118
 20
-10.000000
 30
0.0
 10
388.470588
 20
-10.000000
 30
0.0
 10
388.470588
 20
-7.000000
 30
0.0
 10
361.647059
 20
-7.000000
 30
0.0
 10
361.647059
 20
-10.000000
 30
0.0
 10
334.823529
 20
-10.000000
 30
0.0
 10
334.823529
 20
-7.000000
 30
0.0
 10
308.000000
 20
-7.000000
 30
0.0
 10
308.000000
 20
17.818182
 30
0.0
 10
311.000000
 20
17.818182
 30
0.0
 10
311.000000
 20
45.636364
 30
0.0
 10
308.000000
 20
45.636364
 30
0.0
 10
308.000000
 20
73.454545
 30
0.0
 10
311.000000
 20
73.454545
 30
0.0
 10
311.000000
 20
101.272727
 30
0.0
 10
308.000000
 20
101.272727
 30
0.0
 10
308.000000
 20
129.090909
 30
0.0
 10
311.000000
 20
129.090909
 30
0.0
 10
311.000000
 20
156.909091
 30
0.0
 10
308.000000
 20
156.909091
 30
0.0
 10
308.000000
 20
184.727273
 30
0.0
 10
311.000000
 20
184.727273
 30
0.0
 10
311.000000
 20
212.545455
 30
0.0
 10
308.000000
 20
212.545455
 30
0.0
 10
308.000000
 20
240.363636
 30
0.0
 10
311.000000
 20
240.363636
 30
0.0
 10
311.000000
 20
268.181818
 30
0.0
 10
308.000000
 20
268.181818
 30
0.0
 10
308.000000
 20
293.000000
 30
0.0
  0
ENDSEC
  0
SECTION
  2
OBJECTS
  0
DICTIONARY
  5
C
330
0
100
AcDbDictionary
  3
ACAD_GROUP
350
D
  3
ACAD_MLINESTYLE
350
17
  0
DICTIONARY
  5
D
330
C
100
AcDbDictionary
  0
DICTIONARY
  5
1A
330
C
100
AcDbDictionary
  0
DICTIONARY
  5
17
330
C
100
AcDbDictionary
  3
STANDARD
350
18
  0
DICTIONARY
  5
19
330
C
100
AcDbDictionary
  0
ENDSEC
  0
EOF
