  0
SECTION
  2
HEADER
  9
$ACADVER
  1
AC1014
  9
$HANDSEED
  5
FFFF
  9
$MEASUREMENT
 70
     1
  0
ENDSEC
  0
SECTION
  2
TABLES
  0
TABLE
  2
VPORT
  5
8
330
0
100
AcDbSymbolTable
 70
     4
  0
VPORT
  5
2E
330
8
100
AcDbSymbolTableRecord
100
AcDbViewportTableRecord
  2
*ACTIVE
 70
     0
 10
0.0
 20
0.0
 11
1.0
 21
1.0
 12
210.0
 22
148.5
 13
0.0
 23
0.0
 14
10.0
 24
10.0
 15
10.0
 25
10.0
 16
0.0
 26
0.0
 36
1.0
 17
0.0
 27
0.0
 37
0.0
 40
341.0
 41
1.24
 42
50.0
 43
0.0
 44
0.0
 50
0.0
 51
0.0
 71
     0
 72
   100
 73
     1
 74
     3
 75
     0
 76
     0
 77
     0
 78
     0
  0
ENDTAB
  0
TABLE
  2
LTYPE
  5
5
330
0
100
AcDbSymbolTable
 70
     1
  0
LTYPE
  5
14
330
5
100
AcDbSymbolTableRecord
100
AcDbLinetypeTableRecord
  2
BYBLOCK
 70
     0
  3

 72
    65
 73
     0
 40
0.0
  0
LTYPE
  5
15
330
5
100
AcDbSymbolTableRecord
100
AcDbLinetypeTableRecord
  2
BYLAYER
 70
     0
  3

 72
    65
 73
     0
 40
0.0
  0
LTYPE
  5
16
330
5
100
AcDbSymbolTableRecord
100
AcDbLinetypeTableRecord
  2
CONTINUOUS
 70
     0
  3
Solid line
 72
    65
 73
     0
 40
0.0
  0
ENDTAB
  0
TABLE
  2
LAYER
  5
2
100
AcDbSymbolTable
 70
3
  0
LAYER
  5
50
100
AcDbSymbolTableRecord
100
AcDbLayerTableRecord
  2
0
 70
0
  6
CONTINUOUS
  0
LAYER
  5
51
100
AcDbSymbolTableRecord
100
AcDbLayerTableRecord
  2
Layer_1
 70
0
  6
CONTINUOUS
  0
LAYER
  5
52
100
AcDbSymbolTableRecord
100
AcDbLayerTableRecord
  2
newlayer
 70
0
  6
CONTINUOUS
  0
ENDTAB
  0
TABLE
  2
STYLE
  5
3
330
0
100
AcDbSymbolTable
 70
     1
  0
STYLE
  5
11
330
3
100
AcDbSymbolTableRecord
100
AcDbTextStyleTableRecord
  2
STANDARD
 70
     0
 40
0.0
 41
1.0
 50
0.0
 71
     0
 42
2.5
  3
txt
  4

  0
ENDTAB
  0
TABLE
  2
VIEW
  5
6
330
0
100
AcDbSymbolTable
 70
     0
  0
ENDTAB
  0
TABLE
  2
UCS
  5
7
330
0
100
AcDbSymbolTable
 70
     0
  0
ENDTAB
  0
TABLE
  2
APPID
  5
9
330
0
100
AcDbSymbolTable
 70
     2
  0
APPID
  5
12
330
9
100
AcDbSymbolTableRecord
100
AcDbRegAppTableRecord
  2
ACAD
 70
     0
  0
ENDTAB
  0
TABLE
  2
DIMSTYLE
  5
A
330
0
100
AcDbSymbolTable
 70
     1
  0
DIMSTYLE
105
27
330
A
100
AcDbSymbolTableRecord
100
AcDbDimStyleTableRecord
  2
ISO-25
 70
     0
  3

  4

  5

  6

  7

 40
1.0
 41
2.5
 42
0.625
 43
3.75
 44
1.25
 45
0.0
 46
0.0
 47
0.0
 48
0.0
140
2.5
141
2.5
142
0.0
143
0.03937007874016
144
1.0
145
0.0
146
1.0
147
0.625
 71
     0
 72
     0
 73
     0
 74
     0
 75
     0
 76
     0
 77
     1
 78
     8
170
     0
171
     3
172
     1
173
     0
174
     0
175
     0
176
     0
177
     0
178
     0
270
     2
271
     2
272
     2
273
     2
274
     3
340
11
275
     0
280
     0
281
     0
282
     0
283
     0
284
     8
285
     0
286
     0
287
     3
288
     0
  0
ENDTAB
  0
TABLE
  2
BLOCK_RECORD
  5
1
330
0
100
AcDbSymbolTable
 70
     1
  0
BLOCK_RECORD
  5
1F
330
1
100
AcDbSymbolTableRecord
100
AcDbBlockTableRecord
  2
*MODEL_SPACE
  0
BLOCK_RECORD
  5
1B
330
1
100
AcDbSymbolTableRecord
100
AcDbBlockTableRecord
  2
*PAPER_SPACE
  0
ENDTAB
  0
ENDSEC
  0
SECTION
  2
BLOCKS
  0
BLOCK
  5
20
330
1F
100
AcDbEntity
  8
0
100
AcDbBlockBegin
  2
*MODEL_SPACE
 70
     0
 10
0.0
 20
0.0
 30
0.0
  3
*MODEL_SPACE
  1

  0
ENDBLK
  5
21
330
1F
100
AcDbEntity
  8
0
100
AcDbBlockEnd
  0
BLOCK
  5
1C
330
1B
100
AcDbEntity
 67
     1
  8
0
100
AcDbBlockBegin
  2
*PAPER_SPACE
  1

  0
ENDBLK
  5
1D
330
1B
100
AcDbEntity
 67
     1
  8
0
100
AcDbBlockEnd
  0
ENDSEC
  0
SECTION
  2
ENTITIES
  0
LWPOLYLINE
  5
100
100
AcDbEntity
  8
newlayer
 62
7
100
AcDbPolyline
 90
189
 70
0
 10
298.000000
 20
-511.000000
 30
0.0
 10
313.724138
 20
-511.000000
 30
0.0
 10
313.724138
 20
-508.000000
 30
0.0
 10
329.448276
 20
-508.000000
 30
0.0
 10
329.448276
 20
-511.000000
 30
0.0
 10
345.172414
 20
-511.000000
 30
0.0
 10
345.172414
 20
-508.000000
 30
0.0
 10
360.896552
 20
-508.000000
 30
0.0
 10
360.896552
 20
-511.000000
 30
0.0
 10
376.620690
 20
-511.000000
 30
0.0
 10
376.620690
 20
-508.000000
 30
0.0
 10
392.344828
 20
-508.000000
 30
0.0
 10
392.344828
 20
-511.000000
 30
0.0
 10
408.068966
 20
-511.000000
 30
0.0
 10
408.068966
 20
-508.000000
 30
0.0
 10
423.793103
 20
-508.000000
 30
0.0
 10
423.793103
 20
-511.000000
 30
0.0
 10
439.517241
 20
-511.000000
 30
0.0
 10
439.517241
 20
-508.000000
 30
0.0
 10
455.241379
 20
-508.000000
 30
0.0
 10
455.241379
 20
-511.000000
 30
0.0
 10
470.965517
 20
-511.000000
 30
0.0
 10
470.965517
 20
-508.000000
 30
0.0
 10
486.689655
 20
-508.000000
 30
0.0
 10
486.689655
 20
-511.000000
 30
0.0
 10
502.413793
 20
-511.000000
 30
0.0
 10
502.413793
 20
-508.000000
 30
0.0
 10
518.137931
 20
-508.000000
 30
0.0
 10
518.137931
 20
-511.000000
 30
0.0
 10
533.862069
 20
-511.000000
 30
0.0
 10
533.862069
 20
-508.000000
 30
0.0
 10
549.586207
 20
-508.000000
 30
0.0
 10
549.586207
 20
-511.000000
 30
0.0
 10
565.310345
 20
-511.000000
 30
0.0
 10
565.310345
 20
-508.000000
 30
0.0
 10
581.034483
 20
-508.000000
 30
0.0
 10
581.034483
 20
-511.000000
 30
0.0
 10
596.758621
 20
-511.000000
 30
0.0
 10
596.758621
 20
-508.000000
 30
0.0
 10
612.482759
 20
-508.000000
 30
0.0
 10
612.482759
 20
-511.000000
 30
0.0
 10
628.206897
 20
-511.000000
 30
0.0
 10
628.206897
 20
-508.000000
 30
0.0
 10
643.931034
 20
-508.000000
 30
0.0
 10
643.931034
 20
-511.000000
 30
0.0
 10
659.655172
 20
-511.000000
 30
0.0
 10
659.655172
 20
-508.000000
 30
0.0
 10
675.379310
 20
-508.000000
 30
0.0
 10
675.379310
 20
-511.000000
 30
0.0
 10
691.103448
 20
-511.000000
 30
0.0
 10
691.103448
 20
-508.000000
 30
0.0
 10
706.827586
 20
-508.000000
 30
0.0
 10
706.827586
 20
-511.000000
 30
0.0
 10
722.551724
 20
-511.000000
 30
0.0
 10
722.551724
 20
-508.000000
 30
0.0
 10
738.275862
 20
-508.000000
 30
0.0
 10
738.275862
 20
-511.000000
 30
0.0
 10
754.000000
 20
-511.000000
 30
0.0
 10
754.000000
 20
-523.578947
 30
0.0
 10
751.000000
 20
-523.578947
 30
0.0
 10
751.000000
 20
-539.157895
 30
0.0
 10
754.000000
 20
-539.157895
 30
0.0
 10
754.000000
 20
-554.736842
 30
0.0
 10
751.000000
 20
-554.736842
 30
0.0
 10
751.000000
 20
-570.315789
 30
0.0
 10
754.000000
 20
-570.315789
 30
0.0
 10
754.000000
 20
-585.894737
 30
0.0
 10
751.000000
 20
-585.894737
 30
0.0
 10
751.000000
 20
-601.473684
 30
0.0
 10
754.000000
 20
-601.473684
 30
0.0
 10
754.000000
 20
-617.052632
 30
0.0
 10
751.000000
 20
-617.052632
 30
0.0
 10
751.000000
 20
-632.631579
 30
0.0
 10
754.000000
 20
-632.631579
 30
0.0
 10
754.000000
 20
-648.210526
 30
0.0
 10
751.000000
 20
-648.210526
 30
0.0
 10
751.000000
 20
-663.789474
 30
0.0
 10
754.000000
 20
-663.789474
 30
0.0
 10
754.000000
 20
-679.368421
 30
0.0
 10
751.000000
 20
-679.368421
 30
0.0
 10
751.000000
 20
-694.947368
 30
0.0
 10
754.000000
 20
-694.947368
 30
0.0
 10
754.000000
 20
-710.526316
 30
0.0
 10
751.000000
 20
-710.526316
 30
0.0
 10
751.000000
 20
-726.105263
 30
0.0
 10
754.000000
 20
-726.105263
 30
0.0
 10
754.000000
 20
-741.684211
 30
0.0
 10
751.000000
 20
-741.684211
 30
0.0
 10
751.000000
 20
-757.263158
 30
0.0
 10
754.000000
 20
-757.263158
 30
0.0
 10
754.000000
 20
-772.842105
 30
0.0
 10
751.000000
 20
-772.842105
 30
0.0
 10
751.000000
 20
-788.421053
 30
0.0
 10
754.000000
 20
-788.421053
 30
0.0
 10
754.000000
 20
-801.000000
 30
0.0
 10
738.275862
 20
-801.000000
 30
0.0
 10
738.275862
 20
-804.000000
 30
0.0
 10
722.551724
 20
-804.000000
 30
0.0
 10
722.551724
 20
-801.000000
 30
0.0
 10
706.827586
 20
-801.000000
 30
0.0
 10
706.827586
 20
-804.000000
 30
0.0
 10
691.103448
 20
-804.000000
 30
0.0
 10
691.103448
 20
-801.000000
 30
0.0
 10
675.379310
 20
-801.000000
 30
0.0
 10
675.379310
 20
-804.000000
 30
0.0
 10
659.655172
 20
-804.000000
 30
0.0
 10
659.655172
 20
-801.000000
 30
0.0
 10
643.931034
 20
-801.000000
 30
0.0
 10
643.931034
 20
-804.000000
 30
0.0
 10
628.206897
 20
-804.000000
 30
0.0
 10
628.206897
 20
-801.000000
 30
0.0
 10
612.482759
 20
-801.000000
 30
0.0
 10
612.482759
 20
-804.000000
 30
0.0
 10
596.758621
 20
-804.000000
 30
0.0
 10
596.758621
 20
-801.000000
 30
0.0
 10
581.034483
 20
-801.000000
 30
0.0
 10
581.034483
 20
-804.000000
 30
0.0
 10
565.310345
 20
-804.000000
 30
0.0
 10
565.310345
 20
-801.000000
 30
0.0
 10
549.586207
 20
-801.000000
 30
0.0
 10
549.586207
 20
-804.000000
 30
0.0
 10
533.862069
 20
-804.000000
 30
0.0
 10
533.862069
 20
-801.000000
 30
0.0
 10
518.137931
 20
-801.000000
 30
0.0
 10
518.137931
 20
-804.000000
 30
0.0
 10
502.413793
 20
-804.000000
 30
0.0
 10
502.413793
 20
-801.000000
 30
0.0
 10
486.689655
 20
-801.000000
 30
0.0
 10
486.689655
 20
-804.000000
 30
0.0
 10
470.965517
 20
-804.000000
 30
0.0
 10
470.965517
 20
-801.000000
 30
0.0
 10
455.241379
 20
-801.000000
 30
0.0
 10
455.241379
 20
-804.000000
 30
0.0
 10
439.517241
 20
-804.000000
 30
0.0
 10
439.517241
 20
-801.000000
 30
0.0
 10
423.793103
 20
-801.000000
 30
0.0
 10
423.793103
 20
-804.000000
 30
0.0
 10
408.068966
 20
-804.000000
 30
0.0
 10
408.068966
 20
-801.000000
 30
0.0
 10
392.344828
 20
-801.000000
 30
0.0
 10
392.344828
 20
-804.000000
 30
0.0
 10
376.620690
 20
-804.000000
 30
0.0
 10
376.620690
 20
-801.000000
 30
0.0
 10
360.896552
 20
-801.000000
 30
0.0
 10
360.896552
 20
-804.000000
 30
0.0
 10
345.172414
 20
-804.000000
 30
0.0
 10
345.172414
 20
-801.000000
 30
0.0
 10
329.448276
 20
-801.000000
 30
0.0
 10
329.448276
 20
-804.000000
 30
0.0
 10
313.724138
 20
-804.000000
 30
0.0
 10
313.724138
 20
-801.000000
 30
0.0
 10
298.000000
 20
-801.000000
 30
0.0
 10
298.000000
 20
-788.421053
 30
0.0
 10
301.000000
 20
-788.421053
 30
0.0
 10
301.000000
 20
-772.842105
 30
0.0
 10
298.000000
 20
-772.842105
 30
0.0
 10
298.000000
 20
-757.263158
 30
0.0
 10
301.000000
 20
-757.263158
 30
0.0
 10
301.000000
 20
-741.684211
 30
0.0
 10
298.000000
 20
-741.684211
 30
0.0
 10
298.000000
 20
-726.105263
 30
0.0
 10
301.000000
 20
-726.105263
 30
0.0
 10
301.000000
 20
-710.526316
 30
0.0
 10
298.000000
 20
-710.526316
 30
0.0
 10
298.000000
 20
-694.947368
 30
0.0
 10
301.000000
 20
-694.947368
 30
0.0
 10
301.000000
 20
-679.368421
 30
0.0
 10
298.000000
 20
-679.368421
 30
0.0
 10
298.000000
 20
-663.789474
 30
0.0
 10
301.000000
 20
-663.789474
 30
0.0
 10
301.000000
 20
-648.210526
 30
0.0
 10
298.000000
 20
-648.210526
 30
0.0
 10
298.000000
 20
-632.631579
 30
0.0
 10
301.000000
 20
-632.631579
 30
0.0
 10
301.000000
 20
-617.052632
 30
0.0
 10
298.000000
 20
-617.052632
 30
0.0
 10
298.000000
 20
-601.473684
 30
0.0
 10
301.000000
 20
-601.473684
 30
0.0
 10
301.000000
 20
-585.894737
 30
0.0
 10
298.000000
 20
-585.894737
 30
0.0
 10
298.000000
 20
-570.315789
 30
0.0
 10
301.000000
 20
-570.315789
 30
0.0
 10
301.000000
 20
-554.736842
 30
0.0
 10
298.000000
 20
-554.736842
 30
0.0
 10
298.000000
 20
-539.157895
 30
0.0
 10
301.000000
 20
-539.157895
 30
0.0
 10
301.000000
 20
-523.578947
 30
0.0
 10
298.000000
 20
-523.578947
 30
0.0
 10
298.000000
 20
-511.000000
 30
0.0
  0
LWPOLYLINE
  5
101
100
AcDbEntity
  8
newlayer
 62
7
100
AcDbPolyline
 90
189
 70
0
 10
0.000000
 20
-808.000000
 30
0.0
 10
15.724138
 20
-808.000000
 30
0.0
 10
15.724138
 20
-805.000000
 30
0.0
 10
31.448276
 20
-805.000000
 30
0.0
 10
31.448276
 20
-808.000000
 30
0.0
 10
47.172414
 20
-808.000000
 30
0.0
 10
47.172414
 20
-805.000000
 30
0.0
 10
62.896552
 20
-805.000000
 30
0.0
 10
62.896552
 20
-808.000000
 30
0.0
 10
78.620690
 20
-808.000000
 30
0.0
 10
78.620690
 20
-805.000000
 30
0.0
 10
94.344828
 20
-805.000000
 30
0.0
 10
94.344828
 20
-808.000000
 30
0.0
 10
110.068966
 20
-808.000000
 30
0.0
 10
110.068966
 20
-805.000000
 30
0.0
 10
125.793103
 20
-805.000000
 30
0.0
 10
125.793103
 20
-808.000000
 30
0.0
 10
141.517241
 20
-808.000000
 30
0.0
 10
141.517241
 20
-805.000000
 30
0.0
 10
157.241379
 20
-805.000000
 30
0.0
 10
157.241379
 20
-808.000000
 30
0.0
 10
172.965517
 20
-808.000000
 30
0.0
 10
172.965517
 20
-805.000000
 30
0.0
 10
188.689655
 20
-805.000000
 30
0.0
 10
188.689655
 20
-808.000000
 30
0.0
 10
204.413793
 20
-808.000000
 30
0.0
 10
204.413793
 20
-805.000000
 30
0.0
 10
220.137931
 20
-805.000000
 30
0.0
 10
220.137931
 20
-808.000000
 30
0.0
 10
235.862069
 20
-808.000000
 30
0.0
 10
235.862069
 20
-805.000000
 30
0.0
 10
251.586207
 20
-805.000000
 30
0.0
 10
251.586207
 20
-808.000000
 30
0.0
 10
267.310345
 20
-808.000000
 30
0.0
 10
267.310345
 20
-805.000000
 30
0.0
 10
283.034483
 20
-805.000000
 30
0.0
 10
283.034483
 20
-808.000000
 30
0.0
 10
298.758621
 20
-808.000000
 30
0.0
 10
298.758621
 20
-805.000000
 30
0.0
 10
314.482759
 20
-805.000000
 30
0.0
 10
314.482759
 20
-808.000000
 30
0.0
 10
330.206897
 20
-808.000000
 30
0.0
 10
330.206897
 20
-805.000000
 30
0.0
 10
345.931034
 20
-805.000000
 30
0.0
 10
345.931034
 20
-808.000000
 30
0.0
 10
361.655172
 20
-808.000000
 30
0.0
 10
361.655172
 20
-805.000000
 30
0.0
 10
377.379310
 20
-805.000000
 30
0.0
 10
377.379310
 20
-808.000000
 30
0.0
 10
393.103448
 20
-808.000000
 30
0.0
 10
393.103448
 20
-805.000000
 30
0.0
 10
408.827586
 20
-805.000000
 30
0.0
 10
408.827586
 20
-808.000000
 30
0.0
 10
424.551724
 20
-808.000000
 30
0.0
 10
424.551724
 20
-805.000000
 30
0.0
 10
440.275862
 20
-805.000000
 30
0.0
 10
440.275862
 20
-808.000000
 30
0.0
 10
456.000000
 20
-808.000000
 30
0.0
 10
456.000000
 20
-820.578947
 30
0.0
 10
453.000000
 20
-820.578947
 30
0.0
 10
453.000000
 20
-836.157895
 30
0.0
 10
456.000000
 20
-836.157895
 30
0.0
 10
456.000000
 20
-851.736842
 30
0.0
 10
453.000000
 20
-851.736842
 30
0.0
 10
453.000000
 20
-867.315789
 30
0.0
 10
456.000000
 20
-867.315789
 30
0.0
 10
456.000000
 20
-882.894737
 30
0.0
 10
453.000000
 20
-882.894737
 30
0.0
 10
453.000000
 20
-898.473684
 30
0.0
 10
456.000000
 20
-898.473684
 30
0.0
 10
456.000000
 20
-914.052632
 30
0.0
 10
453.000000
 20
-914.052632
 30
0.0
 10
453.000000
 20
-929.631579
 30
0.0
 10
456.000000
 20
-929.631579
 30
0.0
 10
456.000000
 20
-945.210526
 30
0.0
 10
453.000000
 20
-945.210526
 30
0.0
 10
453.000000
 20
-960.789474
 30
0.0
 10
456.000000
 20
-960.789474
 30
0.0
 10
456.000000
 20
-976.368421
 30
0.0
 10
453.000000
 20
-976.368421
 30
0.0
 10
453.000000
 20
-991.947368
 30
0.0
 10
456.000000
 20
-991.947368
 30
0.0
 10
456.000000
 20
-1007.526316
 30
0.0
 10
453.000000
 20
-1007.526316
 30
0.0
 10
453.000000
 20
-1023.105263
 30
0.0
 10
456.000000
 20
-1023.105263
 30
0.0
 10
456.000000
 20
-1038.684211
 30
0.0
 10
453.000000
 20
-1038.684211
 30
0.0
 10
453.000000
 20
-1054.263158
 30
0.0
 10
456.000000
 20
-1054.263158
 30
0.0
 10
456.000000
 20
-1069.842105
 30
0.0
 10
453.000000
 20
-1069.842105
 30
0.0
 10
453.000000
 20
-1085.421053
 30
0.0
 10
456.000000
 20
-1085.421053
 30
0.0
 10
456.000000
 20
-1098.000000
 30
0.0
 10
440.275862
 20
-1098.000000
 30
0.0
 10
440.275862
 20
-1101.000000
 30
0.0
 10
424.551724
 20
-1101.000000
 30
0.0
 10
424.551724
 20
-1098.000000
 30
0.0
 10
408.827586
 20
-1098.000000
 30
0.0
 10
408.827586
 20
-1101.000000
 30
0.0
 10
393.103448
 20
-1101.000000
 30
0.0
 10
393.103448
 20
-1098.000000
 30
0.0
 10
377.379310
 20
-1098.000000
 30
0.0
 10
377.379310
 20
-1101.000000
 30
0.0
 10
361.655172
 20
-1101.000000
 30
0.0
 10
361.655172
 20
-1098.000000
 30
0.0
 10
345.931034
 20
-1098.000000
 30
0.0
 10
345.931034
 20
-1101.000000
 30
0.0
 10
330.206897
 20
-1101.000000
 30
0.0
 10
330.206897
 20
-1098.000000
 30
0.0
 10
314.482759
 20
-1098.000000
 30
0.0
 10
314.482759
 20
-1101.000000
 30
0.0
 10
298.758621
 20
-1101.000000
 30
0.0
 10
298.758621
 20
-1098.000000
 30
0.0
 10
283.034483
 20
-1098.000000
 30
0.0
 10
283.034483
 20
-1101.000000
 30
0.0
 10
267.310345
 20
-1101.000000
 30
0.0
 10
267.310345
 20
-1098.000000
 30
0.0
 10
251.586207
 20
-1098.000000
 30
0.0
 10
251.586207
 20
-1101.000000
 30
0.0
 10
235.862069
 20
-1101.000000
 30
0.0
 10
235.862069
 20
-1098.000000
 30
0.0
 10
220.137931
 20
-1098.000000
 30
0.0
 10
220.137931
 20
-1101.000000
 30
0.0
 10
204.413793
 20
-1101.000000
 30
0.0
 10
204.413793
 20
-1098.000000
 30
0.0
 10
188.689655
 20
-1098.000000
 30
0.0
 10
188.689655
 20
-1101.000000
 30
0.0
 10
172.965517
 20
-1101.000000
 30
0.0
 10
172.965517
 20
-1098.000000
 30
0.0
 10
157.241379
 20
-1098.000000
 30
0.0
 10
157.241379
 20
-1101.000000
 30
0.0
 10
141.517241
 20
-1101.000000
 30
0.0
 10
141.517241
 20
-1098.000000
 30
0.0
 10
125.793103
 20
-1098.000000
 30
0.0
 10
125.793103
 20
-1101.000000
 30
0.0
 10
110.068966
 20
-1101.000000
 30
0.0
 10
110.068966
 20
-1098.000000
 30
0.0
 10
94.344828
 20
-1098.000000
 30
0.0
 10
94.344828
 20
-1101.000000
 30
0.0
 10
78.620690
 20
-1101.000000
 30
0.0
 10
78.620690
 20
-1098.000000
 30
0.0
 10
62.896552
 20
-1098.000000
 30
0.0
 10
62.896552
 20
-1101.000000
 30
0.0
 10
47.172414
 20
-1101.000000
 30
0.0
 10
47.172414
 20
-1098.000000
 30
0.0
 10
31.448276
 20
-1098.000000
 30
0.0
 10
31.448276
 20
-1101.000000
 30
0.0
 10
15.724138
 20
-1101.000000
 30
0.0
 10
15.724138
 20
-1098.000000
 30
0.0
 10
0.000000
 20
-1098.000000
 30
0.0
 10
0.000000
 20
-1085.421053
 30
0.0
 10
3.000000
 20
-1085.421053
 30
0.0
 10
3.000000
 20
-1069.842105
 30
0.0
 10
0.000000
 20
-1069.842105
 30
0.0
 10
0.000000
 20
-1054.263158
 30
0.0
 10
3.000000
 20
-1054.263158
 30
0.0
 10
3.000000
 20
-1038.684211
 30
0.0
 10
0.000000
 20
-1038.684211
 30
0.0
 10
0.000000
 20
-1023.105263
 30
0.0
 10
3.000000
 20
-1023.105263
 30
0.0
 10
3.000000
 20
-1007.526316
 30
0.0
 10
0.000000
 20
-1007.526316
 30
0.0
 10
0.000000
 20
-991.947368
 30
0.0
 10
3.000000
 20
-991.947368
 30
0.0
 10
3.000000
 20
-976.368421
 30
0.0
 10
0.000000
 20
-976.368421
 30
0.0
 10
0.000000
 20
-960.789474
 30
0.0
 10
3.000000
 20
-960.789474
 30
0.0
 10
3.000000
 20
-945.210526
 30
0.0
 10
0.000000
 20
-945.210526
 30
0.0
 10
0.000000
 20
-929.631579
 30
0.0
 10
3.000000
 20
-929.631579
 30
0.0
 10
3.000000
 20
-914.052632
 30
0.0
 10
0.000000
 20
-914.052632
 30
0.0
 10
0.000000
 20
-898.473684
 30
0.0
 10
3.000000
 20
-898.473684
 30
0.0
 10
3.000000
 20
-882.894737
 30
0.0
 10
0.000000
 20
-882.894737
 30
0.0
 10
0.000000
 20
-867.315789
 30
0.0
 10
3.000000
 20
-867.315789
 30
0.0
 10
3.000000
 20
-851.736842
 30
0.0
 10
0.000000
 20
-851.736842
 30
0.0
 10
0.000000
 20
-836.157895
 30
0.0
 10
3.000000
 20
-836.157895
 30
0.0
 10
3.000000
 20
-820.578947
 30
0.0
 10
0.000000
 20
-820.578947
 30
0.0
 10
0.000000
 20
-808.000000
 30
0.0
  0
LWPOLYLINE
  5
102
100
AcDbEntity
  8
newlayer
 62
7
100
AcDbPolyline
 90
189
 70
0
 10
457.000000
 20
-808.000000
 30
0.0
 10
472.724138
 20
-808.000000
 30
0.0
 10
472.724138
 20
-805.000000
 30
0.0
 10
488.448276
 20
-805.000000
 30
0.0
 10
488.448276
 20
-808.000000
 30
0.0
 10
504.172414
 20
-808.000000
 30
0.0
 10
504.172414
 20
-805.000000
 30
0.0
 10
519.896552
 20
-805.000000
 30
0.0
 10
519.896552
 20
-808.000000
 30
0.0
 10
535.620690
 20
-808.000000
 30
0.0
 10
535.620690
 20
-805.000000
 30
0.0
 10
551.344828
 20
-805.000000
 30
0.0
 10
551.344828
 20
-808.000000
 30
0.0
 10
567.068966
 20
-808.000000
 30
0.0
 10
567.068966
 20
-805.000000
 30
0.0
 10
582.793103
 20
-805.000000
 30
0.0
 10
582.793103
 20
-808.000000
 30
0.0
 10
598.517241
 20
-808.000000
 30
0.0
 10
598.517241
 20
-805.000000
 30
0.0
 10
614.241379
 20
-805.000000
 30
0.0
 10
614.241379
 20
-808.000000
 30
0.0
 10
629.965517
 20
-808.000000
 30
0.0
 10
629.965517
 20
-805.000000
 30
0.0
 10
645.689655
 20
-805.000000
 30
0.0
 10
645.689655
 20
-808.000000
 30
0.0
 10
661.413793
 20
-808.000000
 30
0.0
 10
661.413793
 20
-805.000000
 30
0.0
 10
677.137931
 20
-805.000000
 30
0.0
 10
677.137931
 20
-808.000000
 30
0.0
 10
692.862069
 20
-808.000000
 30
0.0
 10
692.862069
 20
-805.000000
 30
0.0
 10
708.586207
 20
-805.000000
 30
0.0
 10
708.586207
 20
-808.000000
 30
0.0
 10
724.310345
 20
-808.000000
 30
0.0
 10
724.310345
 20
-805.000000
 30
0.0
 10
740.034483
 20
-805.000000
 30
0.0
 10
740.034483
 20
-808.000000
 30
0.0
 10
755.758621
 20
-808.000000
 30
0.0
 10
755.758621
 20
-805.000000
 30
0.0
 10
771.482759
 20
-805.000000
 30
0.0
 10
771.482759
 20
-808.000000
 30
0.0
 10
787.206897
 20
-808.000000
 30
0.0
 10
787.206897
 20
-805.000000
 30
0.0
 10
802.931034
 20
-805.000000
 30
0.0
 10
802.931034
 20
-808.000000
 30
0.0
 10
818.655172
 20
-808.000000
 30
0.0
 10
818.655172
 20
-805.000000
 30
0.0
 10
834.379310
 20
-805.000000
 30
0.0
 10
834.379310
 20
-808.000000
 30
0.0
 10
850.103448
 20
-808.000000
 30
0.0
 10
850.103448
 20
-805.000000
 30
0.0
 10
865.827586
 20
-805.000000
 30
0.0
 10
865.827586
 20
-808.000000
 30
0.0
 10
881.551724
 20
-808.000000
 30
0.0
 10
881.551724
 20
-805.000000
 30
0.0
 10
897.275862
 20
-805.000000
 30
0.0
 10
897.275862
 20
-808.000000
 30
0.0
 10
913.000000
 20
-808.000000
 30
0.0
 10
913.000000
 20
-820.578947
 30
0.0
 10
910.000000
 20
-820.578947
 30
0.0
 10
910.000000
 20
-836.157895
 30
0.0
 10
913.000000
 20
-836.157895
 30
0.0
 10
913.000000
 20
-851.736842
 30
0.0
 10
910.000000
 20
-851.736842
 30
0.0
 10
910.000000
 20
-867.315789
 30
0.0
 10
913.000000
 20
-867.315789
 30
0.0
 10
913.000000
 20
-882.894737
 30
0.0
 10
910.000000
 20
-882.894737
 30
0.0
 10
910.000000
 20
-898.473684
 30
0.0
 10
913.000000
 20
-898.473684
 30
0.0
 10
913.000000
 20
-914.052632
 30
0.0
 10
910.000000
 20
-914.052632
 30
0.0
 10
910.000000
 20
-929.631579
 30
0.0
 10
913.000000
 20
-929.631579
 30
0.0
 10
913.000000
 20
-945.210526
 30
0.0
 10
910.000000
 20
-945.210526
 30
0.0
 10
910.000000
 20
-960.789474
 30
0.0
 10
913.000000
 20
-960.789474
 30
0.0
 10
913.000000
 20
-976.368421
 30
0.0
 10
910.000000
 20
-976.368421
 30
0.0
 10
910.000000
 20
-991.947368
 30
0.0
 10
913.000000
 20
-991.947368
 30
0.0
 10
913.000000
 20
-1007.526316
 30
0.0
 10
910.000000
 20
-1007.526316
 30
0.0
 10
910.000000
 20
-1023.105263
 30
0.0
 10
913.000000
 20
-1023.105263
 30
0.0
 10
913.000000
 20
-1038.684211
 30
0.0
 10
910.000000
 20
-1038.684211
 30
0.0
 10
910.000000
 20
-1054.263158
 30
0.0
 10
913.000000
 20
-1054.263158
 30
0.0
 10
913.000000
 20
-1069.842105
 30
0.0
 10
910.000000
 20
-1069.842105
 30
0.0
 10
910.000000
 20
-1085.421053
 30
0.0
 10
913.000000
 20
-1085.421053
 30
0.0
 10
913.000000
 20
-1098.000000
 30
0.0
 10
897.275862
 20
-1098.000000
 30
0.0
 10
897.275862
 20
-1101.000000
 30
0.0
 10
881.551724
 20
-1101.000000
 30
0.0
 10
881.551724
 20
-1098.000000
 30
0.0
 10
865.827586
 20
-1098.000000
 30
0.0
 10
865.827586
 20
-1101.000000
 30
0.0
 10
850.103448
 20
-1101.000000
 30
0.0
 10
850.103448
 20
-1098.000000
 30
0.0
 10
834.379310
 20
-1098.000000
 30
0.0
 10
834.379310
 20
-1101.000000
 30
0.0
 10
818.655172
 20
-1101.000000
 30
0.0
 10
818.655172
 20
-1098.000000
 30
0.0
 10
802.931034
 20
-1098.000000
 30
0.0
 10
802.931034
 20
-1101.000000
 30
0.0
 10
787.206897
 20
-1101.000000
 30
0.0
 10
787.206897
 20
-1098.000000
 30
0.0
 10
771.482759
 20
-1098.000000
 30
0.0
 10
771.482759
 20
-1101.000000
 30
0.0
 10
755.758621
 20
-1101.000000
 30
0.0
 10
755.758621
 20
-1098.000000
 30
0.0
 10
740.034483
 20
-1098.000000
 30
0.0
 10
740.034483
 20
-1101.000000
 30
0.0
 10
724.310345
 20
-1101.000000
 30
0.0
 10
724.310345
 20
-1098.000000
 30
0.0
 10
708.586207
 20
-1098.000000
 30
0.0
 10
708.586207
 20
-1101.000000
 30
0.0
 10
692.862069
 20
-1101.000000
 30
0.0
 10
692.862069
 20
-1098.000000
 30
0.0
 10
677.137931
 20
-1098.000000
 30
0.0
 10
677.137931
 20
-1101.000000
 30
0.0
 10
661.413793
 20
-1101.000000
 30
0.0
 10
661.413793
 20
-1098.000000
 30
0.0
 10
645.689655
 20
-1098.000000
 30
0.0
 10
645.689655
 20
-1101.000000
 30
0.0
 10
629.965517
 20
-1101.000000
 30
0.0
 10
629.965517
 20
-1098.000000
 30
0.0
 10
614.241379
 20
-1098.000000
 30
0.0
 10
614.241379
 20
-1101.000000
 30
0.0
 10
598.517241
 20
-1101.000000
 30
0.0
 10
598.517241
 20
-1098.000000
 30
0.0
 10
582.793103
 20
-1098.000000
 30
0.0
 10
582.793103
 20
-1101.000000
 30
0.0
 10
567.068966
 20
-1101.000000
 30
0.0
 10
567.068966
 20
-1098.000000
 30
0.0
 10
551.344828
 20
-1098.000000
 30
0.0
 10
551.344828
 20
-1101.000000
 30
0.0
 10
535.620690
 20
-1101.000000
 30
0.0
 10
535.620690
 20
-1098.000000
 30
0.0
 10
519.896552
 20
-1098.000000
 30
0.0
 10
519.896552
 20
-1101.000000
 30
0.0
 10
504.172414
 20
-1101.000000
 30
0.0
 10
504.172414
 20
-1098.000000
 30
0.0
 10
488.448276
 20
-1098.000000
 30
0.0
 10
488.448276
 20
-1101.000000
 30
0.0
 10
472.724138
 20
-1101.000000
 30
0.0
 10
472.724138
 20
-1098.000000
 30
0.0
 10
457.000000
 20
-1098.000000
 30
0.0
 10
457.000000
 20
-1085.421053
 30
0.0
 10
460.000000
 20
-1085.421053
 30
0.0
 10
460.000000
 20
-1069.842105
 30
0.0
 10
457.000000
 20
-1069.842105
 30
0.0
 10
457.000000
 20
-1054.263158
 30
0.0
 10
460.000000
 20
-1054.263158
 30
0.0
 10
460.000000
 20
-1038.684211
 30
0.0
 10
457.000000
 20
-1038.684211
 30
0.0
 10
457.000000
 20
-1023.105263
 30
0.0
 10
460.000000
 20
-1023.105263
 30
0.0
 10
460.000000
 20
-1007.526316
 30
0.0
 10
457.000000
 20
-1007.526316
 30
0.0
 10
457.000000
 20
-991.947368
 30
0.0
 10
460.000000
 20
-991.947368
 30
0.0
 10
460.000000
 20
-976.368421
 30
0.0
 10
457.000000
 20
-976.368421
 30
0.0
 10
457.000000
 20
-960.789474
 30
0.0
 10
460.000000
 20
-960.789474
 30
0.0
 10
460.000000
 20
-945.210526
 30
0.0
 10
457.000000
 20
-945.210526
 30
0.0
 10
457.000000
 20
-929.631579
 30
0.0
 10
460.000000
 20
-929.631579
 30
0.0
 10
460.000000
 20
-914.052632
 30
0.0
 10
457.000000
 20
-914.052632
 30
0.0
 10
457.000000
 20
-898.473684
 30
0.0
 10
460.000000
 20
-898.473684
 30
0.0
 10
460.000000
 20
-882.894737
 30
0.0
 10
457.000000
 20
-882.894737
 30
0.0
 10
457.000000
 20
-867.315789
 30
0.0
 10
460.000000
 20
-867.315789
 30
0.0
 10
460.000000
 20
-851.736842
 30
0.0
 10
457.000000
 20
-851.736842
 30
0.0
 10
457.000000
 20
-836.157895
 30
0.0
 10
460.000000
 20
-836.157895
 30
0.0
 10
460.000000
 20
-820.578947
 30
0.0
 10
457.000000
 20
-820.578947
 30
0.0
 10
457.000000
 20
-808.000000
 30
0.0
  0
LWPOLYLINE
  5
103
100
AcDbEntity
  8
newlayer
 62
7
100
AcDbPolyline
 90
5
 70
0
 10
4.000000
 20
-171.666667
 30
0.0
 10
16.578947
 20
-171.666667
 30
0.0
 10
16.578947
 20
-168.666667
 30
0.0
 10
4.000000
 20
-168.666667
 30
0.0
 10
4.000000
 20
-171.666667
 30
0.0
  0
LWPOLYLINE
  5
104
100
AcDbEntity
  8
newlayer
 62
7
100
AcDbPolyline
 90
5
 70
0
 10
4.000000
 20
-339.333333
 30
0.0
 10
16.578947
 20
-339.333333
 30
0.0
 10
16.578947
 20
-336.333333
 30
0.0
 10
4.000000
 20
-336.333333
 30
0.0
 10
4.000000
 20
-339.333333
 30
0.0
  0
LWPOLYLINE
  5
105
100
AcDbEntity
  8
newlayer
 62
7
100
AcDbPolyline
 90
5
 70
0
 10
32.157895
 20
-171.666667
 30
0.0
 10
47.736842
 20
-171.666667
 30
0.0
 10
47.736842
 20
-168.666667
 30
0.0
 10
32.157895
 20
-168.666667
 30
0.0
 10
32.157895
 20
-171.666667
 30
0.0
  0
LWPOLYLINE
  5
106
100
AcDbEntity
  8
newlayer
 62
7
100
AcDbPolyline
 90
5
 70
0
 10
32.157895
 20
-339.333333
 30
0.0
 10
47.736842
 20
-339.333333
 30
0.0
 10
47.736842
 20
-336.333333
 30
0.0
 10
32.157895
 20
-336.333333
 30
0.0
 10
32.157895
 20
-339.333333
 30
0.0
  0
LWPOLYLINE
  5
107
100
AcDbEntity
  8
newlayer
 62
7
100
AcDbPolyline
 90
5
 70
0
 10
63.315789
 20
-171.666667
 30
0.0
 10
78.894737
 20
-171.666667
 30
0.0
 10
78.894737
 20
-168.666667
 30
0.0
 10
63.315789
 20
-168.666667
 30
0.0
 10
63.315789
 20
-171.666667
 30
0.0
  0
LWPOLYLINE
  5
108
100
AcDbEntity
  8
newlayer
 62
7
100
AcDbPolyline
 90
5
 70
0
 10
63.315789
 20
-339.333333
 30
0.0
 10
78.894737
 20
-339.333333
 30
0.0
 10
78.894737
 20
-336.333333
 30
0.0
 10
63.315789
 20
-336.333333
 30
0.0
 10
63.315789
 20
-339.333333
 30
0.0
  0
LWPOLYLINE
  5
109
100
AcDbEntity
  8
newlayer
 62
7
100
AcDbPolyline
 90
5
 70
0
 10
94.473684
 20
-171.666667
 30
0.0
 10
110.052632
 20
-171.666667
 30
0.0
 10
110.052632
 20
-168.666667
 30
0.0
 10
94.473684
 20
-168.666667
 30
0.0
 10
94.473684
 20
-171.666667
 30
0.0
  0
LWPOLYLINE
  5
10a
100
AcDbEntity
  8
newlayer
 62
7
100
AcDbPolyline
 90
5
 70
0
 10
94.473684
 20
-339.333333
 30
0.0
 10
110.052632
 20
-339.333333
 30
0.0
 10
110.052632
 20
-336.333333
 30
0.0
 10
94.473684
 20
-336.333333
 30
0.0
 10
94.473684
 20
-339.333333
 30
0.0
  0
LWPOLYLINE
  5
10b
100
AcDbEntity
  8
newlayer
 62
7
100
AcDbPolyline
 90
5
 70
0
 10
125.631579
 20
-171.666667
 30
0.0
 10
141.210526
 20
-171.666667
 30
0.0
 10
141.210526
 20
-168.666667
 30
0.0
 10
125.631579
 20
-168.666667
 30
0.0
 10
125.631579
 20
-171.666667
 30
0.0
  0
LWPOLYLINE
  5
10c
100
AcDbEntity
  8
newlayer
 62
7
100
AcDbPolyline
 90
5
 70
0
 10
125.631579
 20
-339.333333
 30
0.0
 10
141.210526
 20
-339.333333
 30
0.0
 10
141.210526
 20
-336.333333
 30
0.0
 10
125.631579
 20
-336.333333
 30
0.0
 10
125.631579
 20
-339.333333
 30
0.0
  0
LWPOLYLINE
  5
10d
100
AcDbEntity
  8
newlayer
 62
7
100
AcDbPolyline
 90
5
 70
0
 10
156.789474
 20
-171.666667
 30
0.0
 10
172.368421
 20
-171.666667
 30
0.0
 10
172.368421
 20
-168.666667
 30
0.0
 10
156.789474
 20
-168.666667
 30
0.0
 10
156.789474
 20
-171.666667
 30
0.0
  0
LWPOLYLINE
  5
10e
100
AcDbEntity
  8
newlayer
 62
7
100
AcDbPolyline
 90
5
 70
0
 10
156.789474
 20
-339.333333
 30
0.0
 10
172.368421
 20
-339.333333
 30
0.0
 10
172.368421
 20
-336.333333
 30
0.0
 10
156.789474
 20
-336.333333
 30
0.0
 10
156.789474
 20
-339.333333
 30
0.0
  0
LWPOLYLINE
  5
10f
100
AcDbEntity
  8
newlayer
 62
7
100
AcDbPolyline
 90
5
 70
0
 10
187.947368
 20
-171.666667
 30
0.0
 10
203.526316
 20
-171.666667
 30
0.0
 10
203.526316
 20
-168.666667
 30
0.0
 10
187.947368
 20
-168.666667
 30
0.0
 10
187.947368
 20
-171.666667
 30
0.0
  0
LWPOLYLINE
  5
110
100
AcDbEntity
  8
newlayer
 62
7
100
AcDbPolyline
 90
5
 70
0
 10
187.947368
 20
-339.333333
 30
0.0
 10
203.526316
 20
-339.333333
 30
0.0
 10
203.526316
 20
-336.333333
 30
0.0
 10
187.947368
 20
-336.333333
 30
0.0
 10
187.947368
 20
-339.333333
 30
0.0
  0
LWPOLYLINE
  5
111
100
AcDbEntity
  8
newlayer
 62
7
100
AcDbPolyline
 90
5
 70
0
 10
219.105263
 20
-171.666667
 30
0.0
 10
234.684211
 20
-171.666667
 30
0.0
 10
234.684211
 20
-168.666667
 30
0.0
 10
219.105263
 20
-168.666667
 30
0.0
 10
219.105263
 20
-171.666667
 30
0.0
  0
LWPOLYLINE
  5
112
100
AcDbEntity
  8
newlayer
 62
7
100
AcDbPolyline
 90
5
 70
0
 10
219.105263
 20
-339.333333
 30
0.0
 10
234.684211
 20
-339.333333
 30
0.0
 10
234.684211
 20
-336.333333
 30
0.0
 10
219.105263
 20
-336.333333
 30
0.0
 10
219.105263
 20
-339.333333
 30
0.0
  0
LWPOLYLINE
  5
113
100
AcDbEntity
  8
newlayer
 62
7
100
AcDbPolyline
 90
5
 70
0
 10
250.263158
 20
-171.666667
 30
0.0
 10
265.842105
 20
-171.666667
 30
0.0
 10
265.842105
 20
-168.666667
 30
0.0
 10
250.263158
 20
-168.666667
 30
0.0
 10
250.263158
 20
-171.666667
 30
0.0
  0
LWPOLYLINE
  5
114
100
AcDbEntity
  8
newlayer
 62
7
100
AcDbPolyline
 90
5
 70
0
 10
250.263158
 20
-339.333333
 30
0.0
 10
265.842105
 20
-339.333333
 30
0.0
 10
265.842105
 20
-336.333333
 30
0.0
 10
250.263158
 20
-336.333333
 30
0.0
 10
250.263158
 20
-339.333333
 30
0.0
  0
LWPOLYLINE
  5
115
100
AcDbEntity
  8
newlayer
 62
7
100
AcDbPolyline
 90
5
 70
0
 10
281.421053
 20
-171.666667
 30
0.0
 10
294.000000
 20
-171.666667
 30
0.0
 10
294.000000
 20
-168.666667
 30
0.0
 10
281.421053
 20
-168.666667
 30
0.0
 10
281.421053
 20
-171.666667
 30
0.0
  0
LWPOLYLINE
  5
116
100
AcDbEntity
  8
newlayer
 62
7
100
AcDbPolyline
 90
5
 70
0
 10
281.421053
 20
-339.333333
 30
0.0
 10
294.000000
 20
-339.333333
 30
0.0
 10
294.000000
 20
-336.333333
 30
0.0
 10
281.421053
 20
-336.333333
 30
0.0
 10
281.421053
 20
-339.333333
 30
0.0
  0
LWPOLYLINE
  5
117
100
AcDbEntity
  8
newlayer
 62
7
100
AcDbPolyline
 90
205
 70
0
 10
4.000000
 20
-4.000000
 30
0.0
 10
16.578947
 20
-4.000000
 30
0.0
 10
16.578947
 20
-1.000000
 30
0.0
 10
32.157895
 20
-1.000000
 30
0.0
 10
32.157895
 20
-4.000000
 30
0.0
 10
47.736842
 20
-4.000000
 30
0.0
 10
47.736842
 20
-1.000000
 30
0.0
 10
63.315789
 20
-1.000000
 30
0.0
 10
63.315789
 20
-4.000000
 30
0.0
 10
78.894737
 20
-4.000000
 30
0.0
 10
78.894737
 20
-1.000000
 30
0.0
 10
94.473684
 20
-1.000000
 30
0.0
 10
94.473684
 20
-4.000000
 30
0.0
 10
110.052632
 20
-4.000000
 30
0.0
 10
110.052632
 20
-1.000000
 30
0.0
 10
125.631579
 20
-1.000000
 30
0.0
 10
125.631579
 20
-4.000000
 30
0.0
 10
141.210526
 20
-4.000000
 30
0.0
 10
141.210526
 20
-1.000000
 30
0.0
 10
156.789474
 20
-1.000000
 30
0.0
 10
156.789474
 20
-4.000000
 30
0.0
 10
172.368421
 20
-4.000000
 30
0.0
 10
172.368421
 20
-1.000000
 30
0.0
 10
187.947368
 20
-1.000000
 30
0.0
 10
187.947368
 20
-4.000000
 30
0.0
 10
203.526316
 20
-4.000000
 30
0.0
 10
203.526316
 20
-1.000000
 30
0.0
 10
219.105263
 20
-1.000000
 30
0.0
 10
219.105263
 20
-4.000000
 30
0.0
 10
234.684211
 20
-4.000000
 30
0.0
 10
234.684211
 20
-1.000000
 30
0.0
 10
250.263158
 20
-1.000000
 30
0.0
 10
250.263158
 20
-4.000000
 30
0.0
 10
265.842105
 20
-4.000000
 30
0.0
 10
265.842105
 20
-1.000000
 30
0.0
 10
281.421053
 20
-1.000000
 30
0.0
 10
281.421053
 20
-4.000000
 30
0.0
 10
294.000000
 20
-4.000000
 30
0.0
 10
294.000000
 20
-16.333333
 30
0.0
 10
297.000000
 20
-16.333333
 30
0.0
 10
297.000000
 20
-31.666667
 30
0.0
 10
294.000000
 20
-31.666667
 30
0.0
 10
294.000000
 20
-47.000000
 30
0.0
 10
297.000000
 20
-47.000000
 30
0.0
 10
297.000000
 20
-62.333333
 30
0.0
 10
294.000000
 20
-62.333333
 30
0.0
 10
294.000000
 20
-77.666667
 30
0.0
 10
297.000000
 20
-77.666667
 30
0.0
 10
297.000000
 20
-93.000000
 30
0.0
 10
294.000000
 20
-93.000000
 30
0.0
 10
294.000000
 20
-108.333333
 30
0.0
 10
297.000000
 20
-108.333333
 30
0.0
 10
297.000000
 20
-123.666667
 30
0.0
 10
294.000000
 20
-123.666667
 30
0.0
 10
294.000000
 20
-139.000000
 30
0.0
 10
297.000000
 20
-139.000000
 30
0.0
 10
297.000000
 20
-154.333333
 30
0.0
 10
294.000000
 20
-154.333333
 30
0.0
 10
294.000000
 20
-169.666667
 30
0.0
 10
297.000000
 20
-169.666667
 30
0.0
 10
297.000000
 20
-185.000000
 30
0.0
 10
294.000000
 20
-185.000000
 30
0.0
 10
294.000000
 20
-200.333333
 30
0.0
 10
297.000000
 20
-200.333333
 30
0.0
 10
297.000000
 20
-215.666667
 30
0.0
 10
294.000000
 20
-215.666667
 30
0.0
 10
294.000000
 20
-231.000000
 30
0.0
 10
297.000000
 20
-231.000000
 30
0.0
 10
297.000000
 20
-246.333333
 30
0.0
 10
294.000000
 20
-246.333333
 30
0.0
 10
294.000000
 20
-261.666667
 30
0.0
 10
297.000000
 20
-261.666667
 30
0.0
 10
297.000000
 20
-277.000000
 30
0.0
 10
294.000000
 20
-277.000000
 30
0.0
 10
294.000000
 20
-292.333333
 30
0.0
 10
297.000000
 20
-292.333333
 30
0.0
 10
297.000000
 20
-307.666667
 30
0.0
 10
294.000000
 20
-307.666667
 30
0.0
 10
294.000000
 20
-323.000000
 30
0.0
 10
297.000000
 20
-323.000000
 30
0.0
 10
297.000000
 20
-338.333333
 30
0.0
 10
294.000000
 20
-338.333333
 30
0.0
 10
294.000000
 20
-353.666667
 30
0.0
 10
297.000000
 20
-353.666667
 30
0.0
 10
297.000000
 20
-369.000000
 30
0.0
 10
294.000000
 20
-369.000000
 30
0.0
 10
294.000000
 20
-384.333333
 30
0.0
 10
297.000000
 20
-384.333333
 30
0.0
 10
297.000000
 20
-399.666667
 30
0.0
 10
294.000000
 20
-399.666667
 30
0.0
 10
294.000000
 20
-415.000000
 30
0.0
 10
297.000000
 20
-415.000000
 30
0.0
 10
297.000000
 20
-430.333333
 30
0.0
 10
294.000000
 20
-430.333333
 30
0.0
 10
294.000000
 20
-445.666667
 30
0.0
 10
297.000000
 20
-445.666667
 30
0.0
 10
297.000000
 20
-461.000000
 30
0.0
 10
294.000000
 20
-461.000000
 30
0.0
 10
294.000000
 20
-476.333333
 30
0.0
 10
297.000000
 20
-476.333333
 30
0.0
 10
297.000000
 20
-491.666667
 30
0.0
 10
294.000000
 20
-491.666667
 30
0.0
 10
294.000000
 20
-504.000000
 30
0.0
 10
281.421053
 20
-504.000000
 30
0.0
 10
281.421053
 20
-507.000000
 30
0.0
 10
265.842105
 20
-507.000000
 30
0.0
 10
265.842105
 20
-504.000000
 30
0.0
 10
250.263158
 20
-504.000000
 30
0.0
 10
250.263158
 20
-507.000000
 30
0.0
 10
234.684211
 20
-507.000000
 30
0.0
 10
234.684211
 20
-504.000000
 30
0.0
 10
219.105263
 20
-504.000000
 30
0.0
 10
219.105263
 20
-507.000000
 30
0.0
 10
203.526316
 20
-507.000000
 30
0.0
 10
203.526316
 20
-504.000000
 30
0.0
 10
187.947368
 20
-504.000000
 30
0.0
 10
187.947368
 20
-507.000000
 30
0.0
 10
172.368421
 20
-507.000000
 30
0.0
 10
172.368421
 20
-504.000000
 30
0.0
 10
156.789474
 20
-504.000000
 30
0.0
 10
156.789474
 20
-507.000000
 30
0.0
 10
141.210526
 20
-507.000000
 30
0.0
 10
141.210526
 20
-504.000000
 30
0.0
 10
125.631579
 20
-504.000000
 30
0.0
 10
125.631579
 20
-507.000000
 30
0.0
 10
110.052632
 20
-507.000000
 30
0.0
 10
110.052632
 20
-504.000000
 30
0.0
 10
94.473684
 20
-504.000000
 30
0.0
 10
94.473684
 20
-507.000000
 30
0.0
 10
78.894737
 20
-507.000000
 30
0.0
 10
78.894737
 20
-504.000000
 30
0.0
 10
63.315789
 20
-504.000000
 30
0.0
 10
63.315789
 20
-507.000000
 30
0.0
 10
47.736842
 20
-507.000000
 30
0.0
 10
47.736842
 20
-504.000000
 30
0.0
 10
32.157895
 20
-504.000000
 30
0.0
 10
32.157895
 20
-507.000000
 30
0.0
 10
16.578947
 20
-507.000000
 30
0.0
 10
16.578947
 20
-504.000000
 30
0.0
 10
4.000000
 20
-504.000000
 30
0.0
 10
4.000000
 20
-491.666667
 30
0.0
 10
1.000000
 20
-491.666667
 30
0.0
 10
1.000000
 20
-476.333333
 30
0.0
 10
4.000000
 20
-476.333333
 30
0.0
 10
4.000000
 20
-461.000000
 30
0.0
 10
1.000000
 20
-461.000000
 30
0.0
 10
1.000000
 20
-445.666667
 30
0.0
 10
4.000000
 20
-445.666667
 30
0.0
 10
4.000000
 20
-430.333333
 30
0.0
 10
1.000000
 20
-430.333333
 30
0.0
 10
1.000000
 20
-415.000000
 30
0.0
 10
4.000000
 20
-415.000000
 30
0.0
 10
4.000000
 20
-399.666667
 30
0.0
 10
1.000000
 20
-399.666667
 30
0.0
 10
1.000000
 20
-384.333333
 30
0.0
 10
4.000000
 20
-384.333333
 30
0.0
 10
4.000000
 20
-369.000000
 30
0.0
 10
1.000000
 20
-369.000000
 30
0.0
 10
1.000000
 20
-353.666667
 30
0.0
 10
4.000000
 20
-353.666667
 30
0.0
 10
4.000000
 20
-338.333333
 30
0.0
 10
1.000000
 20
-338.333333
 30
0.0
 10
1.000000
 20
-323.000000
 30
0.0
 10
4.000000
 20
-323.000000
 30
0.0
 10
4.000000
 20
-307.666667
 30
0.0
 10
1.000000
 20
-307.666667
 30
0.0
 10
1.000000
 20
-292.333333
 30
0.0
 10
4.000000
 20
-292.333333
 30
0.0
 10
4.000000
 20
-277.000000
 30
0.0
 10
1.000000
 20
-277.000000
 30
0.0
 10
1.000000
 20
-261.666667
 30
0.0
 10
4.000000
 20
-261.666667
 30
0.0
 10
4.000000
 20
-246.333333
 30
0.0
 10
1.000000
 20
-246.333333
 30
0.0
 10
1.000000
 20
-231.000000
 30
0.0
 10
4.000000
 20
-231.000000
 30
0.0
 10
4.000000
 20
-215.666667
 30
0.0
 10
1.000000
 20
-215.666667
 30
0.0
 10
1.000000
 20
-200.333333
 30
0.0
 10
4.000000
 20
-200.333333
 30
0.0
 10
4.000000
 20
-185.000000
 30
0.0
 10
1.000000
 20
-185.000000
 30
0.0
 10
1.000000
 20
-169.666667
 30
0.0
 10
4.000000
 20
-169.666667
 30
0.0
 10
4.000000
 20
-154.333333
 30
0.0
 10
1.000000
 20
-154.333333
 30
0.0
 10
1.000000
 20
-139.000000
 30
0.0
 10
4.000000
 20
-139.000000
 30
0.0
 10
4.000000
 20
-123.666667
 30
0.0
 10
1.000000
 20
-123.666667
 30
0.0
 10
1.000000
 20
-108.333333
 30
0.0
 10
4.000000
 20
-108.333333
 30
0.0
 10
4.000000
 20
-93.000000
 30
0.0
 10
1.000000
 20
-93.000000
 30
0.0
 10
1.000000
 20
-77.666667
 30
0.0
 10
4.000000
 20
-77.666667
 30
0.0
 10
4.000000
 20
-62.333333
 30
0.0
 10
1.000000
 20
-62.333333
 30
0.0
 10
1.000000
 20
-47.000000
 30
0.0
 10
4.000000
 20
-47.000000
 30
0.0
 10
4.000000
 20
-31.666667
 30
0.0
 10
1.000000
 20
-31.666667
 30
0.0
 10
1.000000
 20
-16.333333
 30
0.0
 10
4.000000
 20
-16.333333
 30
0.0
 10
4.000000
 20
-4.000000
 30
0.0
  0
LWPOLYLINE
  5
118
100
AcDbEntity
  8
newlayer
 62
7
100
AcDbPolyline
 90
5
 70
0
 10
313.724138
 20
-171.666667
 30
0.0
 10
329.448276
 20
-171.666667
 30
0.0
 10
329.448276
 20
-168.666667
 30
0.0
 10
313.724138
 20
-168.666667
 30
0.0
 10
313.724138
 20
-171.666667
 30
0.0
  0
LWPOLYLINE
  5
119
100
AcDbEntity
  8
newlayer
 62
7
100
AcDbPolyline
 90
5
 70
0
 10
313.724138
 20
-339.333333
 30
0.0
 10
329.448276
 20
-339.333333
 30
0.0
 10
329.448276
 20
-336.333333
 30
0.0
 10
313.724138
 20
-336.333333
 30
0.0
 10
313.724138
 20
-339.333333
 30
0.0
  0
LWPOLYLINE
  5
11a
100
AcDbEntity
  8
newlayer
 62
7
100
AcDbPolyline
 90
5
 70
0
 10
345.172414
 20
-171.666667
 30
0.0
 10
360.896552
 20
-171.666667
 30
0.0
 10
360.896552
 20
-168.666667
 30
0.0
 10
345.172414
 20
-168.666667
 30
0.0
 10
345.172414
 20
-171.666667
 30
0.0
  0
LWPOLYLINE
  5
11b
100
AcDbEntity
  8
newlayer
 62
7
100
AcDbPolyline
 90
5
 70
0
 10
345.172414
 20
-339.333333
 30
0.0
 10
360.896552
 20
-339.333333
 30
0.0
 10
360.896552
 20
-336.333333
 30
0.0
 10
345.172414
 20
-336.333333
 30
0.0
 10
345.172414
 20
-339.333333
 30
0.0
  0
LWPOLYLINE
  5
11c
100
AcDbEntity
  8
newlayer
 62
7
100
AcDbPolyline
 90
5
 70
0
 10
376.620690
 20
-171.666667
 30
0.0
 10
392.344828
 20
-171.666667
 30
0.0
 10
392.344828
 20
-168.666667
 30
0.0
 10
376.620690
 20
-168.666667
 30
0.0
 10
376.620690
 20
-171.666667
 30
0.0
  0
LWPOLYLINE
  5
11d
100
AcDbEntity
  8
newlayer
 62
7
100
AcDbPolyline
 90
5
 70
0
 10
376.620690
 20
-339.333333
 30
0.0
 10
392.344828
 20
-339.333333
 30
0.0
 10
392.344828
 20
-336.333333
 30
0.0
 10
376.620690
 20
-336.333333
 30
0.0
 10
376.620690
 20
-339.333333
 30
0.0
  0
LWPOLYLINE
  5
11e
100
AcDbEntity
  8
newlayer
 62
7
100
AcDbPolyline
 90
5
 70
0
 10
408.068966
 20
-171.666667
 30
0.0
 10
423.793103
 20
-171.666667
 30
0.0
 10
423.793103
 20
-168.666667
 30
0.0
 10
408.068966
 20
-168.666667
 30
0.0
 10
408.068966
 20
-171.666667
 30
0.0
  0
LWPOLYLINE
  5
11f
100
AcDbEntity
  8
newlayer
 62
7
100
AcDbPolyline
 90
5
 70
0
 10
408.068966
 20
-339.333333
 30
0.0
 10
423.793103
 20
-339.333333
 30
0.0
 10
423.793103
 20
-336.333333
 30
0.0
 10
408.068966
 20
-336.333333
 30
0.0
 10
408.068966
 20
-339.333333
 30
0.0
  0
LWPOLYLINE
  5
120
100
AcDbEntity
  8
newlayer
 62
7
100
AcDbPolyline
 90
5
 70
0
 10
439.517241
 20
-171.666667
 30
0.0
 10
455.241379
 20
-171.666667
 30
0.0
 10
455.241379
 20
-168.666667
 30
0.0
 10
439.517241
 20
-168.666667
 30
0.0
 10
439.517241
 20
-171.666667
 30
0.0
  0
LWPOLYLINE
  5
121
100
AcDbEntity
  8
newlayer
 62
7
100
AcDbPolyline
 90
5
 70
0
 10
439.517241
 20
-339.333333
 30
0.0
 10
455.241379
 20
-339.333333
 30
0.0
 10
455.241379
 20
-336.333333
 30
0.0
 10
439.517241
 20
-336.333333
 30
0.0
 10
439.517241
 20
-339.333333
 30
0.0
  0
LWPOLYLINE
  5
122
100
AcDbEntity
  8
newlayer
 62
7
100
AcDbPolyline
 90
5
 70
0
 10
470.965517
 20
-171.666667
 30
0.0
 10
486.689655
 20
-171.666667
 30
0.0
 10
486.689655
 20
-168.666667
 30
0.0
 10
470.965517
 20
-168.666667
 30
0.0
 10
470.965517
 20
-171.666667
 30
0.0
  0
LWPOLYLINE
  5
123
100
AcDbEntity
  8
newlayer
 62
7
100
AcDbPolyline
 90
5
 70
0
 10
470.965517
 20
-339.333333
 30
0.0
 10
486.689655
 20
-339.333333
 30
0.0
 10
486.689655
 20
-336.333333
 30
0.0
 10
470.965517
 20
-336.333333
 30
0.0
 10
470.965517
 20
-339.333333
 30
0.0
  0
LWPOLYLINE
  5
124
100
AcDbEntity
  8
newlayer
 62
7
100
AcDbPolyline
 90
5
 70
0
 10
502.413793
 20
-171.666667
 30
0.0
 10
518.137931
 20
-171.666667
 30
0.0
 10
518.137931
 20
-168.666667
 30
0.0
 10
502.413793
 20
-168.666667
 30
0.0
 10
502.413793
 20
-171.666667
 30
0.0
  0
LWPOLYLINE
  5
125
100
AcDbEntity
  8
newlayer
 62
7
100
AcDbPolyline
 90
5
 70
0
 10
502.413793
 20
-339.333333
 30
0.0
 10
518.137931
 20
-339.333333
 30
0.0
 10
518.137931
 20
-336.333333
 30
0.0
 10
502.413793
 20
-336.333333
 30
0.0
 10
502.413793
 20
-339.333333
 30
0.0
  0
LWPOLYLINE
  5
126
100
AcDbEntity
  8
newlayer
 62
7
100
AcDbPolyline
 90
5
 70
0
 10
533.862069
 20
-171.666667
 30
0.0
 10
549.586207
 20
-171.666667
 30
0.0
 10
549.586207
 20
-168.666667
 30
0.0
 10
533.862069
 20
-168.666667
 30
0.0
 10
533.862069
 20
-171.666667
 30
0.0
  0
LWPOLYLINE
  5
127
100
AcDbEntity
  8
newlayer
 62
7
100
AcDbPolyline
 90
5
 70
0
 10
533.862069
 20
-339.333333
 30
0.0
 10
549.586207
 20
-339.333333
 30
0.0
 10
549.586207
 20
-336.333333
 30
0.0
 10
533.862069
 20
-336.333333
 30
0.0
 10
533.862069
 20
-339.333333
 30
0.0
  0
LWPOLYLINE
  5
128
100
AcDbEntity
  8
newlayer
 62
7
100
AcDbPolyline
 90
5
 70
0
 10
565.310345
 20
-171.666667
 30
0.0
 10
581.034483
 20
-171.666667
 30
0.0
 10
581.034483
 20
-168.666667
 30
0.0
 10
565.310345
 20
-168.666667
 30
0.0
 10
565.310345
 20
-171.666667
 30
0.0
  0
LWPOLYLINE
  5
129
100
AcDbEntity
  8
newlayer
 62
7
100
AcDbPolyline
 90
5
 70
0
 10
565.310345
 20
-339.333333
 30
0.0
 10
581.034483
 20
-339.333333
 30
0.0
 10
581.034483
 20
-336.333333
 30
0.0
 10
565.310345
 20
-336.333333
 30
0.0
 10
565.310345
 20
-339.333333
 30
0.0
  0
LWPOLYLINE
  5
12a
100
AcDbEntity
  8
newlayer
 62
7
100
AcDbPolyline
 90
5
 70
0
 10
596.758621
 20
-171.666667
 30
0.0
 10
612.482759
 20
-171.666667
 30
0.0
 10
612.482759
 20
-168.666667
 30
0.0
 10
596.758621
 20
-168.666667
 30
0.0
 10
596.758621
 20
-171.666667
 30
0.0
  0
LWPOLYLINE
  5
12b
100
AcDbEntity
  8
newlayer
 62
7
100
AcDbPolyline
 90
5
 70
0
 10
596.758621
 20
-339.333333
 30
0.0
 10
612.482759
 20
-339.333333
 30
0.0
 10
612.482759
 20
-336.333333
 30
0.0
 10
596.758621
 20
-336.333333
 30
0.0
 10
596.758621
 20
-339.333333
 30
0.0
  0
LWPOLYLINE
  5
12c
100
AcDbEntity
  8
newlayer
 62
7
100
AcDbPolyline
 90
5
 70
0
 10
628.206897
 20
-171.666667
 30
0.0
 10
643.931034
 20
-171.666667
 30
0.0
 10
643.931034
 20
-168.666667
 30
0.0
 10
628.206897
 20
-168.666667
 30
0.0
 10
628.206897
 20
-171.666667
 30
0.0
  0
LWPOLYLINE
  5
12d
100
AcDbEntity
  8
newlayer
 62
7
100
AcDbPolyline
 90
5
 70
0
 10
628.206897
 20
-339.333333
 30
0.0
 10
643.931034
 20
-339.333333
 30
0.0
 10
643.931034
 20
-336.333333
 30
0.0
 10
628.206897
 20
-336.333333
 30
0.0
 10
628.206897
 20
-339.333333
 30
0.0
  0
LWPOLYLINE
  5
12e
100
AcDbEntity
  8
newlayer
 62
7
100
AcDbPolyline
 90
5
 70
0
 10
659.655172
 20
-171.666667
 30
0.0
 10
675.379310
 20
-171.666667
 30
0.0
 10
675.379310
 20
-168.666667
 30
0.0
 10
659.655172
 20
-168.666667
 30
0.0
 10
659.655172
 20
-171.666667
 30
0.0
  0
LWPOLYLINE
  5
12f
100
AcDbEntity
  8
newlayer
 62
7
100
AcDbPolyline
 90
5
 70
0
 10
659.655172
 20
-339.333333
 30
0.0
 10
675.379310
 20
-339.333333
 30
0.0
 10
675.379310
 20
-336.333333
 30
0.0
 10
659.655172
 20
-336.333333
 30
0.0
 10
659.655172
 20
-339.333333
 30
0.0
  0
LWPOLYLINE
  5
130
100
AcDbEntity
  8
newlayer
 62
7
100
AcDbPolyline
 90
5
 70
0
 10
691.103448
 20
-171.666667
 30
0.0
 10
706.827586
 20
-171.666667
 30
0.0
 10
706.827586
 20
-168.666667
 30
0.0
 10
691.103448
 20
-168.666667
 30
0.0
 10
691.103448
 20
-171.666667
 30
0.0
  0
LWPOLYLINE
  5
131
100
AcDbEntity
  8
newlayer
 62
7
100
AcDbPolyline
 90
5
 70
0
 10
691.103448
 20
-339.333333
 30
0.0
 10
706.827586
 20
-339.333333
 30
0.0
 10
706.827586
 20
-336.333333
 30
0.0
 10
691.103448
 20
-336.333333
 30
0.0
 10
691.103448
 20
-339.333333
 30
0.0
  0
LWPOLYLINE
  5
132
100
AcDbEntity
  8
newlayer
 62
7
100
AcDbPolyline
 90
5
 70
0
 10
722.551724
 20
-171.666667
 30
0.0
 10
738.275862
 20
-171.666667
 30
0.0
 10
738.275862
 20
-168.666667
 30
0.0
 10
722.551724
 20
-168.666667
 30
0.0
 10
722.551724
 20
-171.666667
 30
0.0
  0
LWPOLYLINE
  5
133
100
AcDbEntity
  8
newlayer
 62
7
100
AcDbPolyline
 90
5
 70
0
 10
722.551724
 20
-339.333333
 30
0.0
 10
738.275862
 20
-339.333333
 30
0.0
 10
738.275862
 20
-336.333333
 30
0.0
 10
722.551724
 20
-336.333333
 30
0.0
 10
722.551724
 20
-339.333333
 30
0.0
  0
LWPOLYLINE
  5
134
100
AcDbEntity
  8
newlayer
 62
7
100
AcDbPolyline
 90
245
 70
0
 10
298.000000
 20
-1.000000
 30
0.0
 10
313.724138
 20
-1.000000
 30
0.0
 10
313.724138
 20
-4.000000
 30
0.0
 10
329.448276
 20
-4.000000
 30
0.0
 10
329.448276
 20
-1.000000
 30
0.0
 10
345.172414
 20
-1.000000
 30
0.0
 10
345.172414
 20
-4.000000
 30
0.0
 10
360.896552
 20
-4.000000
 30
0.0
 10
360.896552
 20
-1.000000
 30
0.0
 10
376.620690
 20
-1.000000
 30
0.0
 10
376.620690
 20
-4.000000
 30
0.0
 10
392.344828
 20
-4.000000
 30
0.0
 10
392.344828
 20
-1.000000
 30
0.0
 10
408.068966
 20
-1.000000
 30
0.0
 10
408.068966
 20
-4.000000
 30
0.0
 10
423.793103
 20
-4.000000
 30
0.0
 10
423.793103
 20
-1.000000
 30
0.0
 10
439.517241
 20
-1.000000
 30
0.0
 10
439.517241
 20
-4.000000
 30
0.0
 10
455.241379
 20
-4.000000
 30
0.0
 10
455.241379
 20
-1.000000
 30
0.0
 10
470.965517
 20
-1.000000
 30
0.0
 10
470.965517
 20
-4.000000
 30
0.0
 10
486.689655
 20
-4.000000
 30
0.0
 10
486.689655
 20
-1.000000
 30
0.0
 10
502.413793
 20
-1.000000
 30
0.0
 10
502.413793
 20
-4.000000
 30
0.0
 10
518.137931
 20
-4.000000
 30
0.0
 10
518.137931
 20
-1.000000
 30
0.0
 10
533.862069
 20
-1.000000
 30
0.0
 10
533.862069
 20
-4.000000
 30
0.0
 10
549.586207
 20
-4.000000
 30
0.0
 10
549.586207
 20
-1.000000
 30
0.0
 10
565.310345
 20
-1.000000
 30
0.0
 10
565.310345
 20
-4.000000
 30
0.0
 10
581.034483
 20
-4.000000
 30
0.0
 10
581.034483
 20
-1.000000
 30
0.0
 10
596.758621
 20
-1.000000
 30
0.0
 10
596.758621
 20
-4.000000
 30
0.0
 10
612.482759
 20
-4.000000
 30
0.0
 10
612.482759
 20
-1.000000
 30
0.0
 10
628.206897
 20
-1.000000
 30
0.0
 10
628.206897
 20
-4.000000
 30
0.0
 10
643.931034
 20
-4.000000
 30
0.0
 10
643.931034
 20
-1.000000
 30
0.0
 10
659.655172
 20
-1.000000
 30
0.0
 10
659.655172
 20
-4.000000
 30
0.0
 10
675.379310
 20
-4.000000
 30
0.0
 10
675.379310
 20
-1.000000
 30
0.0
 10
691.103448
 20
-1.000000
 30
0.0
 10
691.103448
 20
-4.000000
 30
0.0
 10
706.827586
 20
-4.000000
 30
0.0
 10
706.827586
 20
-1.000000
 30
0.0
 10
722.551724
 20
-1.000000
 30
0.0
 10
722.551724
 20
-4.000000
 30
0.0
 10
738.275862
 20
-4.000000
 30
0.0
 10
738.275862
 20
-1.000000
 30
0.0
 10
754.000000
 20
-1.000000
 30
0.0
 10
754.000000
 20
-16.333333
 30
0.0
 10
751.000000
 20
-16.333333
 30
0.0
 10
751.000000
 20
-31.666667
 30
0.0
 10
754.000000
 20
-31.666667
 30
0.0
 10
754.000000
 20
-47.000000
 30
0.0
 10
751.000000
 20
-47.000000
 30
0.0
 10
751.000000
 20
-62.333333
 30
0.0
 10
754.000000
 20
-62.333333
 30
0.0
 10
754.000000
 20
-77.666667
 30
0.0
 10
751.000000
 20
-77.666667
 30
0.0
 10
751.000000
 20
-93.000000
 30
0.0
 10
754.000000
 20
-93.000000
 30
0.0
 10
754.000000
 20
-108.333333
 30
0.0
 10
751.000000
 20
-108.333333
 30
0.0
 10
751.000000
 20
-123.666667
 30
0.0
 10
754.000000
 20
-123.666667
 30
0.0
 10
754.000000
 20
-139.000000
 30
0.0
 10
751.000000
 20
-139.000000
 30
0.0
 10
751.000000
 20
-154.333333
 30
0.0
 10
754.000000
 20
-154.333333
 30
0.0
 10
754.000000
 20
-169.666667
 30
0.0
 10
751.000000
 20
-169.666667
 30
0.0
 10
751.000000
 20
-185.000000
 30
0.0
 10
754.000000
 20
-185.000000
 30
0.0
 10
754.000000
 20
-200.333333
 30
0.0
 10
751.000000
 20
-200.333333
 30
0.0
 10
751.000000
 20
-215.666667
 30
0.0
 10
754.000000
 20
-215.666667
 30
0.0
 10
754.000000
 20
-231.000000
 30
0.0
 10
751.000000
 20
-231.000000
 30
0.0
 10
751.000000
 20
-246.333333
 30
0.0
 10
754.000000
 20
-246.333333
 30
0.0
 10
754.000000
 20
-261.666667
 30
0.0
 10
751.000000
 20
-261.666667
 30
0.0
 10
751.000000
 20
-277.000000
 30
0.0
 10
754.000000
 20
-277.000000
 30
0.0
 10
754.000000
 20
-292.333333
 30
0.0
 10
751.000000
 20
-292.333333
 30
0.0
 10
751.000000
 20
-307.666667
 30
0.0
 10
754.000000
 20
-307.666667
 30
0.0
 10
754.000000
 20
-323.000000
 30
0.0
 10
751.000000
 20
-323.000000
 30
0.0
 10
751.000000
 20
-338.333333
 30
0.0
 10
754.000000
 20
-338.333333
 30
0.0
 10
754.000000
 20
-353.666667
 30
0.0
 10
751.000000
 20
-353.666667
 30
0.0
 10
751.000000
 20
-369.000000
 30
0.0
 10
754.000000
 20
-369.000000
 30
0.0
 10
754.000000
 20
-384.333333
 30
0.0
 10
751.000000
 20
-384.333333
 30
0.0
 10
751.000000
 20
-399.666667
 30
0.0
 10
754.000000
 20
-399.666667
 30
0.0
 10
754.000000
 20
-415.000000
 30
0.0
 10
751.000000
 20
-415.000000
 30
0.0
 10
751.000000
 20
-430.333333
 30
0.0
 10
754.000000
 20
-430.333333
 30
0.0
 10
754.000000
 20
-445.666667
 30
0.0
 10
751.000000
 20
-445.666667
 30
0.0
 10
751.000000
 20
-461.000000
 30
0.0
 10
754.000000
 20
-461.000000
 30
0.0
 10
754.000000
 20
-476.333333
 30
0.0
 10
751.000000
 20
-476.333333
 30
0.0
 10
751.000000
 20
-491.666667
 30
0.0
 10
754.000000
 20
-491.666667
 30
0.0
 10
754.000000
 20
-507.000000
 30
0.0
 10
738.275862
 20
-507.000000
 30
0.0
 10
738.275862
 20
-504.000000
 30
0.0
 10
722.551724
 20
-504.000000
 30
0.0
 10
722.551724
 20
-507.000000
 30
0.0
 10
706.827586
 20
-507.000000
 30
0.0
 10
706.827586
 20
-504.000000
 30
0.0
 10
691.103448
 20
-504.000000
 30
0.0
 10
691.103448
 20
-507.000000
 30
0.0
 10
675.379310
 20
-507.000000
 30
0.0
 10
675.379310
 20
-504.000000
 30
0.0
 10
659.655172
 20
-504.000000
 30
0.0
 10
659.655172
 20
-507.000000
 30
0.0
 10
643.931034
 20
-507.000000
 30
0.0
 10
643.931034
 20
-504.000000
 30
0.0
 10
628.206897
 20
-504.000000
 30
0.0
 10
628.206897
 20
-507.000000
 30
0.0
 10
612.482759
 20
-507.000000
 30
0.0
 10
612.482759
 20
-504.000000
 30
0.0
 10
596.758621
 20
-504.000000
 30
0.0
 10
596.758621
 20
-507.000000
 30
0.0
 10
581.034483
 20
-507.000000
 30
0.0
 10
581.034483
 20
-504.000000
 30
0.0
 10
565.310345
 20
-504.000000
 30
0.0
 10
565.310345
 20
-507.000000
 30
0.0
 10
549.586207
 20
-507.000000
 30
0.0
 10
549.586207
 20
-504.000000
 30
0.0
 10
533.862069
 20
-504.000000
 30
0.0
 10
533.862069
 20
-507.000000
 30
0.0
 10
518.137931
 20
-507.000000
 30
0.0
 10
518.137931
 20
-504.000000
 30
0.0
 10
502.413793
 20
-504.000000
 30
0.0
 10
502.413793
 20
-507.000000
 30
0.0
 10
486.689655
 20
-507.000000
 30
0.0
 10
486.689655
 20
-504.000000
 30
0.0
 10
470.965517
 20
-504.000000
 30
0.0
 10
470.965517
 20
-507.000000
 30
0.0
 10
455.241379
 20
-507.000000
 30
0.0
 10
455.241379
 20
-504.000000
 30
0.0
 10
439.517241
 20
-504.000000
 30
0.0
 10
439.517241
 20
-507.000000
 30
0.0
 10
423.793103
 20
-507.000000
 30
0.0
 10
423.793103
 20
-504.000000
 30
0.0
 10
408.068966
 20
-504.000000
 30
0.0
 10
408.068966
 20
-507.000000
 30
0.0
 10
392.344828
 20
-507.000000
 30
0.0
 10
392.344828
 20
-504.000000
 30
0.0
 10
376.620690
 20
-504.000000
 30
0.0
 10
376.620690
 20
-507.000000
 30
0.0
 10
360.896552
 20
-507.000000
 30
0.0
 10
360.896552
 20
-504.000000
 30
0.0
 10
345.172414
 20
-504.000000
 30
0.0
 10
345.172414
 20
-507.000000
 30
0.0
 10
329.448276
 20
-507.000000
 30
0.0
 10
329.448276
 20
-504.000000
 30
0.0
 10
313.724138
 20
-504.000000
 30
0.0
 10
313.724138
 20
-507.000000
 30
0.0
 10
298.000000
 20
-507.000000
 30
0.0
 10
298.000000
 20
-491.666667
 30
0.0
 10
301.000000
 20
-491.666667
 30
0.0
 10
301.000000
 20
-476.333333
 30
0.0
 10
298.000000
 20
-476.333333
 30
0.0
 10
298.000000
 20
-461.000000
 30
0.0
 10
301.000000
 20
-461.000000
 30
0.0
 10
301.000000
 20
-445.666667
 30
0.0
 10
298.000000
 20
-445.666667
 30
0.0
 10
298.000000
 20
-430.333333
 30
0.0
 10
301.000000
 20
-430.333333
 30
0.0
 10
301.000000
 20
-415.000000
 30
0.0
 10
298.000000
 20
-415.000000
 30
0.0
 10
298.000000
 20
-399.666667
 30
0.0
 10
301.000000
 20
-399.666667
 30
0.0
 10
301.000000
 20
-384.333333
 30
0.0
 10
298.000000
 20
-384.333333
 30
0.0
 10
298.000000
 20
-369.000000
 30
0.0
 10
301.000000
 20
-369.000000
 30
0.0
 10
301.000000
 20
-353.666667
 30
0.0
 10
298.000000
 20
-353.666667
 30
0.0
 10
298.000000
 20
-338.333333
 30
0.0
 10
301.000000
 20
-338.333333
 30
0.0
 10
301.000000
 20
-323.000000
 30
0.0
 10
298.000000
 20
-323.000000
 30
0.0
 10
298.000000
 20
-307.666667
 30
0.0
 10
301.000000
 20
-307.666667
 30
0.0
 10
301.000000
 20
-292.333333
 30
0.0
 10
298.000000
 20
-292.333333
 30
0.0
 10
298.000000
 20
-277.000000
 30
0.0
 10
301.000000
 20
-277.000000
 30
0.0
 10
301.000000
 20
-261.666667
 30
0.0
 10
298.000000
 20
-261.666667
 30
0.0
 10
298.000000
 20
-246.333333
 30
0.0
 10
301.000000
 20
-246.333333
 30
0.0
 10
301.000000
 20
-231.000000
 30
0.0
 10
298.000000
 20
-231.000000
 30
0.0
 10
298.000000
 20
-215.666667
 30
0.0
 10
301.000000
 20
-215.666667
 30
0.0
 10
301.000000
 20
-200.333333
 30
0.0
 10
298.000000
 20
-200.333333
 30
0.0
 10
298.000000
 20
-185.000000
 30
0.0
 10
301.000000
 20
-185.000000
 30
0.0
 10
301.000000
 20
-169.666667
 30
0.0
 10
298.000000
 20
-169.666667
 30
0.0
 10
298.000000
 20
-154.333333
 30
0.0
 10
301.000000
 20
-154.333333
 30
0.0
 10
301.000000
 20
-139.000000
 30
0.0
 10
298.000000
 20
-139.000000
 30
0.0
 10
298.000000
 20
-123.666667
 30
0.0
 10
301.000000
 20
-123.666667
 30
0.0
 10
301.000000
 20
-108.333333
 30
0.0
 10
298.000000
 20
-108.333333
 30
0.0
 10
298.000000
 20
-93.000000
 30
0.0
 10
301.000000
 20
-93.000000
 30
0.0
 10
301.000000
 20
-77.666667
 30
0.0
 10
298.000000
 20
-77.666667
 30
0.0
 10
298.000000
 20
-62.333333
 30
0.0
 10
301.000000
 20
-62.333333
 30
0.0
 10
301.000000
 20
-47.000000
 30
0.0
 10
298.000000
 20
-47.000000
 30
0.0
 10
298.000000
 20
-31.666667
 30
0.0
 10
301.000000
 20
-31.666667
 30
0.0
 10
301.000000
 20
-16.333333
 30
0.0
 10
298.000000
 20
-16.333333
 30
0.0
 10
298.000000
 20
-1.000000
 30
0.0
  0
LWPOLYLINE
  5
135
100
AcDbEntity
  8
newlayer
 62
7
100
AcDbPolyline
 90
5
 70
0
 10
758.000000
 20
-171.666667
 30
0.0
 10
770.578947
 20
-171.666667
 30
0.0
 10
770.578947
 20
-168.666667
 30
0.0
 10
758.000000
 20
-168.666667
 30
0.0
 10
758.000000
 20
-171.666667
 30
0.0
  0
LWPOLYLINE
  5
136
100
AcDbEntity
  8
newlayer
 62
7
100
AcDbPolyline
 90
5
 70
0
 10
758.000000
 20
-339.333333
 30
0.0
 10
770.578947
 20
-339.333333
 30
0.0
 10
770.578947
 20
-336.333333
 30
0.0
 10
758.000000
 20
-336.333333
 30
0.0
 10
758.000000
 20
-339.333333
 30
0.0
  0
LWPOLYLINE
  5
137
100
AcDbEntity
  8
newlayer
 62
7
100
AcDbPolyline
 90
5
 70
0
 10
786.157895
 20
-171.666667
 30
0.0
 10
801.736842
 20
-171.666667
 30
0.0
 10
801.736842
 20
-168.666667
 30
0.0
 10
786.157895
 20
-168.666667
 30
0.0
 10
786.157895
 20
-171.666667
 30
0.0
  0
LWPOLYLINE
  5
138
100
AcDbEntity
  8
newlayer
 62
7
100
AcDbPolyline
 90
5
 70
0
 10
786.157895
 20
-339.333333
 30
0.0
 10
801.736842
 20
-339.333333
 30
0.0
 10
801.736842
 20
-336.333333
 30
0.0
 10
786.157895
 20
-336.333333
 30
0.0
 10
786.157895
 20
-339.333333
 30
0.0
  0
LWPOLYLINE
  5
139
100
AcDbEntity
  8
newlayer
 62
7
100
AcDbPolyline
 90
5
 70
0
 10
817.315789
 20
-171.666667
 30
0.0
 10
832.894737
 20
-171.666667
 30
0.0
 10
832.894737
 20
-168.666667
 30
0.0
 10
817.315789
 20
-168.666667
 30
0.0
 10
817.315789
 20
-171.666667
 30
0.0
  0
LWPOLYLINE
  5
13a
100
AcDbEntity
  8
newlayer
 62
7
100
AcDbPolyline
 90
5
 70
0
 10
817.315789
 20
-339.333333
 30
0.0
 10
832.894737
 20
-339.333333
 30
0.0
 10
832.894737
 20
-336.333333
 30
0.0
 10
817.315789
 20
-336.333333
 30
0.0
 10
817.315789
 20
-339.333333
 30
0.0
  0
LWPOLYLINE
  5
13b
100
AcDbEntity
  8
newlayer
 62
7
100
AcDbPolyline
 90
5
 70
0
 10
848.473684
 20
-171.666667
 30
0.0
 10
864.052632
 20
-171.666667
 30
0.0
 10
864.052632
 20
-168.666667
 30
0.0
 10
848.473684
 20
-168.666667
 30
0.0
 10
848.473684
 20
-171.666667
 30
0.0
  0
LWPOLYLINE
  5
13c
100
AcDbEntity
  8
newlayer
 62
7
100
AcDbPolyline
 90
5
 70
0
 10
848.473684
 20
-339.333333
 30
0.0
 10
864.052632
 20
-339.333333
 30
0.0
 10
864.052632
 20
-336.333333
 30
0.0
 10
848.473684
 20
-336.333333
 30
0.0
 10
848.473684
 20
-339.333333
 30
0.0
  0
LWPOLYLINE
  5
13d
100
AcDbEntity
  8
newlayer
 62
7
100
AcDbPolyline
 90
5
 70
0
 10
879.631579
 20
-171.666667
 30
0.0
 10
895.210526
 20
-171.666667
 30
0.0
 10
895.210526
 20
-168.666667
 30
0.0
 10
879.631579
 20
-168.666667
 30
0.0
 10
879.631579
 20
-171.666667
 30
0.0
  0
LWPOLYLINE
  5
13e
100
AcDbEntity
  8
newlayer
 62
7
100
AcDbPolyline
 90
5
 70
0
 10
879.631579
 20
-339.333333
 30
0.0
 10
895.210526
 20
-339.333333
 30
0.0
 10
895.210526
 20
-336.333333
 30
0.0
 10
879.631579
 20
-336.333333
 30
0.0
 10
879.631579
 20
-339.333333
 30
0.0
  0
LWPOLYLINE
  5
13f
100
AcDbEntity
  8
newlayer
 62
7
100
AcDbPolyline
 90
5
 70
0
 10
910.789474
 20
-171.666667
 30
0.0
 10
926.368421
 20
-171.666667
 30
0.0
 10
926.368421
 20
-168.666667
 30
0.0
 10
910.789474
 20
-168.666667
 30
0.0
 10
910.789474
 20
-171.666667
 30
0.0
  0
LWPOLYLINE
  5
140
100
AcDbEntity
  8
newlayer
 62
7
100
AcDbPolyline
 90
5
 70
0
 10
910.789474
 20
-339.333333
 30
0.0
 10
926.368421
 20
-339.333333
 30
0.0
 10
926.368421
 20
-336.333333
 30
0.0
 10
910.789474
 20
-336.333333
 30
0.0
 10
910.789474
 20
-339.333333
 30
0.0
  0
LWPOLYLINE
  5
141
100
AcDbEntity
  8
newlayer
 62
7
100
AcDbPolyline
 90
5
 70
0
 10
941.947368
 20
-171.666667
 30
0.0
 10
957.526316
 20
-171.666667
 30
0.0
 10
957.526316
 20
-168.666667
 30
0.0
 10
941.947368
 20
-168.666667
 30
0.0
 10
941.947368
 20
-171.666667
 30
0.0
  0
LWPOLYLINE
  5
142
100
AcDbEntity
  8
newlayer
 62
7
100
AcDbPolyline
 90
5
 70
0
 10
941.947368
 20
-339.333333
 30
0.0
 10
957.526316
 20
-339.333333
 30
0.0
 10
957.526316
 20
-336.333333
 30
0.0
 10
941.947368
 20
-336.333333
 30
0.0
 10
941.947368
 20
-339.333333
 30
0.0
  0
LWPOLYLINE
  5
143
100
AcDbEntity
  8
newlayer
 62
7
100
AcDbPolyline
 90
5
 70
0
 10
973.105263
 20
-171.666667
 30
0.0
 10
988.684211
 20
-171.666667
 30
0.0
 10
988.684211
 20
-168.666667
 30
0.0
 10
973.105263
 20
-168.666667
 30
0.0
 10
973.105263
 20
-171.666667
 30
0.0
  0
LWPOLYLINE
  5
144
100
AcDbEntity
  8
newlayer
 62
7
100
AcDbPolyline
 90
5
 70
0
 10
973.105263
 20
-339.333333
 30
0.0
 10
988.684211
 20
-339.333333
 30
0.0
 10
988.684211
 20
-336.333333
 30
0.0
 10
973.105263
 20
-336.333333
 30
0.0
 10
973.105263
 20
-339.333333
 30
0.0
  0
LWPOLYLINE
  5
145
100
AcDbEntity
  8
newlayer
 62
7
100
AcDbPolyline
 90
5
 70
0
 10
1004.263158
 20
-171.666667
 30
0.0
 10
1019.842105
 20
-171.666667
 30
0.0
 10
1019.842105
 20
-168.666667
 30
0.0
 10
1004.263158
 20
-168.666667
 30
0.0
 10
1004.263158
 20
-171.666667
 30
0.0
  0
LWPOLYLINE
  5
146
100
AcDbEntity
  8
newlayer
 62
7
100
AcDbPolyline
 90
5
 70
0
 10
1004.263158
 20
-339.333333
 30
0.0
 10
1019.842105
 20
-339.333333
 30
0.0
 10
1019.842105
 20
-336.333333
 30
0.0
 10
1004.263158
 20
-336.333333
 30
0.0
 10
1004.263158
 20
-339.333333
 30
0.0
  0
LWPOLYLINE
  5
147
100
AcDbEntity
  8
newlayer
 62
7
100
AcDbPolyline
 90
5
 70
0
 10
1035.421053
 20
-171.666667
 30
0.0
 10
1048.000000
 20
-171.666667
 30
0.0
 10
1048.000000
 20
-168.666667
 30
0.0
 10
1035.421053
 20
-168.666667
 30
0.0
 10
1035.421053
 20
-171.666667
 30
0.0
  0
LWPOLYLINE
  5
148
100
AcDbEntity
  8
newlayer
 62
7
100
AcDbPolyline
 90
5
 70
0
 10
1035.421053
 20
-339.333333
 30
0.0
 10
1048.000000
 20
-339.333333
 30
0.0
 10
1048.000000
 20
-336.333333
 30
0.0
 10
1035.421053
 20
-336.333333
 30
0.0
 10
1035.421053
 20
-339.333333
 30
0.0
  0
LWPOLYLINE
  5
149
100
AcDbEntity
  8
newlayer
 62
7
100
AcDbPolyline
 90
205
 70
0
 10
758.000000
 20
-4.000000
 30
0.0
 10
770.578947
 20
-4.000000
 30
0.0
 10
770.578947
 20
-1.000000
 30
0.0
 10
786.157895
 20
-1.000000
 30
0.0
 10
786.157895
 20
-4.000000
 30
0.0
 10
801.736842
 20
-4.000000
 30
0.0
 10
801.736842
 20
-1.000000
 30
0.0
 10
817.315789
 20
-1.000000
 30
0.0
 10
817.315789
 20
-4.000000
 30
0.0
 10
832.894737
 20
-4.000000
 30
0.0
 10
832.894737
 20
-1.000000
 30
0.0
 10
848.473684
 20
-1.000000
 30
0.0
 10
848.473684
 20
-4.000000
 30
0.0
 10
864.052632
 20
-4.000000
 30
0.0
 10
864.052632
 20
-1.000000
 30
0.0
 10
879.631579
 20
-1.000000
 30
0.0
 10
879.631579
 20
-4.000000
 30
0.0
 10
895.210526
 20
-4.000000
 30
0.0
 10
895.210526
 20
-1.000000
 30
0.0
 10
910.789474
 20
-1.000000
 30
0.0
 10
910.789474
 20
-4.000000
 30
0.0
 10
926.368421
 20
-4.000000
 30
0.0
 10
926.368421
 20
-1.000000
 30
0.0
 10
941.947368
 20
-1.000000
 30
0.0
 10
941.947368
 20
-4.000000
 30
0.0
 10
957.526316
 20
-4.000000
 30
0.0
 10
957.526316
 20
-1.000000
 30
0.0
 10
973.105263
 20
-1.000000
 30
0.0
 10
973.105263
 20
-4.000000
 30
0.0
 10
988.684211
 20
-4.000000
 30
0.0
 10
988.684211
 20
-1.000000
 30
0.0
 10
1004.263158
 20
-1.000000
 30
0.0
 10
1004.263158
 20
-4.000000
 30
0.0
 10
1019.842105
 20
-4.000000
 30
0.0
 10
1019.842105
 20
-1.000000
 30
0.0
 10
1035.421053
 20
-1.000000
 30
0.0
 10
1035.421053
 20
-4.000000
 30
0.0
 10
1048.000000
 20
-4.000000
 30
0.0
 10
1048.000000
 20
-16.333333
 30
0.0
 10
1051.000000
 20
-16.333333
 30
0.0
 10
1051.000000
 20
-31.666667
 30
0.0
 10
1048.000000
 20
-31.666667
 30
0.0
 10
1048.000000
 20
-47.000000
 30
0.0
 10
1051.000000
 20
-47.000000
 30
0.0
 10
1051.000000
 20
-62.333333
 30
0.0
 10
1048.000000
 20
-62.333333
 30
0.0
 10
1048.000000
 20
-77.666667
 30
0.0
 10
1051.000000
 20
-77.666667
 30
0.0
 10
1051.000000
 20
-93.000000
 30
0.0
 10
1048.000000
 20
-93.000000
 30
0.0
 10
1048.000000
 20
-108.333333
 30
0.0
 10
1051.000000
 20
-108.333333
 30
0.0
 10
1051.000000
 20
-123.666667
 30
0.0
 10
1048.000000
 20
-123.666667
 30
0.0
 10
1048.000000
 20
-139.000000
 30
0.0
 10
1051.000000
 20
-139.000000
 30
0.0
 10
1051.000000
 20
-154.333333
 30
0.0
 10
1048.000000
 20
-154.333333
 30
0.0
 10
1048.000000
 20
-169.666667
 30
0.0
 10
1051.000000
 20
-169.666667
 30
0.0
 10
1051.000000
 20
-185.000000
 30
0.0
 10
1048.000000
 20
-185.000000
 30
0.0
 10
1048.000000
 20
-200.333333
 30
0.0
 10
1051.000000
 20
-200.333333
 30
0.0
 10
1051.000000
 20
-215.666667
 30
0.0
 10
1048.000000
 20
-215.666667
 30
0.0
 10
1048.000000
 20
-231.000000
 30
0.0
 10
1051.000000
 20
-231.000000
 30
0.0
 10
1051.000000
 20
-246.333333
 30
0.0
 10
1048.000000
 20
-246.333333
 30
0.0
 10
1048.000000
 20
-261.666667
 30
0.0
 10
1051.000000
 20
-261.666667
 30
0.0
 10
1051.000000
 20
-277.000000
 30
0.0
 10
1048.000000
 20
-277.000000
 30
0.0
 10
1048.000000
 20
-292.333333
 30
0.0
 10
1051.000000
 20
-292.333333
 30
0.0
 10
1051.000000
 20
-307.666667
 30
0.0
 10
1048.000000
 20
-307.666667
 30
0.0
 10
1048.000000
 20
-323.000000
 30
0.0
 10
1051.000000
 20
-323.000000
 30
0.0
 10
1051.000000
 20
-338.333333
 30
0.0
 10
1048.000000
 20
-338.333333
 30
0.0
 10
1048.000000
 20
-353.666667
 30
0.0
 10
1051.000000
 20
-353.666667
 30
0.0
 10
1051.000000
 20
-369.000000
 30
0.0
 10
1048.000000
 20
-369.000000
 30
0.0
 10
1048.000000
 20
-384.333333
 30
0.0
 10
1051.000000
 20
-384.333333
 30
0.0
 10
1051.000000
 20
-399.666667
 30
0.0
 10
1048.000000
 20
-399.666667
 30
0.0
 10
1048.000000
 20
-415.000000
 30
0.0
 10
1051.000000
 20
-415.000000
 30
0.0
 10
1051.000000
 20
-430.333333
 30
0.0
 10
1048.000000
 20
-430.333333
 30
0.0
 10
1048.000000
 20
-445.666667
 30
0.0
 10
1051.000000
 20
-445.666667
 30
0.0
 10
1051.000000
 20
-461.000000
 30
0.0
 10
1048.000000
 20
-461.000000
 30
0.0
 10
1048.000000
 20
-476.333333
 30
0.0
 10
1051.000000
 20
-476.333333
 30
0.0
 10
1051.000000
 20
-491.666667
 30
0.0
 10
1048.000000
 20
-491.666667
 30
0.0
 10
1048.000000
 20
-504.000000
 30
0.0
 10
1035.421053
 20
-504.000000
 30
0.0
 10
1035.421053
 20
-507.000000
 30
0.0
 10
1019.842105
 20
-507.000000
 30
0.0
 10
1019.842105
 20
-504.000000
 30
0.0
 10
1004.263158
 20
-504.000000
 30
0.0
 10
1004.263158
 20
-507.000000
 30
0.0
 10
988.684211
 20
-507.000000
 30
0.0
 10
988.684211
 20
-504.000000
 30
0.0
 10
973.105263
 20
-504.000000
 30
0.0
 10
973.105263
 20
-507.000000
 30
0.0
 10
957.526316
 20
-507.000000
 30
0.0
 10
957.526316
 20
-504.000000
 30
0.0
 10
941.947368
 20
-504.000000
 30
0.0
 10
941.947368
 20
-507.000000
 30
0.0
 10
926.368421
 20
-507.000000
 30
0.0
 10
926.368421
 20
-504.000000
 30
0.0
 10
910.789474
 20
-504.000000
 30
0.0
 10
910.789474
 20
-507.000000
 30
0.0
 10
895.210526
 20
-507.000000
 30
0.0
 10
895.210526
 20
-504.000000
 30
0.0
 10
879.631579
 20
-504.000000
 30
0.0
 10
879.631579
 20
-507.000000
 30
0.0
 10
864.052632
 20
-507.000000
 30
0.0
 10
864.052632
 20
-504.000000
 30
0.0
 10
848.473684
 20
-504.000000
 30
0.0
 10
848.473684
 20
-507.000000
 30
0.0
 10
832.894737
 20
-507.000000
 30
0.0
 10
832.894737
 20
-504.000000
 30
0.0
 10
817.315789
 20
-504.000000
 30
0.0
 10
817.315789
 20
-507.000000
 30
0.0
 10
801.736842
 20
-507.000000
 30
0.0
 10
801.736842
 20
-504.000000
 30
0.0
 10
786.157895
 20
-504.000000
 30
0.0
 10
786.157895
 20
-507.000000
 30
0.0
 10
770.578947
 20
-507.000000
 30
0.0
 10
770.578947
 20
-504.000000
 30
0.0
 10
758.000000
 20
-504.000000
 30
0.0
 10
758.000000
 20
-491.666667
 30
0.0
 10
755.000000
 20
-491.666667
 30
0.0
 10
755.000000
 20
-476.333333
 30
0.0
 10
758.000000
 20
-476.333333
 30
0.0
 10
758.000000
 20
-461.000000
 30
0.0
 10
755.000000
 20
-461.000000
 30
0.0
 10
755.000000
 20
-445.666667
 30
0.0
 10
758.000000
 20
-445.666667
 30
0.0
 10
758.000000
 20
-430.333333
 30
0.0
 10
755.000000
 20
-430.333333
 30
0.0
 10
755.000000
 20
-415.000000
 30
0.0
 10
758.000000
 20
-415.000000
 30
0.0
 10
758.000000
 20
-399.666667
 30
0.0
 10
755.000000
 20
-399.666667
 30
0.0
 10
755.000000
 20
-384.333333
 30
0.0
 10
758.000000
 20
-384.333333
 30
0.0
 10
758.000000
 20
-369.000000
 30
0.0
 10
755.000000
 20
-369.000000
 30
0.0
 10
755.000000
 20
-353.666667
 30
0.0
 10
758.000000
 20
-353.666667
 30
0.0
 10
758.000000
 20
-338.333333
 30
0.0
 10
755.000000
 20
-338.333333
 30
0.0
 10
755.000000
 20
-323.000000
 30
0.0
 10
758.000000
 20
-323.000000
 30
0.0
 10
758.000000
 20
-307.666667
 30
0.0
 10
755.000000
 20
-307.666667
 30
0.0
 10
755.000000
 20
-292.333333
 30
0.0
 10
758.000000
 20
-292.333333
 30
0.0
 10
758.000000
 20
-277.000000
 30
0.0
 10
755.000000
 20
-277.000000
 30
0.0
 10
755.000000
 20
-261.666667
 30
0.0
 10
758.000000
 20
-261.666667
 30
0.0
 10
758.000000
 20
-246.333333
 30
0.0
 10
755.000000
 20
-246.333333
 30
0.0
 10
755.000000
 20
-231.000000
 30
0.0
 10
758.000000
 20
-231.000000
 30
0.0
 10
758.000000
 20
-215.666667
 30
0.0
 10
755.000000
 20
-215.666667
 30
0.0
 10
755.000000
 20
-200.333333
 30
0.0
 10
758.000000
 20
-200.333333
 30
0.0
 10
758.000000
 20
-185.000000
 30
0.0
 10
755.000000
 20
-185.000000
 30
0.0
 10
755.000000
 20
-169.666667
 30
0.0
 10
758.000000
 20
-169.666667
 30
0.0
 10
758.000000
 20
-154.333333
 30
0.0
 10
755.000000
 20
-154.333333
 30
0.0
 10
755.000000
 20
-139.000000
 30
0.0
 10
758.000000
 20
-139.000000
 30
0.0
 10
758.000000
 20
-123.666667
 30
0.0
 10
755.000000
 20
-123.666667
 30
0.0
 10
755.000000
 20
-108.333333
 30
0.0
 10
758.000000
 20
-108.333333
 30
0.0
 10
758.000000
 20
-93.000000
 30
0.0
 10
755.000000
 20
-93.000000
 30
0.0
 10
755.000000
 20
-77.666667
 30
0.0
 10
758.000000
 20
-77.666667
 30
0.0
 10
758.000000
 20
-62.333333
 30
0.0
 10
755.000000
 20
-62.333333
 30
0.0
 10
755.000000
 20
-47.000000
 30
0.0
 10
758.000000
 20
-47.000000
 30
0.0
 10
758.000000
 20
-31.666667
 30
0.0
 10
755.000000
 20
-31.666667
 30
0.0
 10
755.000000
 20
-16.333333
 30
0.0
 10
758.000000
 20
-16.333333
 30
0.0
 10
758.000000
 20
-4.000000
 30
0.0
  0
LWPOLYLINE
  5
14a
100
AcDbEntity
  8
newlayer
 62
7
100
AcDbPolyline
 90
5
 70
0
 10
1067.724138
 20
-171.666667
 30
0.0
 10
1083.448276
 20
-171.666667
 30
0.0
 10
1083.448276
 20
-168.666667
 30
0.0
 10
1067.724138
 20
-168.666667
 30
0.0
 10
1067.724138
 20
-171.666667
 30
0.0
  0
LWPOLYLINE
  5
14b
100
AcDbEntity
  8
newlayer
 62
7
100
AcDbPolyline
 90
5
 70
0
 10
1067.724138
 20
-339.333333
 30
0.0
 10
1083.448276
 20
-339.333333
 30
0.0
 10
1083.448276
 20
-336.333333
 30
0.0
 10
1067.724138
 20
-336.333333
 30
0.0
 10
1067.724138
 20
-339.333333
 30
0.0
  0
LWPOLYLINE
  5
14c
100
AcDbEntity
  8
newlayer
 62
7
100
AcDbPolyline
 90
5
 70
0
 10
1099.172414
 20
-171.666667
 30
0.0
 10
1114.896552
 20
-171.666667
 30
0.0
 10
1114.896552
 20
-168.666667
 30
0.0
 10
1099.172414
 20
-168.666667
 30
0.0
 10
1099.172414
 20
-171.666667
 30
0.0
  0
LWPOLYLINE
  5
14d
100
AcDbEntity
  8
newlayer
 62
7
100
AcDbPolyline
 90
5
 70
0
 10
1099.172414
 20
-339.333333
 30
0.0
 10
1114.896552
 20
-339.333333
 30
0.0
 10
1114.896552
 20
-336.333333
 30
0.0
 10
1099.172414
 20
-336.333333
 30
0.0
 10
1099.172414
 20
-339.333333
 30
0.0
  0
LWPOLYLINE
  5
14e
100
AcDbEntity
  8
newlayer
 62
7
100
AcDbPolyline
 90
5
 70
0
 10
1130.620690
 20
-171.666667
 30
0.0
 10
1146.344828
 20
-171.666667
 30
0.0
 10
1146.344828
 20
-168.666667
 30
0.0
 10
1130.620690
 20
-168.666667
 30
0.0
 10
1130.620690
 20
-171.666667
 30
0.0
  0
LWPOLYLINE
  5
14f
100
AcDbEntity
  8
newlayer
 62
7
100
AcDbPolyline
 90
5
 70
0
 10
1130.620690
 20
-339.333333
 30
0.0
 10
1146.344828
 20
-339.333333
 30
0.0
 10
1146.344828
 20
-336.333333
 30
0.0
 10
1130.620690
 20
-336.333333
 30
0.0
 10
1130.620690
 20
-339.333333
 30
0.0
  0
LWPOLYLINE
  5
150
100
AcDbEntity
  8
newlayer
 62
7
100
AcDbPolyline
 90
5
 70
0
 10
1162.068966
 20
-171.666667
 30
0.0
 10
1177.793103
 20
-171.666667
 30
0.0
 10
1177.793103
 20
-168.666667
 30
0.0
 10
1162.068966
 20
-168.666667
 30
0.0
 10
1162.068966
 20
-171.666667
 30
0.0
  0
LWPOLYLINE
  5
151
100
AcDbEntity
  8
newlayer
 62
7
100
AcDbPolyline
 90
5
 70
0
 10
1162.068966
 20
-339.333333
 30
0.0
 10
1177.793103
 20
-339.333333
 30
0.0
 10
1177.793103
 20
-336.333333
 30
0.0
 10
1162.068966
 20
-336.333333
 30
0.0
 10
1162.068966
 20
-339.333333
 30
0.0
  0
LWPOLYLINE
  5
152
100
AcDbEntity
  8
newlayer
 62
7
100
AcDbPolyline
 90
5
 70
0
 10
1193.517241
 20
-171.666667
 30
0.0
 10
1209.241379
 20
-171.666667
 30
0.0
 10
1209.241379
 20
-168.666667
 30
0.0
 10
1193.517241
 20
-168.666667
 30
0.0
 10
1193.517241
 20
-171.666667
 30
0.0
  0
LWPOLYLINE
  5
153
100
AcDbEntity
  8
newlayer
 62
7
100
AcDbPolyline
 90
5
 70
0
 10
1193.517241
 20
-339.333333
 30
0.0
 10
1209.241379
 20
-339.333333
 30
0.0
 10
1209.241379
 20
-336.333333
 30
0.0
 10
1193.517241
 20
-336.333333
 30
0.0
 10
1193.517241
 20
-339.333333
 30
0.0
  0
LWPOLYLINE
  5
154
100
AcDbEntity
  8
newlayer
 62
7
100
AcDbPolyline
 90
5
 70
0
 10
1224.965517
 20
-171.666667
 30
0.0
 10
1240.689655
 20
-171.666667
 30
0.0
 10
1240.689655
 20
-168.666667
 30
0.0
 10
1224.965517
 20
-168.666667
 30
0.0
 10
1224.965517
 20
-171.666667
 30
0.0
  0
LWPOLYLINE
  5
155
100
AcDbEntity
  8
newlayer
 62
7
100
AcDbPolyline
 90
5
 70
0
 10
1224.965517
 20
-339.333333
 30
0.0
 10
1240.689655
 20
-339.333333
 30
0.0
 10
1240.689655
 20
-336.333333
 30
0.0
 10
1224.965517
 20
-336.333333
 30
0.0
 10
1224.965517
 20
-339.333333
 30
0.0
  0
LWPOLYLINE
  5
156
100
AcDbEntity
  8
newlayer
 62
7
100
AcDbPolyline
 90
5
 70
0
 10
1256.413793
 20
-171.666667
 30
0.0
 10
1272.137931
 20
-171.666667
 30
0.0
 10
1272.137931
 20
-168.666667
 30
0.0
 10
1256.413793
 20
-168.666667
 30
0.0
 10
1256.413793
 20
-171.666667
 30
0.0
  0
LWPOLYLINE
  5
157
100
AcDbEntity
  8
newlayer
 62
7
100
AcDbPolyline
 90
5
 70
0
 10
1256.413793
 20
-339.333333
 30
0.0
 10
1272.137931
 20
-339.333333
 30
0.0
 10
1272.137931
 20
-336.333333
 30
0.0
 10
1256.413793
 20
-336.333333
 30
0.0
 10
1256.413793
 20
-339.333333
 30
0.0
  0
LWPOLYLINE
  5
158
100
AcDbEntity
  8
newlayer
 62
7
100
AcDbPolyline
 90
5
 70
0
 10
1287.862069
 20
-171.666667
 30
0.0
 10
1303.586207
 20
-171.666667
 30
0.0
 10
1303.586207
 20
-168.666667
 30
0.0
 10
1287.862069
 20
-168.666667
 30
0.0
 10
1287.862069
 20
-171.666667
 30
0.0
  0
LWPOLYLINE
  5
159
100
AcDbEntity
  8
newlayer
 62
7
100
AcDbPolyline
 90
5
 70
0
 10
1287.862069
 20
-339.333333
 30
0.0
 10
1303.586207
 20
-339.333333
 30
0.0
 10
1303.586207
 20
-336.333333
 30
0.0
 10
1287.862069
 20
-336.333333
 30
0.0
 10
1287.862069
 20
-339.333333
 30
0.0
  0
LWPOLYLINE
  5
15a
100
AcDbEntity
  8
newlayer
 62
7
100
AcDbPolyline
 90
5
 70
0
 10
1319.310345
 20
-171.666667
 30
0.0
 10
1335.034483
 20
-171.666667
 30
0.0
 10
1335.034483
 20
-168.666667
 30
0.0
 10
1319.310345
 20
-168.666667
 30
0.0
 10
1319.310345
 20
-171.666667
 30
0.0
  0
LWPOLYLINE
  5
15b
100
AcDbEntity
  8
newlayer
 62
7
100
AcDbPolyline
 90
5
 70
0
 10
1319.310345
 20
-339.333333
 30
0.0
 10
1335.034483
 20
-339.333333
 30
0.0
 10
1335.034483
 20
-336.333333
 30
0.0
 10
1319.310345
 20
-336.333333
 30
0.0
 10
1319.310345
 20
-339.333333
 30
0.0
  0
LWPOLYLINE
  5
15c
100
AcDbEntity
  8
newlayer
 62
7
100
AcDbPolyline
 90
5
 70
0
 10
1350.758621
 20
-171.666667
 30
0.0
 10
1366.482759
 20
-171.666667
 30
0.0
 10
1366.482759
 20
-168.666667
 30
0.0
 10
1350.758621
 20
-168.666667
 30
0.0
 10
1350.758621
 20
-171.666667
 30
0.0
  0
LWPOLYLINE
  5
15d
100
AcDbEntity
  8
newlayer
 62
7
100
AcDbPolyline
 90
5
 70
0
 10
1350.758621
 20
-339.333333
 30
0.0
 10
1366.482759
 20
-339.333333
 30
0.0
 10
1366.482759
 20
-336.333333
 30
0.0
 10
1350.758621
 20
-336.333333
 30
0.0
 10
1350.758621
 20
-339.333333
 30
0.0
  0
LWPOLYLINE
  5
15e
100
AcDbEntity
  8
newlayer
 62
7
100
AcDbPolyline
 90
5
 70
0
 10
1382.206897
 20
-171.666667
 30
0.0
 10
1397.931034
 20
-171.666667
 30
0.0
 10
1397.931034
 20
-168.666667
 30
0.0
 10
1382.206897
 20
-168.666667
 30
0.0
 10
1382.206897
 20
-171.666667
 30
0.0
  0
LWPOLYLINE
  5
15f
100
AcDbEntity
  8
newlayer
 62
7
100
AcDbPolyline
 90
5
 70
0
 10
1382.206897
 20
-339.333333
 30
0.0
 10
1397.931034
 20
-339.333333
 30
0.0
 10
1397.931034
 20
-336.333333
 30
0.0
 10
1382.206897
 20
-336.333333
 30
0.0
 10
1382.206897
 20
-339.333333
 30
0.0
  0
LWPOLYLINE
  5
160
100
AcDbEntity
  8
newlayer
 62
7
100
AcDbPolyline
 90
5
 70
0
 10
1413.655172
 20
-171.666667
 30
0.0
 10
1429.379310
 20
-171.666667
 30
0.0
 10
1429.379310
 20
-168.666667
 30
0.0
 10
1413.655172
 20
-168.666667
 30
0.0
 10
1413.655172
 20
-171.666667
 30
0.0
  0
LWPOLYLINE
  5
161
100
AcDbEntity
  8
newlayer
 62
7
100
AcDbPolyline
 90
5
 70
0
 10
1413.655172
 20
-339.333333
 30
0.0
 10
1429.379310
 20
-339.333333
 30
0.0
 10
1429.379310
 20
-336.333333
 30
0.0
 10
1413.655172
 20
-336.333333
 30
0.0
 10
1413.655172
 20
-339.333333
 30
0.0
  0
LWPOLYLINE
  5
162
100
AcDbEntity
  8
newlayer
 62
7
100
AcDbPolyline
 90
5
 70
0
 10
1445.103448
 20
-171.666667
 30
0.0
 10
1460.827586
 20
-171.666667
 30
0.0
 10
1460.827586
 20
-168.666667
 30
0.0
 10
1445.103448
 20
-168.666667
 30
0.0
 10
1445.103448
 20
-171.666667
 30
0.0
  0
LWPOLYLINE
  5
163
100
AcDbEntity
  8
newlayer
 62
7
100
AcDbPolyline
 90
5
 70
0
 10
1445.103448
 20
-339.333333
 30
0.0
 10
1460.827586
 20
-339.333333
 30
0.0
 10
1460.827586
 20
-336.333333
 30
0.0
 10
1445.103448
 20
-336.333333
 30
0.0
 10
1445.103448
 20
-339.333333
 30
0.0
  0
LWPOLYLINE
  5
164
100
AcDbEntity
  8
newlayer
 62
7
100
AcDbPolyline
 90
5
 70
0
 10
1476.551724
 20
-171.666667
 30
0.0
 10
1492.275862
 20
-171.666667
 30
0.0
 10
1492.275862
 20
-168.666667
 30
0.0
 10
1476.551724
 20
-168.666667
 30
0.0
 10
1476.551724
 20
-171.666667
 30
0.0
  0
LWPOLYLINE
  5
165
100
AcDbEntity
  8
newlayer
 62
7
100
AcDbPolyline
 90
5
 70
0
 10
1476.551724
 20
-339.333333
 30
0.0
 10
1492.275862
 20
-339.333333
 30
0.0
 10
1492.275862
 20
-336.333333
 30
0.0
 10
1476.551724
 20
-336.333333
 30
0.0
 10
1476.551724
 20
-339.333333
 30
0.0
  0
LWPOLYLINE
  5
166
100
AcDbEntity
  8
newlayer
 62
7
100
AcDbPolyline
 90
245
 70
0
 10
1052.000000
 20
-1.000000
 30
0.0
 10
1067.724138
 20
-1.000000
 30
0.0
 10
1067.724138
 20
-4.000000
 30
0.0
 10
1083.448276
 20
-4.000000
 30
0.0
 10
1083.448276
 20
-1.000000
 30
0.0
 10
1099.172414
 20
-1.000000
 30
0.0
 10
1099.172414
 20
-4.000000
 30
0.0
 10
1114.896552
 20
-4.000000
 30
0.0
 10
1114.896552
 20
-1.000000
 30
0.0
 10
1130.620690
 20
-1.000000
 30
0.0
 10
1130.620690
 20
-4.000000
 30
0.0
 10
1146.344828
 20
-4.000000
 30
0.0
 10
1146.344828
 20
-1.000000
 30
0.0
 10
1162.068966
 20
-1.000000
 30
0.0
 10
1162.068966
 20
-4.000000
 30
0.0
 10
1177.793103
 20
-4.000000
 30
0.0
 10
1177.793103
 20
-1.000000
 30
0.0
 10
1193.517241
 20
-1.000000
 30
0.0
 10
1193.517241
 20
-4.000000
 30
0.0
 10
1209.241379
 20
-4.000000
 30
0.0
 10
1209.241379
 20
-1.000000
 30
0.0
 10
1224.965517
 20
-1.000000
 30
0.0
 10
1224.965517
 20
-4.000000
 30
0.0
 10
1240.689655
 20
-4.000000
 30
0.0
 10
1240.689655
 20
-1.000000
 30
0.0
 10
1256.413793
 20
-1.000000
 30
0.0
 10
1256.413793
 20
-4.000000
 30
0.0
 10
1272.137931
 20
-4.000000
 30
0.0
 10
1272.137931
 20
-1.000000
 30
0.0
 10
1287.862069
 20
-1.000000
 30
0.0
 10
1287.862069
 20
-4.000000
 30
0.0
 10
1303.586207
 20
-4.000000
 30
0.0
 10
1303.586207
 20
-1.000000
 30
0.0
 10
1319.310345
 20
-1.000000
 30
0.0
 10
1319.310345
 20
-4.000000
 30
0.0
 10
1335.034483
 20
-4.000000
 30
0.0
 10
1335.034483
 20
-1.000000
 30
0.0
 10
1350.758621
 20
-1.000000
 30
0.0
 10
1350.758621
 20
-4.000000
 30
0.0
 10
1366.482759
 20
-4.000000
 30
0.0
 10
1366.482759
 20
-1.000000
 30
0.0
 10
1382.206897
 20
-1.000000
 30
0.0
 10
1382.206897
 20
-4.000000
 30
0.0
 10
1397.931034
 20
-4.000000
 30
0.0
 10
1397.931034
 20
-1.000000
 30
0.0
 10
1413.655172
 20
-1.000000
 30
0.0
 10
1413.655172
 20
-4.000000
 30
0.0
 10
1429.379310
 20
-4.000000
 30
0.0
 10
1429.379310
 20
-1.000000
 30
0.0
 10
1445.103448
 20
-1.000000
 30
0.0
 10
1445.103448
 20
-4.000000
 30
0.0
 10
1460.827586
 20
-4.000000
 30
0.0
 10
1460.827586
 20
-1.000000
 30
0.0
 10
1476.551724
 20
-1.000000
 30
0.0
 10
1476.551724
 20
-4.000000
 30
0.0
 10
1492.275862
 20
-4.000000
 30
0.0
 10
1492.275862
 20
-1.000000
 30
0.0
 10
1508.000000
 20
-1.000000
 30
0.0
 10
1508.000000
 20
-16.333333
 30
0.0
 10
1505.000000
 20
-16.333333
 30
0.0
 10
1505.000000
 20
-31.666667
 30
0.0
 10
1508.000000
 20
-31.666667
 30
0.0
 10
1508.000000
 20
-47.000000
 30
0.0
 10
1505.000000
 20
-47.000000
 30
0.0
 10
1505.000000
 20
-62.333333
 30
0.0
 10
1508.000000
 20
-62.333333
 30
0.0
 10
1508.000000
 20
-77.666667
 30
0.0
 10
1505.000000
 20
-77.666667
 30
0.0
 10
1505.000000
 20
-93.000000
 30
0.0
 10
1508.000000
 20
-93.000000
 30
0.0
 10
1508.000000
 20
-108.333333
 30
0.0
 10
1505.000000
 20
-108.333333
 30
0.0
 10
1505.000000
 20
-123.666667
 30
0.0
 10
1508.000000
 20
-123.666667
 30
0.0
 10
1508.000000
 20
-139.000000
 30
0.0
 10
1505.000000
 20
-139.000000
 30
0.0
 10
1505.000000
 20
-154.333333
 30
0.0
 10
1508.000000
 20
-154.333333
 30
0.0
 10
1508.000000
 20
-169.666667
 30
0.0
 10
1505.000000
 20
-169.666667
 30
0.0
 10
1505.000000
 20
-185.000000
 30
0.0
 10
1508.000000
 20
-185.000000
 30
0.0
 10
1508.000000
 20
-200.333333
 30
0.0
 10
1505.000000
 20
-200.333333
 30
0.0
 10
1505.000000
 20
-215.666667
 30
0.0
 10
1508.000000
 20
-215.666667
 30
0.0
 10
1508.000000
 20
-231.000000
 30
0.0
 10
1505.000000
 20
-231.000000
 30
0.0
 10
1505.000000
 20
-246.333333
 30
0.0
 10
1508.000000
 20
-246.333333
 30
0.0
 10
1508.000000
 20
-261.666667
 30
0.0
 10
1505.000000
 20
-261.666667
 30
0.0
 10
1505.000000
 20
-277.000000
 30
0.0
 10
1508.000000
 20
-277.000000
 30
0.0
 10
1508.000000
 20
-292.333333
 30
0.0
 10
1505.000000
 20
-292.333333
 30
0.0
 10
1505.000000
 20
-307.666667
 30
0.0
 10
1508.000000
 20
-307.666667
 30
0.0
 10
1508.000000
 20
-323.000000
 30
0.0
 10
1505.000000
 20
-323.000000
 30
0.0
 10
1505.000000
 20
-338.333333
 30
0.0
 10
1508.000000
 20
-338.333333
 30
0.0
 10
1508.000000
 20
-353.666667
 30
0.0
 10
1505.000000
 20
-353.666667
 30
0.0
 10
1505.000000
 20
-369.000000
 30
0.0
 10
1508.000000
 20
-369.000000
 30
0.0
 10
1508.000000
 20
-384.333333
 30
0.0
 10
1505.000000
 20
-384.333333
 30
0.0
 10
1505.000000
 20
-399.666667
 30
0.0
 10
1508.000000
 20
-399.666667
 30
0.0
 10
1508.000000
 20
-415.000000
 30
0.0
 10
1505.000000
 20
-415.000000
 30
0.0
 10
1505.000000
 20
-430.333333
 30
0.0
 10
1508.000000
 20
-430.333333
 30
0.0
 10
1508.000000
 20
-445.666667
 30
0.0
 10
1505.000000
 20
-445.666667
 30
0.0
 10
1505.000000
 20
-461.000000
 30
0.0
 10
1508.000000
 20
-461.000000
 30
0.0
 10
1508.000000
 20
-476.333333
 30
0.0
 10
1505.000000
 20
-476.333333
 30
0.0
 10
1505.000000
 20
-491.666667
 30
0.0
 10
1508.000000
 20
-491.666667
 30
0.0
 10
1508.000000
 20
-507.000000
 30
0.0
 10
1492.275862
 20
-507.000000
 30
0.0
 10
1492.275862
 20
-504.000000
 30
0.0
 10
1476.551724
 20
-504.000000
 30
0.0
 10
1476.551724
 20
-507.000000
 30
0.0
 10
1460.827586
 20
-507.000000
 30
0.0
 10
1460.827586
 20
-504.000000
 30
0.0
 10
1445.103448
 20
-504.000000
 30
0.0
 10
1445.103448
 20
-507.000000
 30
0.0
 10
1429.379310
 20
-507.000000
 30
0.0
 10
1429.379310
 20
-504.000000
 30
0.0
 10
1413.655172
 20
-504.000000
 30
0.0
 10
1413.655172
 20
-507.000000
 30
0.0
 10
1397.931034
 20
-507.000000
 30
0.0
 10
1397.931034
 20
-504.000000
 30
0.0
 10
1382.206897
 20
-504.000000
 30
0.0
 10
1382.206897
 20
-507.000000
 30
0.0
 10
1366.482759
 20
-507.000000
 30
0.0
 10
1366.482759
 20
-504.000000
 30
0.0
 10
1350.758621
 20
-504.000000
 30
0.0
 10
1350.758621
 20
-507.000000
 30
0.0
 10
1335.034483
 20
-507.000000
 30
0.0
 10
1335.034483
 20
-504.000000
 30
0.0
 10
1319.310345
 20
-504.000000
 30
0.0
 10
1319.310345
 20
-507.000000
 30
0.0
 10
1303.586207
 20
-507.000000
 30
0.0
 10
1303.586207
 20
-504.000000
 30
0.0
 10
1287.862069
 20
-504.000000
 30
0.0
 10
1287.862069
 20
-507.000000
 30
0.0
 10
1272.137931
 20
-507.000000
 30
0.0
 10
1272.137931
 20
-504.000000
 30
0.0
 10
1256.413793
 20
-504.000000
 30
0.0
 10
1256.413793
 20
-507.000000
 30
0.0
 10
1240.689655
 20
-507.000000
 30
0.0
 10
1240.689655
 20
-504.000000
 30
0.0
 10
1224.965517
 20
-504.000000
 30
0.0
 10
1224.965517
 20
-507.000000
 30
0.0
 10
1209.241379
 20
-507.000000
 30
0.0
 10
1209.241379
 20
-504.000000
 30
0.0
 10
1193.517241
 20
-504.000000
 30
0.0
 10
1193.517241
 20
-507.000000
 30
0.0
 10
1177.793103
 20
-507.000000
 30
0.0
 10
1177.793103
 20
-504.000000
 30
0.0
 10
1162.068966
 20
-504.000000
 30
0.0
 10
1162.068966
 20
-507.000000
 30
0.0
 10
1146.344828
 20
-507.000000
 30
0.0
 10
1146.344828
 20
-504.000000
 30
0.0
 10
1130.620690
 20
-504.000000
 30
0.0
 10
1130.620690
 20
-507.000000
 30
0.0
 10
1114.896552
 20
-507.000000
 30
0.0
 10
1114.896552
 20
-504.000000
 30
0.0
 10
1099.172414
 20
-504.000000
 30
0.0
 10
1099.172414
 20
-507.000000
 30
0.0
 10
1083.448276
 20
-507.000000
 30
0.0
 10
1083.448276
 20
-504.000000
 30
0.0
 10
1067.724138
 20
-504.000000
 30
0.0
 10
1067.724138
 20
-507.000000
 30
0.0
 10
1052.000000
 20
-507.000000
 30
0.0
 10
1052.000000
 20
-491.666667
 30
0.0
 10
1055.000000
 20
-491.666667
 30
0.0
 10
1055.000000
 20
-476.333333
 30
0.0
 10
1052.000000
 20
-476.333333
 30
0.0
 10
1052.000000
 20
-461.000000
 30
0.0
 10
1055.000000
 20
-461.000000
 30
0.0
 10
1055.000000
 20
-445.666667
 30
0.0
 10
1052.000000
 20
-445.666667
 30
0.0
 10
1052.000000
 20
-430.333333
 30
0.0
 10
1055.000000
 20
-430.333333
 30
0.0
 10
1055.000000
 20
-415.000000
 30
0.0
 10
1052.000000
 20
-415.000000
 30
0.0
 10
1052.000000
 20
-399.666667
 30
0.0
 10
1055.000000
 20
-399.666667
 30
0.0
 10
1055.000000
 20
-384.333333
 30
0.0
 10
1052.000000
 20
-384.333333
 30
0.0
 10
1052.000000
 20
-369.000000
 30
0.0
 10
1055.000000
 20
-369.000000
 30
0.0
 10
1055.000000
 20
-353.666667
 30
0.0
 10
1052.000000
 20
-353.666667
 30
0.0
 10
1052.000000
 20
-338.333333
 30
0.0
 10
1055.000000
 20
-338.333333
 30
0.0
 10
1055.000000
 20
-323.000000
 30
0.0
 10
1052.000000
 20
-323.000000
 30
0.0
 10
1052.000000
 20
-307.666667
 30
0.0
 10
1055.000000
 20
-307.666667
 30
0.0
 10
1055.000000
 20
-292.333333
 30
0.0
 10
1052.000000
 20
-292.333333
 30
0.0
 10
1052.000000
 20
-277.000000
 30
0.0
 10
1055.000000
 20
-277.000000
 30
0.0
 10
1055.000000
 20
-261.666667
 30
0.0
 10
1052.000000
 20
-261.666667
 30
0.0
 10
1052.000000
 20
-246.333333
 30
0.0
 10
1055.000000
 20
-246.333333
 30
0.0
 10
1055.000000
 20
-231.000000
 30
0.0
 10
1052.000000
 20
-231.000000
 30
0.0
 10
1052.000000
 20
-215.666667
 30
0.0
 10
1055.000000
 20
-215.666667
 30
0.0
 10
1055.000000
 20
-200.333333
 30
0.0
 10
1052.000000
 20
-200.333333
 30
0.0
 10
1052.000000
 20
-185.000000
 30
0.0
 10
1055.000000
 20
-185.000000
 30
0.0
 10
1055.000000
 20
-169.666667
 30
0.0
 10
1052.000000
 20
-169.666667
 30
0.0
 10
1052.000000
 20
-154.333333
 30
0.0
 10
1055.000000
 20
-154.333333
 30
0.0
 10
1055.000000
 20
-139.000000
 30
0.0
 10
1052.000000
 20
-139.000000
 30
0.0
 10
1052.000000
 20
-123.666667
 30
0.0
 10
1055.000000
 20
-123.666667
 30
0.0
 10
1055.000000
 20
-108.333333
 30
0.0
 10
1052.000000
 20
-108.333333
 30
0.0
 10
1052.000000
 20
-93.000000
 30
0.0
 10
1055.000000
 20
-93.000000
 30
0.0
 10
1055.000000
 20
-77.666667
 30
0.0
 10
1052.000000
 20
-77.666667
 30
0.0
 10
1052.000000
 20
-62.333333
 30
0.0
 10
1055.000000
 20
-62.333333
 30
0.0
 10
1055.000000
 20
-47.000000
 30
0.0
 10
1052.000000
 20
-47.000000
 30
0.0
 10
1052.000000
 20
-31.666667
 30
0.0
 10
1055.000000
 20
-31.666667
 30
0.0
 10
1055.000000
 20
-16.333333
 30
0.0
 10
1052.000000
 20
-16.333333
 30
0.0
 10
1052.000000
 20
-1.000000
 30
0.0
  0
LWPOLYLINE
  5
167
100
AcDbEntity
  8
newlayer
 62
7
100
AcDbPolyline
 90
189
 70
0
 10
298.000000
 20
293.000000
 30
0.0
 10
313.724138
 20
293.000000
 30
0.0
 10
313.724138
 20
296.000000
 30
0.0
 10
329.448276
 20
296.000000
 30
0.0
 10
329.448276
 20
293.000000
 30
0.0
 10
345.172414
 20
293.000000
 30
0.0
 10
345.172414
 20
296.000000
 30
0.0
 10
360.896552
 20
296.000000
 30
0.0
 10
360.896552
 20
293.000000
 30
0.0
 10
376.620690
 20
293.000000
 30
0.0
 10
376.620690
 20
296.000000
 30
0.0
 10
392.344828
 20
296.000000
 30
0.0
 10
392.344828
 20
293.000000
 30
0.0
 10
408.068966
 20
293.000000
 30
0.0
 10
408.068966
 20
296.000000
 30
0.0
 10
423.793103
 20
296.000000
 30
0.0
 10
423.793103
 20
293.000000
 30
0.0
 10
439.517241
 20
293.000000
 30
0.0
 10
439.517241
 20
296.000000
 30
0.0
 10
455.241379
 20
296.000000
 30
0.0
 10
455.241379
 20
293.000000
 30
0.0
 10
470.965517
 20
293.000000
 30
0.0
 10
470.965517
 20
296.000000
 30
0.0
 10
486.689655
 20
296.000000
 30
0.0
 10
486.689655
 20
293.000000
 30
0.0
 10
502.413793
 20
293.000000
 30
0.0
 10
502.413793
 20
296.000000
 30
0.0
 10
518.137931
 20
296.000000
 30
0.0
 10
518.137931
 20
293.000000
 30
0.0
 10
533.862069
 20
293.000000
 30
0.0
 10
533.862069
 20
296.000000
 30
0.0
 10
549.586207
 20
296.000000
 30
0.0
 10
549.586207
 20
293.000000
 30
0.0
 10
565.310345
 20
293.000000
 30
0.0
 10
565.310345
 20
296.000000
 30
0.0
 10
581.034483
 20
296.000000
 30
0.0
 10
581.034483
 20
293.000000
 30
0.0
 10
596.758621
 20
293.000000
 30
0.0
 10
596.758621
 20
296.000000
 30
0.0
 10
612.482759
 20
296.000000
 30
0.0
 10
612.482759
 20
293.000000
 30
0.0
 10
628.206897
 20
293.000000
 30
0.0
 10
628.206897
 20
296.000000
 30
0.0
 10
643.931034
 20
296.000000
 30
0.0
 10
643.931034
 20
293.000000
 30
0.0
 10
659.655172
 20
293.000000
 30
0.0
 10
659.655172
 20
296.000000
 30
0.0
 10
675.379310
 20
296.000000
 30
0.0
 10
675.379310
 20
293.000000
 30
0.0
 10
691.103448
 20
293.000000
 30
0.0
 10
691.103448
 20
296.000000
 30
0.0
 10
706.827586
 20
296.000000
 30
0.0
 10
706.827586
 20
293.000000
 30
0.0
 10
722.551724
 20
293.000000
 30
0.0
 10
722.551724
 20
296.000000
 30
0.0
 10
738.275862
 20
296.000000
 30
0.0
 10
738.275862
 20
293.000000
 30
0.0
 10
754.000000
 20
293.000000
 30
0.0
 10
754.000000
 20
280.421053
 30
0.0
 10
751.000000
 20
280.421053
 30
0.0
 10
751.000000
 20
264.842105
 30
0.0
 10
754.000000
 20
264.842105
 30
0.0
 10
754.000000
 20
249.263158
 30
0.0
 10
751.000000
 20
249.263158
 30
0.0
 10
751.000000
 20
233.684211
 30
0.0
 10
754.000000
 20
233.684211
 30
0.0
 10
754.000000
 20
218.105263
 30
0.0
 10
751.000000
 20
218.105263
 30
0.0
 10
751.000000
 20
202.526316
 30
0.0
 10
754.000000
 20
202.526316
 30
0.0
 10
754.000000
 20
186.947368
 30
0.0
 10
751.000000
 20
186.947368
 30
0.0
 10
751.000000
 20
171.368421
 30
0.0
 10
754.000000
 20
171.368421
 30
0.0
 10
754.000000
 20
155.789474
 30
0.0
 10
751.000000
 20
155.789474
 30
0.0
 10
751.000000
 20
140.210526
 30
0.0
 10
754.000000
 20
140.210526
 30
0.0
 10
754.000000
 20
124.631579
 30
0.0
 10
751.000000
 20
124.631579
 30
0.0
 10
751.000000
 20
109.052632
 30
0.0
 10
754.000000
 20
109.052632
 30
0.0
 10
754.000000
 20
93.473684
 30
0.0
 10
751.000000
 20
93.473684
 30
0.0
 10
751.000000
 20
77.894737
 30
0.0
 10
754.000000
 20
77.894737
 30
0.0
 10
754.000000
 20
62.315789
 30
0.0
 10
751.000000
 20
62.315789
 30
0.0
 10
751.000000
 20
46.736842
 30
0.0
 10
754.000000
 20
46.736842
 30
0.0
 10
754.000000
 20
31.157895
 30
0.0
 10
751.000000
 20
31.157895
 30
0.0
 10
751.000000
 20
15.578947
 30
0.0
 10
754.000000
 20
15.578947
 30
0.0
 10
754.000000
 20
3.000000
 30
0.0
 10
738.275862
 20
3.000000
 30
0.0
 10
738.275862
 20
0.000000
 30
0.0
 10
722.551724
 20
0.000000
 30
0.0
 10
722.551724
 20
3.000000
 30
0.0
 10
706.827586
 20
3.000000
 30
0.0
 10
706.827586
 20
0.000000
 30
0.0
 10
691.103448
 20
0.000000
 30
0.0
 10
691.103448
 20
3.000000
 30
0.0
 10
675.379310
 20
3.000000
 30
0.0
 10
675.379310
 20
0.000000
 30
0.0
 10
659.655172
 20
0.000000
 30
0.0
 10
659.655172
 20
3.000000
 30
0.0
 10
643.931034
 20
3.000000
 30
0.0
 10
643.931034
 20
0.000000
 30
0.0
 10
628.206897
 20
0.000000
 30
0.0
 10
628.206897
 20
3.000000
 30
0.0
 10
612.482759
 20
3.000000
 30
0.0
 10
612.482759
 20
0.000000
 30
0.0
 10
596.758621
 20
0.000000
 30
0.0
 10
596.758621
 20
3.000000
 30
0.0
 10
581.034483
 20
3.000000
 30
0.0
 10
581.034483
 20
0.000000
 30
0.0
 10
565.310345
 20
0.000000
 30
0.0
 10
565.310345
 20
3.000000
 30
0.0
 10
549.586207
 20
3.000000
 30
0.0
 10
549.586207
 20
0.000000
 30
0.0
 10
533.862069
 20
0.000000
 30
0.0
 10
533.862069
 20
3.000000
 30
0.0
 10
518.137931
 20
3.000000
 30
0.0
 10
518.137931
 20
0.000000
 30
0.0
 10
502.413793
 20
0.000000
 30
0.0
 10
502.413793
 20
3.000000
 30
0.0
 10
486.689655
 20
3.000000
 30
0.0
 10
486.689655
 20
0.000000
 30
0.0
 10
470.965517
 20
0.000000
 30
0.0
 10
470.965517
 20
3.000000
 30
0.0
 10
455.241379
 20
3.000000
 30
0.0
 10
455.241379
 20
0.000000
 30
0.0
 10
439.517241
 20
0.000000
 30
0.0
 10
439.517241
 20
3.000000
 30
0.0
 10
423.793103
 20
3.000000
 30
0.0
 10
423.793103
 20
0.000000
 30
0.0
 10
408.068966
 20
0.000000
 30
0.0
 10
408.068966
 20
3.000000
 30
0.0
 10
392.344828
 20
3.000000
 30
0.0
 10
392.344828
 20
0.000000
 30
0.0
 10
376.620690
 20
0.000000
 30
0.0
 10
376.620690
 20
3.000000
 30
0.0
 10
360.896552
 20
3.000000
 30
0.0
 10
360.896552
 20
0.000000
 30
0.0
 10
345.172414
 20
0.000000
 30
0.0
 10
345.172414
 20
3.000000
 30
0.0
 10
329.448276
 20
3.000000
 30
0.0
 10
329.448276
 20
0.000000
 30
0.0
 10
313.724138
 20
0.000000
 30
0.0
 10
313.724138
 20
3.000000
 30
0.0
 10
298.000000
 20
3.000000
 30
0.0
 10
298.000000
 20
15.578947
 30
0.0
 10
301.000000
 20
15.578947
 30
0.0
 10
301.000000
 20
31.157895
 30
0.0
 10
298.000000
 20
31.157895
 30
0.0
 10
298.000000
 20
46.736842
 30
0.0
 10
301.000000
 20
46.736842
 30
0.0
 10
301.000000
 20
62.315789
 30
0.0
 10
298.000000
 20
62.315789
 30
0.0
 10
298.000000
 20
77.894737
 30
0.0
 10
301.000000
 20
77.894737
 30
0.0
 10
301.000000
 20
93.473684
 30
0.0
 10
298.000000
 20
93.473684
 30
0.0
 10
298.000000
 20
109.052632
 30
0.0
 10
301.000000
 20
109.052632
 30
0.0
 10
301.000000
 20
124.631579
 30
0.0
 10
298.000000
 20
124.631579
 30
0.0
 10
298.000000
 20
140.210526
 30
0.0
 10
301.000000
 20
140.210526
 30
0.0
 10
301.000000
 20
155.789474
 30
0.0
 10
298.000000
 20
155.789474
 30
0.0
 10
298.000000
 20
171.368421
 30
0.0
 10
301.000000
 20
171.368421
 30
0.0
 10
301.000000
 20
186.947368
 30
0.0
 10
298.000000
 20
186.947368
 30
0.0
 10
298.000000
 20
202.526316
 30
0.0
 10
301.000000
 20
202.526316
 30
0.0
 10
301.000000
 20
218.105263
 30
0.0
 10
298.000000
 20
218.105263
 30
0.0
 10
298.000000
 20
233.684211
 30
0.0
 10
301.000000
 20
233.684211
 30
0.0
 10
301.000000
 20
249.263158
 30
0.0
 10
298.000000
 20
249.263158
 30
0.0
 10
298.000000
 20
264.842105
 30
0.0
 10
301.000000
 20
264.842105
 30
0.0
 10
301.000000
 20
280.421053
 30
0.0
 10
298.000000
 20
280.421053
 30
0.0
 10
298.000000
 20
293.000000
 30
0.0
  0
ENDSEC
  0
SECTION
  2
OBJECTS
  0
DICTIONARY
  5
C
330
0
100
AcDbDictionary
  3
ACAD_GROUP
350
D
  3
ACAD_MLINESTYLE
350
17
  0
DICTIONARY
  5
D
330
C
100
AcDbDictionary
  0
DICTIONARY
  5
1A
330
C
100
AcDbDictionary
  0
DICTIONARY
  5
17
330
C
100
AcDbDictionary
  3
STANDARD
350
18
  0
DICTIONARY
  5
19
330
C
100
AcDbDictionary
  0
ENDSEC
  0
EOF
