  0
SECTION
  2
HEADER
  9
$ACADVER
  1
AC1014
  9
$HANDSEED
  5
FFFF
  9
$MEASUREMENT
 70
     1
  0
ENDSEC
  0
SECTION
  2
TABLES
  0
TABLE
  2
VPORT
  5
8
330
0
100
AcDbSymbolTable
 70
     4
  0
VPORT
  5
2E
330
8
100
AcDbSymbolTableRecord
100
AcDbViewportTableRecord
  2
*ACTIVE
 70
     0
 10
0.0
 20
0.0
 11
1.0
 21
1.0
 12
210.0
 22
148.5
 13
0.0
 23
0.0
 14
10.0
 24
10.0
 15
10.0
 25
10.0
 16
0.0
 26
0.0
 36
1.0
 17
0.0
 27
0.0
 37
0.0
 40
341.0
 41
1.24
 42
50.0
 43
0.0
 44
0.0
 50
0.0
 51
0.0
 71
     0
 72
   100
 73
     1
 74
     3
 75
     0
 76
     0
 77
     0
 78
     0
  0
ENDTAB
  0
TABLE
  2
LTYPE
  5
5
330
0
100
AcDbSymbolTable
 70
     1
  0
LTYPE
  5
14
330
5
100
AcDbSymbolTableRecord
100
AcDbLinetypeTableRecord
  2
BYBLOCK
 70
     0
  3

 72
    65
 73
     0
 40
0.0
  0
LTYPE
  5
15
330
5
100
AcDbSymbolTableRecord
100
AcDbLinetypeTableRecord
  2
BYLAYER
 70
     0
  3

 72
    65
 73
     0
 40
0.0
  0
LTYPE
  5
16
330
5
100
AcDbSymbolTableRecord
100
AcDbLinetypeTableRecord
  2
CONTINUOUS
 70
     0
  3
Solid line
 72
    65
 73
     0
 40
0.0
  0
ENDTAB
  0
TABLE
  2
LAYER
  5
2
100
AcDbSymbolTable
 70
3
  0
LAYER
  5
50
100
AcDbSymbolTableRecord
100
AcDbLayerTableRecord
  2
0
 70
0
  6
CONTINUOUS
  0
LAYER
  5
51
100
AcDbSymbolTableRecord
100
AcDbLayerTableRecord
  2
Layer_1
 70
0
  6
CONTINUOUS
  0
LAYER
  5
52
100
AcDbSymbolTableRecord
100
AcDbLayerTableRecord
  2
newlayer
 70
0
  6
CONTINUOUS
  0
ENDTAB
  0
TABLE
  2
STYLE
  5
3
330
0
100
AcDbSymbolTable
 70
     1
  0
STYLE
  5
11
330
3
100
AcDbSymbolTableRecord
100
AcDbTextStyleTableRecord
  2
STANDARD
 70
     0
 40
0.0
 41
1.0
 50
0.0
 71
     0
 42
2.5
  3
txt
  4

  0
ENDTAB
  0
TABLE
  2
VIEW
  5
6
330
0
100
AcDbSymbolTable
 70
     0
  0
ENDTAB
  0
TABLE
  2
UCS
  5
7
330
0
100
AcDbSymbolTable
 70
     0
  0
ENDTAB
  0
TABLE
  2
APPID
  5
9
330
0
100
AcDbSymbolTable
 70
     2
  0
APPID
  5
12
330
9
100
AcDbSymbolTableRecord
100
AcDbRegAppTableRecord
  2
ACAD
 70
     0
  0
ENDTAB
  0
TABLE
  2
DIMSTYLE
  5
A
330
0
100
AcDbSymbolTable
 70
     1
  0
DIMSTYLE
105
27
330
A
100
AcDbSymbolTableRecord
100
AcDbDimStyleTableRecord
  2
ISO-25
 70
     0
  3

  4

  5

  6

  7

 40
1.0
 41
2.5
 42
0.625
 43
3.75
 44
1.25
 45
0.0
 46
0.0
 47
0.0
 48
0.0
140
2.5
141
2.5
142
0.0
143
0.03937007874016
144
1.0
145
0.0
146
1.0
147
0.625
 71
     0
 72
     0
 73
     0
 74
     0
 75
     0
 76
     0
 77
     1
 78
     8
170
     0
171
     3
172
     1
173
     0
174
     0
175
     0
176
     0
177
     0
178
     0
270
     2
271
     2
272
     2
273
     2
274
     3
340
11
275
     0
280
     0
281
     0
282
     0
283
     0
284
     8
285
     0
286
     0
287
     3
288
     0
  0
ENDTAB
  0
TABLE
  2
BLOCK_RECORD
  5
1
330
0
100
AcDbSymbolTable
 70
     1
  0
BLOCK_RECORD
  5
1F
330
1
100
AcDbSymbolTableRecord
100
AcDbBlockTableRecord
  2
*MODEL_SPACE
  0
BLOCK_RECORD
  5
1B
330
1
100
AcDbSymbolTableRecord
100
AcDbBlockTableRecord
  2
*PAPER_SPACE
  0
ENDTAB
  0
ENDSEC
  0
SECTION
  2
BLOCKS
  0
BLOCK
  5
20
330
1F
100
AcDbEntity
  8
0
100
AcDbBlockBegin
  2
*MODEL_SPACE
 70
     0
 10
0.0
 20
0.0
 30
0.0
  3
*MODEL_SPACE
  1

  0
ENDBLK
  5
21
330
1F
100
AcDbEntity
  8
0
100
AcDbBlockEnd
  0
BLOCK
  5
1C
330
1B
100
AcDbEntity
 67
     1
  8
0
100
AcDbBlockBegin
  2
*PAPER_SPACE
  1

  0
ENDBLK
  5
1D
330
1B
100
AcDbEntity
 67
     1
  8
0
100
AcDbBlockEnd
  0
ENDSEC
  0
SECTION
  2
ENTITIES
  0
LWPOLYLINE
  5
100
100
AcDbEntity
  8
newlayer
 62
7
100
AcDbPolyline
 90
77
 70
0
 10
308.000000
 20
-621.000000
 30
0.0
 10
343.142857
 20
-621.000000
 30
0.0
 10
343.142857
 20
-618.000000
 30
0.0
 10
378.142857
 20
-618.000000
 30
0.0
 10
378.142857
 20
-621.000000
 30
0.0
 10
413.285714
 20
-621.000000
 30
0.0
 10
413.285714
 20
-618.000000
 30
0.0
 10
448.285714
 20
-618.000000
 30
0.0
 10
448.285714
 20
-621.000000
 30
0.0
 10
483.428571
 20
-621.000000
 30
0.0
 10
483.428571
 20
-618.000000
 30
0.0
 10
518.428571
 20
-618.000000
 30
0.0
 10
518.428571
 20
-621.000000
 30
0.0
 10
553.571429
 20
-621.000000
 30
0.0
 10
553.571429
 20
-618.000000
 30
0.0
 10
588.571429
 20
-618.000000
 30
0.0
 10
588.571429
 20
-621.000000
 30
0.0
 10
623.714286
 20
-621.000000
 30
0.0
 10
623.714286
 20
-618.000000
 30
0.0
 10
658.714286
 20
-618.000000
 30
0.0
 10
658.714286
 20
-621.000000
 30
0.0
 10
693.857143
 20
-621.000000
 30
0.0
 10
693.857143
 20
-618.000000
 30
0.0
 10
728.857143
 20
-618.000000
 30
0.0
 10
728.857143
 20
-621.000000
 30
0.0
 10
764.000000
 20
-621.000000
 30
0.0
 10
764.000000
 20
-668.250000
 30
0.0
 10
761.000000
 20
-668.250000
 30
0.0
 10
761.000000
 20
-703.250000
 30
0.0
 10
764.000000
 20
-703.250000
 30
0.0
 10
764.000000
 20
-753.500000
 30
0.0
 10
761.000000
 20
-753.500000
 30
0.0
 10
761.000000
 20
-788.500000
 30
0.0
 10
764.000000
 20
-788.500000
 30
0.0
 10
764.000000
 20
-838.750000
 30
0.0
 10
761.000000
 20
-838.750000
 30
0.0
 10
761.000000
 20
-873.750000
 30
0.0
 10
764.000000
 20
-873.750000
 30
0.0
 10
764.000000
 20
-921.000000
 30
0.0
 10
728.857143
 20
-921.000000
 30
0.0
 10
728.857143
 20
-924.000000
 30
0.0
 10
693.857143
 20
-924.000000
 30
0.0
 10
693.857143
 20
-921.000000
 30
0.0
 10
658.714286
 20
-921.000000
 30
0.0
 10
658.714286
 20
-924.000000
 30
0.0
 10
623.714286
 20
-924.000000
 30
0.0
 10
623.714286
 20
-921.000000
 30
0.0
 10
588.571429
 20
-921.000000
 30
0.0
 10
588.571429
 20
-924.000000
 30
0.0
 10
553.571429
 20
-924.000000
 30
0.0
 10
553.571429
 20
-921.000000
 30
0.0
 10
518.428571
 20
-921.000000
 30
0.0
 10
518.428571
 20
-924.000000
 30
0.0
 10
483.428571
 20
-924.000000
 30
0.0
 10
483.428571
 20
-921.000000
 30
0.0
 10
448.285714
 20
-921.000000
 30
0.0
 10
448.285714
 20
-924.000000
 30
0.0
 10
413.285714
 20
-924.000000
 30
0.0
 10
413.285714
 20
-921.000000
 30
0.0
 10
378.142857
 20
-921.000000
 30
0.0
 10
378.142857
 20
-924.000000
 30
0.0
 10
343.142857
 20
-924.000000
 30
0.0
 10
343.142857
 20
-921.000000
 30
0.0
 10
308.000000
 20
-921.000000
 30
0.0
 10
308.000000
 20
-873.750000
 30
0.0
 10
311.000000
 20
-873.750000
 30
0.0
 10
311.000000
 20
-838.750000
 30
0.0
 10
308.000000
 20
-838.750000
 30
0.0
 10
308.000000
 20
-788.500000
 30
0.0
 10
311.000000
 20
-788.500000
 30
0.0
 10
311.000000
 20
-753.500000
 30
0.0
 10
308.000000
 20
-753.500000
 30
0.0
 10
308.000000
 20
-703.250000
 30
0.0
 10
311.000000
 20
-703.250000
 30
0.0
 10
311.000000
 20
-668.250000
 30
0.0
 10
308.000000
 20
-668.250000
 30
0.0
 10
308.000000
 20
-621.000000
 30
0.0
  0
LWPOLYLINE
  5
101
100
AcDbEntity
  8
newlayer
 62
7
100
AcDbPolyline
 90
77
 70
0
 10
0.000000
 20
-928.000000
 30
0.0
 10
35.142857
 20
-928.000000
 30
0.0
 10
35.142857
 20
-925.000000
 30
0.0
 10
70.142857
 20
-925.000000
 30
0.0
 10
70.142857
 20
-928.000000
 30
0.0
 10
105.285714
 20
-928.000000
 30
0.0
 10
105.285714
 20
-925.000000
 30
0.0
 10
140.285714
 20
-925.000000
 30
0.0
 10
140.285714
 20
-928.000000
 30
0.0
 10
175.428571
 20
-928.000000
 30
0.0
 10
175.428571
 20
-925.000000
 30
0.0
 10
210.428571
 20
-925.000000
 30
0.0
 10
210.428571
 20
-928.000000
 30
0.0
 10
245.571429
 20
-928.000000
 30
0.0
 10
245.571429
 20
-925.000000
 30
0.0
 10
280.571429
 20
-925.000000
 30
0.0
 10
280.571429
 20
-928.000000
 30
0.0
 10
315.714286
 20
-928.000000
 30
0.0
 10
315.714286
 20
-925.000000
 30
0.0
 10
350.714286
 20
-925.000000
 30
0.0
 10
350.714286
 20
-928.000000
 30
0.0
 10
385.857143
 20
-928.000000
 30
0.0
 10
385.857143
 20
-925.000000
 30
0.0
 10
420.857143
 20
-925.000000
 30
0.0
 10
420.857143
 20
-928.000000
 30
0.0
 10
456.000000
 20
-928.000000
 30
0.0
 10
456.000000
 20
-975.250000
 30
0.0
 10
453.000000
 20
-975.250000
 30
0.0
 10
453.000000
 20
-1010.250000
 30
0.0
 10
456.000000
 20
-1010.250000
 30
0.0
 10
456.000000
 20
-1060.500000
 30
0.0
 10
453.000000
 20
-1060.500000
 30
0.0
 10
453.000000
 20
-1095.500000
 30
0.0
 10
456.000000
 20
-1095.500000
 30
0.0
 10
456.000000
 20
-1145.750000
 30
0.0
 10
453.000000
 20
-1145.750000
 30
0.0
 10
453.000000
 20
-1180.750000
 30
0.0
 10
456.000000
 20
-1180.750000
 30
0.0
 10
456.000000
 20
-1228.000000
 30
0.0
 10
420.857143
 20
-1228.000000
 30
0.0
 10
420.857143
 20
-1231.000000
 30
0.0
 10
385.857143
 20
-1231.000000
 30
0.0
 10
385.857143
 20
-1228.000000
 30
0.0
 10
350.714286
 20
-1228.000000
 30
0.0
 10
350.714286
 20
-1231.000000
 30
0.0
 10
315.714286
 20
-1231.000000
 30
0.0
 10
315.714286
 20
-1228.000000
 30
0.0
 10
280.571429
 20
-1228.000000
 30
0.0
 10
280.571429
 20
-1231.000000
 30
0.0
 10
245.571429
 20
-1231.000000
 30
0.0
 10
245.571429
 20
-1228.000000
 30
0.0
 10
210.428571
 20
-1228.000000
 30
0.0
 10
210.428571
 20
-1231.000000
 30
0.0
 10
175.428571
 20
-1231.000000
 30
0.0
 10
175.428571
 20
-1228.000000
 30
0.0
 10
140.285714
 20
-1228.000000
 30
0.0
 10
140.285714
 20
-1231.000000
 30
0.0
 10
105.285714
 20
-1231.000000
 30
0.0
 10
105.285714
 20
-1228.000000
 30
0.0
 10
70.142857
 20
-1228.000000
 30
0.0
 10
70.142857
 20
-1231.000000
 30
0.0
 10
35.142857
 20
-1231.000000
 30
0.0
 10
35.142857
 20
-1228.000000
 30
0.0
 10
0.000000
 20
-1228.000000
 30
0.0
 10
0.000000
 20
-1180.750000
 30
0.0
 10
3.000000
 20
-1180.750000
 30
0.0
 10
3.000000
 20
-1145.750000
 30
0.0
 10
0.000000
 20
-1145.750000
 30
0.0
 10
0.000000
 20
-1095.500000
 30
0.0
 10
3.000000
 20
-1095.500000
 30
0.0
 10
3.000000
 20
-1060.500000
 30
0.0
 10
0.000000
 20
-1060.500000
 30
0.0
 10
0.000000
 20
-1010.250000
 30
0.0
 10
3.000000
 20
-1010.250000
 30
0.0
 10
3.000000
 20
-975.250000
 30
0.0
 10
0.000000
 20
-975.250000
 30
0.0
 10
0.000000
 20
-928.000000
 30
0.0
  0
LWPOLYLINE
  5
102
100
AcDbEntity
  8
newlayer
 62
7
100
AcDbPolyline
 90
77
 70
0
 10
457.000000
 20
-928.000000
 30
0.0
 10
492.142857
 20
-928.000000
 30
0.0
 10
492.142857
 20
-925.000000
 30
0.0
 10
527.142857
 20
-925.000000
 30
0.0
 10
527.142857
 20
-928.000000
 30
0.0
 10
562.285714
 20
-928.000000
 30
0.0
 10
562.285714
 20
-925.000000
 30
0.0
 10
597.285714
 20
-925.000000
 30
0.0
 10
597.285714
 20
-928.000000
 30
0.0
 10
632.428571
 20
-928.000000
 30
0.0
 10
632.428571
 20
-925.000000
 30
0.0
 10
667.428571
 20
-925.000000
 30
0.0
 10
667.428571
 20
-928.000000
 30
0.0
 10
702.571429
 20
-928.000000
 30
0.0
 10
702.571429
 20
-925.000000
 30
0.0
 10
737.571429
 20
-925.000000
 30
0.0
 10
737.571429
 20
-928.000000
 30
0.0
 10
772.714286
 20
-928.000000
 30
0.0
 10
772.714286
 20
-925.000000
 30
0.0
 10
807.714286
 20
-925.000000
 30
0.0
 10
807.714286
 20
-928.000000
 30
0.0
 10
842.857143
 20
-928.000000
 30
0.0
 10
842.857143
 20
-925.000000
 30
0.0
 10
877.857143
 20
-925.000000
 30
0.0
 10
877.857143
 20
-928.000000
 30
0.0
 10
913.000000
 20
-928.000000
 30
0.0
 10
913.000000
 20
-975.250000
 30
0.0
 10
910.000000
 20
-975.250000
 30
0.0
 10
910.000000
 20
-1010.250000
 30
0.0
 10
913.000000
 20
-1010.250000
 30
0.0
 10
913.000000
 20
-1060.500000
 30
0.0
 10
910.000000
 20
-1060.500000
 30
0.0
 10
910.000000
 20
-1095.500000
 30
0.0
 10
913.000000
 20
-1095.500000
 30
0.0
 10
913.000000
 20
-1145.750000
 30
0.0
 10
910.000000
 20
-1145.750000
 30
0.0
 10
910.000000
 20
-1180.750000
 30
0.0
 10
913.000000
 20
-1180.750000
 30
0.0
 10
913.000000
 20
-1228.000000
 30
0.0
 10
877.857143
 20
-1228.000000
 30
0.0
 10
877.857143
 20
-1231.000000
 30
0.0
 10
842.857143
 20
-1231.000000
 30
0.0
 10
842.857143
 20
-1228.000000
 30
0.0
 10
807.714286
 20
-1228.000000
 30
0.0
 10
807.714286
 20
-1231.000000
 30
0.0
 10
772.714286
 20
-1231.000000
 30
0.0
 10
772.714286
 20
-1228.000000
 30
0.0
 10
737.571429
 20
-1228.000000
 30
0.0
 10
737.571429
 20
-1231.000000
 30
0.0
 10
702.571429
 20
-1231.000000
 30
0.0
 10
702.571429
 20
-1228.000000
 30
0.0
 10
667.428571
 20
-1228.000000
 30
0.0
 10
667.428571
 20
-1231.000000
 30
0.0
 10
632.428571
 20
-1231.000000
 30
0.0
 10
632.428571
 20
-1228.000000
 30
0.0
 10
597.285714
 20
-1228.000000
 30
0.0
 10
597.285714
 20
-1231.000000
 30
0.0
 10
562.285714
 20
-1231.000000
 30
0.0
 10
562.285714
 20
-1228.000000
 30
0.0
 10
527.142857
 20
-1228.000000
 30
0.0
 10
527.142857
 20
-1231.000000
 30
0.0
 10
492.142857
 20
-1231.000000
 30
0.0
 10
492.142857
 20
-1228.000000
 30
0.0
 10
457.000000
 20
-1228.000000
 30
0.0
 10
457.000000
 20
-1180.750000
 30
0.0
 10
460.000000
 20
-1180.750000
 30
0.0
 10
460.000000
 20
-1145.750000
 30
0.0
 10
457.000000
 20
-1145.750000
 30
0.0
 10
457.000000
 20
-1095.500000
 30
0.0
 10
460.000000
 20
-1095.500000
 30
0.0
 10
460.000000
 20
-1060.500000
 30
0.0
 10
457.000000
 20
-1060.500000
 30
0.0
 10
457.000000
 20
-1010.250000
 30
0.0
 10
460.000000
 20
-1010.250000
 30
0.0
 10
460.000000
 20
-975.250000
 30
0.0
 10
457.000000
 20
-975.250000
 30
0.0
 10
457.000000
 20
-928.000000
 30
0.0
  0
LWPOLYLINE
  5
103
100
AcDbEntity
  8
newlayer
 62
7
100
AcDbPolyline
 90
77
 70
0
 10
914.000000
 20
-928.000000
 30
0.0
 10
949.142857
 20
-928.000000
 30
0.0
 10
949.142857
 20
-925.000000
 30
0.0
 10
984.142857
 20
-925.000000
 30
0.0
 10
984.142857
 20
-928.000000
 30
0.0
 10
1019.285714
 20
-928.000000
 30
0.0
 10
1019.285714
 20
-925.000000
 30
0.0
 10
1054.285714
 20
-925.000000
 30
0.0
 10
1054.285714
 20
-928.000000
 30
0.0
 10
1089.428571
 20
-928.000000
 30
0.0
 10
1089.428571
 20
-925.000000
 30
0.0
 10
1124.428571
 20
-925.000000
 30
0.0
 10
1124.428571
 20
-928.000000
 30
0.0
 10
1159.571429
 20
-928.000000
 30
0.0
 10
1159.571429
 20
-925.000000
 30
0.0
 10
1194.571429
 20
-925.000000
 30
0.0
 10
1194.571429
 20
-928.000000
 30
0.0
 10
1229.714286
 20
-928.000000
 30
0.0
 10
1229.714286
 20
-925.000000
 30
0.0
 10
1264.714286
 20
-925.000000
 30
0.0
 10
1264.714286
 20
-928.000000
 30
0.0
 10
1299.857143
 20
-928.000000
 30
0.0
 10
1299.857143
 20
-925.000000
 30
0.0
 10
1334.857143
 20
-925.000000
 30
0.0
 10
1334.857143
 20
-928.000000
 30
0.0
 10
1370.000000
 20
-928.000000
 30
0.0
 10
1370.000000
 20
-975.250000
 30
0.0
 10
1367.000000
 20
-975.250000
 30
0.0
 10
1367.000000
 20
-1010.250000
 30
0.0
 10
1370.000000
 20
-1010.250000
 30
0.0
 10
1370.000000
 20
-1060.500000
 30
0.0
 10
1367.000000
 20
-1060.500000
 30
0.0
 10
1367.000000
 20
-1095.500000
 30
0.0
 10
1370.000000
 20
-1095.500000
 30
0.0
 10
1370.000000
 20
-1145.750000
 30
0.0
 10
1367.000000
 20
-1145.750000
 30
0.0
 10
1367.000000
 20
-1180.750000
 30
0.0
 10
1370.000000
 20
-1180.750000
 30
0.0
 10
1370.000000
 20
-1228.000000
 30
0.0
 10
1334.857143
 20
-1228.000000
 30
0.0
 10
1334.857143
 20
-1231.000000
 30
0.0
 10
1299.857143
 20
-1231.000000
 30
0.0
 10
1299.857143
 20
-1228.000000
 30
0.0
 10
1264.714286
 20
-1228.000000
 30
0.0
 10
1264.714286
 20
-1231.000000
 30
0.0
 10
1229.714286
 20
-1231.000000
 30
0.0
 10
1229.714286
 20
-1228.000000
 30
0.0
 10
1194.571429
 20
-1228.000000
 30
0.0
 10
1194.571429
 20
-1231.000000
 30
0.0
 10
1159.571429
 20
-1231.000000
 30
0.0
 10
1159.571429
 20
-1228.000000
 30
0.0
 10
1124.428571
 20
-1228.000000
 30
0.0
 10
1124.428571
 20
-1231.000000
 30
0.0
 10
1089.428571
 20
-1231.000000
 30
0.0
 10
1089.428571
 20
-1228.000000
 30
0.0
 10
1054.285714
 20
-1228.000000
 30
0.0
 10
1054.285714
 20
-1231.000000
 30
0.0
 10
1019.285714
 20
-1231.000000
 30
0.0
 10
1019.285714
 20
-1228.000000
 30
0.0
 10
984.142857
 20
-1228.000000
 30
0.0
 10
984.142857
 20
-1231.000000
 30
0.0
 10
949.142857
 20
-1231.000000
 30
0.0
 10
949.142857
 20
-1228.000000
 30
0.0
 10
914.000000
 20
-1228.000000
 30
0.0
 10
914.000000
 20
-1180.750000
 30
0.0
 10
917.000000
 20
-1180.750000
 30
0.0
 10
917.000000
 20
-1145.750000
 30
0.0
 10
914.000000
 20
-1145.750000
 30
0.0
 10
914.000000
 20
-1095.500000
 30
0.0
 10
917.000000
 20
-1095.500000
 30
0.0
 10
917.000000
 20
-1060.500000
 30
0.0
 10
914.000000
 20
-1060.500000
 30
0.0
 10
914.000000
 20
-1010.250000
 30
0.0
 10
917.000000
 20
-1010.250000
 30
0.0
 10
917.000000
 20
-975.250000
 30
0.0
 10
914.000000
 20
-975.250000
 30
0.0
 10
914.000000
 20
-928.000000
 30
0.0
  0
LWPOLYLINE
  5
104
100
AcDbEntity
  8
newlayer
 62
7
100
AcDbPolyline
 90
5
 70
0
 10
4.000000
 20
-164.750000
 30
0.0
 10
51.250000
 20
-164.750000
 30
0.0
 10
51.250000
 20
-161.750000
 30
0.0
 10
4.000000
 20
-161.750000
 30
0.0
 10
4.000000
 20
-164.750000
 30
0.0
  0
LWPOLYLINE
  5
105
100
AcDbEntity
  8
newlayer
 62
7
100
AcDbPolyline
 90
5
 70
0
 10
4.000000
 20
-315.500000
 30
0.0
 10
51.250000
 20
-315.500000
 30
0.0
 10
51.250000
 20
-312.500000
 30
0.0
 10
4.000000
 20
-312.500000
 30
0.0
 10
4.000000
 20
-315.500000
 30
0.0
  0
LWPOLYLINE
  5
106
100
AcDbEntity
  8
newlayer
 62
7
100
AcDbPolyline
 90
5
 70
0
 10
4.000000
 20
-466.250000
 30
0.0
 10
51.250000
 20
-466.250000
 30
0.0
 10
51.250000
 20
-463.250000
 30
0.0
 10
4.000000
 20
-463.250000
 30
0.0
 10
4.000000
 20
-466.250000
 30
0.0
  0
LWPOLYLINE
  5
107
100
AcDbEntity
  8
newlayer
 62
7
100
AcDbPolyline
 90
5
 70
0
 10
86.250000
 20
-164.750000
 30
0.0
 10
136.500000
 20
-164.750000
 30
0.0
 10
136.500000
 20
-161.750000
 30
0.0
 10
86.250000
 20
-161.750000
 30
0.0
 10
86.250000
 20
-164.750000
 30
0.0
  0
LWPOLYLINE
  5
108
100
AcDbEntity
  8
newlayer
 62
7
100
AcDbPolyline
 90
5
 70
0
 10
86.250000
 20
-315.500000
 30
0.0
 10
136.500000
 20
-315.500000
 30
0.0
 10
136.500000
 20
-312.500000
 30
0.0
 10
86.250000
 20
-312.500000
 30
0.0
 10
86.250000
 20
-315.500000
 30
0.0
  0
LWPOLYLINE
  5
109
100
AcDbEntity
  8
newlayer
 62
7
100
AcDbPolyline
 90
5
 70
0
 10
86.250000
 20
-466.250000
 30
0.0
 10
136.500000
 20
-466.250000
 30
0.0
 10
136.500000
 20
-463.250000
 30
0.0
 10
86.250000
 20
-463.250000
 30
0.0
 10
86.250000
 20
-466.250000
 30
0.0
  0
LWPOLYLINE
  5
10a
100
AcDbEntity
  8
newlayer
 62
7
100
AcDbPolyline
 90
5
 70
0
 10
171.500000
 20
-164.750000
 30
0.0
 10
221.750000
 20
-164.750000
 30
0.0
 10
221.750000
 20
-161.750000
 30
0.0
 10
171.500000
 20
-161.750000
 30
0.0
 10
171.500000
 20
-164.750000
 30
0.0
  0
LWPOLYLINE
  5
10b
100
AcDbEntity
  8
newlayer
 62
7
100
AcDbPolyline
 90
5
 70
0
 10
171.500000
 20
-315.500000
 30
0.0
 10
221.750000
 20
-315.500000
 30
0.0
 10
221.750000
 20
-312.500000
 30
0.0
 10
171.500000
 20
-312.500000
 30
0.0
 10
171.500000
 20
-315.500000
 30
0.0
  0
LWPOLYLINE
  5
10c
100
AcDbEntity
  8
newlayer
 62
7
100
AcDbPolyline
 90
5
 70
0
 10
171.500000
 20
-466.250000
 30
0.0
 10
221.750000
 20
-466.250000
 30
0.0
 10
221.750000
 20
-463.250000
 30
0.0
 10
171.500000
 20
-463.250000
 30
0.0
 10
171.500000
 20
-466.250000
 30
0.0
  0
LWPOLYLINE
  5
10d
100
AcDbEntity
  8
newlayer
 62
7
100
AcDbPolyline
 90
5
 70
0
 10
256.750000
 20
-164.750000
 30
0.0
 10
304.000000
 20
-164.750000
 30
0.0
 10
304.000000
 20
-161.750000
 30
0.0
 10
256.750000
 20
-161.750000
 30
0.0
 10
256.750000
 20
-164.750000
 30
0.0
  0
LWPOLYLINE
  5
10e
100
AcDbEntity
  8
newlayer
 62
7
100
AcDbPolyline
 90
5
 70
0
 10
256.750000
 20
-315.500000
 30
0.0
 10
304.000000
 20
-315.500000
 30
0.0
 10
304.000000
 20
-312.500000
 30
0.0
 10
256.750000
 20
-312.500000
 30
0.0
 10
256.750000
 20
-315.500000
 30
0.0
  0
LWPOLYLINE
  5
10f
100
AcDbEntity
  8
newlayer
 62
7
100
AcDbPolyline
 90
5
 70
0
 10
256.750000
 20
-466.250000
 30
0.0
 10
304.000000
 20
-466.250000
 30
0.0
 10
304.000000
 20
-463.250000
 30
0.0
 10
256.750000
 20
-463.250000
 30
0.0
 10
256.750000
 20
-466.250000
 30
0.0
  0
LWPOLYLINE
  5
110
100
AcDbEntity
  8
newlayer
 62
7
100
AcDbPolyline
 90
93
 70
0
 10
4.000000
 20
-14.000000
 30
0.0
 10
51.250000
 20
-14.000000
 30
0.0
 10
51.250000
 20
-11.000000
 30
0.0
 10
86.250000
 20
-11.000000
 30
0.0
 10
86.250000
 20
-14.000000
 30
0.0
 10
136.500000
 20
-14.000000
 30
0.0
 10
136.500000
 20
-11.000000
 30
0.0
 10
171.500000
 20
-11.000000
 30
0.0
 10
171.500000
 20
-14.000000
 30
0.0
 10
221.750000
 20
-14.000000
 30
0.0
 10
221.750000
 20
-11.000000
 30
0.0
 10
256.750000
 20
-11.000000
 30
0.0
 10
256.750000
 20
-14.000000
 30
0.0
 10
304.000000
 20
-14.000000
 30
0.0
 10
304.000000
 20
-47.222222
 30
0.0
 10
307.000000
 20
-47.222222
 30
0.0
 10
307.000000
 20
-82.222222
 30
0.0
 10
304.000000
 20
-82.222222
 30
0.0
 10
304.000000
 20
-118.444444
 30
0.0
 10
307.000000
 20
-118.444444
 30
0.0
 10
307.000000
 20
-153.444444
 30
0.0
 10
304.000000
 20
-153.444444
 30
0.0
 10
304.000000
 20
-189.666667
 30
0.0
 10
307.000000
 20
-189.666667
 30
0.0
 10
307.000000
 20
-224.666667
 30
0.0
 10
304.000000
 20
-224.666667
 30
0.0
 10
304.000000
 20
-260.888889
 30
0.0
 10
307.000000
 20
-260.888889
 30
0.0
 10
307.000000
 20
-295.888889
 30
0.0
 10
304.000000
 20
-295.888889
 30
0.0
 10
304.000000
 20
-332.111111
 30
0.0
 10
307.000000
 20
-332.111111
 30
0.0
 10
307.000000
 20
-367.111111
 30
0.0
 10
304.000000
 20
-367.111111
 30
0.0
 10
304.000000
 20
-403.333333
 30
0.0
 10
307.000000
 20
-403.333333
 30
0.0
 10
307.000000
 20
-438.333333
 30
0.0
 10
304.000000
 20
-438.333333
 30
0.0
 10
304.000000
 20
-474.555556
 30
0.0
 10
307.000000
 20
-474.555556
 30
0.0
 10
307.000000
 20
-509.555556
 30
0.0
 10
304.000000
 20
-509.555556
 30
0.0
 10
304.000000
 20
-545.777778
 30
0.0
 10
307.000000
 20
-545.777778
 30
0.0
 10
307.000000
 20
-580.777778
 30
0.0
 10
304.000000
 20
-580.777778
 30
0.0
 10
304.000000
 20
-614.000000
 30
0.0
 10
256.750000
 20
-614.000000
 30
0.0
 10
256.750000
 20
-617.000000
 30
0.0
 10
221.750000
 20
-617.000000
 30
0.0
 10
221.750000
 20
-614.000000
 30
0.0
 10
171.500000
 20
-614.000000
 30
0.0
 10
171.500000
 20
-617.000000
 30
0.0
 10
136.500000
 20
-617.000000
 30
0.0
 10
136.500000
 20
-614.000000
 30
0.0
 10
86.250000
 20
-614.000000
 30
0.0
 10
86.250000
 20
-617.000000
 30
0.0
 10
51.250000
 20
-617.000000
 30
0.0
 10
51.250000
 20
-614.000000
 30
0.0
 10
4.000000
 20
-614.000000
 30
0.0
 10
4.000000
 20
-580.777778
 30
0.0
 10
1.000000
 20
-580.777778
 30
0.0
 10
1.000000
 20
-545.777778
 30
0.0
 10
4.000000
 20
-545.777778
 30
0.0
 10
4.000000
 20
-509.555556
 30
0.0
 10
1.000000
 20
-509.555556
 30
0.0
 10
1.000000
 20
-474.555556
 30
0.0
 10
4.000000
 20
-474.555556
 30
0.0
 10
4.000000
 20
-438.333333
 30
0.0
 10
1.000000
 20
-438.333333
 30
0.0
 10
1.000000
 20
-403.333333
 30
0.0
 10
4.000000
 20
-403.333333
 30
0.0
 10
4.000000
 20
-367.111111
 30
0.0
 10
1.000000
 20
-367.111111
 30
0.0
 10
1.000000
 20
-332.111111
 30
0.0
 10
4.000000
 20
-332.111111
 30
0.0
 10
4.000000
 20
-295.888889
 30
0.0
 10
1.000000
 20
-295.888889
 30
0.0
 10
1.000000
 20
-260.888889
 30
0.0
 10
4.000000
 20
-260.888889
 30
0.0
 10
4.000000
 20
-224.666667
 30
0.0
 10
1.000000
 20
-224.666667
 30
0.0
 10
1.000000
 20
-189.666667
 30
0.0
 10
4.000000
 20
-189.666667
 30
0.0
 10
4.000000
 20
-153.444444
 30
0.0
 10
1.000000
 20
-153.444444
 30
0.0
 10
1.000000
 20
-118.444444
 30
0.0
 10
4.000000
 20
-118.444444
 30
0.0
 10
4.000000
 20
-82.222222
 30
0.0
 10
1.000000
 20
-82.222222
 30
0.0
 10
1.000000
 20
-47.222222
 30
0.0
 10
4.000000
 20
-47.222222
 30
0.0
 10
4.000000
 20
-14.000000
 30
0.0
  0
LWPOLYLINE
  5
111
100
AcDbEntity
  8
newlayer
 62
7
100
AcDbPolyline
 90
5
 70
0
 10
343.142857
 20
-164.750000
 30
0.0
 10
378.142857
 20
-164.750000
 30
0.0
 10
378.142857
 20
-161.750000
 30
0.0
 10
343.142857
 20
-161.750000
 30
0.0
 10
343.142857
 20
-164.750000
 30
0.0
  0
LWPOLYLINE
  5
112
100
AcDbEntity
  8
newlayer
 62
7
100
AcDbPolyline
 90
5
 70
0
 10
343.142857
 20
-315.500000
 30
0.0
 10
378.142857
 20
-315.500000
 30
0.0
 10
378.142857
 20
-312.500000
 30
0.0
 10
343.142857
 20
-312.500000
 30
0.0
 10
343.142857
 20
-315.500000
 30
0.0
  0
LWPOLYLINE
  5
113
100
AcDbEntity
  8
newlayer
 62
7
100
AcDbPolyline
 90
5
 70
0
 10
343.142857
 20
-466.250000
 30
0.0
 10
378.142857
 20
-466.250000
 30
0.0
 10
378.142857
 20
-463.250000
 30
0.0
 10
343.142857
 20
-463.250000
 30
0.0
 10
343.142857
 20
-466.250000
 30
0.0
  0
LWPOLYLINE
  5
114
100
AcDbEntity
  8
newlayer
 62
7
100
AcDbPolyline
 90
5
 70
0
 10
413.285714
 20
-164.750000
 30
0.0
 10
448.285714
 20
-164.750000
 30
0.0
 10
448.285714
 20
-161.750000
 30
0.0
 10
413.285714
 20
-161.750000
 30
0.0
 10
413.285714
 20
-164.750000
 30
0.0
  0
LWPOLYLINE
  5
115
100
AcDbEntity
  8
newlayer
 62
7
100
AcDbPolyline
 90
5
 70
0
 10
413.285714
 20
-315.500000
 30
0.0
 10
448.285714
 20
-315.500000
 30
0.0
 10
448.285714
 20
-312.500000
 30
0.0
 10
413.285714
 20
-312.500000
 30
0.0
 10
413.285714
 20
-315.500000
 30
0.0
  0
LWPOLYLINE
  5
116
100
AcDbEntity
  8
newlayer
 62
7
100
AcDbPolyline
 90
5
 70
0
 10
413.285714
 20
-466.250000
 30
0.0
 10
448.285714
 20
-466.250000
 30
0.0
 10
448.285714
 20
-463.250000
 30
0.0
 10
413.285714
 20
-463.250000
 30
0.0
 10
413.285714
 20
-466.250000
 30
0.0
  0
LWPOLYLINE
  5
117
100
AcDbEntity
  8
newlayer
 62
7
100
AcDbPolyline
 90
5
 70
0
 10
483.428571
 20
-164.750000
 30
0.0
 10
518.428571
 20
-164.750000
 30
0.0
 10
518.428571
 20
-161.750000
 30
0.0
 10
483.428571
 20
-161.750000
 30
0.0
 10
483.428571
 20
-164.750000
 30
0.0
  0
LWPOLYLINE
  5
118
100
AcDbEntity
  8
newlayer
 62
7
100
AcDbPolyline
 90
5
 70
0
 10
483.428571
 20
-315.500000
 30
0.0
 10
518.428571
 20
-315.500000
 30
0.0
 10
518.428571
 20
-312.500000
 30
0.0
 10
483.428571
 20
-312.500000
 30
0.0
 10
483.428571
 20
-315.500000
 30
0.0
  0
LWPOLYLINE
  5
119
100
AcDbEntity
  8
newlayer
 62
7
100
AcDbPolyline
 90
5
 70
0
 10
483.428571
 20
-466.250000
 30
0.0
 10
518.428571
 20
-466.250000
 30
0.0
 10
518.428571
 20
-463.250000
 30
0.0
 10
483.428571
 20
-463.250000
 30
0.0
 10
483.428571
 20
-466.250000
 30
0.0
  0
LWPOLYLINE
  5
11a
100
AcDbEntity
  8
newlayer
 62
7
100
AcDbPolyline
 90
5
 70
0
 10
553.571429
 20
-164.750000
 30
0.0
 10
588.571429
 20
-164.750000
 30
0.0
 10
588.571429
 20
-161.750000
 30
0.0
 10
553.571429
 20
-161.750000
 30
0.0
 10
553.571429
 20
-164.750000
 30
0.0
  0
LWPOLYLINE
  5
11b
100
AcDbEntity
  8
newlayer
 62
7
100
AcDbPolyline
 90
5
 70
0
 10
553.571429
 20
-315.500000
 30
0.0
 10
588.571429
 20
-315.500000
 30
0.0
 10
588.571429
 20
-312.500000
 30
0.0
 10
553.571429
 20
-312.500000
 30
0.0
 10
553.571429
 20
-315.500000
 30
0.0
  0
LWPOLYLINE
  5
11c
100
AcDbEntity
  8
newlayer
 62
7
100
AcDbPolyline
 90
5
 70
0
 10
553.571429
 20
-466.250000
 30
0.0
 10
588.571429
 20
-466.250000
 30
0.0
 10
588.571429
 20
-463.250000
 30
0.0
 10
553.571429
 20
-463.250000
 30
0.0
 10
553.571429
 20
-466.250000
 30
0.0
  0
LWPOLYLINE
  5
11d
100
AcDbEntity
  8
newlayer
 62
7
100
AcDbPolyline
 90
5
 70
0
 10
623.714286
 20
-164.750000
 30
0.0
 10
658.714286
 20
-164.750000
 30
0.0
 10
658.714286
 20
-161.750000
 30
0.0
 10
623.714286
 20
-161.750000
 30
0.0
 10
623.714286
 20
-164.750000
 30
0.0
  0
LWPOLYLINE
  5
11e
100
AcDbEntity
  8
newlayer
 62
7
100
AcDbPolyline
 90
5
 70
0
 10
623.714286
 20
-315.500000
 30
0.0
 10
658.714286
 20
-315.500000
 30
0.0
 10
658.714286
 20
-312.500000
 30
0.0
 10
623.714286
 20
-312.500000
 30
0.0
 10
623.714286
 20
-315.500000
 30
0.0
  0
LWPOLYLINE
  5
11f
100
AcDbEntity
  8
newlayer
 62
7
100
AcDbPolyline
 90
5
 70
0
 10
623.714286
 20
-466.250000
 30
0.0
 10
658.714286
 20
-466.250000
 30
0.0
 10
658.714286
 20
-463.250000
 30
0.0
 10
623.714286
 20
-463.250000
 30
0.0
 10
623.714286
 20
-466.250000
 30
0.0
  0
LWPOLYLINE
  5
120
100
AcDbEntity
  8
newlayer
 62
7
100
AcDbPolyline
 90
5
 70
0
 10
693.857143
 20
-164.750000
 30
0.0
 10
728.857143
 20
-164.750000
 30
0.0
 10
728.857143
 20
-161.750000
 30
0.0
 10
693.857143
 20
-161.750000
 30
0.0
 10
693.857143
 20
-164.750000
 30
0.0
  0
LWPOLYLINE
  5
121
100
AcDbEntity
  8
newlayer
 62
7
100
AcDbPolyline
 90
5
 70
0
 10
693.857143
 20
-315.500000
 30
0.0
 10
728.857143
 20
-315.500000
 30
0.0
 10
728.857143
 20
-312.500000
 30
0.0
 10
693.857143
 20
-312.500000
 30
0.0
 10
693.857143
 20
-315.500000
 30
0.0
  0
LWPOLYLINE
  5
122
100
AcDbEntity
  8
newlayer
 62
7
100
AcDbPolyline
 90
5
 70
0
 10
693.857143
 20
-466.250000
 30
0.0
 10
728.857143
 20
-466.250000
 30
0.0
 10
728.857143
 20
-463.250000
 30
0.0
 10
693.857143
 20
-463.250000
 30
0.0
 10
693.857143
 20
-466.250000
 30
0.0
  0
LWPOLYLINE
  5
123
100
AcDbEntity
  8
newlayer
 62
7
100
AcDbPolyline
 90
117
 70
0
 10
308.000000
 20
-11.000000
 30
0.0
 10
343.142857
 20
-11.000000
 30
0.0
 10
343.142857
 20
-14.000000
 30
0.0
 10
378.142857
 20
-14.000000
 30
0.0
 10
378.142857
 20
-11.000000
 30
0.0
 10
413.285714
 20
-11.000000
 30
0.0
 10
413.285714
 20
-14.000000
 30
0.0
 10
448.285714
 20
-14.000000
 30
0.0
 10
448.285714
 20
-11.000000
 30
0.0
 10
483.428571
 20
-11.000000
 30
0.0
 10
483.428571
 20
-14.000000
 30
0.0
 10
518.428571
 20
-14.000000
 30
0.0
 10
518.428571
 20
-11.000000
 30
0.0
 10
553.571429
 20
-11.000000
 30
0.0
 10
553.571429
 20
-14.000000
 30
0.0
 10
588.571429
 20
-14.000000
 30
0.0
 10
588.571429
 20
-11.000000
 30
0.0
 10
623.714286
 20
-11.000000
 30
0.0
 10
623.714286
 20
-14.000000
 30
0.0
 10
658.714286
 20
-14.000000
 30
0.0
 10
658.714286
 20
-11.000000
 30
0.0
 10
693.857143
 20
-11.000000
 30
0.0
 10
693.857143
 20
-14.000000
 30
0.0
 10
728.857143
 20
-14.000000
 30
0.0
 10
728.857143
 20
-11.000000
 30
0.0
 10
764.000000
 20
-11.000000
 30
0.0
 10
764.000000
 20
-47.222222
 30
0.0
 10
761.000000
 20
-47.222222
 30
0.0
 10
761.000000
 20
-82.222222
 30
0.0
 10
764.000000
 20
-82.222222
 30
0.0
 10
764.000000
 20
-118.444444
 30
0.0
 10
761.000000
 20
-118.444444
 30
0.0
 10
761.000000
 20
-153.444444
 30
0.0
 10
764.000000
 20
-153.444444
 30
0.0
 10
764.000000
 20
-189.666667
 30
0.0
 10
761.000000
 20
-189.666667
 30
0.0
 10
761.000000
 20
-224.666667
 30
0.0
 10
764.000000
 20
-224.666667
 30
0.0
 10
764.000000
 20
-260.888889
 30
0.0
 10
761.000000
 20
-260.888889
 30
0.0
 10
761.000000
 20
-295.888889
 30
0.0
 10
764.000000
 20
-295.888889
 30
0.0
 10
764.000000
 20
-332.111111
 30
0.0
 10
761.000000
 20
-332.111111
 30
0.0
 10
761.000000
 20
-367.111111
 30
0.0
 10
764.000000
 20
-367.111111
 30
0.0
 10
764.000000
 20
-403.333333
 30
0.0
 10
761.000000
 20
-403.333333
 30
0.0
 10
761.000000
 20
-438.333333
 30
0.0
 10
764.000000
 20
-438.333333
 30
0.0
 10
764.000000
 20
-474.555556
 30
0.0
 10
761.000000
 20
-474.555556
 30
0.0
 10
761.000000
 20
-509.555556
 30
0.0
 10
764.000000
 20
-509.555556
 30
0.0
 10
764.000000
 20
-545.777778
 30
0.0
 10
761.000000
 20
-545.777778
 30
0.0
 10
761.000000
 20
-580.777778
 30
0.0
 10
764.000000
 20
-580.777778
 30
0.0
 10
764.000000
 20
-617.000000
 30
0.0
 10
728.857143
 20
-617.000000
 30
0.0
 10
728.857143
 20
-614.000000
 30
0.0
 10
693.857143
 20
-614.000000
 30
0.0
 10
693.857143
 20
-617.000000
 30
0.0
 10
658.714286
 20
-617.000000
 30
0.0
 10
658.714286
 20
-614.000000
 30
0.0
 10
623.714286
 20
-614.000000
 30
0.0
 10
623.714286
 20
-617.000000
 30
0.0
 10
588.571429
 20
-617.000000
 30
0.0
 10
588.571429
 20
-614.000000
 30
0.0
 10
553.571429
 20
-614.000000
 30
0.0
 10
553.571429
 20
-617.000000
 30
0.0
 10
518.428571
 20
-617.000000
 30
0.0
 10
518.428571
 20
-614.000000
 30
0.0
 10
483.428571
 20
-614.000000
 30
0.0
 10
483.428571
 20
-617.000000
 30
0.0
 10
448.285714
 20
-617.000000
 30
0.0
 10
448.285714
 20
-614.000000
 30
0.0
 10
413.285714
 20
-614.000000
 30
0.0
 10
413.285714
 20
-617.000000
 30
0.0
 10
378.142857
 20
-617.000000
 30
0.0
 10
378.142857
 20
-614.000000
 30
0.0
 10
343.142857
 20
-614.000000
 30
0.0
 10
343.142857
 20
-617.000000
 30
0.0
 10
308.000000
 20
-617.000000
 30
0.0
 10
308.000000
 20
-580.777778
 30
0.0
 10
311.000000
 20
-580.777778
 30
0.0
 10
311.000000
 20
-545.777778
 30
0.0
 10
308.000000
 20
-545.777778
 30
0.0
 10
308.000000
 20
-509.555556
 30
0.0
 10
311.000000
 20
-509.555556
 30
0.0
 10
311.000000
 20
-474.555556
 30
0.0
 10
308.000000
 20
-474.555556
 30
0.0
 10
308.000000
 20
-438.333333
 30
0.0
 10
311.000000
 20
-438.333333
 30
0.0
 10
311.000000
 20
-403.333333
 30
0.0
 10
308.000000
 20
-403.333333
 30
0.0
 10
308.000000
 20
-367.111111
 30
0.0
 10
311.000000
 20
-367.111111
 30
0.0
 10
311.000000
 20
-332.111111
 30
0.0
 10
308.000000
 20
-332.111111
 30
0.0
 10
308.000000
 20
-295.888889
 30
0.0
 10
311.000000
 20
-295.888889
 30
0.0
 10
311.000000
 20
-260.888889
 30
0.0
 10
308.000000
 20
-260.888889
 30
0.0
 10
308.000000
 20
-224.666667
 30
0.0
 10
311.000000
 20
-224.666667
 30
0.0
 10
311.000000
 20
-189.666667
 30
0.0
 10
308.000000
 20
-189.666667
 30
0.0
 10
308.000000
 20
-153.444444
 30
0.0
 10
311.000000
 20
-153.444444
 30
0.0
 10
311.000000
 20
-118.444444
 30
0.0
 10
308.000000
 20
-118.444444
 30
0.0
 10
308.000000
 20
-82.222222
 30
0.0
 10
311.000000
 20
-82.222222
 30
0.0
 10
311.000000
 20
-47.222222
 30
0.0
 10
308.000000
 20
-47.222222
 30
0.0
 10
308.000000
 20
-11.000000
 30
0.0
  0
LWPOLYLINE
  5
124
100
AcDbEntity
  8
newlayer
 62
7
100
AcDbPolyline
 90
5
 70
0
 10
768.000000
 20
-164.750000
 30
0.0
 10
815.250000
 20
-164.750000
 30
0.0
 10
815.250000
 20
-161.750000
 30
0.0
 10
768.000000
 20
-161.750000
 30
0.0
 10
768.000000
 20
-164.750000
 30
0.0
  0
LWPOLYLINE
  5
125
100
AcDbEntity
  8
newlayer
 62
7
100
AcDbPolyline
 90
5
 70
0
 10
768.000000
 20
-315.500000
 30
0.0
 10
815.250000
 20
-315.500000
 30
0.0
 10
815.250000
 20
-312.500000
 30
0.0
 10
768.000000
 20
-312.500000
 30
0.0
 10
768.000000
 20
-315.500000
 30
0.0
  0
LWPOLYLINE
  5
126
100
AcDbEntity
  8
newlayer
 62
7
100
AcDbPolyline
 90
5
 70
0
 10
768.000000
 20
-466.250000
 30
0.0
 10
815.250000
 20
-466.250000
 30
0.0
 10
815.250000
 20
-463.250000
 30
0.0
 10
768.000000
 20
-463.250000
 30
0.0
 10
768.000000
 20
-466.250000
 30
0.0
  0
LWPOLYLINE
  5
127
100
AcDbEntity
  8
newlayer
 62
7
100
AcDbPolyline
 90
5
 70
0
 10
850.250000
 20
-164.750000
 30
0.0
 10
900.500000
 20
-164.750000
 30
0.0
 10
900.500000
 20
-161.750000
 30
0.0
 10
850.250000
 20
-161.750000
 30
0.0
 10
850.250000
 20
-164.750000
 30
0.0
  0
LWPOLYLINE
  5
128
100
AcDbEntity
  8
newlayer
 62
7
100
AcDbPolyline
 90
5
 70
0
 10
850.250000
 20
-315.500000
 30
0.0
 10
900.500000
 20
-315.500000
 30
0.0
 10
900.500000
 20
-312.500000
 30
0.0
 10
850.250000
 20
-312.500000
 30
0.0
 10
850.250000
 20
-315.500000
 30
0.0
  0
LWPOLYLINE
  5
129
100
AcDbEntity
  8
newlayer
 62
7
100
AcDbPolyline
 90
5
 70
0
 10
850.250000
 20
-466.250000
 30
0.0
 10
900.500000
 20
-466.250000
 30
0.0
 10
900.500000
 20
-463.250000
 30
0.0
 10
850.250000
 20
-463.250000
 30
0.0
 10
850.250000
 20
-466.250000
 30
0.0
  0
LWPOLYLINE
  5
12a
100
AcDbEntity
  8
newlayer
 62
7
100
AcDbPolyline
 90
5
 70
0
 10
935.500000
 20
-164.750000
 30
0.0
 10
985.750000
 20
-164.750000
 30
0.0
 10
985.750000
 20
-161.750000
 30
0.0
 10
935.500000
 20
-161.750000
 30
0.0
 10
935.500000
 20
-164.750000
 30
0.0
  0
LWPOLYLINE
  5
12b
100
AcDbEntity
  8
newlayer
 62
7
100
AcDbPolyline
 90
5
 70
0
 10
935.500000
 20
-315.500000
 30
0.0
 10
985.750000
 20
-315.500000
 30
0.0
 10
985.750000
 20
-312.500000
 30
0.0
 10
935.500000
 20
-312.500000
 30
0.0
 10
935.500000
 20
-315.500000
 30
0.0
  0
LWPOLYLINE
  5
12c
100
AcDbEntity
  8
newlayer
 62
7
100
AcDbPolyline
 90
5
 70
0
 10
935.500000
 20
-466.250000
 30
0.0
 10
985.750000
 20
-466.250000
 30
0.0
 10
985.750000
 20
-463.250000
 30
0.0
 10
935.500000
 20
-463.250000
 30
0.0
 10
935.500000
 20
-466.250000
 30
0.0
  0
LWPOLYLINE
  5
12d
100
AcDbEntity
  8
newlayer
 62
7
100
AcDbPolyline
 90
5
 70
0
 10
1020.750000
 20
-164.750000
 30
0.0
 10
1068.000000
 20
-164.750000
 30
0.0
 10
1068.000000
 20
-161.750000
 30
0.0
 10
1020.750000
 20
-161.750000
 30
0.0
 10
1020.750000
 20
-164.750000
 30
0.0
  0
LWPOLYLINE
  5
12e
100
AcDbEntity
  8
newlayer
 62
7
100
AcDbPolyline
 90
5
 70
0
 10
1020.750000
 20
-315.500000
 30
0.0
 10
1068.000000
 20
-315.500000
 30
0.0
 10
1068.000000
 20
-312.500000
 30
0.0
 10
1020.750000
 20
-312.500000
 30
0.0
 10
1020.750000
 20
-315.500000
 30
0.0
  0
LWPOLYLINE
  5
12f
100
AcDbEntity
  8
newlayer
 62
7
100
AcDbPolyline
 90
5
 70
0
 10
1020.750000
 20
-466.250000
 30
0.0
 10
1068.000000
 20
-466.250000
 30
0.0
 10
1068.000000
 20
-463.250000
 30
0.0
 10
1020.750000
 20
-463.250000
 30
0.0
 10
1020.750000
 20
-466.250000
 30
0.0
  0
LWPOLYLINE
  5
130
100
AcDbEntity
  8
newlayer
 62
7
100
AcDbPolyline
 90
93
 70
0
 10
768.000000
 20
-14.000000
 30
0.0
 10
815.250000
 20
-14.000000
 30
0.0
 10
815.250000
 20
-11.000000
 30
0.0
 10
850.250000
 20
-11.000000
 30
0.0
 10
850.250000
 20
-14.000000
 30
0.0
 10
900.500000
 20
-14.000000
 30
0.0
 10
900.500000
 20
-11.000000
 30
0.0
 10
935.500000
 20
-11.000000
 30
0.0
 10
935.500000
 20
-14.000000
 30
0.0
 10
985.750000
 20
-14.000000
 30
0.0
 10
985.750000
 20
-11.000000
 30
0.0
 10
1020.750000
 20
-11.000000
 30
0.0
 10
1020.750000
 20
-14.000000
 30
0.0
 10
1068.000000
 20
-14.000000
 30
0.0
 10
1068.000000
 20
-47.222222
 30
0.0
 10
1071.000000
 20
-47.222222
 30
0.0
 10
1071.000000
 20
-82.222222
 30
0.0
 10
1068.000000
 20
-82.222222
 30
0.0
 10
1068.000000
 20
-118.444444
 30
0.0
 10
1071.000000
 20
-118.444444
 30
0.0
 10
1071.000000
 20
-153.444444
 30
0.0
 10
1068.000000
 20
-153.444444
 30
0.0
 10
1068.000000
 20
-189.666667
 30
0.0
 10
1071.000000
 20
-189.666667
 30
0.0
 10
1071.000000
 20
-224.666667
 30
0.0
 10
1068.000000
 20
-224.666667
 30
0.0
 10
1068.000000
 20
-260.888889
 30
0.0
 10
1071.000000
 20
-260.888889
 30
0.0
 10
1071.000000
 20
-295.888889
 30
0.0
 10
1068.000000
 20
-295.888889
 30
0.0
 10
1068.000000
 20
-332.111111
 30
0.0
 10
1071.000000
 20
-332.111111
 30
0.0
 10
1071.000000
 20
-367.111111
 30
0.0
 10
1068.000000
 20
-367.111111
 30
0.0
 10
1068.000000
 20
-403.333333
 30
0.0
 10
1071.000000
 20
-403.333333
 30
0.0
 10
1071.000000
 20
-438.333333
 30
0.0
 10
1068.000000
 20
-438.333333
 30
0.0
 10
1068.000000
 20
-474.555556
 30
0.0
 10
1071.000000
 20
-474.555556
 30
0.0
 10
1071.000000
 20
-509.555556
 30
0.0
 10
1068.000000
 20
-509.555556
 30
0.0
 10
1068.000000
 20
-545.777778
 30
0.0
 10
1071.000000
 20
-545.777778
 30
0.0
 10
1071.000000
 20
-580.777778
 30
0.0
 10
1068.000000
 20
-580.777778
 30
0.0
 10
1068.000000
 20
-614.000000
 30
0.0
 10
1020.750000
 20
-614.000000
 30
0.0
 10
1020.750000
 20
-617.000000
 30
0.0
 10
985.750000
 20
-617.000000
 30
0.0
 10
985.750000
 20
-614.000000
 30
0.0
 10
935.500000
 20
-614.000000
 30
0.0
 10
935.500000
 20
-617.000000
 30
0.0
 10
900.500000
 20
-617.000000
 30
0.0
 10
900.500000
 20
-614.000000
 30
0.0
 10
850.250000
 20
-614.000000
 30
0.0
 10
850.250000
 20
-617.000000
 30
0.0
 10
815.250000
 20
-617.000000
 30
0.0
 10
815.250000
 20
-614.000000
 30
0.0
 10
768.000000
 20
-614.000000
 30
0.0
 10
768.000000
 20
-580.777778
 30
0.0
 10
765.000000
 20
-580.777778
 30
0.0
 10
765.000000
 20
-545.777778
 30
0.0
 10
768.000000
 20
-545.777778
 30
0.0
 10
768.000000
 20
-509.555556
 30
0.0
 10
765.000000
 20
-509.555556
 30
0.0
 10
765.000000
 20
-474.555556
 30
0.0
 10
768.000000
 20
-474.555556
 30
0.0
 10
768.000000
 20
-438.333333
 30
0.0
 10
765.000000
 20
-438.333333
 30
0.0
 10
765.000000
 20
-403.333333
 30
0.0
 10
768.000000
 20
-403.333333
 30
0.0
 10
768.000000
 20
-367.111111
 30
0.0
 10
765.000000
 20
-367.111111
 30
0.0
 10
765.000000
 20
-332.111111
 30
0.0
 10
768.000000
 20
-332.111111
 30
0.0
 10
768.000000
 20
-295.888889
 30
0.0
 10
765.000000
 20
-295.888889
 30
0.0
 10
765.000000
 20
-260.888889
 30
0.0
 10
768.000000
 20
-260.888889
 30
0.0
 10
768.000000
 20
-224.666667
 30
0.0
 10
765.000000
 20
-224.666667
 30
0.0
 10
765.000000
 20
-189.666667
 30
0.0
 10
768.000000
 20
-189.666667
 30
0.0
 10
768.000000
 20
-153.444444
 30
0.0
 10
765.000000
 20
-153.444444
 30
0.0
 10
765.000000
 20
-118.444444
 30
0.0
 10
768.000000
 20
-118.444444
 30
0.0
 10
768.000000
 20
-82.222222
 30
0.0
 10
765.000000
 20
-82.222222
 30
0.0
 10
765.000000
 20
-47.222222
 30
0.0
 10
768.000000
 20
-47.222222
 30
0.0
 10
768.000000
 20
-14.000000
 30
0.0
  0
LWPOLYLINE
  5
131
100
AcDbEntity
  8
newlayer
 62
7
100
AcDbPolyline
 90
5
 70
0
 10
1107.142857
 20
-164.750000
 30
0.0
 10
1142.142857
 20
-164.750000
 30
0.0
 10
1142.142857
 20
-161.750000
 30
0.0
 10
1107.142857
 20
-161.750000
 30
0.0
 10
1107.142857
 20
-164.750000
 30
0.0
  0
LWPOLYLINE
  5
132
100
AcDbEntity
  8
newlayer
 62
7
100
AcDbPolyline
 90
5
 70
0
 10
1107.142857
 20
-315.500000
 30
0.0
 10
1142.142857
 20
-315.500000
 30
0.0
 10
1142.142857
 20
-312.500000
 30
0.0
 10
1107.142857
 20
-312.500000
 30
0.0
 10
1107.142857
 20
-315.500000
 30
0.0
  0
LWPOLYLINE
  5
133
100
AcDbEntity
  8
newlayer
 62
7
100
AcDbPolyline
 90
5
 70
0
 10
1107.142857
 20
-466.250000
 30
0.0
 10
1142.142857
 20
-466.250000
 30
0.0
 10
1142.142857
 20
-463.250000
 30
0.0
 10
1107.142857
 20
-463.250000
 30
0.0
 10
1107.142857
 20
-466.250000
 30
0.0
  0
LWPOLYLINE
  5
134
100
AcDbEntity
  8
newlayer
 62
7
100
AcDbPolyline
 90
5
 70
0
 10
1177.285714
 20
-164.750000
 30
0.0
 10
1212.285714
 20
-164.750000
 30
0.0
 10
1212.285714
 20
-161.750000
 30
0.0
 10
1177.285714
 20
-161.750000
 30
0.0
 10
1177.285714
 20
-164.750000
 30
0.0
  0
LWPOLYLINE
  5
135
100
AcDbEntity
  8
newlayer
 62
7
100
AcDbPolyline
 90
5
 70
0
 10
1177.285714
 20
-315.500000
 30
0.0
 10
1212.285714
 20
-315.500000
 30
0.0
 10
1212.285714
 20
-312.500000
 30
0.0
 10
1177.285714
 20
-312.500000
 30
0.0
 10
1177.285714
 20
-315.500000
 30
0.0
  0
LWPOLYLINE
  5
136
100
AcDbEntity
  8
newlayer
 62
7
100
AcDbPolyline
 90
5
 70
0
 10
1177.285714
 20
-466.250000
 30
0.0
 10
1212.285714
 20
-466.250000
 30
0.0
 10
1212.285714
 20
-463.250000
 30
0.0
 10
1177.285714
 20
-463.250000
 30
0.0
 10
1177.285714
 20
-466.250000
 30
0.0
  0
LWPOLYLINE
  5
137
100
AcDbEntity
  8
newlayer
 62
7
100
AcDbPolyline
 90
5
 70
0
 10
1247.428571
 20
-164.750000
 30
0.0
 10
1282.428571
 20
-164.750000
 30
0.0
 10
1282.428571
 20
-161.750000
 30
0.0
 10
1247.428571
 20
-161.750000
 30
0.0
 10
1247.428571
 20
-164.750000
 30
0.0
  0
LWPOLYLINE
  5
138
100
AcDbEntity
  8
newlayer
 62
7
100
AcDbPolyline
 90
5
 70
0
 10
1247.428571
 20
-315.500000
 30
0.0
 10
1282.428571
 20
-315.500000
 30
0.0
 10
1282.428571
 20
-312.500000
 30
0.0
 10
1247.428571
 20
-312.500000
 30
0.0
 10
1247.428571
 20
-315.500000
 30
0.0
  0
LWPOLYLINE
  5
139
100
AcDbEntity
  8
newlayer
 62
7
100
AcDbPolyline
 90
5
 70
0
 10
1247.428571
 20
-466.250000
 30
0.0
 10
1282.428571
 20
-466.250000
 30
0.0
 10
1282.428571
 20
-463.250000
 30
0.0
 10
1247.428571
 20
-463.250000
 30
0.0
 10
1247.428571
 20
-466.250000
 30
0.0
  0
LWPOLYLINE
  5
13a
100
AcDbEntity
  8
newlayer
 62
7
100
AcDbPolyline
 90
5
 70
0
 10
1317.571429
 20
-164.750000
 30
0.0
 10
1352.571429
 20
-164.750000
 30
0.0
 10
1352.571429
 20
-161.750000
 30
0.0
 10
1317.571429
 20
-161.750000
 30
0.0
 10
1317.571429
 20
-164.750000
 30
0.0
  0
LWPOLYLINE
  5
13b
100
AcDbEntity
  8
newlayer
 62
7
100
AcDbPolyline
 90
5
 70
0
 10
1317.571429
 20
-315.500000
 30
0.0
 10
1352.571429
 20
-315.500000
 30
0.0
 10
1352.571429
 20
-312.500000
 30
0.0
 10
1317.571429
 20
-312.500000
 30
0.0
 10
1317.571429
 20
-315.500000
 30
0.0
  0
LWPOLYLINE
  5
13c
100
AcDbEntity
  8
newlayer
 62
7
100
AcDbPolyline
 90
5
 70
0
 10
1317.571429
 20
-466.250000
 30
0.0
 10
1352.571429
 20
-466.250000
 30
0.0
 10
1352.571429
 20
-463.250000
 30
0.0
 10
1317.571429
 20
-463.250000
 30
0.0
 10
1317.571429
 20
-466.250000
 30
0.0
  0
LWPOLYLINE
  5
13d
100
AcDbEntity
  8
newlayer
 62
7
100
AcDbPolyline
 90
5
 70
0
 10
1387.714286
 20
-164.750000
 30
0.0
 10
1422.714286
 20
-164.750000
 30
0.0
 10
1422.714286
 20
-161.750000
 30
0.0
 10
1387.714286
 20
-161.750000
 30
0.0
 10
1387.714286
 20
-164.750000
 30
0.0
  0
LWPOLYLINE
  5
13e
100
AcDbEntity
  8
newlayer
 62
7
100
AcDbPolyline
 90
5
 70
0
 10
1387.714286
 20
-315.500000
 30
0.0
 10
1422.714286
 20
-315.500000
 30
0.0
 10
1422.714286
 20
-312.500000
 30
0.0
 10
1387.714286
 20
-312.500000
 30
0.0
 10
1387.714286
 20
-315.500000
 30
0.0
  0
LWPOLYLINE
  5
13f
100
AcDbEntity
  8
newlayer
 62
7
100
AcDbPolyline
 90
5
 70
0
 10
1387.714286
 20
-466.250000
 30
0.0
 10
1422.714286
 20
-466.250000
 30
0.0
 10
1422.714286
 20
-463.250000
 30
0.0
 10
1387.714286
 20
-463.250000
 30
0.0
 10
1387.714286
 20
-466.250000
 30
0.0
  0
LWPOLYLINE
  5
140
100
AcDbEntity
  8
newlayer
 62
7
100
AcDbPolyline
 90
5
 70
0
 10
1457.857143
 20
-164.750000
 30
0.0
 10
1492.857143
 20
-164.750000
 30
0.0
 10
1492.857143
 20
-161.750000
 30
0.0
 10
1457.857143
 20
-161.750000
 30
0.0
 10
1457.857143
 20
-164.750000
 30
0.0
  0
LWPOLYLINE
  5
141
100
AcDbEntity
  8
newlayer
 62
7
100
AcDbPolyline
 90
5
 70
0
 10
1457.857143
 20
-315.500000
 30
0.0
 10
1492.857143
 20
-315.500000
 30
0.0
 10
1492.857143
 20
-312.500000
 30
0.0
 10
1457.857143
 20
-312.500000
 30
0.0
 10
1457.857143
 20
-315.500000
 30
0.0
  0
LWPOLYLINE
  5
142
100
AcDbEntity
  8
newlayer
 62
7
100
AcDbPolyline
 90
5
 70
0
 10
1457.857143
 20
-466.250000
 30
0.0
 10
1492.857143
 20
-466.250000
 30
0.0
 10
1492.857143
 20
-463.250000
 30
0.0
 10
1457.857143
 20
-463.250000
 30
0.0
 10
1457.857143
 20
-466.250000
 30
0.0
  0
LWPOLYLINE
  5
143
100
AcDbEntity
  8
newlayer
 62
7
100
AcDbPolyline
 90
117
 70
0
 10
1072.000000
 20
-11.000000
 30
0.0
 10
1107.142857
 20
-11.000000
 30
0.0
 10
1107.142857
 20
-14.000000
 30
0.0
 10
1142.142857
 20
-14.000000
 30
0.0
 10
1142.142857
 20
-11.000000
 30
0.0
 10
1177.285714
 20
-11.000000
 30
0.0
 10
1177.285714
 20
-14.000000
 30
0.0
 10
1212.285714
 20
-14.000000
 30
0.0
 10
1212.285714
 20
-11.000000
 30
0.0
 10
1247.428571
 20
-11.000000
 30
0.0
 10
1247.428571
 20
-14.000000
 30
0.0
 10
1282.428571
 20
-14.000000
 30
0.0
 10
1282.428571
 20
-11.000000
 30
0.0
 10
1317.571429
 20
-11.000000
 30
0.0
 10
1317.571429
 20
-14.000000
 30
0.0
 10
1352.571429
 20
-14.000000
 30
0.0
 10
1352.571429
 20
-11.000000
 30
0.0
 10
1387.714286
 20
-11.000000
 30
0.0
 10
1387.714286
 20
-14.000000
 30
0.0
 10
1422.714286
 20
-14.000000
 30
0.0
 10
1422.714286
 20
-11.000000
 30
0.0
 10
1457.857143
 20
-11.000000
 30
0.0
 10
1457.857143
 20
-14.000000
 30
0.0
 10
1492.857143
 20
-14.000000
 30
0.0
 10
1492.857143
 20
-11.000000
 30
0.0
 10
1528.000000
 20
-11.000000
 30
0.0
 10
1528.000000
 20
-47.222222
 30
0.0
 10
1525.000000
 20
-47.222222
 30
0.0
 10
1525.000000
 20
-82.222222
 30
0.0
 10
1528.000000
 20
-82.222222
 30
0.0
 10
1528.000000
 20
-118.444444
 30
0.0
 10
1525.000000
 20
-118.444444
 30
0.0
 10
1525.000000
 20
-153.444444
 30
0.0
 10
1528.000000
 20
-153.444444
 30
0.0
 10
1528.000000
 20
-189.666667
 30
0.0
 10
1525.000000
 20
-189.666667
 30
0.0
 10
1525.000000
 20
-224.666667
 30
0.0
 10
1528.000000
 20
-224.666667
 30
0.0
 10
1528.000000
 20
-260.888889
 30
0.0
 10
1525.000000
 20
-260.888889
 30
0.0
 10
1525.000000
 20
-295.888889
 30
0.0
 10
1528.000000
 20
-295.888889
 30
0.0
 10
1528.000000
 20
-332.111111
 30
0.0
 10
1525.000000
 20
-332.111111
 30
0.0
 10
1525.000000
 20
-367.111111
 30
0.0
 10
1528.000000
 20
-367.111111
 30
0.0
 10
1528.000000
 20
-403.333333
 30
0.0
 10
1525.000000
 20
-403.333333
 30
0.0
 10
1525.000000
 20
-438.333333
 30
0.0
 10
1528.000000
 20
-438.333333
 30
0.0
 10
1528.000000
 20
-474.555556
 30
0.0
 10
1525.000000
 20
-474.555556
 30
0.0
 10
1525.000000
 20
-509.555556
 30
0.0
 10
1528.000000
 20
-509.555556
 30
0.0
 10
1528.000000
 20
-545.777778
 30
0.0
 10
1525.000000
 20
-545.777778
 30
0.0
 10
1525.000000
 20
-580.777778
 30
0.0
 10
1528.000000
 20
-580.777778
 30
0.0
 10
1528.000000
 20
-617.000000
 30
0.0
 10
1492.857143
 20
-617.000000
 30
0.0
 10
1492.857143
 20
-614.000000
 30
0.0
 10
1457.857143
 20
-614.000000
 30
0.0
 10
1457.857143
 20
-617.000000
 30
0.0
 10
1422.714286
 20
-617.000000
 30
0.0
 10
1422.714286
 20
-614.000000
 30
0.0
 10
1387.714286
 20
-614.000000
 30
0.0
 10
1387.714286
 20
-617.000000
 30
0.0
 10
1352.571429
 20
-617.000000
 30
0.0
 10
1352.571429
 20
-614.000000
 30
0.0
 10
1317.571429
 20
-614.000000
 30
0.0
 10
1317.571429
 20
-617.000000
 30
0.0
 10
1282.428571
 20
-617.000000
 30
0.0
 10
1282.428571
 20
-614.000000
 30
0.0
 10
1247.428571
 20
-614.000000
 30
0.0
 10
1247.428571
 20
-617.000000
 30
0.0
 10
1212.285714
 20
-617.000000
 30
0.0
 10
1212.285714
 20
-614.000000
 30
0.0
 10
1177.285714
 20
-614.000000
 30
0.0
 10
1177.285714
 20
-617.000000
 30
0.0
 10
1142.142857
 20
-617.000000
 30
0.0
 10
1142.142857
 20
-614.000000
 30
0.0
 10
1107.142857
 20
-614.000000
 30
0.0
 10
1107.142857
 20
-617.000000
 30
0.0
 10
1072.000000
 20
-617.000000
 30
0.0
 10
1072.000000
 20
-580.777778
 30
0.0
 10
1075.000000
 20
-580.777778
 30
0.0
 10
1075.000000
 20
-545.777778
 30
0.0
 10
1072.000000
 20
-545.777778
 30
0.0
 10
1072.000000
 20
-509.555556
 30
0.0
 10
1075.000000
 20
-509.555556
 30
0.0
 10
1075.000000
 20
-474.555556
 30
0.0
 10
1072.000000
 20
-474.555556
 30
0.0
 10
1072.000000
 20
-438.333333
 30
0.0
 10
1075.000000
 20
-438.333333
 30
0.0
 10
1075.000000
 20
-403.333333
 30
0.0
 10
1072.000000
 20
-403.333333
 30
0.0
 10
1072.000000
 20
-367.111111
 30
0.0
 10
1075.000000
 20
-367.111111
 30
0.0
 10
1075.000000
 20
-332.111111
 30
0.0
 10
1072.000000
 20
-332.111111
 30
0.0
 10
1072.000000
 20
-295.888889
 30
0.0
 10
1075.000000
 20
-295.888889
 30
0.0
 10
1075.000000
 20
-260.888889
 30
0.0
 10
1072.000000
 20
-260.888889
 30
0.0
 10
1072.000000
 20
-224.666667
 30
0.0
 10
1075.000000
 20
-224.666667
 30
0.0
 10
1075.000000
 20
-189.666667
 30
0.0
 10
1072.000000
 20
-189.666667
 30
0.0
 10
1072.000000
 20
-153.444444
 30
0.0
 10
1075.000000
 20
-153.444444
 30
0.0
 10
1075.000000
 20
-118.444444
 30
0.0
 10
1072.000000
 20
-118.444444
 30
0.0
 10
1072.000000
 20
-82.222222
 30
0.0
 10
1075.000000
 20
-82.222222
 30
0.0
 10
1075.000000
 20
-47.222222
 30
0.0
 10
1072.000000
 20
-47.222222
 30
0.0
 10
1072.000000
 20
-11.000000
 30
0.0
  0
LWPOLYLINE
  5
144
100
AcDbEntity
  8
newlayer
 62
7
100
AcDbPolyline
 90
77
 70
0
 10
308.000000
 20
293.000000
 30
0.0
 10
343.142857
 20
293.000000
 30
0.0
 10
343.142857
 20
296.000000
 30
0.0
 10
378.142857
 20
296.000000
 30
0.0
 10
378.142857
 20
293.000000
 30
0.0
 10
413.285714
 20
293.000000
 30
0.0
 10
413.285714
 20
296.000000
 30
0.0
 10
448.285714
 20
296.000000
 30
0.0
 10
448.285714
 20
293.000000
 30
0.0
 10
483.428571
 20
293.000000
 30
0.0
 10
483.428571
 20
296.000000
 30
0.0
 10
518.428571
 20
296.000000
 30
0.0
 10
518.428571
 20
293.000000
 30
0.0
 10
553.571429
 20
293.000000
 30
0.0
 10
553.571429
 20
296.000000
 30
0.0
 10
588.571429
 20
296.000000
 30
0.0
 10
588.571429
 20
293.000000
 30
0.0
 10
623.714286
 20
293.000000
 30
0.0
 10
623.714286
 20
296.000000
 30
0.0
 10
658.714286
 20
296.000000
 30
0.0
 10
658.714286
 20
293.000000
 30
0.0
 10
693.857143
 20
293.000000
 30
0.0
 10
693.857143
 20
296.000000
 30
0.0
 10
728.857143
 20
296.000000
 30
0.0
 10
728.857143
 20
293.000000
 30
0.0
 10
764.000000
 20
293.000000
 30
0.0
 10
764.000000
 20
245.750000
 30
0.0
 10
761.000000
 20
245.750000
 30
0.0
 10
761.000000
 20
210.750000
 30
0.0
 10
764.000000
 20
210.750000
 30
0.0
 10
764.000000
 20
160.500000
 30
0.0
 10
761.000000
 20
160.500000
 30
0.0
 10
761.000000
 20
125.500000
 30
0.0
 10
764.000000
 20
125.500000
 30
0.0
 10
764.000000
 20
75.250000
 30
0.0
 10
761.000000
 20
75.250000
 30
0.0
 10
761.000000
 20
40.250000
 30
0.0
 10
764.000000
 20
40.250000
 30
0.0
 10
764.000000
 20
-7.000000
 30
0.0
 10
728.857143
 20
-7.000000
 30
0.0
 10
728.857143
 20
-10.000000
 30
0.0
 10
693.857143
 20
-10.000000
 30
0.0
 10
693.857143
 20
-7.000000
 30
0.0
 10
658.714286
 20
-7.000000
 30
0.0
 10
658.714286
 20
-10.000000
 30
0.0
 10
623.714286
 20
-10.000000
 30
0.0
 10
623.714286
 20
-7.000000
 30
0.0
 10
588.571429
 20
-7.000000
 30
0.0
 10
588.571429
 20
-10.000000
 30
0.0
 10
553.571429
 20
-10.000000
 30
0.0
 10
553.571429
 20
-7.000000
 30
0.0
 10
518.428571
 20
-7.000000
 30
0.0
 10
518.428571
 20
-10.000000
 30
0.0
 10
483.428571
 20
-10.000000
 30
0.0
 10
483.428571
 20
-7.000000
 30
0.0
 10
448.285714
 20
-7.000000
 30
0.0
 10
448.285714
 20
-10.000000
 30
0.0
 10
413.285714
 20
-10.000000
 30
0.0
 10
413.285714
 20
-7.000000
 30
0.0
 10
378.142857
 20
-7.000000
 30
0.0
 10
378.142857
 20
-10.000000
 30
0.0
 10
343.142857
 20
-10.000000
 30
0.0
 10
343.142857
 20
-7.000000
 30
0.0
 10
308.000000
 20
-7.000000
 30
0.0
 10
308.000000
 20
40.250000
 30
0.0
 10
311.000000
 20
40.250000
 30
0.0
 10
311.000000
 20
75.250000
 30
0.0
 10
308.000000
 20
75.250000
 30
0.0
 10
308.000000
 20
125.500000
 30
0.0
 10
311.000000
 20
125.500000
 30
0.0
 10
311.000000
 20
160.500000
 30
0.0
 10
308.000000
 20
160.500000
 30
0.0
 10
308.000000
 20
210.750000
 30
0.0
 10
311.000000
 20
210.750000
 30
0.0
 10
311.000000
 20
245.750000
 30
0.0
 10
308.000000
 20
245.750000
 30
0.0
 10
308.000000
 20
293.000000
 30
0.0
  0
LWPOLYLINE
  5
145
100
AcDbEntity
  8
newlayer
 62
7
100
AcDbPolyline
 90
77
 70
0
 10
308.000000
 20
-621.000000
 30
0.0
 10
343.142857
 20
-621.000000
 30
0.0
 10
343.142857
 20
-618.000000
 30
0.0
 10
378.142857
 20
-618.000000
 30
0.0
 10
378.142857
 20
-621.000000
 30
0.0
 10
413.285714
 20
-621.000000
 30
0.0
 10
413.285714
 20
-618.000000
 30
0.0
 10
448.285714
 20
-618.000000
 30
0.0
 10
448.285714
 20
-621.000000
 30
0.0
 10
483.428571
 20
-621.000000
 30
0.0
 10
483.428571
 20
-618.000000
 30
0.0
 10
518.428571
 20
-618.000000
 30
0.0
 10
518.428571
 20
-621.000000
 30
0.0
 10
553.571429
 20
-621.000000
 30
0.0
 10
553.571429
 20
-618.000000
 30
0.0
 10
588.571429
 20
-618.000000
 30
0.0
 10
588.571429
 20
-621.000000
 30
0.0
 10
623.714286
 20
-621.000000
 30
0.0
 10
623.714286
 20
-618.000000
 30
0.0
 10
658.714286
 20
-618.000000
 30
0.0
 10
658.714286
 20
-621.000000
 30
0.0
 10
693.857143
 20
-621.000000
 30
0.0
 10
693.857143
 20
-618.000000
 30
0.0
 10
728.857143
 20
-618.000000
 30
0.0
 10
728.857143
 20
-621.000000
 30
0.0
 10
764.000000
 20
-621.000000
 30
0.0
 10
764.000000
 20
-668.250000
 30
0.0
 10
761.000000
 20
-668.250000
 30
0.0
 10
761.000000
 20
-703.250000
 30
0.0
 10
764.000000
 20
-703.250000
 30
0.0
 10
764.000000
 20
-753.500000
 30
0.0
 10
761.000000
 20
-753.500000
 30
0.0
 10
761.000000
 20
-788.500000
 30
0.0
 10
764.000000
 20
-788.500000
 30
0.0
 10
764.000000
 20
-838.750000
 30
0.0
 10
761.000000
 20
-838.750000
 30
0.0
 10
761.000000
 20
-873.750000
 30
0.0
 10
764.000000
 20
-873.750000
 30
0.0
 10
764.000000
 20
-921.000000
 30
0.0
 10
728.857143
 20
-921.000000
 30
0.0
 10
728.857143
 20
-924.000000
 30
0.0
 10
693.857143
 20
-924.000000
 30
0.0
 10
693.857143
 20
-921.000000
 30
0.0
 10
658.714286
 20
-921.000000
 30
0.0
 10
658.714286
 20
-924.000000
 30
0.0
 10
623.714286
 20
-924.000000
 30
0.0
 10
623.714286
 20
-921.000000
 30
0.0
 10
588.571429
 20
-921.000000
 30
0.0
 10
588.571429
 20
-924.000000
 30
0.0
 10
553.571429
 20
-924.000000
 30
0.0
 10
553.571429
 20
-921.000000
 30
0.0
 10
518.428571
 20
-921.000000
 30
0.0
 10
518.428571
 20
-924.000000
 30
0.0
 10
483.428571
 20
-924.000000
 30
0.0
 10
483.428571
 20
-921.000000
 30
0.0
 10
448.285714
 20
-921.000000
 30
0.0
 10
448.285714
 20
-924.000000
 30
0.0
 10
413.285714
 20
-924.000000
 30
0.0
 10
413.285714
 20
-921.000000
 30
0.0
 10
378.142857
 20
-921.000000
 30
0.0
 10
378.142857
 20
-924.000000
 30
0.0
 10
343.142857
 20
-924.000000
 30
0.0
 10
343.142857
 20
-921.000000
 30
0.0
 10
308.000000
 20
-921.000000
 30
0.0
 10
308.000000
 20
-873.750000
 30
0.0
 10
311.000000
 20
-873.750000
 30
0.0
 10
311.000000
 20
-838.750000
 30
0.0
 10
308.000000
 20
-838.750000
 30
0.0
 10
308.000000
 20
-788.500000
 30
0.0
 10
311.000000
 20
-788.500000
 30
0.0
 10
311.000000
 20
-753.500000
 30
0.0
 10
308.000000
 20
-753.500000
 30
0.0
 10
308.000000
 20
-703.250000
 30
0.0
 10
311.000000
 20
-703.250000
 30
0.0
 10
311.000000
 20
-668.250000
 30
0.0
 10
308.000000
 20
-668.250000
 30
0.0
 10
308.000000
 20
-621.000000
 30
0.0
  0
LWPOLYLINE
  5
146
100
AcDbEntity
  8
newlayer
 62
7
100
AcDbPolyline
 90
77
 70
0
 10
0.000000
 20
-928.000000
 30
0.0
 10
35.142857
 20
-928.000000
 30
0.0
 10
35.142857
 20
-925.000000
 30
0.0
 10
70.142857
 20
-925.000000
 30
0.0
 10
70.142857
 20
-928.000000
 30
0.0
 10
105.285714
 20
-928.000000
 30
0.0
 10
105.285714
 20
-925.000000
 30
0.0
 10
140.285714
 20
-925.000000
 30
0.0
 10
140.285714
 20
-928.000000
 30
0.0
 10
175.428571
 20
-928.000000
 30
0.0
 10
175.428571
 20
-925.000000
 30
0.0
 10
210.428571
 20
-925.000000
 30
0.0
 10
210.428571
 20
-928.000000
 30
0.0
 10
245.571429
 20
-928.000000
 30
0.0
 10
245.571429
 20
-925.000000
 30
0.0
 10
280.571429
 20
-925.000000
 30
0.0
 10
280.571429
 20
-928.000000
 30
0.0
 10
315.714286
 20
-928.000000
 30
0.0
 10
315.714286
 20
-925.000000
 30
0.0
 10
350.714286
 20
-925.000000
 30
0.0
 10
350.714286
 20
-928.000000
 30
0.0
 10
385.857143
 20
-928.000000
 30
0.0
 10
385.857143
 20
-925.000000
 30
0.0
 10
420.857143
 20
-925.000000
 30
0.0
 10
420.857143
 20
-928.000000
 30
0.0
 10
456.000000
 20
-928.000000
 30
0.0
 10
456.000000
 20
-975.250000
 30
0.0
 10
453.000000
 20
-975.250000
 30
0.0
 10
453.000000
 20
-1010.250000
 30
0.0
 10
456.000000
 20
-1010.250000
 30
0.0
 10
456.000000
 20
-1060.500000
 30
0.0
 10
453.000000
 20
-1060.500000
 30
0.0
 10
453.000000
 20
-1095.500000
 30
0.0
 10
456.000000
 20
-1095.500000
 30
0.0
 10
456.000000
 20
-1145.750000
 30
0.0
 10
453.000000
 20
-1145.750000
 30
0.0
 10
453.000000
 20
-1180.750000
 30
0.0
 10
456.000000
 20
-1180.750000
 30
0.0
 10
456.000000
 20
-1228.000000
 30
0.0
 10
420.857143
 20
-1228.000000
 30
0.0
 10
420.857143
 20
-1231.000000
 30
0.0
 10
385.857143
 20
-1231.000000
 30
0.0
 10
385.857143
 20
-1228.000000
 30
0.0
 10
350.714286
 20
-1228.000000
 30
0.0
 10
350.714286
 20
-1231.000000
 30
0.0
 10
315.714286
 20
-1231.000000
 30
0.0
 10
315.714286
 20
-1228.000000
 30
0.0
 10
280.571429
 20
-1228.000000
 30
0.0
 10
280.571429
 20
-1231.000000
 30
0.0
 10
245.571429
 20
-1231.000000
 30
0.0
 10
245.571429
 20
-1228.000000
 30
0.0
 10
210.428571
 20
-1228.000000
 30
0.0
 10
210.428571
 20
-1231.000000
 30
0.0
 10
175.428571
 20
-1231.000000
 30
0.0
 10
175.428571
 20
-1228.000000
 30
0.0
 10
140.285714
 20
-1228.000000
 30
0.0
 10
140.285714
 20
-1231.000000
 30
0.0
 10
105.285714
 20
-1231.000000
 30
0.0
 10
105.285714
 20
-1228.000000
 30
0.0
 10
70.142857
 20
-1228.000000
 30
0.0
 10
70.142857
 20
-1231.000000
 30
0.0
 10
35.142857
 20
-1231.000000
 30
0.0
 10
35.142857
 20
-1228.000000
 30
0.0
 10
0.000000
 20
-1228.000000
 30
0.0
 10
0.000000
 20
-1180.750000
 30
0.0
 10
3.000000
 20
-1180.750000
 30
0.0
 10
3.000000
 20
-1145.750000
 30
0.0
 10
0.000000
 20
-1145.750000
 30
0.0
 10
0.000000
 20
-1095.500000
 30
0.0
 10
3.000000
 20
-1095.500000
 30
0.0
 10
3.000000
 20
-1060.500000
 30
0.0
 10
0.000000
 20
-1060.500000
 30
0.0
 10
0.000000
 20
-1010.250000
 30
0.0
 10
3.000000
 20
-1010.250000
 30
0.0
 10
3.000000
 20
-975.250000
 30
0.0
 10
0.000000
 20
-975.250000
 30
0.0
 10
0.000000
 20
-928.000000
 30
0.0
  0
LWPOLYLINE
  5
147
100
AcDbEntity
  8
newlayer
 62
7
100
AcDbPolyline
 90
77
 70
0
 10
457.000000
 20
-928.000000
 30
0.0
 10
492.142857
 20
-928.000000
 30
0.0
 10
492.142857
 20
-925.000000
 30
0.0
 10
527.142857
 20
-925.000000
 30
0.0
 10
527.142857
 20
-928.000000
 30
0.0
 10
562.285714
 20
-928.000000
 30
0.0
 10
562.285714
 20
-925.000000
 30
0.0
 10
597.285714
 20
-925.000000
 30
0.0
 10
597.285714
 20
-928.000000
 30
0.0
 10
632.428571
 20
-928.000000
 30
0.0
 10
632.428571
 20
-925.000000
 30
0.0
 10
667.428571
 20
-925.000000
 30
0.0
 10
667.428571
 20
-928.000000
 30
0.0
 10
702.571429
 20
-928.000000
 30
0.0
 10
702.571429
 20
-925.000000
 30
0.0
 10
737.571429
 20
-925.000000
 30
0.0
 10
737.571429
 20
-928.000000
 30
0.0
 10
772.714286
 20
-928.000000
 30
0.0
 10
772.714286
 20
-925.000000
 30
0.0
 10
807.714286
 20
-925.000000
 30
0.0
 10
807.714286
 20
-928.000000
 30
0.0
 10
842.857143
 20
-928.000000
 30
0.0
 10
842.857143
 20
-925.000000
 30
0.0
 10
877.857143
 20
-925.000000
 30
0.0
 10
877.857143
 20
-928.000000
 30
0.0
 10
913.000000
 20
-928.000000
 30
0.0
 10
913.000000
 20
-975.250000
 30
0.0
 10
910.000000
 20
-975.250000
 30
0.0
 10
910.000000
 20
-1010.250000
 30
0.0
 10
913.000000
 20
-1010.250000
 30
0.0
 10
913.000000
 20
-1060.500000
 30
0.0
 10
910.000000
 20
-1060.500000
 30
0.0
 10
910.000000
 20
-1095.500000
 30
0.0
 10
913.000000
 20
-1095.500000
 30
0.0
 10
913.000000
 20
-1145.750000
 30
0.0
 10
910.000000
 20
-1145.750000
 30
0.0
 10
910.000000
 20
-1180.750000
 30
0.0
 10
913.000000
 20
-1180.750000
 30
0.0
 10
913.000000
 20
-1228.000000
 30
0.0
 10
877.857143
 20
-1228.000000
 30
0.0
 10
877.857143
 20
-1231.000000
 30
0.0
 10
842.857143
 20
-1231.000000
 30
0.0
 10
842.857143
 20
-1228.000000
 30
0.0
 10
807.714286
 20
-1228.000000
 30
0.0
 10
807.714286
 20
-1231.000000
 30
0.0
 10
772.714286
 20
-1231.000000
 30
0.0
 10
772.714286
 20
-1228.000000
 30
0.0
 10
737.571429
 20
-1228.000000
 30
0.0
 10
737.571429
 20
-1231.000000
 30
0.0
 10
702.571429
 20
-1231.000000
 30
0.0
 10
702.571429
 20
-1228.000000
 30
0.0
 10
667.428571
 20
-1228.000000
 30
0.0
 10
667.428571
 20
-1231.000000
 30
0.0
 10
632.428571
 20
-1231.000000
 30
0.0
 10
632.428571
 20
-1228.000000
 30
0.0
 10
597.285714
 20
-1228.000000
 30
0.0
 10
597.285714
 20
-1231.000000
 30
0.0
 10
562.285714
 20
-1231.000000
 30
0.0
 10
562.285714
 20
-1228.000000
 30
0.0
 10
527.142857
 20
-1228.000000
 30
0.0
 10
527.142857
 20
-1231.000000
 30
0.0
 10
492.142857
 20
-1231.000000
 30
0.0
 10
492.142857
 20
-1228.000000
 30
0.0
 10
457.000000
 20
-1228.000000
 30
0.0
 10
457.000000
 20
-1180.750000
 30
0.0
 10
460.000000
 20
-1180.750000
 30
0.0
 10
460.000000
 20
-1145.750000
 30
0.0
 10
457.000000
 20
-1145.750000
 30
0.0
 10
457.000000
 20
-1095.500000
 30
0.0
 10
460.000000
 20
-1095.500000
 30
0.0
 10
460.000000
 20
-1060.500000
 30
0.0
 10
457.000000
 20
-1060.500000
 30
0.0
 10
457.000000
 20
-1010.250000
 30
0.0
 10
460.000000
 20
-1010.250000
 30
0.0
 10
460.000000
 20
-975.250000
 30
0.0
 10
457.000000
 20
-975.250000
 30
0.0
 10
457.000000
 20
-928.000000
 30
0.0
  0
LWPOLYLINE
  5
148
100
AcDbEntity
  8
newlayer
 62
7
100
AcDbPolyline
 90
77
 70
0
 10
914.000000
 20
-928.000000
 30
0.0
 10
949.142857
 20
-928.000000
 30
0.0
 10
949.142857
 20
-925.000000
 30
0.0
 10
984.142857
 20
-925.000000
 30
0.0
 10
984.142857
 20
-928.000000
 30
0.0
 10
1019.285714
 20
-928.000000
 30
0.0
 10
1019.285714
 20
-925.000000
 30
0.0
 10
1054.285714
 20
-925.000000
 30
0.0
 10
1054.285714
 20
-928.000000
 30
0.0
 10
1089.428571
 20
-928.000000
 30
0.0
 10
1089.428571
 20
-925.000000
 30
0.0
 10
1124.428571
 20
-925.000000
 30
0.0
 10
1124.428571
 20
-928.000000
 30
0.0
 10
1159.571429
 20
-928.000000
 30
0.0
 10
1159.571429
 20
-925.000000
 30
0.0
 10
1194.571429
 20
-925.000000
 30
0.0
 10
1194.571429
 20
-928.000000
 30
0.0
 10
1229.714286
 20
-928.000000
 30
0.0
 10
1229.714286
 20
-925.000000
 30
0.0
 10
1264.714286
 20
-925.000000
 30
0.0
 10
1264.714286
 20
-928.000000
 30
0.0
 10
1299.857143
 20
-928.000000
 30
0.0
 10
1299.857143
 20
-925.000000
 30
0.0
 10
1334.857143
 20
-925.000000
 30
0.0
 10
1334.857143
 20
-928.000000
 30
0.0
 10
1370.000000
 20
-928.000000
 30
0.0
 10
1370.000000
 20
-975.250000
 30
0.0
 10
1367.000000
 20
-975.250000
 30
0.0
 10
1367.000000
 20
-1010.250000
 30
0.0
 10
1370.000000
 20
-1010.250000
 30
0.0
 10
1370.000000
 20
-1060.500000
 30
0.0
 10
1367.000000
 20
-1060.500000
 30
0.0
 10
1367.000000
 20
-1095.500000
 30
0.0
 10
1370.000000
 20
-1095.500000
 30
0.0
 10
1370.000000
 20
-1145.750000
 30
0.0
 10
1367.000000
 20
-1145.750000
 30
0.0
 10
1367.000000
 20
-1180.750000
 30
0.0
 10
1370.000000
 20
-1180.750000
 30
0.0
 10
1370.000000
 20
-1228.000000
 30
0.0
 10
1334.857143
 20
-1228.000000
 30
0.0
 10
1334.857143
 20
-1231.000000
 30
0.0
 10
1299.857143
 20
-1231.000000
 30
0.0
 10
1299.857143
 20
-1228.000000
 30
0.0
 10
1264.714286
 20
-1228.000000
 30
0.0
 10
1264.714286
 20
-1231.000000
 30
0.0
 10
1229.714286
 20
-1231.000000
 30
0.0
 10
1229.714286
 20
-1228.000000
 30
0.0
 10
1194.571429
 20
-1228.000000
 30
0.0
 10
1194.571429
 20
-1231.000000
 30
0.0
 10
1159.571429
 20
-1231.000000
 30
0.0
 10
1159.571429
 20
-1228.000000
 30
0.0
 10
1124.428571
 20
-1228.000000
 30
0.0
 10
1124.428571
 20
-1231.000000
 30
0.0
 10
1089.428571
 20
-1231.000000
 30
0.0
 10
1089.428571
 20
-1228.000000
 30
0.0
 10
1054.285714
 20
-1228.000000
 30
0.0
 10
1054.285714
 20
-1231.000000
 30
0.0
 10
1019.285714
 20
-1231.000000
 30
0.0
 10
1019.285714
 20
-1228.000000
 30
0.0
 10
984.142857
 20
-1228.000000
 30
0.0
 10
984.142857
 20
-1231.000000
 30
0.0
 10
949.142857
 20
-1231.000000
 30
0.0
 10
949.142857
 20
-1228.000000
 30
0.0
 10
914.000000
 20
-1228.000000
 30
0.0
 10
914.000000
 20
-1180.750000
 30
0.0
 10
917.000000
 20
-1180.750000
 30
0.0
 10
917.000000
 20
-1145.750000
 30
0.0
 10
914.000000
 20
-1145.750000
 30
0.0
 10
914.000000
 20
-1095.500000
 30
0.0
 10
917.000000
 20
-1095.500000
 30
0.0
 10
917.000000
 20
-1060.500000
 30
0.0
 10
914.000000
 20
-1060.500000
 30
0.0
 10
914.000000
 20
-1010.250000
 30
0.0
 10
917.000000
 20
-1010.250000
 30
0.0
 10
917.000000
 20
-975.250000
 30
0.0
 10
914.000000
 20
-975.250000
 30
0.0
 10
914.000000
 20
-928.000000
 30
0.0
  0
LWPOLYLINE
  5
149
100
AcDbEntity
  8
newlayer
 62
7
100
AcDbPolyline
 90
5
 70
0
 10
4.000000
 20
-164.750000
 30
0.0
 10
51.250000
 20
-164.750000
 30
0.0
 10
51.250000
 20
-161.750000
 30
0.0
 10
4.000000
 20
-161.750000
 30
0.0
 10
4.000000
 20
-164.750000
 30
0.0
  0
LWPOLYLINE
  5
14a
100
AcDbEntity
  8
newlayer
 62
7
100
AcDbPolyline
 90
5
 70
0
 10
4.000000
 20
-315.500000
 30
0.0
 10
51.250000
 20
-315.500000
 30
0.0
 10
51.250000
 20
-312.500000
 30
0.0
 10
4.000000
 20
-312.500000
 30
0.0
 10
4.000000
 20
-315.500000
 30
0.0
  0
LWPOLYLINE
  5
14b
100
AcDbEntity
  8
newlayer
 62
7
100
AcDbPolyline
 90
5
 70
0
 10
4.000000
 20
-466.250000
 30
0.0
 10
51.250000
 20
-466.250000
 30
0.0
 10
51.250000
 20
-463.250000
 30
0.0
 10
4.000000
 20
-463.250000
 30
0.0
 10
4.000000
 20
-466.250000
 30
0.0
  0
LWPOLYLINE
  5
14c
100
AcDbEntity
  8
newlayer
 62
7
100
AcDbPolyline
 90
5
 70
0
 10
86.250000
 20
-164.750000
 30
0.0
 10
136.500000
 20
-164.750000
 30
0.0
 10
136.500000
 20
-161.750000
 30
0.0
 10
86.250000
 20
-161.750000
 30
0.0
 10
86.250000
 20
-164.750000
 30
0.0
  0
LWPOLYLINE
  5
14d
100
AcDbEntity
  8
newlayer
 62
7
100
AcDbPolyline
 90
5
 70
0
 10
86.250000
 20
-315.500000
 30
0.0
 10
136.500000
 20
-315.500000
 30
0.0
 10
136.500000
 20
-312.500000
 30
0.0
 10
86.250000
 20
-312.500000
 30
0.0
 10
86.250000
 20
-315.500000
 30
0.0
  0
LWPOLYLINE
  5
14e
100
AcDbEntity
  8
newlayer
 62
7
100
AcDbPolyline
 90
5
 70
0
 10
86.250000
 20
-466.250000
 30
0.0
 10
136.500000
 20
-466.250000
 30
0.0
 10
136.500000
 20
-463.250000
 30
0.0
 10
86.250000
 20
-463.250000
 30
0.0
 10
86.250000
 20
-466.250000
 30
0.0
  0
LWPOLYLINE
  5
14f
100
AcDbEntity
  8
newlayer
 62
7
100
AcDbPolyline
 90
5
 70
0
 10
171.500000
 20
-164.750000
 30
0.0
 10
221.750000
 20
-164.750000
 30
0.0
 10
221.750000
 20
-161.750000
 30
0.0
 10
171.500000
 20
-161.750000
 30
0.0
 10
171.500000
 20
-164.750000
 30
0.0
  0
LWPOLYLINE
  5
150
100
AcDbEntity
  8
newlayer
 62
7
100
AcDbPolyline
 90
5
 70
0
 10
171.500000
 20
-315.500000
 30
0.0
 10
221.750000
 20
-315.500000
 30
0.0
 10
221.750000
 20
-312.500000
 30
0.0
 10
171.500000
 20
-312.500000
 30
0.0
 10
171.500000
 20
-315.500000
 30
0.0
  0
LWPOLYLINE
  5
151
100
AcDbEntity
  8
newlayer
 62
7
100
AcDbPolyline
 90
5
 70
0
 10
171.500000
 20
-466.250000
 30
0.0
 10
221.750000
 20
-466.250000
 30
0.0
 10
221.750000
 20
-463.250000
 30
0.0
 10
171.500000
 20
-463.250000
 30
0.0
 10
171.500000
 20
-466.250000
 30
0.0
  0
LWPOLYLINE
  5
152
100
AcDbEntity
  8
newlayer
 62
7
100
AcDbPolyline
 90
5
 70
0
 10
256.750000
 20
-164.750000
 30
0.0
 10
304.000000
 20
-164.750000
 30
0.0
 10
304.000000
 20
-161.750000
 30
0.0
 10
256.750000
 20
-161.750000
 30
0.0
 10
256.750000
 20
-164.750000
 30
0.0
  0
LWPOLYLINE
  5
153
100
AcDbEntity
  8
newlayer
 62
7
100
AcDbPolyline
 90
5
 70
0
 10
256.750000
 20
-315.500000
 30
0.0
 10
304.000000
 20
-315.500000
 30
0.0
 10
304.000000
 20
-312.500000
 30
0.0
 10
256.750000
 20
-312.500000
 30
0.0
 10
256.750000
 20
-315.500000
 30
0.0
  0
LWPOLYLINE
  5
154
100
AcDbEntity
  8
newlayer
 62
7
100
AcDbPolyline
 90
5
 70
0
 10
256.750000
 20
-466.250000
 30
0.0
 10
304.000000
 20
-466.250000
 30
0.0
 10
304.000000
 20
-463.250000
 30
0.0
 10
256.750000
 20
-463.250000
 30
0.0
 10
256.750000
 20
-466.250000
 30
0.0
  0
LWPOLYLINE
  5
155
100
AcDbEntity
  8
newlayer
 62
7
100
AcDbPolyline
 90
93
 70
0
 10
4.000000
 20
-14.000000
 30
0.0
 10
51.250000
 20
-14.000000
 30
0.0
 10
51.250000
 20
-11.000000
 30
0.0
 10
86.250000
 20
-11.000000
 30
0.0
 10
86.250000
 20
-14.000000
 30
0.0
 10
136.500000
 20
-14.000000
 30
0.0
 10
136.500000
 20
-11.000000
 30
0.0
 10
171.500000
 20
-11.000000
 30
0.0
 10
171.500000
 20
-14.000000
 30
0.0
 10
221.750000
 20
-14.000000
 30
0.0
 10
221.750000
 20
-11.000000
 30
0.0
 10
256.750000
 20
-11.000000
 30
0.0
 10
256.750000
 20
-14.000000
 30
0.0
 10
304.000000
 20
-14.000000
 30
0.0
 10
304.000000
 20
-47.222222
 30
0.0
 10
307.000000
 20
-47.222222
 30
0.0
 10
307.000000
 20
-82.222222
 30
0.0
 10
304.000000
 20
-82.222222
 30
0.0
 10
304.000000
 20
-118.444444
 30
0.0
 10
307.000000
 20
-118.444444
 30
0.0
 10
307.000000
 20
-153.444444
 30
0.0
 10
304.000000
 20
-153.444444
 30
0.0
 10
304.000000
 20
-189.666667
 30
0.0
 10
307.000000
 20
-189.666667
 30
0.0
 10
307.000000
 20
-224.666667
 30
0.0
 10
304.000000
 20
-224.666667
 30
0.0
 10
304.000000
 20
-260.888889
 30
0.0
 10
307.000000
 20
-260.888889
 30
0.0
 10
307.000000
 20
-295.888889
 30
0.0
 10
304.000000
 20
-295.888889
 30
0.0
 10
304.000000
 20
-332.111111
 30
0.0
 10
307.000000
 20
-332.111111
 30
0.0
 10
307.000000
 20
-367.111111
 30
0.0
 10
304.000000
 20
-367.111111
 30
0.0
 10
304.000000
 20
-403.333333
 30
0.0
 10
307.000000
 20
-403.333333
 30
0.0
 10
307.000000
 20
-438.333333
 30
0.0
 10
304.000000
 20
-438.333333
 30
0.0
 10
304.000000
 20
-474.555556
 30
0.0
 10
307.000000
 20
-474.555556
 30
0.0
 10
307.000000
 20
-509.555556
 30
0.0
 10
304.000000
 20
-509.555556
 30
0.0
 10
304.000000
 20
-545.777778
 30
0.0
 10
307.000000
 20
-545.777778
 30
0.0
 10
307.000000
 20
-580.777778
 30
0.0
 10
304.000000
 20
-580.777778
 30
0.0
 10
304.000000
 20
-614.000000
 30
0.0
 10
256.750000
 20
-614.000000
 30
0.0
 10
256.750000
 20
-617.000000
 30
0.0
 10
221.750000
 20
-617.000000
 30
0.0
 10
221.750000
 20
-614.000000
 30
0.0
 10
171.500000
 20
-614.000000
 30
0.0
 10
171.500000
 20
-617.000000
 30
0.0
 10
136.500000
 20
-617.000000
 30
0.0
 10
136.500000
 20
-614.000000
 30
0.0
 10
86.250000
 20
-614.000000
 30
0.0
 10
86.250000
 20
-617.000000
 30
0.0
 10
51.250000
 20
-617.000000
 30
0.0
 10
51.250000
 20
-614.000000
 30
0.0
 10
4.000000
 20
-614.000000
 30
0.0
 10
4.000000
 20
-580.777778
 30
0.0
 10
1.000000
 20
-580.777778
 30
0.0
 10
1.000000
 20
-545.777778
 30
0.0
 10
4.000000
 20
-545.777778
 30
0.0
 10
4.000000
 20
-509.555556
 30
0.0
 10
1.000000
 20
-509.555556
 30
0.0
 10
1.000000
 20
-474.555556
 30
0.0
 10
4.000000
 20
-474.555556
 30
0.0
 10
4.000000
 20
-438.333333
 30
0.0
 10
1.000000
 20
-438.333333
 30
0.0
 10
1.000000
 20
-403.333333
 30
0.0
 10
4.000000
 20
-403.333333
 30
0.0
 10
4.000000
 20
-367.111111
 30
0.0
 10
1.000000
 20
-367.111111
 30
0.0
 10
1.000000
 20
-332.111111
 30
0.0
 10
4.000000
 20
-332.111111
 30
0.0
 10
4.000000
 20
-295.888889
 30
0.0
 10
1.000000
 20
-295.888889
 30
0.0
 10
1.000000
 20
-260.888889
 30
0.0
 10
4.000000
 20
-260.888889
 30
0.0
 10
4.000000
 20
-224.666667
 30
0.0
 10
1.000000
 20
-224.666667
 30
0.0
 10
1.000000
 20
-189.666667
 30
0.0
 10
4.000000
 20
-189.666667
 30
0.0
 10
4.000000
 20
-153.444444
 30
0.0
 10
1.000000
 20
-153.444444
 30
0.0
 10
1.000000
 20
-118.444444
 30
0.0
 10
4.000000
 20
-118.444444
 30
0.0
 10
4.000000
 20
-82.222222
 30
0.0
 10
1.000000
 20
-82.222222
 30
0.0
 10
1.000000
 20
-47.222222
 30
0.0
 10
4.000000
 20
-47.222222
 30
0.0
 10
4.000000
 20
-14.000000
 30
0.0
  0
LWPOLYLINE
  5
156
100
AcDbEntity
  8
newlayer
 62
7
100
AcDbPolyline
 90
5
 70
0
 10
343.142857
 20
-164.750000
 30
0.0
 10
378.142857
 20
-164.750000
 30
0.0
 10
378.142857
 20
-161.750000
 30
0.0
 10
343.142857
 20
-161.750000
 30
0.0
 10
343.142857
 20
-164.750000
 30
0.0
  0
LWPOLYLINE
  5
157
100
AcDbEntity
  8
newlayer
 62
7
100
AcDbPolyline
 90
5
 70
0
 10
343.142857
 20
-315.500000
 30
0.0
 10
378.142857
 20
-315.500000
 30
0.0
 10
378.142857
 20
-312.500000
 30
0.0
 10
343.142857
 20
-312.500000
 30
0.0
 10
343.142857
 20
-315.500000
 30
0.0
  0
LWPOLYLINE
  5
158
100
AcDbEntity
  8
newlayer
 62
7
100
AcDbPolyline
 90
5
 70
0
 10
343.142857
 20
-466.250000
 30
0.0
 10
378.142857
 20
-466.250000
 30
0.0
 10
378.142857
 20
-463.250000
 30
0.0
 10
343.142857
 20
-463.250000
 30
0.0
 10
343.142857
 20
-466.250000
 30
0.0
  0
LWPOLYLINE
  5
159
100
AcDbEntity
  8
newlayer
 62
7
100
AcDbPolyline
 90
5
 70
0
 10
413.285714
 20
-164.750000
 30
0.0
 10
448.285714
 20
-164.750000
 30
0.0
 10
448.285714
 20
-161.750000
 30
0.0
 10
413.285714
 20
-161.750000
 30
0.0
 10
413.285714
 20
-164.750000
 30
0.0
  0
LWPOLYLINE
  5
15a
100
AcDbEntity
  8
newlayer
 62
7
100
AcDbPolyline
 90
5
 70
0
 10
413.285714
 20
-315.500000
 30
0.0
 10
448.285714
 20
-315.500000
 30
0.0
 10
448.285714
 20
-312.500000
 30
0.0
 10
413.285714
 20
-312.500000
 30
0.0
 10
413.285714
 20
-315.500000
 30
0.0
  0
LWPOLYLINE
  5
15b
100
AcDbEntity
  8
newlayer
 62
7
100
AcDbPolyline
 90
5
 70
0
 10
413.285714
 20
-466.250000
 30
0.0
 10
448.285714
 20
-466.250000
 30
0.0
 10
448.285714
 20
-463.250000
 30
0.0
 10
413.285714
 20
-463.250000
 30
0.0
 10
413.285714
 20
-466.250000
 30
0.0
  0
LWPOLYLINE
  5
15c
100
AcDbEntity
  8
newlayer
 62
7
100
AcDbPolyline
 90
5
 70
0
 10
483.428571
 20
-164.750000
 30
0.0
 10
518.428571
 20
-164.750000
 30
0.0
 10
518.428571
 20
-161.750000
 30
0.0
 10
483.428571
 20
-161.750000
 30
0.0
 10
483.428571
 20
-164.750000
 30
0.0
  0
LWPOLYLINE
  5
15d
100
AcDbEntity
  8
newlayer
 62
7
100
AcDbPolyline
 90
5
 70
0
 10
483.428571
 20
-315.500000
 30
0.0
 10
518.428571
 20
-315.500000
 30
0.0
 10
518.428571
 20
-312.500000
 30
0.0
 10
483.428571
 20
-312.500000
 30
0.0
 10
483.428571
 20
-315.500000
 30
0.0
  0
LWPOLYLINE
  5
15e
100
AcDbEntity
  8
newlayer
 62
7
100
AcDbPolyline
 90
5
 70
0
 10
483.428571
 20
-466.250000
 30
0.0
 10
518.428571
 20
-466.250000
 30
0.0
 10
518.428571
 20
-463.250000
 30
0.0
 10
483.428571
 20
-463.250000
 30
0.0
 10
483.428571
 20
-466.250000
 30
0.0
  0
LWPOLYLINE
  5
15f
100
AcDbEntity
  8
newlayer
 62
7
100
AcDbPolyline
 90
5
 70
0
 10
553.571429
 20
-164.750000
 30
0.0
 10
588.571429
 20
-164.750000
 30
0.0
 10
588.571429
 20
-161.750000
 30
0.0
 10
553.571429
 20
-161.750000
 30
0.0
 10
553.571429
 20
-164.750000
 30
0.0
  0
LWPOLYLINE
  5
160
100
AcDbEntity
  8
newlayer
 62
7
100
AcDbPolyline
 90
5
 70
0
 10
553.571429
 20
-315.500000
 30
0.0
 10
588.571429
 20
-315.500000
 30
0.0
 10
588.571429
 20
-312.500000
 30
0.0
 10
553.571429
 20
-312.500000
 30
0.0
 10
553.571429
 20
-315.500000
 30
0.0
  0
LWPOLYLINE
  5
161
100
AcDbEntity
  8
newlayer
 62
7
100
AcDbPolyline
 90
5
 70
0
 10
553.571429
 20
-466.250000
 30
0.0
 10
588.571429
 20
-466.250000
 30
0.0
 10
588.571429
 20
-463.250000
 30
0.0
 10
553.571429
 20
-463.250000
 30
0.0
 10
553.571429
 20
-466.250000
 30
0.0
  0
LWPOLYLINE
  5
162
100
AcDbEntity
  8
newlayer
 62
7
100
AcDbPolyline
 90
5
 70
0
 10
623.714286
 20
-164.750000
 30
0.0
 10
658.714286
 20
-164.750000
 30
0.0
 10
658.714286
 20
-161.750000
 30
0.0
 10
623.714286
 20
-161.750000
 30
0.0
 10
623.714286
 20
-164.750000
 30
0.0
  0
LWPOLYLINE
  5
163
100
AcDbEntity
  8
newlayer
 62
7
100
AcDbPolyline
 90
5
 70
0
 10
623.714286
 20
-315.500000
 30
0.0
 10
658.714286
 20
-315.500000
 30
0.0
 10
658.714286
 20
-312.500000
 30
0.0
 10
623.714286
 20
-312.500000
 30
0.0
 10
623.714286
 20
-315.500000
 30
0.0
  0
LWPOLYLINE
  5
164
100
AcDbEntity
  8
newlayer
 62
7
100
AcDbPolyline
 90
5
 70
0
 10
623.714286
 20
-466.250000
 30
0.0
 10
658.714286
 20
-466.250000
 30
0.0
 10
658.714286
 20
-463.250000
 30
0.0
 10
623.714286
 20
-463.250000
 30
0.0
 10
623.714286
 20
-466.250000
 30
0.0
  0
LWPOLYLINE
  5
165
100
AcDbEntity
  8
newlayer
 62
7
100
AcDbPolyline
 90
5
 70
0
 10
693.857143
 20
-164.750000
 30
0.0
 10
728.857143
 20
-164.750000
 30
0.0
 10
728.857143
 20
-161.750000
 30
0.0
 10
693.857143
 20
-161.750000
 30
0.0
 10
693.857143
 20
-164.750000
 30
0.0
  0
LWPOLYLINE
  5
166
100
AcDbEntity
  8
newlayer
 62
7
100
AcDbPolyline
 90
5
 70
0
 10
693.857143
 20
-315.500000
 30
0.0
 10
728.857143
 20
-315.500000
 30
0.0
 10
728.857143
 20
-312.500000
 30
0.0
 10
693.857143
 20
-312.500000
 30
0.0
 10
693.857143
 20
-315.500000
 30
0.0
  0
LWPOLYLINE
  5
167
100
AcDbEntity
  8
newlayer
 62
7
100
AcDbPolyline
 90
5
 70
0
 10
693.857143
 20
-466.250000
 30
0.0
 10
728.857143
 20
-466.250000
 30
0.0
 10
728.857143
 20
-463.250000
 30
0.0
 10
693.857143
 20
-463.250000
 30
0.0
 10
693.857143
 20
-466.250000
 30
0.0
  0
LWPOLYLINE
  5
168
100
AcDbEntity
  8
newlayer
 62
7
100
AcDbPolyline
 90
117
 70
0
 10
308.000000
 20
-11.000000
 30
0.0
 10
343.142857
 20
-11.000000
 30
0.0
 10
343.142857
 20
-14.000000
 30
0.0
 10
378.142857
 20
-14.000000
 30
0.0
 10
378.142857
 20
-11.000000
 30
0.0
 10
413.285714
 20
-11.000000
 30
0.0
 10
413.285714
 20
-14.000000
 30
0.0
 10
448.285714
 20
-14.000000
 30
0.0
 10
448.285714
 20
-11.000000
 30
0.0
 10
483.428571
 20
-11.000000
 30
0.0
 10
483.428571
 20
-14.000000
 30
0.0
 10
518.428571
 20
-14.000000
 30
0.0
 10
518.428571
 20
-11.000000
 30
0.0
 10
553.571429
 20
-11.000000
 30
0.0
 10
553.571429
 20
-14.000000
 30
0.0
 10
588.571429
 20
-14.000000
 30
0.0
 10
588.571429
 20
-11.000000
 30
0.0
 10
623.714286
 20
-11.000000
 30
0.0
 10
623.714286
 20
-14.000000
 30
0.0
 10
658.714286
 20
-14.000000
 30
0.0
 10
658.714286
 20
-11.000000
 30
0.0
 10
693.857143
 20
-11.000000
 30
0.0
 10
693.857143
 20
-14.000000
 30
0.0
 10
728.857143
 20
-14.000000
 30
0.0
 10
728.857143
 20
-11.000000
 30
0.0
 10
764.000000
 20
-11.000000
 30
0.0
 10
764.000000
 20
-47.222222
 30
0.0
 10
761.000000
 20
-47.222222
 30
0.0
 10
761.000000
 20
-82.222222
 30
0.0
 10
764.000000
 20
-82.222222
 30
0.0
 10
764.000000
 20
-118.444444
 30
0.0
 10
761.000000
 20
-118.444444
 30
0.0
 10
761.000000
 20
-153.444444
 30
0.0
 10
764.000000
 20
-153.444444
 30
0.0
 10
764.000000
 20
-189.666667
 30
0.0
 10
761.000000
 20
-189.666667
 30
0.0
 10
761.000000
 20
-224.666667
 30
0.0
 10
764.000000
 20
-224.666667
 30
0.0
 10
764.000000
 20
-260.888889
 30
0.0
 10
761.000000
 20
-260.888889
 30
0.0
 10
761.000000
 20
-295.888889
 30
0.0
 10
764.000000
 20
-295.888889
 30
0.0
 10
764.000000
 20
-332.111111
 30
0.0
 10
761.000000
 20
-332.111111
 30
0.0
 10
761.000000
 20
-367.111111
 30
0.0
 10
764.000000
 20
-367.111111
 30
0.0
 10
764.000000
 20
-403.333333
 30
0.0
 10
761.000000
 20
-403.333333
 30
0.0
 10
761.000000
 20
-438.333333
 30
0.0
 10
764.000000
 20
-438.333333
 30
0.0
 10
764.000000
 20
-474.555556
 30
0.0
 10
761.000000
 20
-474.555556
 30
0.0
 10
761.000000
 20
-509.555556
 30
0.0
 10
764.000000
 20
-509.555556
 30
0.0
 10
764.000000
 20
-545.777778
 30
0.0
 10
761.000000
 20
-545.777778
 30
0.0
 10
761.000000
 20
-580.777778
 30
0.0
 10
764.000000
 20
-580.777778
 30
0.0
 10
764.000000
 20
-617.000000
 30
0.0
 10
728.857143
 20
-617.000000
 30
0.0
 10
728.857143
 20
-614.000000
 30
0.0
 10
693.857143
 20
-614.000000
 30
0.0
 10
693.857143
 20
-617.000000
 30
0.0
 10
658.714286
 20
-617.000000
 30
0.0
 10
658.714286
 20
-614.000000
 30
0.0
 10
623.714286
 20
-614.000000
 30
0.0
 10
623.714286
 20
-617.000000
 30
0.0
 10
588.571429
 20
-617.000000
 30
0.0
 10
588.571429
 20
-614.000000
 30
0.0
 10
553.571429
 20
-614.000000
 30
0.0
 10
553.571429
 20
-617.000000
 30
0.0
 10
518.428571
 20
-617.000000
 30
0.0
 10
518.428571
 20
-614.000000
 30
0.0
 10
483.428571
 20
-614.000000
 30
0.0
 10
483.428571
 20
-617.000000
 30
0.0
 10
448.285714
 20
-617.000000
 30
0.0
 10
448.285714
 20
-614.000000
 30
0.0
 10
413.285714
 20
-614.000000
 30
0.0
 10
413.285714
 20
-617.000000
 30
0.0
 10
378.142857
 20
-617.000000
 30
0.0
 10
378.142857
 20
-614.000000
 30
0.0
 10
343.142857
 20
-614.000000
 30
0.0
 10
343.142857
 20
-617.000000
 30
0.0
 10
308.000000
 20
-617.000000
 30
0.0
 10
308.000000
 20
-580.777778
 30
0.0
 10
311.000000
 20
-580.777778
 30
0.0
 10
311.000000
 20
-545.777778
 30
0.0
 10
308.000000
 20
-545.777778
 30
0.0
 10
308.000000
 20
-509.555556
 30
0.0
 10
311.000000
 20
-509.555556
 30
0.0
 10
311.000000
 20
-474.555556
 30
0.0
 10
308.000000
 20
-474.555556
 30
0.0
 10
308.000000
 20
-438.333333
 30
0.0
 10
311.000000
 20
-438.333333
 30
0.0
 10
311.000000
 20
-403.333333
 30
0.0
 10
308.000000
 20
-403.333333
 30
0.0
 10
308.000000
 20
-367.111111
 30
0.0
 10
311.000000
 20
-367.111111
 30
0.0
 10
311.000000
 20
-332.111111
 30
0.0
 10
308.000000
 20
-332.111111
 30
0.0
 10
308.000000
 20
-295.888889
 30
0.0
 10
311.000000
 20
-295.888889
 30
0.0
 10
311.000000
 20
-260.888889
 30
0.0
 10
308.000000
 20
-260.888889
 30
0.0
 10
308.000000
 20
-224.666667
 30
0.0
 10
311.000000
 20
-224.666667
 30
0.0
 10
311.000000
 20
-189.666667
 30
0.0
 10
308.000000
 20
-189.666667
 30
0.0
 10
308.000000
 20
-153.444444
 30
0.0
 10
311.000000
 20
-153.444444
 30
0.0
 10
311.000000
 20
-118.444444
 30
0.0
 10
308.000000
 20
-118.444444
 30
0.0
 10
308.000000
 20
-82.222222
 30
0.0
 10
311.000000
 20
-82.222222
 30
0.0
 10
311.000000
 20
-47.222222
 30
0.0
 10
308.000000
 20
-47.222222
 30
0.0
 10
308.000000
 20
-11.000000
 30
0.0
  0
LWPOLYLINE
  5
169
100
AcDbEntity
  8
newlayer
 62
7
100
AcDbPolyline
 90
5
 70
0
 10
768.000000
 20
-164.750000
 30
0.0
 10
815.250000
 20
-164.750000
 30
0.0
 10
815.250000
 20
-161.750000
 30
0.0
 10
768.000000
 20
-161.750000
 30
0.0
 10
768.000000
 20
-164.750000
 30
0.0
  0
LWPOLYLINE
  5
16a
100
AcDbEntity
  8
newlayer
 62
7
100
AcDbPolyline
 90
5
 70
0
 10
768.000000
 20
-315.500000
 30
0.0
 10
815.250000
 20
-315.500000
 30
0.0
 10
815.250000
 20
-312.500000
 30
0.0
 10
768.000000
 20
-312.500000
 30
0.0
 10
768.000000
 20
-315.500000
 30
0.0
  0
LWPOLYLINE
  5
16b
100
AcDbEntity
  8
newlayer
 62
7
100
AcDbPolyline
 90
5
 70
0
 10
768.000000
 20
-466.250000
 30
0.0
 10
815.250000
 20
-466.250000
 30
0.0
 10
815.250000
 20
-463.250000
 30
0.0
 10
768.000000
 20
-463.250000
 30
0.0
 10
768.000000
 20
-466.250000
 30
0.0
  0
LWPOLYLINE
  5
16c
100
AcDbEntity
  8
newlayer
 62
7
100
AcDbPolyline
 90
5
 70
0
 10
850.250000
 20
-164.750000
 30
0.0
 10
900.500000
 20
-164.750000
 30
0.0
 10
900.500000
 20
-161.750000
 30
0.0
 10
850.250000
 20
-161.750000
 30
0.0
 10
850.250000
 20
-164.750000
 30
0.0
  0
LWPOLYLINE
  5
16d
100
AcDbEntity
  8
newlayer
 62
7
100
AcDbPolyline
 90
5
 70
0
 10
850.250000
 20
-315.500000
 30
0.0
 10
900.500000
 20
-315.500000
 30
0.0
 10
900.500000
 20
-312.500000
 30
0.0
 10
850.250000
 20
-312.500000
 30
0.0
 10
850.250000
 20
-315.500000
 30
0.0
  0
LWPOLYLINE
  5
16e
100
AcDbEntity
  8
newlayer
 62
7
100
AcDbPolyline
 90
5
 70
0
 10
850.250000
 20
-466.250000
 30
0.0
 10
900.500000
 20
-466.250000
 30
0.0
 10
900.500000
 20
-463.250000
 30
0.0
 10
850.250000
 20
-463.250000
 30
0.0
 10
850.250000
 20
-466.250000
 30
0.0
  0
LWPOLYLINE
  5
16f
100
AcDbEntity
  8
newlayer
 62
7
100
AcDbPolyline
 90
5
 70
0
 10
935.500000
 20
-164.750000
 30
0.0
 10
985.750000
 20
-164.750000
 30
0.0
 10
985.750000
 20
-161.750000
 30
0.0
 10
935.500000
 20
-161.750000
 30
0.0
 10
935.500000
 20
-164.750000
 30
0.0
  0
LWPOLYLINE
  5
170
100
AcDbEntity
  8
newlayer
 62
7
100
AcDbPolyline
 90
5
 70
0
 10
935.500000
 20
-315.500000
 30
0.0
 10
985.750000
 20
-315.500000
 30
0.0
 10
985.750000
 20
-312.500000
 30
0.0
 10
935.500000
 20
-312.500000
 30
0.0
 10
935.500000
 20
-315.500000
 30
0.0
  0
LWPOLYLINE
  5
171
100
AcDbEntity
  8
newlayer
 62
7
100
AcDbPolyline
 90
5
 70
0
 10
935.500000
 20
-466.250000
 30
0.0
 10
985.750000
 20
-466.250000
 30
0.0
 10
985.750000
 20
-463.250000
 30
0.0
 10
935.500000
 20
-463.250000
 30
0.0
 10
935.500000
 20
-466.250000
 30
0.0
  0
LWPOLYLINE
  5
172
100
AcDbEntity
  8
newlayer
 62
7
100
AcDbPolyline
 90
5
 70
0
 10
1020.750000
 20
-164.750000
 30
0.0
 10
1068.000000
 20
-164.750000
 30
0.0
 10
1068.000000
 20
-161.750000
 30
0.0
 10
1020.750000
 20
-161.750000
 30
0.0
 10
1020.750000
 20
-164.750000
 30
0.0
  0
LWPOLYLINE
  5
173
100
AcDbEntity
  8
newlayer
 62
7
100
AcDbPolyline
 90
5
 70
0
 10
1020.750000
 20
-315.500000
 30
0.0
 10
1068.000000
 20
-315.500000
 30
0.0
 10
1068.000000
 20
-312.500000
 30
0.0
 10
1020.750000
 20
-312.500000
 30
0.0
 10
1020.750000
 20
-315.500000
 30
0.0
  0
LWPOLYLINE
  5
174
100
AcDbEntity
  8
newlayer
 62
7
100
AcDbPolyline
 90
5
 70
0
 10
1020.750000
 20
-466.250000
 30
0.0
 10
1068.000000
 20
-466.250000
 30
0.0
 10
1068.000000
 20
-463.250000
 30
0.0
 10
1020.750000
 20
-463.250000
 30
0.0
 10
1020.750000
 20
-466.250000
 30
0.0
  0
LWPOLYLINE
  5
175
100
AcDbEntity
  8
newlayer
 62
7
100
AcDbPolyline
 90
93
 70
0
 10
768.000000
 20
-14.000000
 30
0.0
 10
815.250000
 20
-14.000000
 30
0.0
 10
815.250000
 20
-11.000000
 30
0.0
 10
850.250000
 20
-11.000000
 30
0.0
 10
850.250000
 20
-14.000000
 30
0.0
 10
900.500000
 20
-14.000000
 30
0.0
 10
900.500000
 20
-11.000000
 30
0.0
 10
935.500000
 20
-11.000000
 30
0.0
 10
935.500000
 20
-14.000000
 30
0.0
 10
985.750000
 20
-14.000000
 30
0.0
 10
985.750000
 20
-11.000000
 30
0.0
 10
1020.750000
 20
-11.000000
 30
0.0
 10
1020.750000
 20
-14.000000
 30
0.0
 10
1068.000000
 20
-14.000000
 30
0.0
 10
1068.000000
 20
-47.222222
 30
0.0
 10
1071.000000
 20
-47.222222
 30
0.0
 10
1071.000000
 20
-82.222222
 30
0.0
 10
1068.000000
 20
-82.222222
 30
0.0
 10
1068.000000
 20
-118.444444
 30
0.0
 10
1071.000000
 20
-118.444444
 30
0.0
 10
1071.000000
 20
-153.444444
 30
0.0
 10
1068.000000
 20
-153.444444
 30
0.0
 10
1068.000000
 20
-189.666667
 30
0.0
 10
1071.000000
 20
-189.666667
 30
0.0
 10
1071.000000
 20
-224.666667
 30
0.0
 10
1068.000000
 20
-224.666667
 30
0.0
 10
1068.000000
 20
-260.888889
 30
0.0
 10
1071.000000
 20
-260.888889
 30
0.0
 10
1071.000000
 20
-295.888889
 30
0.0
 10
1068.000000
 20
-295.888889
 30
0.0
 10
1068.000000
 20
-332.111111
 30
0.0
 10
1071.000000
 20
-332.111111
 30
0.0
 10
1071.000000
 20
-367.111111
 30
0.0
 10
1068.000000
 20
-367.111111
 30
0.0
 10
1068.000000
 20
-403.333333
 30
0.0
 10
1071.000000
 20
-403.333333
 30
0.0
 10
1071.000000
 20
-438.333333
 30
0.0
 10
1068.000000
 20
-438.333333
 30
0.0
 10
1068.000000
 20
-474.555556
 30
0.0
 10
1071.000000
 20
-474.555556
 30
0.0
 10
1071.000000
 20
-509.555556
 30
0.0
 10
1068.000000
 20
-509.555556
 30
0.0
 10
1068.000000
 20
-545.777778
 30
0.0
 10
1071.000000
 20
-545.777778
 30
0.0
 10
1071.000000
 20
-580.777778
 30
0.0
 10
1068.000000
 20
-580.777778
 30
0.0
 10
1068.000000
 20
-614.000000
 30
0.0
 10
1020.750000
 20
-614.000000
 30
0.0
 10
1020.750000
 20
-617.000000
 30
0.0
 10
985.750000
 20
-617.000000
 30
0.0
 10
985.750000
 20
-614.000000
 30
0.0
 10
935.500000
 20
-614.000000
 30
0.0
 10
935.500000
 20
-617.000000
 30
0.0
 10
900.500000
 20
-617.000000
 30
0.0
 10
900.500000
 20
-614.000000
 30
0.0
 10
850.250000
 20
-614.000000
 30
0.0
 10
850.250000
 20
-617.000000
 30
0.0
 10
815.250000
 20
-617.000000
 30
0.0
 10
815.250000
 20
-614.000000
 30
0.0
 10
768.000000
 20
-614.000000
 30
0.0
 10
768.000000
 20
-580.777778
 30
0.0
 10
765.000000
 20
-580.777778
 30
0.0
 10
765.000000
 20
-545.777778
 30
0.0
 10
768.000000
 20
-545.777778
 30
0.0
 10
768.000000
 20
-509.555556
 30
0.0
 10
765.000000
 20
-509.555556
 30
0.0
 10
765.000000
 20
-474.555556
 30
0.0
 10
768.000000
 20
-474.555556
 30
0.0
 10
768.000000
 20
-438.333333
 30
0.0
 10
765.000000
 20
-438.333333
 30
0.0
 10
765.000000
 20
-403.333333
 30
0.0
 10
768.000000
 20
-403.333333
 30
0.0
 10
768.000000
 20
-367.111111
 30
0.0
 10
765.000000
 20
-367.111111
 30
0.0
 10
765.000000
 20
-332.111111
 30
0.0
 10
768.000000
 20
-332.111111
 30
0.0
 10
768.000000
 20
-295.888889
 30
0.0
 10
765.000000
 20
-295.888889
 30
0.0
 10
765.000000
 20
-260.888889
 30
0.0
 10
768.000000
 20
-260.888889
 30
0.0
 10
768.000000
 20
-224.666667
 30
0.0
 10
765.000000
 20
-224.666667
 30
0.0
 10
765.000000
 20
-189.666667
 30
0.0
 10
768.000000
 20
-189.666667
 30
0.0
 10
768.000000
 20
-153.444444
 30
0.0
 10
765.000000
 20
-153.444444
 30
0.0
 10
765.000000
 20
-118.444444
 30
0.0
 10
768.000000
 20
-118.444444
 30
0.0
 10
768.000000
 20
-82.222222
 30
0.0
 10
765.000000
 20
-82.222222
 30
0.0
 10
765.000000
 20
-47.222222
 30
0.0
 10
768.000000
 20
-47.222222
 30
0.0
 10
768.000000
 20
-14.000000
 30
0.0
  0
LWPOLYLINE
  5
176
100
AcDbEntity
  8
newlayer
 62
7
100
AcDbPolyline
 90
5
 70
0
 10
1107.142857
 20
-164.750000
 30
0.0
 10
1142.142857
 20
-164.750000
 30
0.0
 10
1142.142857
 20
-161.750000
 30
0.0
 10
1107.142857
 20
-161.750000
 30
0.0
 10
1107.142857
 20
-164.750000
 30
0.0
  0
LWPOLYLINE
  5
177
100
AcDbEntity
  8
newlayer
 62
7
100
AcDbPolyline
 90
5
 70
0
 10
1107.142857
 20
-315.500000
 30
0.0
 10
1142.142857
 20
-315.500000
 30
0.0
 10
1142.142857
 20
-312.500000
 30
0.0
 10
1107.142857
 20
-312.500000
 30
0.0
 10
1107.142857
 20
-315.500000
 30
0.0
  0
LWPOLYLINE
  5
178
100
AcDbEntity
  8
newlayer
 62
7
100
AcDbPolyline
 90
5
 70
0
 10
1107.142857
 20
-466.250000
 30
0.0
 10
1142.142857
 20
-466.250000
 30
0.0
 10
1142.142857
 20
-463.250000
 30
0.0
 10
1107.142857
 20
-463.250000
 30
0.0
 10
1107.142857
 20
-466.250000
 30
0.0
  0
LWPOLYLINE
  5
179
100
AcDbEntity
  8
newlayer
 62
7
100
AcDbPolyline
 90
5
 70
0
 10
1177.285714
 20
-164.750000
 30
0.0
 10
1212.285714
 20
-164.750000
 30
0.0
 10
1212.285714
 20
-161.750000
 30
0.0
 10
1177.285714
 20
-161.750000
 30
0.0
 10
1177.285714
 20
-164.750000
 30
0.0
  0
LWPOLYLINE
  5
17a
100
AcDbEntity
  8
newlayer
 62
7
100
AcDbPolyline
 90
5
 70
0
 10
1177.285714
 20
-315.500000
 30
0.0
 10
1212.285714
 20
-315.500000
 30
0.0
 10
1212.285714
 20
-312.500000
 30
0.0
 10
1177.285714
 20
-312.500000
 30
0.0
 10
1177.285714
 20
-315.500000
 30
0.0
  0
LWPOLYLINE
  5
17b
100
AcDbEntity
  8
newlayer
 62
7
100
AcDbPolyline
 90
5
 70
0
 10
1177.285714
 20
-466.250000
 30
0.0
 10
1212.285714
 20
-466.250000
 30
0.0
 10
1212.285714
 20
-463.250000
 30
0.0
 10
1177.285714
 20
-463.250000
 30
0.0
 10
1177.285714
 20
-466.250000
 30
0.0
  0
LWPOLYLINE
  5
17c
100
AcDbEntity
  8
newlayer
 62
7
100
AcDbPolyline
 90
5
 70
0
 10
1247.428571
 20
-164.750000
 30
0.0
 10
1282.428571
 20
-164.750000
 30
0.0
 10
1282.428571
 20
-161.750000
 30
0.0
 10
1247.428571
 20
-161.750000
 30
0.0
 10
1247.428571
 20
-164.750000
 30
0.0
  0
LWPOLYLINE
  5
17d
100
AcDbEntity
  8
newlayer
 62
7
100
AcDbPolyline
 90
5
 70
0
 10
1247.428571
 20
-315.500000
 30
0.0
 10
1282.428571
 20
-315.500000
 30
0.0
 10
1282.428571
 20
-312.500000
 30
0.0
 10
1247.428571
 20
-312.500000
 30
0.0
 10
1247.428571
 20
-315.500000
 30
0.0
  0
LWPOLYLINE
  5
17e
100
AcDbEntity
  8
newlayer
 62
7
100
AcDbPolyline
 90
5
 70
0
 10
1247.428571
 20
-466.250000
 30
0.0
 10
1282.428571
 20
-466.250000
 30
0.0
 10
1282.428571
 20
-463.250000
 30
0.0
 10
1247.428571
 20
-463.250000
 30
0.0
 10
1247.428571
 20
-466.250000
 30
0.0
  0
LWPOLYLINE
  5
17f
100
AcDbEntity
  8
newlayer
 62
7
100
AcDbPolyline
 90
5
 70
0
 10
1317.571429
 20
-164.750000
 30
0.0
 10
1352.571429
 20
-164.750000
 30
0.0
 10
1352.571429
 20
-161.750000
 30
0.0
 10
1317.571429
 20
-161.750000
 30
0.0
 10
1317.571429
 20
-164.750000
 30
0.0
  0
LWPOLYLINE
  5
180
100
AcDbEntity
  8
newlayer
 62
7
100
AcDbPolyline
 90
5
 70
0
 10
1317.571429
 20
-315.500000
 30
0.0
 10
1352.571429
 20
-315.500000
 30
0.0
 10
1352.571429
 20
-312.500000
 30
0.0
 10
1317.571429
 20
-312.500000
 30
0.0
 10
1317.571429
 20
-315.500000
 30
0.0
  0
LWPOLYLINE
  5
181
100
AcDbEntity
  8
newlayer
 62
7
100
AcDbPolyline
 90
5
 70
0
 10
1317.571429
 20
-466.250000
 30
0.0
 10
1352.571429
 20
-466.250000
 30
0.0
 10
1352.571429
 20
-463.250000
 30
0.0
 10
1317.571429
 20
-463.250000
 30
0.0
 10
1317.571429
 20
-466.250000
 30
0.0
  0
LWPOLYLINE
  5
182
100
AcDbEntity
  8
newlayer
 62
7
100
AcDbPolyline
 90
5
 70
0
 10
1387.714286
 20
-164.750000
 30
0.0
 10
1422.714286
 20
-164.750000
 30
0.0
 10
1422.714286
 20
-161.750000
 30
0.0
 10
1387.714286
 20
-161.750000
 30
0.0
 10
1387.714286
 20
-164.750000
 30
0.0
  0
LWPOLYLINE
  5
183
100
AcDbEntity
  8
newlayer
 62
7
100
AcDbPolyline
 90
5
 70
0
 10
1387.714286
 20
-315.500000
 30
0.0
 10
1422.714286
 20
-315.500000
 30
0.0
 10
1422.714286
 20
-312.500000
 30
0.0
 10
1387.714286
 20
-312.500000
 30
0.0
 10
1387.714286
 20
-315.500000
 30
0.0
  0
LWPOLYLINE
  5
184
100
AcDbEntity
  8
newlayer
 62
7
100
AcDbPolyline
 90
5
 70
0
 10
1387.714286
 20
-466.250000
 30
0.0
 10
1422.714286
 20
-466.250000
 30
0.0
 10
1422.714286
 20
-463.250000
 30
0.0
 10
1387.714286
 20
-463.250000
 30
0.0
 10
1387.714286
 20
-466.250000
 30
0.0
  0
LWPOLYLINE
  5
185
100
AcDbEntity
  8
newlayer
 62
7
100
AcDbPolyline
 90
5
 70
0
 10
1457.857143
 20
-164.750000
 30
0.0
 10
1492.857143
 20
-164.750000
 30
0.0
 10
1492.857143
 20
-161.750000
 30
0.0
 10
1457.857143
 20
-161.750000
 30
0.0
 10
1457.857143
 20
-164.750000
 30
0.0
  0
LWPOLYLINE
  5
186
100
AcDbEntity
  8
newlayer
 62
7
100
AcDbPolyline
 90
5
 70
0
 10
1457.857143
 20
-315.500000
 30
0.0
 10
1492.857143
 20
-315.500000
 30
0.0
 10
1492.857143
 20
-312.500000
 30
0.0
 10
1457.857143
 20
-312.500000
 30
0.0
 10
1457.857143
 20
-315.500000
 30
0.0
  0
LWPOLYLINE
  5
187
100
AcDbEntity
  8
newlayer
 62
7
100
AcDbPolyline
 90
5
 70
0
 10
1457.857143
 20
-466.250000
 30
0.0
 10
1492.857143
 20
-466.250000
 30
0.0
 10
1492.857143
 20
-463.250000
 30
0.0
 10
1457.857143
 20
-463.250000
 30
0.0
 10
1457.857143
 20
-466.250000
 30
0.0
  0
LWPOLYLINE
  5
188
100
AcDbEntity
  8
newlayer
 62
7
100
AcDbPolyline
 90
117
 70
0
 10
1072.000000
 20
-11.000000
 30
0.0
 10
1107.142857
 20
-11.000000
 30
0.0
 10
1107.142857
 20
-14.000000
 30
0.0
 10
1142.142857
 20
-14.000000
 30
0.0
 10
1142.142857
 20
-11.000000
 30
0.0
 10
1177.285714
 20
-11.000000
 30
0.0
 10
1177.285714
 20
-14.000000
 30
0.0
 10
1212.285714
 20
-14.000000
 30
0.0
 10
1212.285714
 20
-11.000000
 30
0.0
 10
1247.428571
 20
-11.000000
 30
0.0
 10
1247.428571
 20
-14.000000
 30
0.0
 10
1282.428571
 20
-14.000000
 30
0.0
 10
1282.428571
 20
-11.000000
 30
0.0
 10
1317.571429
 20
-11.000000
 30
0.0
 10
1317.571429
 20
-14.000000
 30
0.0
 10
1352.571429
 20
-14.000000
 30
0.0
 10
1352.571429
 20
-11.000000
 30
0.0
 10
1387.714286
 20
-11.000000
 30
0.0
 10
1387.714286
 20
-14.000000
 30
0.0
 10
1422.714286
 20
-14.000000
 30
0.0
 10
1422.714286
 20
-11.000000
 30
0.0
 10
1457.857143
 20
-11.000000
 30
0.0
 10
1457.857143
 20
-14.000000
 30
0.0
 10
1492.857143
 20
-14.000000
 30
0.0
 10
1492.857143
 20
-11.000000
 30
0.0
 10
1528.000000
 20
-11.000000
 30
0.0
 10
1528.000000
 20
-47.222222
 30
0.0
 10
1525.000000
 20
-47.222222
 30
0.0
 10
1525.000000
 20
-82.222222
 30
0.0
 10
1528.000000
 20
-82.222222
 30
0.0
 10
1528.000000
 20
-118.444444
 30
0.0
 10
1525.000000
 20
-118.444444
 30
0.0
 10
1525.000000
 20
-153.444444
 30
0.0
 10
1528.000000
 20
-153.444444
 30
0.0
 10
1528.000000
 20
-189.666667
 30
0.0
 10
1525.000000
 20
-189.666667
 30
0.0
 10
1525.000000
 20
-224.666667
 30
0.0
 10
1528.000000
 20
-224.666667
 30
0.0
 10
1528.000000
 20
-260.888889
 30
0.0
 10
1525.000000
 20
-260.888889
 30
0.0
 10
1525.000000
 20
-295.888889
 30
0.0
 10
1528.000000
 20
-295.888889
 30
0.0
 10
1528.000000
 20
-332.111111
 30
0.0
 10
1525.000000
 20
-332.111111
 30
0.0
 10
1525.000000
 20
-367.111111
 30
0.0
 10
1528.000000
 20
-367.111111
 30
0.0
 10
1528.000000
 20
-403.333333
 30
0.0
 10
1525.000000
 20
-403.333333
 30
0.0
 10
1525.000000
 20
-438.333333
 30
0.0
 10
1528.000000
 20
-438.333333
 30
0.0
 10
1528.000000
 20
-474.555556
 30
0.0
 10
1525.000000
 20
-474.555556
 30
0.0
 10
1525.000000
 20
-509.555556
 30
0.0
 10
1528.000000
 20
-509.555556
 30
0.0
 10
1528.000000
 20
-545.777778
 30
0.0
 10
1525.000000
 20
-545.777778
 30
0.0
 10
1525.000000
 20
-580.777778
 30
0.0
 10
1528.000000
 20
-580.777778
 30
0.0
 10
1528.000000
 20
-617.000000
 30
0.0
 10
1492.857143
 20
-617.000000
 30
0.0
 10
1492.857143
 20
-614.000000
 30
0.0
 10
1457.857143
 20
-614.000000
 30
0.0
 10
1457.857143
 20
-617.000000
 30
0.0
 10
1422.714286
 20
-617.000000
 30
0.0
 10
1422.714286
 20
-614.000000
 30
0.0
 10
1387.714286
 20
-614.000000
 30
0.0
 10
1387.714286
 20
-617.000000
 30
0.0
 10
1352.571429
 20
-617.000000
 30
0.0
 10
1352.571429
 20
-614.000000
 30
0.0
 10
1317.571429
 20
-614.000000
 30
0.0
 10
1317.571429
 20
-617.000000
 30
0.0
 10
1282.428571
 20
-617.000000
 30
0.0
 10
1282.428571
 20
-614.000000
 30
0.0
 10
1247.428571
 20
-614.000000
 30
0.0
 10
1247.428571
 20
-617.000000
 30
0.0
 10
1212.285714
 20
-617.000000
 30
0.0
 10
1212.285714
 20
-614.000000
 30
0.0
 10
1177.285714
 20
-614.000000
 30
0.0
 10
1177.285714
 20
-617.000000
 30
0.0
 10
1142.142857
 20
-617.000000
 30
0.0
 10
1142.142857
 20
-614.000000
 30
0.0
 10
1107.142857
 20
-614.000000
 30
0.0
 10
1107.142857
 20
-617.000000
 30
0.0
 10
1072.000000
 20
-617.000000
 30
0.0
 10
1072.000000
 20
-580.777778
 30
0.0
 10
1075.000000
 20
-580.777778
 30
0.0
 10
1075.000000
 20
-545.777778
 30
0.0
 10
1072.000000
 20
-545.777778
 30
0.0
 10
1072.000000
 20
-509.555556
 30
0.0
 10
1075.000000
 20
-509.555556
 30
0.0
 10
1075.000000
 20
-474.555556
 30
0.0
 10
1072.000000
 20
-474.555556
 30
0.0
 10
1072.000000
 20
-438.333333
 30
0.0
 10
1075.000000
 20
-438.333333
 30
0.0
 10
1075.000000
 20
-403.333333
 30
0.0
 10
1072.000000
 20
-403.333333
 30
0.0
 10
1072.000000
 20
-367.111111
 30
0.0
 10
1075.000000
 20
-367.111111
 30
0.0
 10
1075.000000
 20
-332.111111
 30
0.0
 10
1072.000000
 20
-332.111111
 30
0.0
 10
1072.000000
 20
-295.888889
 30
0.0
 10
1075.000000
 20
-295.888889
 30
0.0
 10
1075.000000
 20
-260.888889
 30
0.0
 10
1072.000000
 20
-260.888889
 30
0.0
 10
1072.000000
 20
-224.666667
 30
0.0
 10
1075.000000
 20
-224.666667
 30
0.0
 10
1075.000000
 20
-189.666667
 30
0.0
 10
1072.000000
 20
-189.666667
 30
0.0
 10
1072.000000
 20
-153.444444
 30
0.0
 10
1075.000000
 20
-153.444444
 30
0.0
 10
1075.000000
 20
-118.444444
 30
0.0
 10
1072.000000
 20
-118.444444
 30
0.0
 10
1072.000000
 20
-82.222222
 30
0.0
 10
1075.000000
 20
-82.222222
 30
0.0
 10
1075.000000
 20
-47.222222
 30
0.0
 10
1072.000000
 20
-47.222222
 30
0.0
 10
1072.000000
 20
-11.000000
 30
0.0
  0
LWPOLYLINE
  5
189
100
AcDbEntity
  8
newlayer
 62
7
100
AcDbPolyline
 90
77
 70
0
 10
308.000000
 20
293.000000
 30
0.0
 10
343.142857
 20
293.000000
 30
0.0
 10
343.142857
 20
296.000000
 30
0.0
 10
378.142857
 20
296.000000
 30
0.0
 10
378.142857
 20
293.000000
 30
0.0
 10
413.285714
 20
293.000000
 30
0.0
 10
413.285714
 20
296.000000
 30
0.0
 10
448.285714
 20
296.000000
 30
0.0
 10
448.285714
 20
293.000000
 30
0.0
 10
483.428571
 20
293.000000
 30
0.0
 10
483.428571
 20
296.000000
 30
0.0
 10
518.428571
 20
296.000000
 30
0.0
 10
518.428571
 20
293.000000
 30
0.0
 10
553.571429
 20
293.000000
 30
0.0
 10
553.571429
 20
296.000000
 30
0.0
 10
588.571429
 20
296.000000
 30
0.0
 10
588.571429
 20
293.000000
 30
0.0
 10
623.714286
 20
293.000000
 30
0.0
 10
623.714286
 20
296.000000
 30
0.0
 10
658.714286
 20
296.000000
 30
0.0
 10
658.714286
 20
293.000000
 30
0.0
 10
693.857143
 20
293.000000
 30
0.0
 10
693.857143
 20
296.000000
 30
0.0
 10
728.857143
 20
296.000000
 30
0.0
 10
728.857143
 20
293.000000
 30
0.0
 10
764.000000
 20
293.000000
 30
0.0
 10
764.000000
 20
245.750000
 30
0.0
 10
761.000000
 20
245.750000
 30
0.0
 10
761.000000
 20
210.750000
 30
0.0
 10
764.000000
 20
210.750000
 30
0.0
 10
764.000000
 20
160.500000
 30
0.0
 10
761.000000
 20
160.500000
 30
0.0
 10
761.000000
 20
125.500000
 30
0.0
 10
764.000000
 20
125.500000
 30
0.0
 10
764.000000
 20
75.250000
 30
0.0
 10
761.000000
 20
75.250000
 30
0.0
 10
761.000000
 20
40.250000
 30
0.0
 10
764.000000
 20
40.250000
 30
0.0
 10
764.000000
 20
-7.000000
 30
0.0
 10
728.857143
 20
-7.000000
 30
0.0
 10
728.857143
 20
-10.000000
 30
0.0
 10
693.857143
 20
-10.000000
 30
0.0
 10
693.857143
 20
-7.000000
 30
0.0
 10
658.714286
 20
-7.000000
 30
0.0
 10
658.714286
 20
-10.000000
 30
0.0
 10
623.714286
 20
-10.000000
 30
0.0
 10
623.714286
 20
-7.000000
 30
0.0
 10
588.571429
 20
-7.000000
 30
0.0
 10
588.571429
 20
-10.000000
 30
0.0
 10
553.571429
 20
-10.000000
 30
0.0
 10
553.571429
 20
-7.000000
 30
0.0
 10
518.428571
 20
-7.000000
 30
0.0
 10
518.428571
 20
-10.000000
 30
0.0
 10
483.428571
 20
-10.000000
 30
0.0
 10
483.428571
 20
-7.000000
 30
0.0
 10
448.285714
 20
-7.000000
 30
0.0
 10
448.285714
 20
-10.000000
 30
0.0
 10
413.285714
 20
-10.000000
 30
0.0
 10
413.285714
 20
-7.000000
 30
0.0
 10
378.142857
 20
-7.000000
 30
0.0
 10
378.142857
 20
-10.000000
 30
0.0
 10
343.142857
 20
-10.000000
 30
0.0
 10
343.142857
 20
-7.000000
 30
0.0
 10
308.000000
 20
-7.000000
 30
0.0
 10
308.000000
 20
40.250000
 30
0.0
 10
311.000000
 20
40.250000
 30
0.0
 10
311.000000
 20
75.250000
 30
0.0
 10
308.000000
 20
75.250000
 30
0.0
 10
308.000000
 20
125.500000
 30
0.0
 10
311.000000
 20
125.500000
 30
0.0
 10
311.000000
 20
160.500000
 30
0.0
 10
308.000000
 20
160.500000
 30
0.0
 10
308.000000
 20
210.750000
 30
0.0
 10
311.000000
 20
210.750000
 30
0.0
 10
311.000000
 20
245.750000
 30
0.0
 10
308.000000
 20
245.750000
 30
0.0
 10
308.000000
 20
293.000000
 30
0.0
  0
ENDSEC
  0
SECTION
  2
OBJECTS
  0
DICTIONARY
  5
C
330
0
100
AcDbDictionary
  3
ACAD_GROUP
350
D
  3
ACAD_MLINESTYLE
350
17
  0
DICTIONARY
  5
D
330
C
100
AcDbDictionary
  0
DICTIONARY
  5
1A
330
C
100
AcDbDictionary
  0
DICTIONARY
  5
17
330
C
100
AcDbDictionary
  3
STANDARD
350
18
  0
DICTIONARY
  5
19
330
C
100
AcDbDictionary
  0
ENDSEC
  0
EOF
