  0
SECTION
  2
HEADER
  9
$ACADVER
  1
AC1014
  9
$HANDSEED
  5
FFFF
  9
$MEASUREMENT
 70
     1
  0
ENDSEC
  0
SECTION
  2
TABLES
  0
TABLE
  2
VPORT
  5
8
330
0
100
AcDbSymbolTable
 70
     4
  0
VPORT
  5
2E
330
8
100
AcDbSymbolTableRecord
100
AcDbViewportTableRecord
  2
*ACTIVE
 70
     0
 10
0.0
 20
0.0
 11
1.0
 21
1.0
 12
210.0
 22
148.5
 13
0.0
 23
0.0
 14
10.0
 24
10.0
 15
10.0
 25
10.0
 16
0.0
 26
0.0
 36
1.0
 17
0.0
 27
0.0
 37
0.0
 40
341.0
 41
1.24
 42
50.0
 43
0.0
 44
0.0
 50
0.0
 51
0.0
 71
     0
 72
   100
 73
     1
 74
     3
 75
     0
 76
     0
 77
     0
 78
     0
  0
ENDTAB
  0
TABLE
  2
LTYPE
  5
5
330
0
100
AcDbSymbolTable
 70
     1
  0
LTYPE
  5
14
330
5
100
AcDbSymbolTableRecord
100
AcDbLinetypeTableRecord
  2
BYBLOCK
 70
     0
  3

 72
    65
 73
     0
 40
0.0
  0
LTYPE
  5
15
330
5
100
AcDbSymbolTableRecord
100
AcDbLinetypeTableRecord
  2
BYLAYER
 70
     0
  3

 72
    65
 73
     0
 40
0.0
  0
LTYPE
  5
16
330
5
100
AcDbSymbolTableRecord
100
AcDbLinetypeTableRecord
  2
CONTINUOUS
 70
     0
  3
Solid line
 72
    65
 73
     0
 40
0.0
  0
ENDTAB
  0
TABLE
  2
LAYER
  5
2
100
AcDbSymbolTable
 70
3
  0
LAYER
  5
50
100
AcDbSymbolTableRecord
100
AcDbLayerTableRecord
  2
0
 70
0
  6
CONTINUOUS
  0
LAYER
  5
51
100
AcDbSymbolTableRecord
100
AcDbLayerTableRecord
  2
Layer_1
 70
0
  6
CONTINUOUS
  0
LAYER
  5
52
100
AcDbSymbolTableRecord
100
AcDbLayerTableRecord
  2
newlayer
 70
0
  6
CONTINUOUS
  0
ENDTAB
  0
TABLE
  2
STYLE
  5
3
330
0
100
AcDbSymbolTable
 70
     1
  0
STYLE
  5
11
330
3
100
AcDbSymbolTableRecord
100
AcDbTextStyleTableRecord
  2
STANDARD
 70
     0
 40
0.0
 41
1.0
 50
0.0
 71
     0
 42
2.5
  3
txt
  4

  0
ENDTAB
  0
TABLE
  2
VIEW
  5
6
330
0
100
AcDbSymbolTable
 70
     0
  0
ENDTAB
  0
TABLE
  2
UCS
  5
7
330
0
100
AcDbSymbolTable
 70
     0
  0
ENDTAB
  0
TABLE
  2
APPID
  5
9
330
0
100
AcDbSymbolTable
 70
     2
  0
APPID
  5
12
330
9
100
AcDbSymbolTableRecord
100
AcDbRegAppTableRecord
  2
ACAD
 70
     0
  0
ENDTAB
  0
TABLE
  2
DIMSTYLE
  5
A
330
0
100
AcDbSymbolTable
 70
     1
  0
DIMSTYLE
105
27
330
A
100
AcDbSymbolTableRecord
100
AcDbDimStyleTableRecord
  2
ISO-25
 70
     0
  3

  4

  5

  6

  7

 40
1.0
 41
2.5
 42
0.625
 43
3.75
 44
1.25
 45
0.0
 46
0.0
 47
0.0
 48
0.0
140
2.5
141
2.5
142
0.0
143
0.03937007874016
144
1.0
145
0.0
146
1.0
147
0.625
 71
     0
 72
     0
 73
     0
 74
     0
 75
     0
 76
     0
 77
     1
 78
     8
170
     0
171
     3
172
     1
173
     0
174
     0
175
     0
176
     0
177
     0
178
     0
270
     2
271
     2
272
     2
273
     2
274
     3
340
11
275
     0
280
     0
281
     0
282
     0
283
     0
284
     8
285
     0
286
     0
287
     3
288
     0
  0
ENDTAB
  0
TABLE
  2
BLOCK_RECORD
  5
1
330
0
100
AcDbSymbolTable
 70
     1
  0
BLOCK_RECORD
  5
1F
330
1
100
AcDbSymbolTableRecord
100
AcDbBlockTableRecord
  2
*MODEL_SPACE
  0
BLOCK_RECORD
  5
1B
330
1
100
AcDbSymbolTableRecord
100
AcDbBlockTableRecord
  2
*PAPER_SPACE
  0
ENDTAB
  0
ENDSEC
  0
SECTION
  2
BLOCKS
  0
BLOCK
  5
20
330
1F
100
AcDbEntity
  8
0
100
AcDbBlockBegin
  2
*MODEL_SPACE
 70
     0
 10
0.0
 20
0.0
 30
0.0
  3
*MODEL_SPACE
  1

  0
ENDBLK
  5
21
330
1F
100
AcDbEntity
  8
0
100
AcDbBlockEnd
  0
BLOCK
  5
1C
330
1B
100
AcDbEntity
 67
     1
  8
0
100
AcDbBlockBegin
  2
*PAPER_SPACE
  1

  0
ENDBLK
  5
1D
330
1B
100
AcDbEntity
 67
     1
  8
0
100
AcDbBlockEnd
  0
ENDSEC
  0
SECTION
  2
ENTITIES
  0
LWPOLYLINE
  5
100
100
AcDbEntity
  8
newlayer
 62
7
100
AcDbPolyline
 90
125
 70
0
 10
305.000000
 20
-68.000000
 30
0.0
 10
323.000000
 20
-68.000000
 30
0.0
 10
323.000000
 20
-65.000000
 30
0.0
 10
338.000000
 20
-65.000000
 30
0.0
 10
338.000000
 20
-68.000000
 30
0.0
 10
356.000000
 20
-68.000000
 30
0.0
 10
356.000000
 20
-65.000000
 30
0.0
 10
371.000000
 20
-65.000000
 30
0.0
 10
371.000000
 20
-68.000000
 30
0.0
 10
389.000000
 20
-68.000000
 30
0.0
 10
389.000000
 20
-65.000000
 30
0.0
 10
404.000000
 20
-65.000000
 30
0.0
 10
404.000000
 20
-68.000000
 30
0.0
 10
422.000000
 20
-68.000000
 30
0.0
 10
422.000000
 20
-65.000000
 30
0.0
 10
437.000000
 20
-65.000000
 30
0.0
 10
437.000000
 20
-68.000000
 30
0.0
 10
455.000000
 20
-68.000000
 30
0.0
 10
455.000000
 20
-65.000000
 30
0.0
 10
470.000000
 20
-65.000000
 30
0.0
 10
470.000000
 20
-68.000000
 30
0.0
 10
488.000000
 20
-68.000000
 30
0.0
 10
488.000000
 20
-65.000000
 30
0.0
 10
503.000000
 20
-65.000000
 30
0.0
 10
503.000000
 20
-68.000000
 30
0.0
 10
521.000000
 20
-68.000000
 30
0.0
 10
521.000000
 20
-81.800000
 30
0.0
 10
518.000000
 20
-81.800000
 30
0.0
 10
518.000000
 20
-96.800000
 30
0.0
 10
521.000000
 20
-96.800000
 30
0.0
 10
521.000000
 20
-113.600000
 30
0.0
 10
518.000000
 20
-113.600000
 30
0.0
 10
518.000000
 20
-128.600000
 30
0.0
 10
521.000000
 20
-128.600000
 30
0.0
 10
521.000000
 20
-145.400000
 30
0.0
 10
518.000000
 20
-145.400000
 30
0.0
 10
518.000000
 20
-160.400000
 30
0.0
 10
521.000000
 20
-160.400000
 30
0.0
 10
521.000000
 20
-177.200000
 30
0.0
 10
518.000000
 20
-177.200000
 30
0.0
 10
518.000000
 20
-192.200000
 30
0.0
 10
521.000000
 20
-192.200000
 30
0.0
 10
521.000000
 20
-209.000000
 30
0.0
 10
518.000000
 20
-209.000000
 30
0.0
 10
518.000000
 20
-224.000000
 30
0.0
 10
521.000000
 20
-224.000000
 30
0.0
 10
521.000000
 20
-240.800000
 30
0.0
 10
518.000000
 20
-240.800000
 30
0.0
 10
518.000000
 20
-255.800000
 30
0.0
 10
521.000000
 20
-255.800000
 30
0.0
 10
521.000000
 20
-272.600000
 30
0.0
 10
518.000000
 20
-272.600000
 30
0.0
 10
518.000000
 20
-287.600000
 30
0.0
 10
521.000000
 20
-287.600000
 30
0.0
 10
521.000000
 20
-304.400000
 30
0.0
 10
518.000000
 20
-304.400000
 30
0.0
 10
518.000000
 20
-319.400000
 30
0.0
 10
521.000000
 20
-319.400000
 30
0.0
 10
521.000000
 20
-336.200000
 30
0.0
 10
518.000000
 20
-336.200000
 30
0.0
 10
518.000000
 20
-351.200000
 30
0.0
 10
521.000000
 20
-351.200000
 30
0.0
 10
521.000000
 20
-365.000000
 30
0.0
 10
503.000000
 20
-365.000000
 30
0.0
 10
503.000000
 20
-368.000000
 30
0.0
 10
488.000000
 20
-368.000000
 30
0.0
 10
488.000000
 20
-365.000000
 30
0.0
 10
470.000000
 20
-365.000000
 30
0.0
 10
470.000000
 20
-368.000000
 30
0.0
 10
455.000000
 20
-368.000000
 30
0.0
 10
455.000000
 20
-365.000000
 30
0.0
 10
437.000000
 20
-365.000000
 30
0.0
 10
437.000000
 20
-368.000000
 30
0.0
 10
422.000000
 20
-368.000000
 30
0.0
 10
422.000000
 20
-365.000000
 30
0.0
 10
404.000000
 20
-365.000000
 30
0.0
 10
404.000000
 20
-368.000000
 30
0.0
 10
389.000000
 20
-368.000000
 30
0.0
 10
389.000000
 20
-365.000000
 30
0.0
 10
371.000000
 20
-365.000000
 30
0.0
 10
371.000000
 20
-368.000000
 30
0.0
 10
356.000000
 20
-368.000000
 30
0.0
 10
356.000000
 20
-365.000000
 30
0.0
 10
338.000000
 20
-365.000000
 30
0.0
 10
338.000000
 20
-368.000000
 30
0.0
 10
323.000000
 20
-368.000000
 30
0.0
 10
323.000000
 20
-365.000000
 30
0.0
 10
305.000000
 20
-365.000000
 30
0.0
 10
305.000000
 20
-351.200000
 30
0.0
 10
308.000000
 20
-351.200000
 30
0.0
 10
308.000000
 20
-336.200000
 30
0.0
 10
305.000000
 20
-336.200000
 30
0.0
 10
305.000000
 20
-319.400000
 30
0.0
 10
308.000000
 20
-319.400000
 30
0.0
 10
308.000000
 20
-304.400000
 30
0.0
 10
305.000000
 20
-304.400000
 30
0.0
 10
305.000000
 20
-287.600000
 30
0.0
 10
308.000000
 20
-287.600000
 30
0.0
 10
308.000000
 20
-272.600000
 30
0.0
 10
305.000000
 20
-272.600000
 30
0.0
 10
305.000000
 20
-255.800000
 30
0.0
 10
308.000000
 20
-255.800000
 30
0.0
 10
308.000000
 20
-240.800000
 30
0.0
 10
305.000000
 20
-240.800000
 30
0.0
 10
305.000000
 20
-224.000000
 30
0.0
 10
308.000000
 20
-224.000000
 30
0.0
 10
308.000000
 20
-209.000000
 30
0.0
 10
305.000000
 20
-209.000000
 30
0.0
 10
305.000000
 20
-192.200000
 30
0.0
 10
308.000000
 20
-192.200000
 30
0.0
 10
308.000000
 20
-177.200000
 30
0.0
 10
305.000000
 20
-177.200000
 30
0.0
 10
305.000000
 20
-160.400000
 30
0.0
 10
308.000000
 20
-160.400000
 30
0.0
 10
308.000000
 20
-145.400000
 30
0.0
 10
305.000000
 20
-145.400000
 30
0.0
 10
305.000000
 20
-128.600000
 30
0.0
 10
308.000000
 20
-128.600000
 30
0.0
 10
308.000000
 20
-113.600000
 30
0.0
 10
305.000000
 20
-113.600000
 30
0.0
 10
305.000000
 20
-96.800000
 30
0.0
 10
308.000000
 20
-96.800000
 30
0.0
 10
308.000000
 20
-81.800000
 30
0.0
 10
305.000000
 20
-81.800000
 30
0.0
 10
305.000000
 20
-68.000000
 30
0.0
  0
LWPOLYLINE
  5
101
100
AcDbEntity
  8
newlayer
 62
7
100
AcDbPolyline
 90
85
 70
0
 10
4.000000
 20
-11.000000
 30
0.0
 10
17.800000
 20
-11.000000
 30
0.0
 10
17.800000
 20
-8.000000
 30
0.0
 10
32.800000
 20
-8.000000
 30
0.0
 10
32.800000
 20
-11.000000
 30
0.0
 10
49.600000
 20
-11.000000
 30
0.0
 10
49.600000
 20
-8.000000
 30
0.0
 10
64.600000
 20
-8.000000
 30
0.0
 10
64.600000
 20
-11.000000
 30
0.0
 10
81.400000
 20
-11.000000
 30
0.0
 10
81.400000
 20
-8.000000
 30
0.0
 10
96.400000
 20
-8.000000
 30
0.0
 10
96.400000
 20
-11.000000
 30
0.0
 10
113.200000
 20
-11.000000
 30
0.0
 10
113.200000
 20
-8.000000
 30
0.0
 10
128.200000
 20
-8.000000
 30
0.0
 10
128.200000
 20
-11.000000
 30
0.0
 10
145.000000
 20
-11.000000
 30
0.0
 10
145.000000
 20
-8.000000
 30
0.0
 10
160.000000
 20
-8.000000
 30
0.0
 10
160.000000
 20
-11.000000
 30
0.0
 10
176.800000
 20
-11.000000
 30
0.0
 10
176.800000
 20
-8.000000
 30
0.0
 10
191.800000
 20
-8.000000
 30
0.0
 10
191.800000
 20
-11.000000
 30
0.0
 10
208.600000
 20
-11.000000
 30
0.0
 10
208.600000
 20
-8.000000
 30
0.0
 10
223.600000
 20
-8.000000
 30
0.0
 10
223.600000
 20
-11.000000
 30
0.0
 10
240.400000
 20
-11.000000
 30
0.0
 10
240.400000
 20
-8.000000
 30
0.0
 10
255.400000
 20
-8.000000
 30
0.0
 10
255.400000
 20
-11.000000
 30
0.0
 10
272.200000
 20
-11.000000
 30
0.0
 10
272.200000
 20
-8.000000
 30
0.0
 10
287.200000
 20
-8.000000
 30
0.0
 10
287.200000
 20
-11.000000
 30
0.0
 10
301.000000
 20
-11.000000
 30
0.0
 10
301.000000
 20
-28.500000
 30
0.0
 10
304.000000
 20
-28.500000
 30
0.0
 10
304.000000
 20
-43.500000
 30
0.0
 10
301.000000
 20
-43.500000
 30
0.0
 10
301.000000
 20
-61.000000
 30
0.0
 10
287.200000
 20
-61.000000
 30
0.0
 10
287.200000
 20
-64.000000
 30
0.0
 10
272.200000
 20
-64.000000
 30
0.0
 10
272.200000
 20
-61.000000
 30
0.0
 10
255.400000
 20
-61.000000
 30
0.0
 10
255.400000
 20
-64.000000
 30
0.0
 10
240.400000
 20
-64.000000
 30
0.0
 10
240.400000
 20
-61.000000
 30
0.0
 10
223.600000
 20
-61.000000
 30
0.0
 10
223.600000
 20
-64.000000
 30
0.0
 10
208.600000
 20
-64.000000
 30
0.0
 10
208.600000
 20
-61.000000
 30
0.0
 10
191.800000
 20
-61.000000
 30
0.0
 10
191.800000
 20
-64.000000
 30
0.0
 10
176.800000
 20
-64.000000
 30
0.0
 10
176.800000
 20
-61.000000
 30
0.0
 10
160.000000
 20
-61.000000
 30
0.0
 10
160.000000
 20
-64.000000
 30
0.0
 10
145.000000
 20
-64.000000
 30
0.0
 10
145.000000
 20
-61.000000
 30
0.0
 10
128.200000
 20
-61.000000
 30
0.0
 10
128.200000
 20
-64.000000
 30
0.0
 10
113.200000
 20
-64.000000
 30
0.0
 10
113.200000
 20
-61.000000
 30
0.0
 10
96.400000
 20
-61.000000
 30
0.0
 10
96.400000
 20
-64.000000
 30
0.0
 10
81.400000
 20
-64.000000
 30
0.0
 10
81.400000
 20
-61.000000
 30
0.0
 10
64.600000
 20
-61.000000
 30
0.0
 10
64.600000
 20
-64.000000
 30
0.0
 10
49.600000
 20
-64.000000
 30
0.0
 10
49.600000
 20
-61.000000
 30
0.0
 10
32.800000
 20
-61.000000
 30
0.0
 10
32.800000
 20
-64.000000
 30
0.0
 10
17.800000
 20
-64.000000
 30
0.0
 10
17.800000
 20
-61.000000
 30
0.0
 10
4.000000
 20
-61.000000
 30
0.0
 10
4.000000
 20
-43.500000
 30
0.0
 10
1.000000
 20
-43.500000
 30
0.0
 10
1.000000
 20
-28.500000
 30
0.0
 10
4.000000
 20
-28.500000
 30
0.0
 10
4.000000
 20
-11.000000
 30
0.0
  0
LWPOLYLINE
  5
102
100
AcDbEntity
  8
newlayer
 62
7
100
AcDbPolyline
 90
61
 70
0
 10
305.000000
 20
-8.000000
 30
0.0
 10
323.000000
 20
-8.000000
 30
0.0
 10
323.000000
 20
-11.000000
 30
0.0
 10
338.000000
 20
-11.000000
 30
0.0
 10
338.000000
 20
-8.000000
 30
0.0
 10
356.000000
 20
-8.000000
 30
0.0
 10
356.000000
 20
-11.000000
 30
0.0
 10
371.000000
 20
-11.000000
 30
0.0
 10
371.000000
 20
-8.000000
 30
0.0
 10
389.000000
 20
-8.000000
 30
0.0
 10
389.000000
 20
-11.000000
 30
0.0
 10
404.000000
 20
-11.000000
 30
0.0
 10
404.000000
 20
-8.000000
 30
0.0
 10
422.000000
 20
-8.000000
 30
0.0
 10
422.000000
 20
-11.000000
 30
0.0
 10
437.000000
 20
-11.000000
 30
0.0
 10
437.000000
 20
-8.000000
 30
0.0
 10
455.000000
 20
-8.000000
 30
0.0
 10
455.000000
 20
-11.000000
 30
0.0
 10
470.000000
 20
-11.000000
 30
0.0
 10
470.000000
 20
-8.000000
 30
0.0
 10
488.000000
 20
-8.000000
 30
0.0
 10
488.000000
 20
-11.000000
 30
0.0
 10
503.000000
 20
-11.000000
 30
0.0
 10
503.000000
 20
-8.000000
 30
0.0
 10
521.000000
 20
-8.000000
 30
0.0
 10
521.000000
 20
-28.500000
 30
0.0
 10
518.000000
 20
-28.500000
 30
0.0
 10
518.000000
 20
-43.500000
 30
0.0
 10
521.000000
 20
-43.500000
 30
0.0
 10
521.000000
 20
-64.000000
 30
0.0
 10
503.000000
 20
-64.000000
 30
0.0
 10
503.000000
 20
-61.000000
 30
0.0
 10
488.000000
 20
-61.000000
 30
0.0
 10
488.000000
 20
-64.000000
 30
0.0
 10
470.000000
 20
-64.000000
 30
0.0
 10
470.000000
 20
-61.000000
 30
0.0
 10
455.000000
 20
-61.000000
 30
0.0
 10
455.000000
 20
-64.000000
 30
0.0
 10
437.000000
 20
-64.000000
 30
0.0
 10
437.000000
 20
-61.000000
 30
0.0
 10
422.000000
 20
-61.000000
 30
0.0
 10
422.000000
 20
-64.000000
 30
0.0
 10
404.000000
 20
-64.000000
 30
0.0
 10
404.000000
 20
-61.000000
 30
0.0
 10
389.000000
 20
-61.000000
 30
0.0
 10
389.000000
 20
-64.000000
 30
0.0
 10
371.000000
 20
-64.000000
 30
0.0
 10
371.000000
 20
-61.000000
 30
0.0
 10
356.000000
 20
-61.000000
 30
0.0
 10
356.000000
 20
-64.000000
 30
0.0
 10
338.000000
 20
-64.000000
 30
0.0
 10
338.000000
 20
-61.000000
 30
0.0
 10
323.000000
 20
-61.000000
 30
0.0
 10
323.000000
 20
-64.000000
 30
0.0
 10
305.000000
 20
-64.000000
 30
0.0
 10
305.000000
 20
-43.500000
 30
0.0
 10
308.000000
 20
-43.500000
 30
0.0
 10
308.000000
 20
-28.500000
 30
0.0
 10
305.000000
 20
-28.500000
 30
0.0
 10
305.000000
 20
-8.000000
 30
0.0
  0
LWPOLYLINE
  5
103
100
AcDbEntity
  8
newlayer
 62
7
100
AcDbPolyline
 90
85
 70
0
 10
525.000000
 20
-11.000000
 30
0.0
 10
538.800000
 20
-11.000000
 30
0.0
 10
538.800000
 20
-8.000000
 30
0.0
 10
553.800000
 20
-8.000000
 30
0.0
 10
553.800000
 20
-11.000000
 30
0.0
 10
570.600000
 20
-11.000000
 30
0.0
 10
570.600000
 20
-8.000000
 30
0.0
 10
585.600000
 20
-8.000000
 30
0.0
 10
585.600000
 20
-11.000000
 30
0.0
 10
602.400000
 20
-11.000000
 30
0.0
 10
602.400000
 20
-8.000000
 30
0.0
 10
617.400000
 20
-8.000000
 30
0.0
 10
617.400000
 20
-11.000000
 30
0.0
 10
634.200000
 20
-11.000000
 30
0.0
 10
634.200000
 20
-8.000000
 30
0.0
 10
649.200000
 20
-8.000000
 30
0.0
 10
649.200000
 20
-11.000000
 30
0.0
 10
666.000000
 20
-11.000000
 30
0.0
 10
666.000000
 20
-8.000000
 30
0.0
 10
681.000000
 20
-8.000000
 30
0.0
 10
681.000000
 20
-11.000000
 30
0.0
 10
697.800000
 20
-11.000000
 30
0.0
 10
697.800000
 20
-8.000000
 30
0.0
 10
712.800000
 20
-8.000000
 30
0.0
 10
712.800000
 20
-11.000000
 30
0.0
 10
729.600000
 20
-11.000000
 30
0.0
 10
729.600000
 20
-8.000000
 30
0.0
 10
744.600000
 20
-8.000000
 30
0.0
 10
744.600000
 20
-11.000000
 30
0.0
 10
761.400000
 20
-11.000000
 30
0.0
 10
761.400000
 20
-8.000000
 30
0.0
 10
776.400000
 20
-8.000000
 30
0.0
 10
776.400000
 20
-11.000000
 30
0.0
 10
793.200000
 20
-11.000000
 30
0.0
 10
793.200000
 20
-8.000000
 30
0.0
 10
808.200000
 20
-8.000000
 30
0.0
 10
808.200000
 20
-11.000000
 30
0.0
 10
822.000000
 20
-11.000000
 30
0.0
 10
822.000000
 20
-28.500000
 30
0.0
 10
825.000000
 20
-28.500000
 30
0.0
 10
825.000000
 20
-43.500000
 30
0.0
 10
822.000000
 20
-43.500000
 30
0.0
 10
822.000000
 20
-61.000000
 30
0.0
 10
808.200000
 20
-61.000000
 30
0.0
 10
808.200000
 20
-64.000000
 30
0.0
 10
793.200000
 20
-64.000000
 30
0.0
 10
793.200000
 20
-61.000000
 30
0.0
 10
776.400000
 20
-61.000000
 30
0.0
 10
776.400000
 20
-64.000000
 30
0.0
 10
761.400000
 20
-64.000000
 30
0.0
 10
761.400000
 20
-61.000000
 30
0.0
 10
744.600000
 20
-61.000000
 30
0.0
 10
744.600000
 20
-64.000000
 30
0.0
 10
729.600000
 20
-64.000000
 30
0.0
 10
729.600000
 20
-61.000000
 30
0.0
 10
712.800000
 20
-61.000000
 30
0.0
 10
712.800000
 20
-64.000000
 30
0.0
 10
697.800000
 20
-64.000000
 30
0.0
 10
697.800000
 20
-61.000000
 30
0.0
 10
681.000000
 20
-61.000000
 30
0.0
 10
681.000000
 20
-64.000000
 30
0.0
 10
666.000000
 20
-64.000000
 30
0.0
 10
666.000000
 20
-61.000000
 30
0.0
 10
649.200000
 20
-61.000000
 30
0.0
 10
649.200000
 20
-64.000000
 30
0.0
 10
634.200000
 20
-64.000000
 30
0.0
 10
634.200000
 20
-61.000000
 30
0.0
 10
617.400000
 20
-61.000000
 30
0.0
 10
617.400000
 20
-64.000000
 30
0.0
 10
602.400000
 20
-64.000000
 30
0.0
 10
602.400000
 20
-61.000000
 30
0.0
 10
585.600000
 20
-61.000000
 30
0.0
 10
585.600000
 20
-64.000000
 30
0.0
 10
570.600000
 20
-64.000000
 30
0.0
 10
570.600000
 20
-61.000000
 30
0.0
 10
553.800000
 20
-61.000000
 30
0.0
 10
553.800000
 20
-64.000000
 30
0.0
 10
538.800000
 20
-64.000000
 30
0.0
 10
538.800000
 20
-61.000000
 30
0.0
 10
525.000000
 20
-61.000000
 30
0.0
 10
525.000000
 20
-43.500000
 30
0.0
 10
522.000000
 20
-43.500000
 30
0.0
 10
522.000000
 20
-28.500000
 30
0.0
 10
525.000000
 20
-28.500000
 30
0.0
 10
525.000000
 20
-11.000000
 30
0.0
  0
LWPOLYLINE
  5
104
100
AcDbEntity
  8
newlayer
 62
7
100
AcDbPolyline
 90
61
 70
0
 10
826.000000
 20
-8.000000
 30
0.0
 10
844.000000
 20
-8.000000
 30
0.0
 10
844.000000
 20
-11.000000
 30
0.0
 10
859.000000
 20
-11.000000
 30
0.0
 10
859.000000
 20
-8.000000
 30
0.0
 10
877.000000
 20
-8.000000
 30
0.0
 10
877.000000
 20
-11.000000
 30
0.0
 10
892.000000
 20
-11.000000
 30
0.0
 10
892.000000
 20
-8.000000
 30
0.0
 10
910.000000
 20
-8.000000
 30
0.0
 10
910.000000
 20
-11.000000
 30
0.0
 10
925.000000
 20
-11.000000
 30
0.0
 10
925.000000
 20
-8.000000
 30
0.0
 10
943.000000
 20
-8.000000
 30
0.0
 10
943.000000
 20
-11.000000
 30
0.0
 10
958.000000
 20
-11.000000
 30
0.0
 10
958.000000
 20
-8.000000
 30
0.0
 10
976.000000
 20
-8.000000
 30
0.0
 10
976.000000
 20
-11.000000
 30
0.0
 10
991.000000
 20
-11.000000
 30
0.0
 10
991.000000
 20
-8.000000
 30
0.0
 10
1009.000000
 20
-8.000000
 30
0.0
 10
1009.000000
 20
-11.000000
 30
0.0
 10
1024.000000
 20
-11.000000
 30
0.0
 10
1024.000000
 20
-8.000000
 30
0.0
 10
1042.000000
 20
-8.000000
 30
0.0
 10
1042.000000
 20
-28.500000
 30
0.0
 10
1039.000000
 20
-28.500000
 30
0.0
 10
1039.000000
 20
-43.500000
 30
0.0
 10
1042.000000
 20
-43.500000
 30
0.0
 10
1042.000000
 20
-64.000000
 30
0.0
 10
1024.000000
 20
-64.000000
 30
0.0
 10
1024.000000
 20
-61.000000
 30
0.0
 10
1009.000000
 20
-61.000000
 30
0.0
 10
1009.000000
 20
-64.000000
 30
0.0
 10
991.000000
 20
-64.000000
 30
0.0
 10
991.000000
 20
-61.000000
 30
0.0
 10
976.000000
 20
-61.000000
 30
0.0
 10
976.000000
 20
-64.000000
 30
0.0
 10
958.000000
 20
-64.000000
 30
0.0
 10
958.000000
 20
-61.000000
 30
0.0
 10
943.000000
 20
-61.000000
 30
0.0
 10
943.000000
 20
-64.000000
 30
0.0
 10
925.000000
 20
-64.000000
 30
0.0
 10
925.000000
 20
-61.000000
 30
0.0
 10
910.000000
 20
-61.000000
 30
0.0
 10
910.000000
 20
-64.000000
 30
0.0
 10
892.000000
 20
-64.000000
 30
0.0
 10
892.000000
 20
-61.000000
 30
0.0
 10
877.000000
 20
-61.000000
 30
0.0
 10
877.000000
 20
-64.000000
 30
0.0
 10
859.000000
 20
-64.000000
 30
0.0
 10
859.000000
 20
-61.000000
 30
0.0
 10
844.000000
 20
-61.000000
 30
0.0
 10
844.000000
 20
-64.000000
 30
0.0
 10
826.000000
 20
-64.000000
 30
0.0
 10
826.000000
 20
-43.500000
 30
0.0
 10
829.000000
 20
-43.500000
 30
0.0
 10
829.000000
 20
-28.500000
 30
0.0
 10
826.000000
 20
-28.500000
 30
0.0
 10
826.000000
 20
-8.000000
 30
0.0
  0
LWPOLYLINE
  5
105
100
AcDbEntity
  8
newlayer
 62
7
100
AcDbPolyline
 90
125
 70
0
 10
305.000000
 20
293.000000
 30
0.0
 10
323.000000
 20
293.000000
 30
0.0
 10
323.000000
 20
296.000000
 30
0.0
 10
338.000000
 20
296.000000
 30
0.0
 10
338.000000
 20
293.000000
 30
0.0
 10
356.000000
 20
293.000000
 30
0.0
 10
356.000000
 20
296.000000
 30
0.0
 10
371.000000
 20
296.000000
 30
0.0
 10
371.000000
 20
293.000000
 30
0.0
 10
389.000000
 20
293.000000
 30
0.0
 10
389.000000
 20
296.000000
 30
0.0
 10
404.000000
 20
296.000000
 30
0.0
 10
404.000000
 20
293.000000
 30
0.0
 10
422.000000
 20
293.000000
 30
0.0
 10
422.000000
 20
296.000000
 30
0.0
 10
437.000000
 20
296.000000
 30
0.0
 10
437.000000
 20
293.000000
 30
0.0
 10
455.000000
 20
293.000000
 30
0.0
 10
455.000000
 20
296.000000
 30
0.0
 10
470.000000
 20
296.000000
 30
0.0
 10
470.000000
 20
293.000000
 30
0.0
 10
488.000000
 20
293.000000
 30
0.0
 10
488.000000
 20
296.000000
 30
0.0
 10
503.000000
 20
296.000000
 30
0.0
 10
503.000000
 20
293.000000
 30
0.0
 10
521.000000
 20
293.000000
 30
0.0
 10
521.000000
 20
279.200000
 30
0.0
 10
518.000000
 20
279.200000
 30
0.0
 10
518.000000
 20
264.200000
 30
0.0
 10
521.000000
 20
264.200000
 30
0.0
 10
521.000000
 20
247.400000
 30
0.0
 10
518.000000
 20
247.400000
 30
0.0
 10
518.000000
 20
232.400000
 30
0.0
 10
521.000000
 20
232.400000
 30
0.0
 10
521.000000
 20
215.600000
 30
0.0
 10
518.000000
 20
215.600000
 30
0.0
 10
518.000000
 20
200.600000
 30
0.0
 10
521.000000
 20
200.600000
 30
0.0
 10
521.000000
 20
183.800000
 30
0.0
 10
518.000000
 20
183.800000
 30
0.0
 10
518.000000
 20
168.800000
 30
0.0
 10
521.000000
 20
168.800000
 30
0.0
 10
521.000000
 20
152.000000
 30
0.0
 10
518.000000
 20
152.000000
 30
0.0
 10
518.000000
 20
137.000000
 30
0.0
 10
521.000000
 20
137.000000
 30
0.0
 10
521.000000
 20
120.200000
 30
0.0
 10
518.000000
 20
120.200000
 30
0.0
 10
518.000000
 20
105.200000
 30
0.0
 10
521.000000
 20
105.200000
 30
0.0
 10
521.000000
 20
88.400000
 30
0.0
 10
518.000000
 20
88.400000
 30
0.0
 10
518.000000
 20
73.400000
 30
0.0
 10
521.000000
 20
73.400000
 30
0.0
 10
521.000000
 20
56.600000
 30
0.0
 10
518.000000
 20
56.600000
 30
0.0
 10
518.000000
 20
41.600000
 30
0.0
 10
521.000000
 20
41.600000
 30
0.0
 10
521.000000
 20
24.800000
 30
0.0
 10
518.000000
 20
24.800000
 30
0.0
 10
518.000000
 20
9.800000
 30
0.0
 10
521.000000
 20
9.800000
 30
0.0
 10
521.000000
 20
-4.000000
 30
0.0
 10
503.000000
 20
-4.000000
 30
0.0
 10
503.000000
 20
-7.000000
 30
0.0
 10
488.000000
 20
-7.000000
 30
0.0
 10
488.000000
 20
-4.000000
 30
0.0
 10
470.000000
 20
-4.000000
 30
0.0
 10
470.000000
 20
-7.000000
 30
0.0
 10
455.000000
 20
-7.000000
 30
0.0
 10
455.000000
 20
-4.000000
 30
0.0
 10
437.000000
 20
-4.000000
 30
0.0
 10
437.000000
 20
-7.000000
 30
0.0
 10
422.000000
 20
-7.000000
 30
0.0
 10
422.000000
 20
-4.000000
 30
0.0
 10
404.000000
 20
-4.000000
 30
0.0
 10
404.000000
 20
-7.000000
 30
0.0
 10
389.000000
 20
-7.000000
 30
0.0
 10
389.000000
 20
-4.000000
 30
0.0
 10
371.000000
 20
-4.000000
 30
0.0
 10
371.000000
 20
-7.000000
 30
0.0
 10
356.000000
 20
-7.000000
 30
0.0
 10
356.000000
 20
-4.000000
 30
0.0
 10
338.000000
 20
-4.000000
 30
0.0
 10
338.000000
 20
-7.000000
 30
0.0
 10
323.000000
 20
-7.000000
 30
0.0
 10
323.000000
 20
-4.000000
 30
0.0
 10
305.000000
 20
-4.000000
 30
0.0
 10
305.000000
 20
9.800000
 30
0.0
 10
308.000000
 20
9.800000
 30
0.0
 10
308.000000
 20
24.800000
 30
0.0
 10
305.000000
 20
24.800000
 30
0.0
 10
305.000000
 20
41.600000
 30
0.0
 10
308.000000
 20
41.600000
 30
0.0
 10
308.000000
 20
56.600000
 30
0.0
 10
305.000000
 20
56.600000
 30
0.0
 10
305.000000
 20
73.400000
 30
0.0
 10
308.000000
 20
73.400000
 30
0.0
 10
308.000000
 20
88.400000
 30
0.0
 10
305.000000
 20
88.400000
 30
0.0
 10
305.000000
 20
105.200000
 30
0.0
 10
308.000000
 20
105.200000
 30
0.0
 10
308.000000
 20
120.200000
 30
0.0
 10
305.000000
 20
120.200000
 30
0.0
 10
305.000000
 20
137.000000
 30
0.0
 10
308.000000
 20
137.000000
 30
0.0
 10
308.000000
 20
152.000000
 30
0.0
 10
305.000000
 20
152.000000
 30
0.0
 10
305.000000
 20
168.800000
 30
0.0
 10
308.000000
 20
168.800000
 30
0.0
 10
308.000000
 20
183.800000
 30
0.0
 10
305.000000
 20
183.800000
 30
0.0
 10
305.000000
 20
200.600000
 30
0.0
 10
308.000000
 20
200.600000
 30
0.0
 10
308.000000
 20
215.600000
 30
0.0
 10
305.000000
 20
215.600000
 30
0.0
 10
305.000000
 20
232.400000
 30
0.0
 10
308.000000
 20
232.400000
 30
0.0
 10
308.000000
 20
247.400000
 30
0.0
 10
305.000000
 20
247.400000
 30
0.0
 10
305.000000
 20
264.200000
 30
0.0
 10
308.000000
 20
264.200000
 30
0.0
 10
308.000000
 20
279.200000
 30
0.0
 10
305.000000
 20
279.200000
 30
0.0
 10
305.000000
 20
293.000000
 30
0.0
  0
ENDSEC
  0
SECTION
  2
OBJECTS
  0
DICTIONARY
  5
C
330
0
100
AcDbDictionary
  3
ACAD_GROUP
350
D
  3
ACAD_MLINESTYLE
350
17
  0
DICTIONARY
  5
D
330
C
100
AcDbDictionary
  0
DICTIONARY
  5
1A
330
C
100
AcDbDictionary
  0
DICTIONARY
  5
17
330
C
100
AcDbDictionary
  3
STANDARD
350
18
  0
DICTIONARY
  5
19
330
C
100
AcDbDictionary
  0
ENDSEC
  0
EOF
